<svg viewBox="0 0 104.2 261.87" xmlns="http://www.w3.org/2000/svg"><path d="m72.35 44.11a133.13 133.13 0 0 1 -36.11 0c-2.77-.48-4.66-2.09-4.66-4.66v-1.45a4.66 4.66 0 0 1 4.66-4.66 199.79 199.79 0 0 0 36.11 0 4.66 4.66 0 0 1 4.65 4.66v1.43c0 2.57-2 4.2-4.65 4.68z" fill="#9daefe" transform="translate(-.77 -.68)"/><path d="m77 7.1v21.46c0 1.93-3 3.64-7.71 4.81a64.79 64.79 0 0 1 -15 1.61 64.69 64.69 0 0 1 -15-1.61c-4.72-1.17-7.69-2.9-7.69-4.81v-21.46c0-2 3.14-3.74 8.07-4.9a64.82 64.82 0 0 1 14.62-1.52 64.72 64.72 0 0 1 14.63 1.52c4.95 1.16 8.08 2.93 8.08 4.9z" fill="#e9596b" transform="translate(-.77 -.68)"/><ellipse cx="53.53" cy="7.03" fill="#ff848c" rx="21.06" ry="5.45"/><g transform="translate(-.77 -.68)"><path d="m73.33 43.83c32.34 24.65 28.73 35.5 12 59.52-11.65 17.72-10.68 31.07 5.1 39.28 14.48 14.51 16.9 29.09 4.79 43.76-9.67 9.17-9.62 18.12 1.59 26.82 9.94 13.7 11 27.33 1.92 40.88q-9.09 15.25-18.19 0c-3.74-5.61-12.42-5.32-16 0-6.94 11.13-13.54 11.39-19.78 0a9.74 9.74 0 0 0 -16.28 0c-6.23 10.77-12.69 11.75-19.46 0-11.16-15.09-3.26-33.74 13.45-50.46 9.12-9.34 10.24-14.08-4.45-18.2-11.52-3.25-12.33-16.62-1.46-24.13 9.56-6.65 10.55-13.83-.15-19-10.13-4.53-15.41-10.3-15.64-21.39v-24.59c0-17.23 16.37-34.91 34.49-52.49a120.34 120.34 0 0 0 38.07 0z" fill="#9daefe"/><path d="m78.23 118.59c-2.66 14.9-12.9 17-13.74 19.06 5.38 4.57 15.85 5.61 26 5.08-8.81-5.3-15.02-10.92-12.26-24.14z" fill="#7891f2"/><path d="m92.32 189.49c-14.08 19.87-31.83 19.61-32.67 21.68 7.49 3 21-2.66 37.17 2-4.06-4.89-14.24-10.86-4.5-23.68z" fill="#7891f2"/><path d="m22.41 146.68a35.77 35.77 0 0 0 16 9.87c-2 2.82-14.07 5.22-20.2 3.53 5.11-3.98 7.72-9.34 4.2-13.4z" fill="#7891f2"/><path d="m25.53 188.3a116.72 116.72 0 0 0 15.31 5c-1.31 1.77-9.18 3.42-18.37 10.29 7.31-7.59 9-11.91 3.06-15.29z" fill="#7891f2"/><path d="m73.37 43.86a121.14 121.14 0 0 1 -38.15 0l-8.22 8.22c17.41 4.92 38.1 4.61 56.23-.08-3.23-2.88-6.47-5.57-9.86-8.14z" fill="#7891f2"/><path d="m8.25 252.94c7.12 13 15 12.71 21.39-.24-6.59 8.67-14.99 8.8-21.39.24z" fill="#7891f2"/><path d="m43.85 252.94c7.54 13.05 13.85 12.6 21.68 0-6.59 8.65-15.28 8.56-21.68 0z" fill="#7891f2"/><path d="m78.17 70.57c5-4.74 7.21-2.55 7.43 3.25.25 9.27-4.34 17.18-13.93 21.18-6.89 2.52-11.42-.4-9-5.26 2.74-5.02 9.05-12.74 15.5-19.17z" fill="#bac6fe"/><path d="m66 39.4c-9.8 1.11-14.28.82-24.08-.29-3.22-.52-6.11-1.74-6.11-2.5v-.21c.1-.92 1.3-1.07 3.79-.59a79.35 79.35 0 0 0 29.39 0c2.27-.51 3.79 0 3.79.74v.21c0 .33-2.39 2.07-6.78 2.64z" fill="#bac6fe"/><path d="m30.11 233.5c-6.87 2.59-9.71-3.37-2.15-11.62 8.53-8.73 15.94-9.43 26.68-.44 7.61 6.8 5.12 20.5-.61 19.9-3.67-1.07-4.79-4.2-7.54-7.48-3.35-3.78-5.96-5.48-16.38-.36z" fill="#bac6fe"/><path d="m41.58 167.06c-6.2 8.67-2.24 12 8.74 11.5 26.45-4.29 39.08-10.56 23.62-20.87q-16.18-13.78-32.36 9.37z" fill="#bac6fe"/></g></svg>