<svg viewBox="0 0 215.57 47.21" xmlns="http://www.w3.org/2000/svg"><path d="m47.42 23.59q-10.29-.45-20.61-1.31h.22a34 34 0 0 0 5.25-1.28 50.82 50.82 0 0 0 4.94-1.92c1.52-.67 2.94-1.34 4.29-2.05 2.68-1.43 4.91-3 6-4.51a6.58 6.58 0 0 0 1.37-5 4.13 4.13 0 0 0 -2.5-2.88 9.22 9.22 0 0 0 -4.62-.57 18.9 18.9 0 0 0 -5.76 1.59 18.94 18.94 0 0 0 -4.64 3.2 25.16 25.16 0 0 0 -3.69 4.39 56.71 56.71 0 0 1 -3.27 4.8 12.28 12.28 0 0 1 -5 3.59c-4.37-.41-14.07-2-18.44-2.5a25.55 25.55 0 0 0 2.93 4.08c4.56.44 14.47 2 19 2.33q3.18.24 6.36.45c.08.26.18.55.29.86a29.41 29.41 0 0 0 2.64 5.42 30.34 30.34 0 0 0 4.91 6.08 19 19 0 0 0 6 4.06c5 1.81 8.62 1.26 10.16-.26s1.27-4-1-6.67c-2.18-2.32-5.31-3.81-9.35-5.35-3-1.17-6.56-2.36-10.34-3.93q11.34.67 22.63.87c.3.35.64.76 1 1.23 1.19 1.47 2.69 3.47 4.09 5.62s2.74 4.44 4 6.47a23.34 23.34 0 0 0 3.7 5c3.38 3 6.77 4.39 9.55 4a4.39 4.39 0 0 0 3.23-1.94 6 6 0 0 0 .42-4.75 13.84 13.84 0 0 0 -3.39-5.22 30.42 30.42 0 0 0 -6.08-4.64 64.47 64.47 0 0 0 -13.35-5.77c5.33.06 10.66 0 16-.13a76.65 76.65 0 0 0 6.52 6.5 56 56 0 0 0 7.58 5.72 27.58 27.58 0 0 0 8.59 3.63 19.31 19.31 0 0 0 8 .11c1.87-.47 2.84-1.33 3.1-2.29a3.78 3.78 0 0 0 -1-3.14 15.54 15.54 0 0 0 -3.66-3.3 27.15 27.15 0 0 0 -5.22-2.43c-2-.7-4.29-1.34-6.89-2-4.07-1-8.69-1.85-13.72-2.93 6.36-.22 15.77-.66 22.07-.66.43.12 4 3 5.07 3.9 2 1.54 4.39 4.26 6.39 5.92a38.75 38.75 0 0 0 6.64 4.21 29.81 29.81 0 0 0 5.16 2 6.16 6.16 0 0 0 3.53.13 1.85 1.85 0 0 0 1.24-2.16 8.44 8.44 0 0 0 -2.76-4.41 36.67 36.67 0 0 0 -5.89-4.39 43.81 43.81 0 0 0 -7.29-3.12 62.38 62.38 0 0 0 -8-2.13c6.07-.15 11.26-.21 17.23-.16a9.66 9.66 0 0 1 1.25.72 21.82 21.82 0 0 1 2.07 1.57l2.49 2.11c1.76 1.49 3.57 3.09 5.25 4.48a27.13 27.13 0 0 0 4.64 3.3c3.52 1.73 6.3 2.12 7.78 1.32s1.56-2.85-.87-5.68c-2.33-2.49-5.83-4.4-9.91-5.84a60.4 60.4 0 0 0 -6.54-1.85l-.66-.15q6.13-.06 12.16-.4a.94.94 0 0 1 .77.17c1.71 1 3.94 2.47 6.12 4s4.35 3.2 6.25 4.65a37.85 37.85 0 0 0 5.18 3.5c4 2 7.36 2.8 9.55 2.34a2.05 2.05 0 0 0 1.84-1.77c.08-1-.48-2.28-1.91-3.9a23.63 23.63 0 0 0 -5.44-4 46.32 46.32 0 0 0 -7.32-3.14 70.1 70.1 0 0 0 -10.32-2.54c5.12-.18 10.18-.52 15.15-1 .29.14.62.31 1 .51 1.24.7 2.49 1.6 4.44 2.81a55.57 55.57 0 0 0 14.63 5.84c3.83.6 5.78-.1 5.95-1.21s-1.34-2.69-4.33-4.2c-2.75-1.3-8.27-2.49-11.61-3.08-1.69-.3-3.39-.48-5.41-.81-.55-.08-1-.08-1.37-.13 3.51-.38 25.81-2.51 32.81-2.59 8.7-.16 12.95-2 16.17-4 5.44-3.76 7.51-8.39 3.92-12.29-2.36-2.28-7.84-3-11.55-1.9-4.14 1.37-5.76 3.3-10.32 8.54-5 4.32-9.67 7.43-19.22 8.69q-7.29 1.13-14.83 1.79c1.46-.41 3.1-.9 4.78-1.44a71.21 71.21 0 0 0 7.9-3 18.61 18.61 0 0 0 3.34-2 7.12 7.12 0 0 0 2-2.41 5.12 5.12 0 0 0 .13-4 9.12 9.12 0 0 0 -1.77-3.09 6.19 6.19 0 0 0 -4.32-1.87 9.89 9.89 0 0 0 -3.14.4 15.93 15.93 0 0 0 -3 1.2c-.4.23-.73.44-1 .63s-.57.37-.84.56a16.62 16.62 0 0 0 -1.64 1.39 17.82 17.82 0 0 0 -1.65 1.82 20 20 0 0 0 -1.49 2.19 73.07 73.07 0 0 0 -4.44 10c-7.55.51-15 1.19-22.75 1.31 1.49-.31 3.17-.72 4.88-1.26a34.25 34.25 0 0 0 7.32-3.2 11.14 11.14 0 0 0 4.32-4c1.51-3.37.16-5.93-2-7s-5.35-.88-8.44.7c-2.67 1.54-4.19 3.71-5.68 6.42a70.65 70.65 0 0 1 -5 8.44h-1c-7.16 0-12.71-.23-20-.12 5.88-2.49 15.24-5.9 18.1-9.16 5.31-6.2.08-10.34-8.08-6.72-6.57 3.17-9.78 9-13.81 15.91-6.84 0-13.6.16-20.52.39 1.15-.28 2.37-.6 3.62-.95a60.74 60.74 0 0 0 8.67-3.13c2.61-1.23 4.71-2.61 5.67-3.94a5.71 5.71 0 0 0 1.29-4.48 4.22 4.22 0 0 0 -2.34-2.84c-2.46-1.25-6.15-1.19-10.07.27a18.16 18.16 0 0 0 -7.9 6.46c-1.85 2.5-3.62 5.48-5.68 8.7-7.81.12-15.68 0-23.56-.27 2.24-.64 5.16-1.54 8.18-2.65 6.5-2.36 13.48-5.76 15.76-8.67 2.86-3.7 2.31-6.55 0-7.89s-6.37-1.24-11 .71a24.29 24.29 0 0 0 -9.32 8c-2.22 3.04-4.3 6.58-6.96 10.37z" fill="#5676ef" transform="translate(-1 -2.28)"/></svg>