<svg viewBox="0 0 198.24 273.75" xmlns="http://www.w3.org/2000/svg"><path d="m142.22 45.09-2.88 21.95v.01h-119.51l-.01-.01 11.41-22.82 8.67 10.41 39.45-54.63 4.49 23.17-17.1 31.3 33.88-11.3-11.42 16.14 31.77-5.98z" fill="#fff"/><path d="m89.2 59.31 11.42-16.14-16.78-20-4.49-23.17 15.18 13.01 12.57 24.71 13.87 15.61z" fill="#bac6fe"/><path d="m162.44 67.05h-23.1v-.01l2.88-21.95 20.21 21.95z" fill="#bac6fe"/><path d="m100.62 43.17-33.88 11.3 17.1-31.3z" fill="#9daefe"/><path d="m89.56 148.66-89.56-42.01 19.8-39.65s34.24 0 59.52 0z" fill="#d8dfff"/><path d="m198.24 94.2-62.5 31.32 3.6-58.47h23.02.08l8.85 15.44 21.59-10.15z" fill="#9daefe"/><path d="m198.24 94.2-29.62 49.24-79.06 5.22 46.18-23.14z" fill="#7891f2"/><path d="m168.62 143.44-2.91 38.98-36.65 31.99-39.5-22.64v-43.11z" fill="#9daefe"/><path d="m129.06 214.41-28.44-1.92-19.6 13.26-37.48-17.15-2.91-33.75-29.67-37.98-10.96-30.22 89.56 42.01v43.11z" fill="#bac6fe"/><path d="m89.19 273.75-45.65-65.15 37.48 17.15z" fill="#9daefe"/><path d="m129.06 214.41-39.87 59.34-8.17-48 19.6-13.26z" fill="#7891f2"/><path d="m139.34 67.05-3.6 58.47-46.18 23.14-10.21-81.61c19.15-.05 59.99 0 59.99 0z" fill="#bac6fe"/></svg>