<svg viewBox="0 0 65.67 69.05" xmlns="http://www.w3.org/2000/svg"><g fill="#5676ef"><path d="m46.1 44a17.85 17.85 0 0 0 2.2-3.25 23.77 23.77 0 0 1 -2.2 3.25z"/><path d="m49.72 28.25a17.51 17.51 0 0 1 -1.42 12.49 23.77 23.77 0 0 1 -2.2 3.26c-2.49 3.15-5.15 5.45-5.29 8.6v3a2.06 2.06 0 0 1 -2 2h-12a2 2 0 0 1 -2.06-2v-3c-.17-4.23-4.79-7-7-11.42a17.21 17.21 0 0 1 -2.21-8.47 17.42 17.42 0 0 1 17.46-17.38 17.69 17.69 0 0 1 4.58.63 17 17 0 0 1 12.14 12.29z"/><path d="m26.83 58.77h11.9a2.27 2.27 0 0 1 2.27 2.23 2.27 2.27 0 0 1 -2.27 2.27h-11.9a2.27 2.27 0 0 1 -2.27-2.27 2.27 2.27 0 0 1 2.27-2.23z"/><rect height="4.54" rx="2.27" width="10.19" x="27.68" y="64.51"/><rect height="11.41" rx="2.1" width="4.21" x="30.79"/><rect height="4.21" rx="2.1" width="11.41" x="54.26" y="29.13"/><rect height="4.21" rx="2.1" transform="matrix(.70710678 -.70710678 .70710678 .70710678 7.3 40.72)" width="11.41" x="47.1" y="9.44"/><rect height="4.21" rx="2.1" transform="matrix(.70710678 -.70710678 .70710678 .70710678 -31.02 23.71)" width="11.41" x="7.4" y="47.19"/><rect height="4.21" rx="2.1" width="11.41" y="29.13"/><rect height="11.41" rx="2.1" transform="matrix(.70710678 -.70710678 .70710678 .70710678 -5.44 13.12)" width="4.21" x="11.01" y="7.42"/><rect height="11.41" rx="2.1" transform="matrix(.70710678 -.70710678 .70710678 .70710678 -19.5 51.52)" width="4.21" x="50.34" y="43.59"/></g></svg>