<svg viewBox="0 0 68.76 64.15" xmlns="http://www.w3.org/2000/svg"><g fill="#5676ef" transform="translate(0 .01)"><path d="m6.28 30.38.09.16a10.25 10.25 0 0 0 13.79 4.1c7.2-3.81 15-15.91 16.49-18.37l24.73-12.88a1.14 1.14 0 0 0 .52-1.39 7.88 7.88 0 0 0 -.82-1.52 1.1 1.1 0 0 0 -1.44-.35l-24.64 13c-.65 0-1.88-.06-3.51-.06-6.64 0-15.66.59-21 3.39a10.26 10.26 0 0 0 -4.22 13.88zm12.24 1.16a6.73 6.73 0 0 1 -6.1.11 22.73 22.73 0 0 0 5.09-2 92 92 0 0 0 9.87-6.34c-2.73 3.34-5.91 6.69-8.86 8.23zm-2.66-5a15.31 15.31 0 0 1 -6.09 2 15.55 15.55 0 0 1 5.08-3.91 92.61 92.61 0 0 1 11.21-4.72 92.17 92.17 0 0 1 -10.2 6.62zm-3.67-6.93c3-1.56 7.51-2.32 11.78-2.68a93.69 93.69 0 0 0 -10.77 4.6 23 23 0 0 0 -4.52 3 6.8 6.8 0 0 1 3.51-5z"/><path d="m66.38 38.07a408.13 408.13 0 0 1 -63.9 0 2.32 2.32 0 0 0 -2.48 2.15c0 6 3.76 12 10.3 16.65a42 42 0 0 0 24.08 7.27 42 42 0 0 0 24.08-7.27c6.54-4.62 10.3-10.68 10.3-16.65a2.33 2.33 0 0 0 -2.38-2.15z"/></g></svg>