<svg viewBox="0 0 99.99 99.99" xmlns="http://www.w3.org/2000/svg"><g fill="#9daefe"><path d="m52.57 102.58a50 50 0 1 1 50-50 50.06 50.06 0 0 1 -50 50zm0-90.44a40.45 40.45 0 1 0 40.43 40.44 40.48 40.48 0 0 0 -40.43-40.44z" transform="translate(-2.57 -2.59)"/><rect height="5.87" rx="2.77" transform="matrix(.79292815 .60931515 -.60931515 .79292815 45.24 -26.98)" width="24.3" x="47.66" y="55.21"/><path d="m67.1 67a3.13 3.13 0 0 1 -1.94-.67l-14.61-11.25a3.2 3.2 0 0 1 -1.22-2.08 3.12 3.12 0 0 1 .67-2.41 3.2 3.2 0 0 1 4.45-.59l14.61 11.22a3.17 3.17 0 0 1 1.22 2.13 3.12 3.12 0 0 1 -.63 2.36 3.19 3.19 0 0 1 -2.12 1.23zm-14.6-17.13a2.66 2.66 0 0 0 -2.65 3 2.65 2.65 0 0 0 1 1.77l14.63 11.24a2.7 2.7 0 0 0 2 .53 2.65 2.65 0 0 0 1.77-1 2.68 2.68 0 0 0 -.49-3.75l-14.63-11.24a2.69 2.69 0 0 0 -1.63-.55z" transform="translate(-2.57 -2.59)"/><rect height="5.87" rx="2.77" transform="matrix(0 1 -1 0 87.58 -17.58)" width="36.46" x="34.34" y="34.65"/><path d="m52.57 56.08a3.21 3.21 0 0 1 -3.2-3.2v-30.59a3.2 3.2 0 0 1 6.4 0v30.59a3.2 3.2 0 0 1 -3.2 3.2zm0-36.46a2.67 2.67 0 0 0 -2.67 2.67v30.59a2.67 2.67 0 1 0 5.34 0v-30.59a2.67 2.67 0 0 0 -2.67-2.67z" transform="translate(-2.57 -2.59)"/><circle cx="50" cy="50" r="3.81"/><path d="m52.57 57.45a4.87 4.87 0 1 1 4.87-4.87 4.88 4.88 0 0 1 -4.87 4.87zm0-7.62a2.75 2.75 0 1 0 2.75 2.75 2.76 2.76 0 0 0 -2.75-2.75z" transform="translate(-2.57 -2.59)"/></g></svg>