<svg enable-background="new 0 0 68.8 64.2" viewBox="0 0 68.8 64.2" xmlns="http://www.w3.org/2000/svg"><g fill="#9daefe"><path d="m6.3 30.4.1.2c2.7 4.9 8.8 6.7 13.8 4.1 7.2-3.8 15-15.9 16.5-18.4l24.7-12.9c.5-.3.7-.9.5-1.4s-.5-1-.8-1.5-.9-.6-1.4-.3l-24.7 12.9c-.7 0-1.9-.1-3.5-.1-6.6 0-15.7.6-21 3.4-4.9 2.7-6.9 8.9-4.2 14zm12.2 1.1c-1.9 1-4.2 1.1-6.1.1 1.8-.5 3.5-1.1 5.1-2 3.4-1.9 6.7-4 9.9-6.3-2.8 3.3-5.9 6.7-8.9 8.2zm-2.6-5c-1.9 1.1-3.9 1.8-6.1 2 1.4-1.6 3.1-3 5.1-3.9 3.6-1.8 7.4-3.4 11.2-4.7-3.3 2.4-6.7 4.6-10.2 6.6zm-3.7-6.9c3-1.6 7.5-2.3 11.8-2.7-3.7 1.3-7.3 2.8-10.8 4.6-1.6.8-3.1 1.9-4.5 3 .3-2 1.6-3.9 3.5-4.9z"/><path d="m66.4 38.1c-21.3 1.7-42.6 1.7-63.9 0-1.3-.1-2.4.8-2.5 2.1 0 6 3.8 12 10.3 16.7 7.1 4.8 15.5 7.4 24.1 7.3 8.6.1 17-2.4 24.1-7.3 6.5-4.6 10.3-10.7 10.3-16.6-.1-1.3-1.2-2.3-2.4-2.2z"/></g></svg>