<svg viewBox="0 0 101.86 93.02" xmlns="http://www.w3.org/2000/svg"><g fill="#9daefe" transform="translate(-1.66 -6.07)"><path d="m70.39 56.27h25.9a.07.07 0 0 1 .06.11c-8.47 13.93-23.83 26.91-42.77 41.93l-1 .78-1-.75c-19.07-15-34.5-27.9-42.94-42a.07.07 0 0 1 .06-.11h30.38a.06.06 0 0 0 .06-.05l6.38-15.28a.07.07 0 0 1 .13 0l15.35 38.52a.07.07 0 0 0 .13 0l9.21-23.11a.07.07 0 0 1 .05-.04z"/><path d="m103.51 32.33a43.18 43.18 0 0 1 -4.22 18.53.34.34 0 0 1 -.32.21h-31.91a.37.37 0 0 0 -.33.22l-5.35 13.42a.35.35 0 0 1 -.66 0l-14.72-36.95a.36.36 0 0 0 -.66 0l-9.6 23.1a.37.37 0 0 1 -.33.22h-29.3a.36.36 0 0 1 -.33-.21 43.84 43.84 0 0 1 -4.12-18.54 26.25 26.25 0 0 1 50.39-10.33.35.35 0 0 0 .66 0 22.88 22.88 0 0 1 6-9.32c4.68-4.32 11.08-6.61 18.51-6.61a26.27 26.27 0 0 1 26.29 26.26z"/></g></svg>