<svg viewBox="0 0 103.08 93.82" xmlns="http://www.w3.org/2000/svg"><g fill="#9daefe" transform="translate(-1.04 -5.67)"><path d="m47.73 61a63.85 63.85 0 0 1 -6.49.59c.64-.09 1.29-.17 1.94-.24h.2c.88-.1 1.77-.17 2.67-.24h.06z"/><path d="m81 69.66-.12-.12z"/><path d="m47.73 61a63.85 63.85 0 0 1 -6.49.59c.64-.09 1.29-.17 1.94-.24h.2c.88-.1 1.77-.17 2.67-.24h.06z"/><path d="m81 69.66-.12-.12z"/><path d="m86.46 69.64a15.41 15.41 0 0 1 -3.26 3.86c0 .12.06.24.08.36s0 .2 0 .31a7 7 0 0 1 0 .79c.1 7.75-14.41 14.04-32.28 14.04s-32.32-6.29-32.32-14a7 7 0 0 1 .05-.79c0-.11 0-.21.05-.31s0-.24.08-.36a15.41 15.41 0 0 1 -3.26-3.86 9.56 9.56 0 0 0 -1.35 4.8v7.13c0 9.88 16.5 17.92 36.78 17.92s36.78-8 36.78-17.92v-7.17a9.56 9.56 0 0 0 -1.35-4.8zm-5.58-.1.12.12z"/><path d="m35 46a2.26 2.26 0 0 0 0 .26 5.62 5.62 0 0 1 -.55-.15z"/><path d="m80.88 69.54.12.12z"/><path d="m87.25 67.94a10.85 10.85 0 0 1 -.79 1.7 15.41 15.41 0 0 1 -3.26 3.86c-6.28 5.5-18.35 9.25-32.2 9.25s-25.86-3.75-32.14-9.25a15.41 15.41 0 0 1 -3.26-3.86 9.63 9.63 0 0 1 -1.35-4.82v-7.12a1.77 1.77 0 0 1 0-.23c1.4.57 2.9 1.09 4.47 1.56a7 7 0 0 0 .3 1.26c0 .12.09.24.14.36a6.3 6.3 0 0 0 .35.75c.06.12.13.23.2.35a3.61 3.61 0 0 0 .23.36c.13.2.27.39.42.59.14.18.29.35.45.53a6.15 6.15 0 0 0 .56.59q.38.38.78.72l.42.35a20.35 20.35 0 0 0 2.46 1.68c.4.23.8.45 1.22.66s.54.28.82.41a37.51 37.51 0 0 0 5.48 2.09l.76.22q.72.21 1.47.39a1.67 1.67 0 0 0 .3.08l1 .23 1 .22 1.37.27.35.06 1.14.19q1.78.3 3.66.48c.57.06 1.14.11 1.72.15h.1c.59 0 1.19.09 1.79.12h.93q.47 0 .93 0 1 0 2 0h1.94 1 .95c1.26-.06 2.5-.16 3.71-.29l.9-.1 1.3-.16c1-.13 1.91-.29 2.83-.46.34-.06.68-.12 1-.2s.58-.11.86-.18h1.82a71.68 71.68 0 0 0 13.54-1.26l.12.12-.11-.12c1.66-.32 3.25-.7 4.78-1.14.49-.09 1.02-.25 1.54-.41z"/><path d="m35 46a2.26 2.26 0 0 0 0 .26 5.62 5.62 0 0 1 -.55-.15z"/><path d="m47.73 61a63.85 63.85 0 0 1 -6.49.59c.64-.09 1.29-.17 1.94-.24h.2c.88-.1 1.77-.17 2.67-.24h.06z"/><path d="m60.57 32.53c-1.1.1-2.17.22-3.22.37 1.05-.15 2.12-.28 3.22-.37z"/><path d="m60.57 32.53c-1.1.1-2.17.22-3.22.37 1.05-.15 2.12-.28 3.22-.37z"/><path d="m46.11 61.06h-.06c-.9.07-1.79.14-2.67.24h-.2c-.65.07-1.3.15-1.94.24a63.85 63.85 0 0 0 6.49-.54zm-11.68-14.91a5.62 5.62 0 0 0 .55.15 2.26 2.26 0 0 1 .02-.3zm22.92-13.25c1-.15 2.12-.27 3.22-.37-1.1.09-2.17.22-3.22.37z"/><path d="m104.12 45.75v7.13c0 6.31-6.72 11.86-16.87 15.06-.52.16-1 .32-1.59.46-1.53.44-3.12.82-4.78 1.14a71.68 71.68 0 0 1 -13.55 1.26h-1.82c-12.29-.3-23-3.55-29.22-8.32-.37-.29-.73-.58-1.06-.87h2.62c1.14 0 2.27 0 3.38-.08a63.85 63.85 0 0 0 6.5-.53 59.78 59.78 0 0 0 8-1.59l1.6.25 1.11.15h.1l1.33.14c.49.06 1 .1 1.5.14l1.47.11c1.48.09 3 .14 4.54.14h1.66 1.25l1.42-.07 1.41-.1c.46 0 .91-.07 1.36-.12l1.35-.14 1.33-.17.33-.05q1.14-.16 2.25-.36c.9-.16 1.78-.35 2.64-.54l1-.25c.39-.1.77-.19 1.15-.3l1.13-.31c.73-.22 1.45-.45 2.14-.7l1.33-.5c.37-.15.73-.29 1.08-.45a25.29 25.29 0 0 0 5.44-3.14 4.78 4.78 0 0 0 .42-.34 12.08 12.08 0 0 0 2.33-2.52 3.87 3.87 0 0 0 .24-.37 6.85 6.85 0 0 0 1.06-3.57 6.53 6.53 0 0 0 -.31-2l-.14-.38a7.88 7.88 0 0 0 -1-1.85 4.22 4.22 0 0 0 -.27-.36l-.23-.28-.28-.32a17.58 17.58 0 0 0 -4.32-3.33l-.52-.29-.55-.29-.53-.27-.6-.28c-.38-.18-.78-.36-1.19-.52s-.83-.34-1.26-.5a9.79 9.79 0 0 0 1.36-4.05c8.66 3.24 14.26 8.38 14.26 14.13z"/><path d="m60.57 32.53c-1.1.1-2.17.22-3.22.37 1.05-.15 2.12-.28 3.22-.37z"/><path d="m53.1 5.67c-19.2 0-35 7.2-36.64 16.35a9.16 9.16 0 0 0 -.14 1.57v7.12c0 5.15 4.47 9.79 11.61 13 .85.4 1.74.77 2.67 1.12 1.22.47 2.5.89 3.83 1.27l.57-.1a2.26 2.26 0 0 0 0 .26 68.23 68.23 0 0 0 18.1 2.38c1.16 0 2.3 0 3.43-.08a67.49 67.49 0 0 0 13.09-1.84 49.54 49.54 0 0 0 4.82-1.43c.6-.2 1.18-.41 1.75-.64 5.8-2.28 10.16-5.42 12.27-9a9.79 9.79 0 0 0 1.36-4.05 6.4 6.4 0 0 0 0-.88v-7.13c.06-9.88-16.44-17.92-36.72-17.92zm29.9 23.86a19.1 19.1 0 0 1 -4.89 3.47 32.19 32.19 0 0 1 -3.72 1.66 42.55 42.55 0 0 1 -4.3 1.39 66.21 66.21 0 0 1 -17 2.1 69.72 69.72 0 0 1 -10.78-.81 56 56 0 0 1 -6-1.23c-8.69-2.3-14.71-6.33-15.5-11a7.17 7.17 0 0 1 -.08-1 6.92 6.92 0 0 1 1.11-3.66c3.71-6 16.31-10.4 31.24-10.4 17.84 0 32.35 6.3 32.35 14.06a7.85 7.85 0 0 1 -2.43 5.42z"/><path d="m11.82 28.76c-.67.39-1.29.8-1.86 1.21a18.65 18.65 0 0 1 1.86-1.21z"/><path d="m13.89 27.66c-.73.35-1.42.72-2.07 1.1.65-.39 1.34-.76 2.07-1.1z"/><path d="m35 46a2.26 2.26 0 0 0 0 .26 5.62 5.62 0 0 1 -.55-.15z"/><path d="m10 30c.57-.41 1.19-.82 1.86-1.21a18.65 18.65 0 0 0 -1.86 1.21zm1.86-1.21c.65-.38 1.34-.75 2.07-1.1-.77.31-1.46.68-2.11 1.07z"/><path d="m74.45 45.29a9.3 9.3 0 0 1 -1 2.81c-1.88 3.64-6 6.84-11.72 9.2a46.4 46.4 0 0 1 -6.07 2.08 59.78 59.78 0 0 1 -8 1.59c-.55 0-1.09.06-1.62.09h-.06c-.9.07-1.79.14-2.67.24h-.2c-.65.07-1.3.15-1.94.24-1.11 0-2.24.08-3.38.08-.88 0-1.76 0-2.62 0a70 70 0 0 1 -8.12-.73 60.69 60.69 0 0 1 -8.32-1.89c-1.57-.47-3.07-1-4.47-1.56-8.07-3.26-13.26-8.21-13.26-13.73v-7.12c0-6 6.09-11.33 15.42-14.57a9.16 9.16 0 0 0 -.14 1.57v3c-.84.32-1.63.66-2.38 1-.73.35-1.42.71-2.07 1.1a18.65 18.65 0 0 0 -1.83 1.31l-.82.64-.12.1a12.54 12.54 0 0 0 -1.55 1.54.27.27 0 0 0 -.07.08c-.17.2-.33.4-.47.6v.06a3.75 3.75 0 0 0 -.24.36 7.85 7.85 0 0 0 -.75 1.47l-.12.35a5.58 5.58 0 0 0 -.2.78c0 .13 0 .26-.06.38a6.81 6.81 0 0 0 0 .78v.44a7.26 7.26 0 0 0 1.4 3.8c.1.13.2.27.31.4l.34.39c.11.13.24.27.36.39 2.38 2.45 6.33 4.56 11.31 6.07q1 .3 2 .57l1.05.26c.46.11.93.22 1.4.31s.68.14 1 .21c1.41.27 2.87.49 4.38.67l1.14.13h.2c.61.06 1.23.12 1.86.16l1 .07h.7.87 2 .83 1.66 1.43l.91-.05 1.19.04a2.6 2.6 0 0 0 .4 0l1-.08c.42 0 .83-.07 1.24-.12l1-.12 1.19-.16 1.23-.22c.69-.11 1.36-.23 2-.36l.83-.17 1.26-.28.48-.11c.67-.16 1.32-.33 2-.52l1-.3a67.49 67.49 0 0 0 13.09-1.84 49.54 49.54 0 0 0 4.79-1.43z"/><path d="m60.57 32.53c-1.1.1-2.17.22-3.22.37 1.05-.15 2.12-.28 3.22-.37z"/><path d="m11.82 28.76c-.67.39-1.29.8-1.86 1.21a18.65 18.65 0 0 1 1.86-1.21z"/><path d="m13.89 27.66c-.73.35-1.42.72-2.07 1.1.65-.39 1.34-.76 2.07-1.1z"/><path d="m35 46a2.26 2.26 0 0 0 0 .26 5.62 5.62 0 0 1 -.55-.15z"/><path d="m60.57 32.53c-1.1.1-2.17.22-3.22.37 1.05-.15 2.12-.28 3.22-.37z"/><path d="m34.43 46.15a5.62 5.62 0 0 0 .55.15 2.26 2.26 0 0 1 .02-.3zm0 0a5.62 5.62 0 0 0 .55.15 2.26 2.26 0 0 1 .02-.3zm0 0a5.62 5.62 0 0 0 .55.15 2.26 2.26 0 0 1 .02-.3zm0 0a5.62 5.62 0 0 0 .55.15 2.26 2.26 0 0 1 .02-.3zm0 0a5.62 5.62 0 0 0 .55.15 2.26 2.26 0 0 1 .02-.3zm0 0a5.62 5.62 0 0 0 .55.15 2.26 2.26 0 0 1 .02-.3zm0 0a5.62 5.62 0 0 0 .55.15 2.26 2.26 0 0 1 .02-.3zm0 0a5.62 5.62 0 0 0 .55.15 2.26 2.26 0 0 1 .02-.3zm0 0a5.62 5.62 0 0 0 .55.15 2.26 2.26 0 0 1 .02-.3zm0 0a5.62 5.62 0 0 0 .55.15 2.26 2.26 0 0 1 .02-.3z"/><path d="m60.57 32.53c-1.1.1-2.17.22-3.22.37 1.05-.15 2.12-.28 3.22-.37z"/><path d="m64.2 32.28-.3-2.28-.48.27a14.23 14.23 0 0 1 -6.71 1.31 18.52 18.52 0 0 1 -5.89-.84 10.33 10.33 0 0 1 -1.46-.61 5.34 5.34 0 0 1 -2.72-2.95l13.36-.1v-.17l.61-2.36-8 .06h-6.43c0-.18 0-.44.05-.83a1.09 1.09 0 0 1 0-.18h.86l13.81-.08.18-.84.35-1.68h-5.34l-9.22.05a5.72 5.72 0 0 1 1.25-1.66 8.64 8.64 0 0 1 2.44-1.71 13.09 13.09 0 0 1 5.52-1.06h.05a12 12 0 0 1 5.53 1.28l.45.22.61-3.25-.28-.12a17.07 17.07 0 0 0 -6.36-1.08 20.62 20.62 0 0 0 -7.08 1.22 12.79 12.79 0 0 0 -5.88 4 10.2 10.2 0 0 0 -1.36 2.27h-2.5l-.92 1.92-.31.63h3a.59.59 0 0 0 0 .13c0 .31-.06.6-.07.88h-2.21l-1.27 2.55h3.81a8.68 8.68 0 0 0 1 2.28 8.79 8.79 0 0 0 2.21 2.22 15.76 15.76 0 0 0 6.6 2.39 34.52 34.52 0 0 0 5.65.42h.47a27.79 27.79 0 0 0 6.82-.84l.32-.09z"/></g></svg>