<svg enable-background="new 0 0 65.7 69.1" viewBox="0 0 65.7 69.1" xmlns="http://www.w3.org/2000/svg"><g fill="#9daefe"><path d="m46.1 44c.9-1 1.6-2.1 2.2-3.2-.6 1.1-1.4 2.2-2.2 3.2z"/><path d="m49.7 28.2c1.1 4.2.6 8.6-1.4 12.5-.6 1.1-1.4 2.2-2.2 3.2-2.5 3.2-5.2 5.5-5.3 8.6v3c0 1.1-.9 2-2 2h-12c-1.1 0-2-.9-2.1-2v-3c-.2-4.2-4.8-7-7-11.4-1.5-2.6-2.2-5.5-2.2-8.5 0-9.6 7.9-17.4 17.5-17.4 1.5 0 3.1.2 4.6.6 6 1.8 10.6 6.5 12.1 12.4z"/><path d="m26.8 58.8h11.9c1.3 0 2.3 1 2.3 2.3 0 1.3-1 2.3-2.3 2.3h-11.9c-1.3 0-2.3-1-2.3-2.3.1-1.3 1.1-2.3 2.3-2.3z"/><path d="m30 64.5h5.6c1.3 0 2.3 1 2.3 2.3 0 1.3-1 2.3-2.3 2.3h-5.6c-1.3 0-2.3-1-2.3-2.3 0-1.3 1-2.3 2.3-2.3z"/><path d="m32.9 0c1.2 0 2.1.9 2.1 2.1v7.2c0 1.2-.9 2.1-2.1 2.1-1.2 0-2.1-.9-2.1-2.1v-7.2c0-1.2.9-2.1 2.1-2.1z"/><path d="m65.7 31.2c0 1.2-.9 2.1-2.1 2.1h-7.2c-1.2 0-2.1-.9-2.1-2.1 0-1.2.9-2.1 2.1-2.1h7.2c1.1 0 2.1 1 2.1 2.1z"/><path d="m56.8 7.5c.8.8.8 2.2 0 3l-5.1 5.1c-.8.8-2.1.8-3 0-.8-.8-.8-2.1 0-3l5.1-5.1c.9-.8 2.2-.8 3 0z"/><path d="m17.1 45.3c.8.8.8 2.2 0 3l-5.1 5c-.8.8-2.1.8-3 0-.8-.8-.8-2.1 0-3l5.1-5.1c.9-.8 2.2-.8 3 .1z"/><path d="m11.4 31.2c0 1.2-.9 2.1-2.1 2.1h-7.2c-1.2 0-2.1-.9-2.1-2.1 0-1.2.9-2.1 2.1-2.1h7.2c1.2 0 2.1 1 2.1 2.1z"/><path d="m17.2 17.2c-.8.8-2.2.8-3 0l-5.1-5.1c-.8-.8-.8-2.1 0-3 .8-.8 2.1-.8 3 0l5.1 5.1c.8.8.8 2.1 0 3z"/><path d="m56.5 53.3c-.8.8-2.2.8-3 0l-5.1-5.1c-.8-.8-.8-2.1 0-3 .8-.8 2.1-.8 3 0l5.1 5.1c.8.9.8 2.2 0 3z"/></g></svg>