<svg viewBox="0 0 70.15 62.59" xmlns="http://www.w3.org/2000/svg"><path d="m69.4 37.74h-9.69a.58.58 0 0 0 -.59.59v23.67a.58.58 0 0 1 -.59.59h-15.69a.58.58 0 0 1 -.59-.59v-11.23a3.53 3.53 0 0 0 -3.52-3.49h-7.46a3.54 3.54 0 0 0 -3.52 3.52v11.2a.58.58 0 0 1 -.59.59h-15.69a.6.6 0 0 1 -.6-.59v-23.67a.58.58 0 0 0 -.57-.59h-9.7a.6.6 0 0 1 -.6-.56.64.64 0 0 1 .17-.44c5.35-6.15 34.46-36.46 34.46-36.46l.2-.21.17-.07a.15.15 0 0 1 .13 0h.08a.23.23 0 0 0 .07.07l.21.21c.11.11 29 30.26 34.4 36.42a.58.58 0 0 1 .13.81.59.59 0 0 1 -.62.23z" fill="#5676ef" transform="translate(.02)"/></svg>