<?xml version="1.0" encoding="utf-8"?>
<!-- Generator: Adobe Illustrator 23.0.1, SVG Export Plug-In . SVG Version: 6.00 Build 0)  -->
<svg version="1.1" id="Calque_1" xmlns="http://www.w3.org/2000/svg" xmlns:xlink="http://www.w3.org/1999/xlink" x="0px" y="0px"
	 viewBox="0 0 252.7 516.2" style="enable-background:new 0 0 252.7 516.2;" xml:space="preserve">
<style type="text/css">
	.st0{fill:#FFFFFF;}
	.st1{fill:none;stroke:url(#SVGID_1_);stroke-width:2.5;stroke-miterlimit:10;}
	.st2{fill:#5676EF;}
	.st3{fill:url(#SVGID_2_);}
	.st4{fill:url(#SVGID_3_);}
	.st5{fill:#616161;stroke:#4C4C4C;stroke-width:0.5;stroke-miterlimit:10;}
	.st6{fill:#FF848C;}
	.st7{fill:#E9596B;stroke:#E9596B;stroke-width:2;stroke-miterlimit:10;}
	.st8{fill:#E9596B;}
	.st9{fill:#1D1D1B;}
	.st10{fill:#F9BCC4;}
</style>
<title>iphone</title>
<path class="st0" d="M38.7,2.4H214c20,0,36.2,16.2,36.2,36.2v438.9c0,20-16.2,36.2-36.2,36.2H38.7c-20,0-36.2-16.2-36.2-36.2V38.7
	C2.5,18.7,18.7,2.4,38.7,2.4z"/>
<image style="overflow:visible;enable-background:new    ;" width="1053" height="2152" xlink:href="CAFD8102EA730D45.png"  transform="matrix(0.24 0 0 0.24 -3.000000e-02 -0.18)">
</image>
<linearGradient id="SVGID_1_" gradientUnits="userSpaceOnUse" x1="105.94" y1="35.5198" x2="145.62" y2="35.5198" gradientTransform="matrix(1 0 0 -1 0 515.8898)">
	<stop  offset="0" style="stop-color:#FFFFFF"/>
	<stop  offset="0.24" style="stop-color:#5A5A58"/>
	<stop  offset="0.5" style="stop-color:#DFDFDE"/>
	<stop  offset="0.74" style="stop-color:#6E6E6D"/>
	<stop  offset="1" style="stop-color:#BFBFBF"/>
</linearGradient>
<circle class="st1" cx="125.8" cy="480.4" r="18.6"/>
<rect x="16.4" y="62.4" class="st2" width="219.5" height="389.7"/>
<radialGradient id="SVGID_2_" cx="126" cy="499.3098" r="2.89" gradientTransform="matrix(1 0 0 -1 0 515.8898)" gradientUnits="userSpaceOnUse">
	<stop  offset="0.64" style="stop-color:#686665"/>
	<stop  offset="0.87" style="stop-color:#4C4C4C"/>
</radialGradient>
<circle class="st3" cx="126" cy="16.6" r="2.9"/>
<radialGradient id="SVGID_3_" cx="86.15" cy="482.6598" r="4.29" gradientTransform="matrix(1 0 0 -1 0 515.8898)" gradientUnits="userSpaceOnUse">
	<stop  offset="0.64" style="stop-color:#686665"/>
	<stop  offset="0.87" style="stop-color:#4C4C4C"/>
</radialGradient>
<circle class="st4" cx="86.2" cy="33.2" r="4.3"/>
<path class="st5" d="M108.3,31.6h35.2c0.9,0,1.6,0.7,1.6,1.6l0,0c0,0.9-0.7,1.6-1.6,1.6h-35.2c-0.9,0-1.6-0.7-1.6-1.6l0,0
	C106.8,32.4,107.5,31.6,108.3,31.6z"/>
<path class="st0" d="M128.9,246.5c5.2,0,8.3,1.2,8.3,5.5c0,4.7-3.6,5.9-9,5.9h-0.2v7.4h3.5v0.5h-10.7v-0.5h1.8v-18.4h-1.8v-0.5
	H128.9z M127.9,257.5h0.6c2.3,0,2.9-1.6,2.9-4.8v-1.3c0-3.1-0.7-4.2-2.8-4.2h-0.8V257.5z"/>
<path class="st0" d="M144.9,245.1v20.3h1.6v0.5h-8.2v-0.5h1.5v-19.8h-1.6v-0.5H144.9z"/>
<path class="st0" d="M154.4,259.4v-2.1c0-3.5-0.3-4.4-1.4-4.4c-0.6-0.1-1.2,0.4-1.3,1c0,0,0,0.1,0,0.1c0,0.3,0.1,0.6,0.2,0.8h0.7
	c0.2,0.4,0.2,0.8,0.2,1.2c0,1.2-1,2.2-2.3,2.2c-0.1,0-0.1,0-0.2,0c-1.1,0.2-2.2-0.6-2.4-1.8c0-0.2,0-0.4,0-0.5c0-2.3,2-3.4,5.8-3.4
	c4.4,0,5.8,1.2,5.8,5.2v5.6c0,1.1,0.3,1.4,0.8,1.4s1-0.5,1.1-2.9h0.4c-0.1,3.3-1.2,4.3-3.6,4.3c-2.2,0-3.5-0.7-3.8-2
	c-0.4,1.3-1.2,2-3.2,2s-4.1-0.6-4.1-3.4s2.4-3.4,6.4-3.4L154.4,259.4z M154.4,262.4v-2.6h-0.2c-1.2,0-1.7,0.8-1.7,2.5v0.4
	c0,2,0.2,2.3,0.7,2.3S154.4,264.2,154.4,262.4L154.4,262.4z"/>
<path class="st0" d="M162.8,261.2h0.3c1,3.4,2.7,4.4,5,4.4c2,0,2.8-0.7,2.8-1.8c0-1.2-1.4-1.5-3.5-2.1s-4.7-1.5-4.7-4.5
	c-0.1-2.5,1.8-4.6,4.3-4.7c0.2,0,0.4,0,0.6,0c1,0,1.9,0.2,2.8,0.6c0.2,0.1,0.5,0.2,0.8,0.2c0.4,0,0.6-0.2,1-0.9h0.3v4.2h-0.3
	c-1-2.6-2.4-3.6-4.4-3.6s-2.6,0.8-2.6,1.6c0,1.3,1.7,1.6,3.5,2.1c2.2,0.6,4.6,1.5,4.6,4.7s-2,4.7-5.2,4.7c-1.2,0-2.3-0.3-3.3-0.8
	c-0.2-0.1-0.3-0.2-0.5-0.2c-0.4,0-0.8,0.2-1.2,1h-0.3L162.8,261.2z"/>
<path class="st0" d="M175.3,253.2h-1.5v-0.5h1.5v-3.6l5.2-1.3v4.9h3.6v0.5h-3.6v9.3c0,1.6,0.2,2.5,1.2,2.5c1.3,0,2.2-1.2,2.4-3.1
	l0.5,0.1c-0.2,2.2-1.2,4.1-4.6,4.1c-2.7,0-4.7-0.8-4.7-4.2V253.2z"/>
<path class="st0" d="M191.5,252.7v12.7h1.6v0.5h-8.2v-0.5h1.5v-12.2h-1.6v-0.5H191.5z M189,245.7c1.7,0,2.8,0.9,2.8,2.6
	c0,1.5-0.8,2.6-2.8,2.6c-2.2,0-2.8-1.4-2.8-2.6C186.2,246.9,186.9,245.7,189,245.7L189,245.7z"/>
<path class="st0" d="M199.1,258.7v1.4c0,3.5,0.6,5.1,2.8,5.1c2-0.1,3.7-1.6,3.9-3.6l0.5,0.1c-0.4,1.7-1.3,4.5-5.9,4.5
	c-4.3,0-6.7-2.4-6.7-6.7c0-4.7,2.8-7,7.4-7c3.4,0,5.1,1.4,5.1,3.5c0,1.7-0.9,2.6-2.3,2.6c-1.2,0.2-2.3-0.7-2.5-1.9
	c0-0.1,0-0.3,0-0.4c0-0.3,0-0.7,0.1-1h0.9c0.1-0.3,0.2-0.7,0.2-1c0.1-0.7-0.4-1.3-1.1-1.3c-0.1,0-0.2,0-0.3,0
	C199.8,253,199.1,254.6,199.1,258.7z"/>
<path class="st0" d="M130.9,274.3v0.6h-2.9V293h1c3.4,0,5-2.5,6.6-5.9h0.6l-0.5,6.5h-14.7V293h1.6v-18.2h-1.6v-0.6H130.9z"/>
<path class="st0" d="M144.4,280.2c4.4,0,6.2,2.2,6,6.3h-7.8v1.1c0,3.3,0.6,5.5,3.3,5.5c2.1,0,3.4-1.3,4.1-3.4l0.5,0.1
	c-0.6,2.4-2.1,4.2-6,4.2c-4.9,0-7.1-2.8-7.1-6.9C137.2,282.3,140.5,280.2,144.4,280.2z M145.5,286v-1.4c0-2.9-0.2-3.9-1.4-3.9
	c-1,0-1.5,0.9-1.5,3.9v1.4L145.5,286z"/>
<path class="st0" d="M151.8,289h0.3c1,3.4,2.7,4.4,5,4.4c2,0,2.8-0.8,2.8-1.8c0-1.2-1.4-1.5-3.5-2.1s-4.7-1.5-4.7-4.5
	c0-2.8,1.9-4.7,4.9-4.7c1,0,1.9,0.2,2.8,0.6c0.2,0.1,0.5,0.2,0.8,0.2c0.4,0,0.6-0.2,1-0.9h0.3v4.2h-0.3c-1-2.5-2.4-3.6-4.4-3.6
	s-2.6,0.8-2.6,1.6c0,1.3,1.7,1.6,3.5,2.1c2.2,0.6,4.6,1.5,4.6,4.7s-2,4.7-5.2,4.7c-1.2,0-2.3-0.3-3.3-0.8c-0.2-0.1-0.3-0.2-0.5-0.2
	c-0.4,0-0.7,0.2-1.2,1h-0.3L151.8,289z"/>
<path class="st0" d="M163.8,289h0.3c1,3.4,2.7,4.4,5,4.4c2.1,0,2.8-0.8,2.8-1.8c0-1.2-1.4-1.5-3.5-2.1s-4.7-1.5-4.7-4.5
	c0-2.8,1.9-4.7,4.9-4.7c1,0,1.9,0.2,2.8,0.6c0.2,0.1,0.5,0.2,0.8,0.2c0.4,0,0.6-0.2,1-0.9h0.3v4.2h-0.3c-1-2.5-2.4-3.6-4.4-3.6
	s-2.6,0.8-2.6,1.6c0,1.3,1.7,1.6,3.5,2.1c2.2,0.6,4.6,1.5,4.6,4.7s-2,4.7-5.2,4.7c-1.2,0-2.3-0.3-3.3-0.8c-0.2-0.1-0.3-0.2-0.5-0.2
	c-0.4,0-0.8,0.2-1.2,1h-0.3L163.8,289z"/>
<circle class="st0" cx="197.8" cy="240.7" r="3.8"/>
<circle class="st0" cx="185.4" cy="230.6" r="6.3"/>
<g>
	<g>
		<path class="st6" d="M81.4,229.6C81.4,229.6,81.4,229.6,81.4,229.6c-1,0.2-2.1,0.4-3.1,0.7c-0.5,0.2-0.9,0.3-1.4,0.5
			c-0.9,0.4-1.9,0.8-2.8,1.4l-1.5,1c-1,0.6-1.9,1.4-2.8,2.2l-1.1,1c-0.4,0.4-0.9,0.9-1.3,1.4c0,0-0.1,0.1-0.1,0.1
			c-0.4,0.5-0.8,0.9-1.2,1.4c-0.3,0.4-0.6,0.8-0.9,1.2c-0.5,0.8-1,1.7-1.5,2.6c-0.2,0.3-0.3,0.7-0.4,1c-0.1,0.3-0.2,0.5-0.3,0.8
			c0,0.1-0.1,0.2-0.1,0.3c0,0,0-0.1,0-0.1c-0.1-2.6-0.1-4.9,0.1-6.9l0.2-2c0.3-2.1,0.9-4,1.7-5.6l1.1-1.7c0.9-1.3,2.1-2.4,3.6-3.4
			l1.6-1c1.5-0.9,3.3-1.8,5.4-2.6h0c0.6-0.2,1.2-0.4,1.8-0.7c1-0.4,2.1-0.7,3.3-1.1c-1.8,2.7-2.6,5.2-2.4,7.7c0.6-2.4,2-4.7,4.8-7
			l1.9,0.9C82.4,224.2,81,226.8,81.4,229.6z"/>
		<path class="st6" d="M87.6,224.1c-3.2,0.4-4.9,2.6-5.8,5.5c0,0,0,0,0,0c-0.1,0-0.2,0-0.3,0c0,0,0,0,0,0c0.8-3.2,2.7-5.3,6-6
			L87.6,224.1z"/>
	</g>
	<path class="st6" d="M74.3,280.8c0,0,0,0.1-0.1,0.1C74.3,280.9,74.3,280.8,74.3,280.8z"/>
	<path class="st6" d="M108.7,290.8c-4.2-1.8-7.9-2.6-13.1-1.7c-6.1,1.1-9.5,1.2-12.3-1.7c1,1.6,1.7,1.9,2,3.5c0.4,1.8-0.1,4.9-1,8.7
		c-1,4-0.2,7.4,1.4,11.7c-7.9-3-17.1-16.5-11.4-30.3c3.3,0.8,5.7,2.3,7,3.3c0.4-1.1,0.1-2.8-0.4-4.7c0,0,0,0,0,0c0,0,0,0,0,0
		c-0.1-0.2-0.1-0.4-0.2-0.7c-0.1-0.2-0.1-0.4-0.2-0.6c0,0,0,0,0,0v0c-0.2-0.4-0.2-0.5-0.2-0.5c1.8,1,3.8,1.2,6,1.2
		C92,279,99.4,278.2,108.7,290.8z"/>
	<polygon class="st7" points="76.8,247.1 76.8,247.1 76.8,247.1 	"/>
	<path class="st8" d="M76.8,247.1L76.8,247.1C76.8,247.1,76.8,247.1,76.8,247.1C76.8,247.1,76.8,247.1,76.8,247.1z"/>
	<path class="st8" d="M89.9,252.4c-1.5,1-3.9,0.9-6.2,0.1c-0.2-0.1-0.3-0.1-0.5-0.2c-0.1,0-0.2-0.1-0.3-0.1c-0.1,0-0.2-0.1-0.3-0.1
		c-0.1,0-0.2-0.1-0.3-0.1c-0.5-0.2-0.9-0.4-1.3-0.7C84.5,252,87.5,249.5,89.9,252.4z"/>
	<g>
		<path class="st8" d="M76.8,247.1L76.8,247.1L76.8,247.1l-0.3,0.2c-0.4-0.6-0.7-1.2-1.1-1.9l0.3-0.2l0,0L76,245
			c0.1,0.2,0.3,0.3,0.4,0.4l0,0l0.4,0.7c-0.2-0.2-0.4-0.3-0.7-0.5c-0.1-0.1-0.3-0.3-0.4-0.5c0.2,0.3,0.3,0.6,0.5,0.9
			c0,0,0,0.1,0,0.1c0.1,0.1,0.1,0.2,0.2,0.3c0,0,0.1,0.1,0.1,0.1c0,0.1,0.1,0.2,0.1,0.2c0,0,0,0,0,0.1
			C76.8,247,76.8,247.1,76.8,247.1C76.8,247.1,76.8,247.1,76.8,247.1L76.8,247.1C76.8,247.1,76.8,247.1,76.8,247.1
			C76.8,247.1,76.8,247.1,76.8,247.1z"/>
	</g>
	<path class="st8" d="M92.7,237.7c-0.2-1.1-0.8-2.2-1.5-2.8c-0.6-0.5-1.2-0.8-1.8-0.8c-0.1,0-0.3,0-0.4,0c-0.7,0.1-1.3,0.7-1.7,1.6
		c-0.4,0.9-0.5,2.1-0.2,3.2c0.1,0.6,0.3,1.1,0.6,1.6c0.3,0.5,0.6,0.9,0.9,1.2c0.7,0.6,1.4,0.9,2.2,0.8c0.7-0.1,1.3-0.7,1.7-1.6
		C92.9,239.9,92.9,238.8,92.7,237.7z M92.1,246.1c-0.3,0-0.7-0.1-1-0.2c-0.4-0.1-0.9-0.3-1.3-0.6c-2.7-1.7-6.5-2-9.9-1.3
		c-3.1,0.6-4.4,0.5-5.7-1.7c0,0.1,0.1,0.2,0.1,0.2c0,0.1,0.1,0.1,0.1,0.2c0.5,1.4,0.9,1.9,1.7,5.5c0.8,5.1,4.9,8.8,9.9,9.1
		c3-1.9,5.7-4.2,7.1-7.1c0.2-0.4,0.4-0.7,0.5-1.1c0.4-1,0.7-2.2,0.7-3.3C93.5,246,92.8,246.1,92.1,246.1z M91.5,249.6
		c0,0.4-0.1,0.8-0.3,1.2c-0.3,0.7-0.7,1.3-1.3,1.7c-1.5,1-3.9,0.9-6.2,0.1c-0.2-0.1-0.3-0.1-0.5-0.2c-0.1,0-0.2-0.1-0.3-0.1
		c-0.1,0-0.2-0.1-0.3-0.1c-0.1,0-0.2-0.1-0.3-0.1c-0.5-0.2-0.9-0.4-1.3-0.7c-1.1-0.7-2.1-1.4-2.9-2.3c0-0.1-0.1-0.1-0.1-0.2
		c0,0,0,0,0,0v0c-0.1-0.1-0.1-0.1-0.2-0.2v0c-0.2-0.2-0.3-0.4-0.5-0.6c0,0,0,0,0,0c-0.2-0.2-0.3-0.5-0.5-0.7v0c0,0,0,0,0,0
		c0,0,0,0,0,0v0c0,0,0,0,0,0c0,0-0.1-0.1-0.1-0.1c0,0,0,0,0-0.1c0-0.1-0.1-0.2-0.1-0.2c0,0-0.1-0.1-0.1-0.1
		c-0.1-0.1-0.1-0.2-0.2-0.3c0,0,0,0,0-0.1c-0.2-0.3-0.3-0.6-0.5-0.9c0.1,0.2,0.3,0.3,0.4,0.5c0.2,0.2,0.4,0.4,0.7,0.5
		c2.5,1.7,5.8,0.4,9.4,1.2C88.6,247.9,90.2,248.8,91.5,249.6L91.5,249.6z M88.4,231.4c-0.1,0.1-0.2,0.2-0.3,0.3
		c-0.2,0.2-0.3,0.4-0.4,0.5c-0.2,0.3-0.2,0.5-0.1,0.6c0.1,0.1,0.2,0,0.5-0.1c0.3-0.1,0.6-0.4,1.1-0.5c0,0,0.1,0,0.1,0
		C89,231.9,88.7,231.6,88.4,231.4z M83.9,231.1c-0.1-0.2-0.2-0.3-0.4-0.5c-0.2-0.2-0.5-0.4-0.8-0.5c-0.3-0.1-0.6-0.2-0.9-0.3
		c-0.1,0-0.2,0-0.3,0c-0.1,0-0.2,0-0.3,0c-0.2,0-0.3,0-0.5,0.1c-0.3,0.1-0.6,0.2-0.9,0.4c-0.1,0.1-0.3,0.2-0.4,0.3
		c-0.1,0.1-0.3,0.2-0.4,0.3c-0.1,0.1-0.2,0.3-0.4,0.4c-0.1,0.1-0.2,0.3-0.3,0.4c-0.2,0.3-0.4,0.6-0.6,1c-0.1,0.2-0.1,0.4-0.2,0.6
		c-0.1,0.2-0.1,0.4-0.2,0.6c0,0.2-0.1,0.3-0.1,0.5c0,0.2,0.1,0.4,0.1,0.2c0-0.1,0.1-0.2,0.1-0.4c0-0.1,0.1-0.3,0.2-0.4
		c0.1-0.1,0.2-0.3,0.3-0.4c0.2-0.3,0.4-0.6,0.7-0.9c0.1-0.1,0.3-0.3,0.5-0.4c0.2-0.1,0.3-0.3,0.5-0.3c0.3-0.2,0.7-0.4,1-0.5
		c0.3-0.1,0.6-0.1,0.9-0.1c0.1,0,0.3,0,0.4,0c0.1,0,0.2,0,0.4,0.1c0.5,0.1,0.9,0.3,1.2,0.5c0.3,0.1,0.5,0.2,0.6,0.1
		C84.1,231.6,84.1,231.4,83.9,231.1z M82,232.8c-1.5-0.3-3.2,1.3-3.7,3.5c-0.5,2.3,0.3,4.4,1.9,4.7c1.5,0.3,3.2-1.3,3.7-3.5
		C84.3,235.3,83.5,233.1,82,232.8z M81.4,229.6C81.4,229.6,81.4,229.6,81.4,229.6c0.1,0,0.2,0,0.3,0c0,0,0,0,0,0
		C81.6,229.5,81.5,229.5,81.4,229.6z M81.4,229.6c-1.9,0.2-4,0.8-6.3,2c-2.5,1.4-5.3,3.3-7.7,6c0,0-0.1,0.1-0.1,0.1
		c-0.4,0.4-0.8,0.9-1.2,1.4c-0.3,0.4-0.6,0.8-0.9,1.2c-0.5,0.8-1,1.7-1.5,2.6c-0.2,0.3-0.3,0.7-0.4,1c-0.1,0.3-0.2,0.5-0.3,0.8
		c0,0.1-0.1,0.2-0.1,0.3c0,0,0,0,0,0c0,0,0,0.1,0,0.1c0-0.1,0.1-0.2,0.1-0.3c0.1-0.3,0.2-0.5,0.3-0.8c0.1-0.3,0.3-0.7,0.4-1
		c0.4-0.9,0.9-1.8,1.5-2.6c0.3-0.4,0.6-0.8,0.9-1.2c0.4-0.5,0.8-1,1.2-1.4c0,0,0.1-0.1,0.1-0.1c0.4-0.5,0.8-0.9,1.3-1.4l1.1-1
		c0.9-0.8,1.8-1.5,2.8-2.2l1.5-1c0.9-0.5,1.8-1,2.8-1.4c0.5-0.2,0.9-0.4,1.4-0.5C79.3,230,80.3,229.7,81.4,229.6
		C81.4,229.6,81.4,229.6,81.4,229.6z M74.2,281.1c0,0,0-0.1,0.1-0.1C74.2,281,74.2,281,74.2,281.1z M80.2,277.9c0,0,0,0.1,0.2,0.5
		C80.3,278.2,80.3,278.1,80.2,277.9z M67.1,249c-0.3,1.2-0.4,2.4-1.1,3c-1.3,0.7-2.6,1.3-3.9,1.7c0.2,1.8,0.6,3.7,1.2,5.7
		c0.2,0.5,0.4,1,0.6,1.5c1.1-2.3,3.1-5,3.2-7.2c1,0,2.1-0.1,3.1-0.4C68.9,252,68.1,250.9,67.1,249z"/>
	<path class="st8" d="M93.7,240.3L93.7,240.3c0.2-0.9,0.2-1.9,0-2.9c-0.3-1.4-0.9-2.6-1.8-3.4c-0.5-0.5-1.1-0.8-1.7-1v0
		c-0.3-0.3-0.6-0.6-0.9-0.9c0,0-0.1,0-0.1,0c-0.5,0.1-0.8,0.3-1.1,0.5c-0.3,0.1-0.4,0.2-0.5,0.1c-0.1-0.1-0.1-0.3,0.1-0.6
		c0.1-0.2,0.2-0.3,0.4-0.5c0.1-0.1,0.2-0.2,0.3-0.3c-1.8-1.3-4-2-6.7-1.8c0,0,0,0,0,0c-0.1,0-0.2,0-0.3,0c0,0,0,0,0,0h0c0,0,0,0,0,0
		c-1,0.1-2.1,0.4-3.1,0.7c-0.5,0.2-0.9,0.3-1.4,0.5c-0.9,0.4-1.9,0.8-2.8,1.4l-1.5,1c-1,0.6-1.9,1.4-2.8,2.2l-1.1,1
		c-0.4,0.4-0.9,0.9-1.3,1.4c0,0-0.1,0.1-0.1,0.1c-0.4,0.5-0.8,0.9-1.2,1.4c-0.3,0.4-0.6,0.8-0.9,1.2c-0.5,0.8-1,1.7-1.5,2.6
		c-0.2,0.3-0.3,0.7-0.4,1c-0.1,0.3-0.2,0.5-0.3,0.8c0,0.1-0.1,0.2-0.1,0.3c0,0,0-0.1,0-0.1c-0.8,2.5-1.2,5.4-0.9,8.7
		c1.3-0.5,2.6-1,3.9-1.7c0.7-0.6,0.8-1.8,1.1-3c1,1.9,1.8,3,3.1,4.3c-1,0.3-2.1,0.4-3.1,0.4c-0.1,2.2-2.1,4.9-3.2,7.2
		c1.9,4.6,4,7.5,6.7,10.7c2.3,2.5,5,6,3.7,9.2c0,0,0,0.1-0.1,0.1v0c0,0.1,0,0.1-0.1,0.1c3.3,0.8,5.7,2.3,7,3.3
		c0.4-1.1,0.1-2.8-0.4-4.7c-0.1-0.3-0.2-0.9-0.6-1.8c-0.1-0.1-0.1-0.2-0.2-0.3c-4.4-5.7-3.4-13.3,5.8-20.2c0.1,0,0.1-0.1,0.2-0.1
		c-5-0.3-9.1-4.1-9.9-9.1c-0.8-3.6-1.2-4.1-1.7-5.5c0-0.1-0.1-0.1-0.1-0.2c0-0.1-0.1-0.2-0.1-0.2c1.3,2.2,2.6,2.3,5.7,1.7
		c3.5-0.7,7.2-0.4,9.9,1.3c0.4,0.3,0.9,0.5,1.3,0.6c0.3,0.1,0.7,0.1,1,0.2c0.7,0,1.4-0.1,2.1-0.2C94.3,244,94.1,242.2,93.7,240.3z
		 M83.8,237.5c-0.5,2.3-2.1,3.9-3.7,3.5c-1.5-0.3-2.4-2.5-1.9-4.7c0.5-2.3,2.1-3.9,3.7-3.5C83.5,233.1,84.3,235.3,83.8,237.5z
		 M84,231.7c-0.1,0.1-0.3,0-0.6-0.1c-0.3-0.1-0.7-0.4-1.2-0.5c-0.1,0-0.2,0-0.4-0.1c-0.1,0-0.3,0-0.4,0c-0.3,0-0.6,0-0.9,0.1
		c-0.3,0.1-0.7,0.3-1,0.5c-0.2,0.1-0.3,0.2-0.5,0.3c-0.2,0.1-0.3,0.3-0.5,0.4c-0.3,0.3-0.5,0.6-0.7,0.9c-0.1,0.2-0.2,0.3-0.3,0.4
		c-0.1,0.1-0.1,0.3-0.2,0.4c0,0.1-0.1,0.2-0.1,0.4c0,0.2-0.1,0-0.1-0.2c0-0.2,0-0.3,0.1-0.5c0-0.2,0.1-0.4,0.2-0.6
		c0.1-0.2,0.1-0.4,0.2-0.6c0.2-0.4,0.4-0.7,0.6-1c0.1-0.1,0.2-0.3,0.3-0.4c0.1-0.1,0.2-0.3,0.4-0.4c0.1-0.1,0.3-0.2,0.4-0.3
		c0.1-0.1,0.3-0.2,0.4-0.3c0.3-0.2,0.6-0.3,0.9-0.4c0.2,0,0.3-0.1,0.5-0.1c0.1,0,0.2,0,0.3,0c0.1,0,0.2,0,0.3,0
		c0.3,0,0.6,0.1,0.9,0.3c0.3,0.2,0.6,0.4,0.8,0.5c0.2,0.2,0.3,0.4,0.4,0.5C84.1,231.4,84.1,231.6,84,231.7z M92.5,240.9
		c-0.4,0.9-1,1.4-1.7,1.6c-0.7,0.1-1.5-0.1-2.2-0.8c-0.4-0.3-0.7-0.8-0.9-1.2c-0.3-0.5-0.4-1-0.6-1.6c-0.2-1.1-0.2-2.3,0.2-3.2
		c0.4-0.9,1-1.4,1.7-1.6c0.1,0,0.3,0,0.4,0c0.6,0,1.2,0.3,1.8,0.8c0.7,0.7,1.3,1.7,1.5,2.8C92.9,238.8,92.9,239.9,92.5,240.9z"/>
	<path class="st8" d="M91.5,249.6L91.5,249.6c0,0.4-0.1,0.8-0.3,1.2c-0.3,0.7-0.7,1.3-1.3,1.7c-2.4-3-5.4-0.4-8.9-1.2
		c-1.1-0.7-2.1-1.4-2.9-2.3c0-0.1-0.1-0.1-0.1-0.2c0,0,0,0,0,0v0c0-0.1-0.1-0.1-0.1-0.2c0,0,0,0,0,0v0c-0.2-0.2-0.3-0.4-0.5-0.6
		c0,0,0,0,0,0c-0.2-0.2-0.3-0.5-0.5-0.7v0l0,0c0,0,0,0,0,0c0,0,0,0,0,0v0c0,0,0,0,0,0c0,0-0.1-0.1-0.1-0.1c0,0,0,0,0-0.1
		c0-0.1-0.1-0.2-0.1-0.2c0,0-0.1-0.1-0.1-0.1c-0.1-0.1-0.1-0.2-0.2-0.3c0,0,0,0,0-0.1c-0.2-0.3-0.3-0.6-0.5-0.9
		c0.1,0.2,0.3,0.3,0.4,0.5c0.2,0.2,0.4,0.4,0.7,0.5c2.5,1.7,5.8,0.4,9.4,1.2C88.6,247.9,90.2,248.8,91.5,249.6z"/>
	<g>
		<path class="st0" d="M92.5,240.9c-0.4,0.9-1,1.4-1.7,1.6c-0.7,0.1-1.5-0.1-2.2-0.8c-0.4-0.3-0.7-0.8-0.9-1.2
			c-0.3-0.5-0.4-1-0.6-1.6c-0.2-1.1-0.2-2.3,0.2-3.2c0.4-0.9,1-1.4,1.7-1.6c0.1,0,0.3,0,0.4,0c0.6,0,1.2,0.3,1.8,0.8
			c0.7,0.7,1.3,1.7,1.5,2.8C92.9,238.8,92.9,239.9,92.5,240.9z"/>
	</g>
	<path class="st0" d="M83.8,237.5c-0.5,2.3-2.1,3.9-3.7,3.5c-1.5-0.3-2.4-2.5-1.9-4.7c0.5-2.3,2.1-3.9,3.7-3.5
		C83.5,233.1,84.3,235.3,83.8,237.5z"/>
	
		<ellipse transform="matrix(0.9979 -6.509215e-02 6.509215e-02 0.9979 -15.3793 6.3108)" class="st9" cx="89.2" cy="239.2" rx="1.2" ry="2.1"/>
	<ellipse transform="matrix(0.2135 -0.977 0.977 0.2135 -168.7827 267.3661)" class="st9" cx="81.7" cy="238.5" rx="2.1" ry="1.3"/>
	<path class="st6" d="M81.4,229.5C81.4,229.5,81.4,229.5,81.4,229.5C81.4,229.5,81.4,229.5,81.4,229.5
		C81.4,229.5,81.4,229.5,81.4,229.5z"/>
	<path class="st6" d="M88.5,257.3l8.8,8.2c4-0.9,7.2-5.9,6.8-9.4c-1.7,0.4-2.5-0.1-2-1.9c0.4-2.1,0.6-4.2-0.9-5.1
		c-0.6,0.3-1.5,0.8-1.8,1.7c0.1,7.8-5,9.9-8.6,5.9L88.5,257.3z"/>
	<path class="st6" d="M70.2,253.3c-1,0.3-2.1,0.4-3.1,0.4c-0.1,2.2-2.1,4.9-3.2,7.2c0,0,0,0,0,0c-2.1,4.4-2.4,8.1-9.5,6.9
		c-6.9-1.7-6.3-2.7-6.2-6.5c0.1-2.8,0.5-5.5,3.7-5.4c3.7-0.5,7.1-1,10.2-2.1c1.3-0.5,2.6-1,3.9-1.7c0.7-0.6,0.8-1.8,1.1-3
		C68.1,250.9,68.9,252,70.2,253.3z"/>
	<path class="st10" d="M103.7,263.9c1,0.9,0.9,2.5,0.3,3.5c-0.4,0.2-0.8,0.2-1.3,0c-1.1-0.4-2.5-0.5-4-0.6c-0.8,0.1-1.2-0.2-1.4-1.1
		c-0.1-0.6,0.8-1.2,1-1.5L103.7,263.9z"/>
	<path class="st10" d="M97.3,262.5c-0.4,0.5-0.1,2.3,0.3,2.5c1.3,0,4.8-0.1,4.8-0.1c3.9,0.2,3.4-4.7,2.7-5.2l-7.7,2.9L97.3,262.5z"
		/>
	<path class="st10" d="M104,256.1c0,0-2.3,2-4.9,2.4c-1.9,0.3-2.4,2.2-2.4,2.2c0,0.5,0,2.6,2,2l6-2.5c1.4-0.8,1.7-2.1,0.7-4.1
		C105,255.7,104.5,255.6,104,256.1z"/>
	<path class="st10" d="M75.7,245.2C75.7,245.2,75.7,245.2,75.7,245.2c-0.1-0.1-0.1-0.1-0.2-0.2c0,0,0-0.1-0.1-0.1
		c-0.2-0.2-0.3-0.4-0.4-0.7c0-0.1-0.1-0.2-0.1-0.2c-0.1-0.2-0.2-0.5-0.3-0.7c-0.1-0.2-0.2-0.4-0.3-0.6c0-0.1-0.1-0.1-0.1-0.2
		c0-0.1-0.1-0.2-0.1-0.2C74.7,243.3,75.2,244.3,75.7,245.2C75.7,245.2,75.7,245.2,75.7,245.2z"/>
	<path class="st10" d="M95,250.7c-0.4,0-0.7,0-1.1-0.1c0.5,2.9-0.7,5-3.1,6c-0.2,0.1-0.3,0.1-0.5,0.2c-0.6,0.2-1.2,0.3-1.8,0.4
		c-0.9,0.1-1.7,0.2-2.6,0.1c-5-0.3-9.1-4.1-9.9-9.1c-0.8-3.6-1.2-4.1-1.7-5.5c0.1,0.2,0.2,0.4,0.3,0.6c0.1,0.3,0.2,0.5,0.3,0.7
		c0,0.1,0.1,0.2,0.1,0.2c0.1,0.2,0.3,0.5,0.4,0.7c0,0,0,0.1,0.1,0.1c0,0.1,0.1,0.1,0.1,0.2c0,0,0,0,0,0c0.2,0.3,0.3,0.6,0.5,0.9
		c0,0,0,0.1,0,0.1c0.1,0.1,0.1,0.2,0.2,0.3c0,0,0.1,0.1,0.1,0.1c0,0.1,0.1,0.2,0.1,0.2c0,0,0,0,0,0.1c0,0,0,0.1,0.1,0.1c0,0,0,0,0,0
		v0c0,0,0,0,0,0c0,0,0,0,0,0v0c0.2,0.3,0.3,0.5,0.5,0.7c0,0,0,0,0,0c0.2,0.2,0.3,0.4,0.5,0.6v0c0,0,0,0,0,0c0,0.1,0.1,0.1,0.1,0.2v0
		c0,0,0,0,0,0c0,0.1,0.1,0.1,0.1,0.2c0.8,0.9,1.8,1.7,2.9,2.3c0.4,0.3,0.9,0.5,1.3,0.7c0.1,0,0.2,0.1,0.3,0.1c0.1,0,0.2,0.1,0.3,0.1
		c0.1,0,0.2,0.1,0.3,0.1c0.2,0.1,0.3,0.1,0.5,0.2c2.3,0.8,4.7,0.9,6.2-0.1c0.6-0.4,1-0.9,1.3-1.7c0.1-0.3,0.2-0.7,0.3-1.2v0
		c-1.3-0.7-2.9-1.6-5.4-2.2c-3.6-0.8-6.9,0.6-9.4-1.2c-0.2-0.2-0.4-0.3-0.7-0.5c-0.1-0.1-0.3-0.3-0.4-0.5c0,0,0,0,0,0
		c-0.5-0.9-1-1.9-1.5-2.9c1.3,2.2,2.6,2.3,5.7,1.7c3.5-0.7,7.2-0.4,9.9,1.3c0.4,0.3,0.9,0.5,1.3,0.6c0.3,0.1,0.7,0.1,1,0.2
		c0.7,0,1.4-0.1,2.1-0.2C96.9,247,96.7,250.7,95,250.7z"/>
	<path class="st10" d="M75.7,245.2C75.7,245.2,75.7,245.2,75.7,245.2c-0.1-0.1-0.1-0.1-0.2-0.2c0,0,0-0.1-0.1-0.1
		c-0.2-0.2-0.3-0.4-0.4-0.7c0-0.1-0.1-0.2-0.1-0.2c-0.1-0.2-0.2-0.5-0.3-0.7c-0.1-0.2-0.2-0.4-0.3-0.6c0-0.1-0.1-0.1-0.1-0.2
		c0-0.1-0.1-0.2-0.1-0.2C74.7,243.3,75.2,244.3,75.7,245.2C75.7,245.2,75.7,245.2,75.7,245.2z"/>
	<path class="st9" d="M84,231.7c-0.1,0.1-0.3,0-0.6-0.1c-0.3-0.1-0.7-0.4-1.2-0.5c-0.1,0-0.2,0-0.4-0.1c-0.1,0-0.3,0-0.4,0
		c-0.3,0-0.6,0-0.9,0.1c-0.3,0.1-0.7,0.3-1,0.5c-0.2,0.1-0.3,0.2-0.5,0.3c-0.2,0.1-0.3,0.3-0.5,0.4c-0.3,0.3-0.5,0.6-0.7,0.9
		c-0.1,0.2-0.2,0.3-0.3,0.4c-0.1,0.1-0.1,0.3-0.2,0.4c0,0.1-0.1,0.2-0.1,0.4c0,0.2-0.1,0-0.1-0.2c0-0.2,0-0.3,0.1-0.5
		c0-0.2,0.1-0.4,0.2-0.6c0.1-0.2,0.1-0.4,0.2-0.6c0.2-0.4,0.4-0.7,0.6-1c0.1-0.1,0.2-0.3,0.3-0.4c0.1-0.1,0.2-0.3,0.4-0.4
		c0.1-0.1,0.3-0.2,0.4-0.3c0.1-0.1,0.3-0.2,0.4-0.3c0.3-0.2,0.6-0.3,0.9-0.4c0.2,0,0.3-0.1,0.5-0.1c0.1,0,0.2,0,0.3,0
		c0.1,0,0.2,0,0.3,0c0.3,0,0.6,0.1,0.9,0.3c0.3,0.2,0.6,0.4,0.8,0.5c0.2,0.2,0.3,0.4,0.4,0.5C84.1,231.4,84.1,231.6,84,231.7z"/>
	<path class="st9" d="M93.6,235.4c0-0.1-0.1-0.2-0.1-0.3c0-0.1-0.1-0.3-0.2-0.4c-0.1-0.1-0.1-0.3-0.2-0.4c-0.2-0.3-0.4-0.6-0.6-0.9
		c-0.1-0.1-0.3-0.3-0.4-0.4c-0.1-0.1-0.3-0.3-0.4-0.3c-0.3-0.2-0.6-0.4-0.9-0.5c-0.3-0.1-0.6-0.1-0.8-0.1c-0.1,0-0.2,0-0.4,0
		c-0.1,0-0.1,0-0.2,0c0,0-0.1,0-0.1,0c-0.5,0.1-0.8,0.3-1.1,0.5c-0.3,0.1-0.4,0.2-0.5,0.1c-0.1-0.1-0.1-0.3,0.1-0.6
		c0.1-0.2,0.2-0.3,0.4-0.5c0.1-0.1,0.2-0.2,0.3-0.3c0.1-0.1,0.3-0.2,0.4-0.3c0.3-0.1,0.5-0.2,0.8-0.3c0.1,0,0.1,0,0.2,0
		c0.1,0,0.2,0,0.2,0c0.1,0,0.3,0,0.4,0.1c0.3,0.1,0.6,0.2,0.8,0.4c0.1,0.1,0.3,0.2,0.4,0.3c0.1,0.1,0.2,0.2,0.4,0.3
		c0.1,0.1,0.2,0.3,0.3,0.4c0.1,0.1,0.2,0.3,0.3,0.4c0.2,0.3,0.4,0.6,0.5,1c0.1,0.2,0.1,0.4,0.2,0.5c0.1,0.2,0.1,0.4,0.1,0.6
		c0,0.2,0.1,0.3,0.1,0.5C93.7,235.4,93.6,235.6,93.6,235.4z"/>
	<circle class="st0" cx="82.3" cy="237.4" r="0.4"/>
	<circle class="st0" cx="89.5" cy="238.1" r="0.4"/>
	<path class="st6" d="M89.5,252.7c-2.7,1.3-7-0.4-8.5-1.4c1.9,0.6,3.4-0.5,5.4-0.5C87.5,250.7,88.9,251.6,89.5,252.7z"/>
</g>
</svg>
