<svg viewBox="0 0 438.61 261.12" xmlns="http://www.w3.org/2000/svg"><g fill="#5676ef"><path d="m221.31 81.79c14.63 0 23.26 3.27 23.26 15.48 0 13.23-10.19 16.65-25.28 16.65h-.62v20.85h9.72v1.48h-29.95v-1.48h5.06v-51.5h-5.06v-1.48zm-2.64 30.65h1.63c6.53 0 8.25-4.51 8.25-13.54v-3.73c0-8.79-1.87-11.9-7.78-11.9h-2.1z"/><path d="m266.12 77.9v56.95h4.36v1.4h-23.1v-1.4h4.27v-55.55h-4.59v-1.4z"/><path d="m292.89 118v-6c0-9.88-.86-12.44-4-12.44-1.4 0-3.66.62-3.66 3.11a6.86 6.86 0 0 0 .47 2.25h1.94a9.14 9.14 0 0 1 .63 3.51c0 3.65-3 6.06-6.85 6.06-4.82 0-6.69-2.64-6.69-6.45 0-6.54 5.68-9.57 16.26-9.57 12.21 0 16.34 3.42 16.34 14.7v15.79c0 3.19.93 4 2.25 4s2.73-1.48 3.11-8l1.17.07c-.39 9.34-3.27 12-10 12-6.3 0-9.8-1.94-10.73-5.75-1.13 3.72-3.43 5.72-8.88 5.72s-11.51-1.63-11.51-9.41 6.77-9.65 17.89-9.65zm0 8.48v-7.23h-.55c-3.26 0-4.82 2.33-4.82 7.08v1.24c0 5.6.54 6.38 2 6.38s3.37-2.53 3.37-7.51z"/><path d="m316.46 123.1h.94c2.87 9.49 7.62 12.21 14 12.21 5.76 0 7.93-2.1 7.93-5.05 0-3.5-3.81-4.28-9.72-5.92-6.22-1.71-13.15-4.12-13.15-12.76 0-7.93 5.45-13.14 13.69-13.14a17.92 17.92 0 0 1 7.86 1.79 4.66 4.66 0 0 0 2.18.62c1.17 0 1.71-.62 2.72-2.57h.86v11.9h-.94c-2.8-7.15-6.76-10.11-12.29-10.11-5.13 0-7.23 2.1-7.23 4.51 0 3.58 4.67 4.44 9.8 5.84 6.15 1.63 13 4.12 13 13.3 0 8.87-5.76 13.3-14.55 13.3a19.22 19.22 0 0 1 -9.33-2.25 3.81 3.81 0 0 0 -1.48-.62c-1 0-2.1.7-3.34 2.87h-.94z"/><path d="m351.55 100.62h-4.28v-1.4h4.28v-10l14.45-3.62v13.62h10.11v1.4h-10.11v26.21c0 4.59.7 7.08 3.42 7.08 3.74 0 6.07-3.42 6.77-8.71l1.32.15c-.7 6.07-3.26 11.67-12.75 11.67-7.71 0-13.23-2.25-13.23-11.9z"/><path d="m397.06 99.22v35.63h4.36v1.4h-23.1v-1.4h4.27v-34.23h-4.59v-1.4zm-7-19.84c4.83 0 7.7 2.41 7.7 7.16 0 4.12-2.25 7.31-7.85 7.31-6.3 0-7.78-4-7.78-7.24 0-3.81 2.1-7.23 7.93-7.23z"/><path d="m418.38 115.94v4c0 10 1.79 14.39 7.86 14.39 7.08 0 10.11-6 11-10.19l1.4.15c-1.04 4.88-3.64 12.71-16.64 12.71-12 0-18.67-6.69-18.67-18.82 0-13.07 7.93-19.76 20.77-19.76 9.49 0 14.23 4 14.23 9.88 0 4.82-2.56 7.31-6.45 7.31-4.05 0-6.93-2.1-6.93-6.46a10.43 10.43 0 0 1 .39-2.8h2.66a8.34 8.34 0 0 0 .54-2.8c0-2.64-1.55-3.73-3.73-3.73-4.56.02-6.43 4.53-6.43 16.12z"/><path d="m226.86 159.59v1.71h-8.25v51h2.8c9.65 0 13.92-7 18.51-16.5h1.64l-1.48 18.21h-41.23v-1.71h4.59v-51h-4.59v-1.71z"/><path d="m264.74 176.24c12.22 0 17.43 6.14 17 17.74h-21.97v3c0 9.18 1.63 15.4 9.18 15.4 5.75 0 9.64-3.65 11.35-9.64l1.4.23c-1.79 6.69-5.83 11.83-16.88 11.83-13.84 0-20.07-7.94-20.07-19.22 0-13.43 9.18-19.34 19.99-19.34zm3.12 16.18v-3.81c0-8.17-.63-10.89-3.82-10.89-2.72 0-4.2 2.64-4.2 10.89v3.81z"/><path d="m285.52 200.9h.93c2.88 9.49 7.63 12.21 14 12.21 5.75 0 7.93-2.1 7.93-5.05 0-3.5-3.81-4.28-9.72-5.92-6.23-1.71-13.15-4.12-13.15-12.75 0-7.94 5.44-13.15 13.69-13.15a18 18 0 0 1 7.86 1.79 4.6 4.6 0 0 0 2.18.62c1.16 0 1.71-.62 2.72-2.57h.86v11.92h-.94c-2.8-7.16-6.77-10.12-12.29-10.12-5.13 0-7.23 2.1-7.23 4.51 0 3.58 4.66 4.44 9.8 5.84 6.14 1.63 13 4.12 13 13.3 0 8.87-5.76 13.31-14.55 13.31a19.22 19.22 0 0 1 -9.33-2.26 3.81 3.81 0 0 0 -1.48-.62c-1 0-2.1.7-3.35 2.88h-.93z"/><path d="m319.28 200.9h.94c2.88 9.49 7.62 12.21 14 12.21 5.76 0 7.94-2.1 7.94-5.05 0-3.5-3.82-4.28-9.73-5.92-6.22-1.71-13.15-4.12-13.15-12.75 0-7.94 5.45-13.15 13.7-13.15a17.91 17.91 0 0 1 7.85 1.79 4.66 4.66 0 0 0 2.18.62c1.17 0 1.71-.62 2.72-2.57h.86v11.92h-.93c-2.8-7.16-6.77-10.12-12.29-10.12-5.14 0-7.24 2.1-7.24 4.51 0 3.58 4.67 4.44 9.8 5.84 6.15 1.63 13 4.12 13 13.3 0 8.87-5.75 13.31-14.54 13.31a19.26 19.26 0 0 1 -9.34-2.26 3.81 3.81 0 0 0 -1.48-.62c-1 0-2.1.7-3.34 2.88h-.94z"/><circle cx="414.78" cy="65.49" r="10.73"/><circle cx="380.08" cy="37.09" r="17.67"/></g><path d="m95.24 27.41s0 .05 0 .08a52.19 52.19 0 0 0 -8.89 2.06c-1.35.44-2.69.94-4 1.47a65.7 65.7 0 0 0 -8 3.89l-4.35 2.73a73.69 73.69 0 0 0 -8 6.15l-3.13 2.92c-1.28 1.25-2.5 2.55-3.67 3.88l-.28.32c-1.15 1.29-2.25 2.62-3.3 4-.87 1.13-1.7 2.31-2.49 3.51a58.53 58.53 0 0 0 -4.13 7.58c-.44.94-.85 1.88-1.22 2.84q-.45 1.13-.84 2.25c-.11.31-.21.62-.31.93 0-.09 0-.18 0-.27a162.9 162.9 0 0 1 .15-19.81l.67-5.84a50 50 0 0 1 5-16l3.09-4.94a44.92 44.92 0 0 1 10.18-9.84l4.45-2.89a103.71 103.71 0 0 1 15.35-7.43q2.44-1 5.09-1.9 4.45-1.56 9.47-3.1c-5.19 7.59-7.48 14.93-6.72 22 1.64-6.89 5.64-13.58 13.64-20l5.55 2.45c-10.42 7.55-14.49 15.19-13.31 22.96z" fill="#ff848c"/><path d="m112.92 11.7c-9.18 1.23-13.92 7.36-16.71 15.63l-.92.12s0-.05 0-.07c2.19-9.24 7.75-15.06 17.08-17z" fill="#ff848c"/><path d="m75.05 174a2.41 2.41 0 0 1 -.15.33c.1-.2.1-.33.15-.33z" fill="#ef808b"/><path d="m173.34 202.48c-12.12-5.1-22.47-7.41-37.41-4.87-17.31 3.14-27.29 3.3-35.26-4.88 3 4.45 4.78 5.55 5.77 10 1.13 5.12-.32 14.13-3 24.93-2.92 11.47-.6 21.27 3.91 33.43-22.49-8.55-48.86-47.15-32.6-86.49a50.75 50.75 0 0 1 20 9.57c1-3 .24-8-1.26-13.48a.06.06 0 0 1 0 0 .29.29 0 0 1 0-.09c-.18-.62-.36-1.24-.55-1.87s-.34-1.14-.51-1.66a5.83 5.83 0 0 1 -.48-1.47c5 3 10.72 3.29 17.09 3.29 16.53-.04 37.79-2.33 64.3 33.59z" fill="#ff848c"/><g fill="#e85a6b"><path d="m82.27 77.65s0 0 0 0z"/><path d="m119.65 92.74c-4.35 2.85-11.11 2.52-17.77.24-.48-.16-.95-.34-1.43-.52l-.88-.35c-.29-.11-.58-.24-.87-.37l-.85-.38a42.07 42.07 0 0 1 -3.76-2c10.14 2.25 18.6-5.09 25.56 3.38z"/><path d="m82.27 77.65-.87.48c-1-1.6-2.06-3.37-3.2-5.41l.83-.56.82-.55a11.09 11.09 0 0 0 1.1 1.22l.13.12 1 2.13a13 13 0 0 1 -1.86-1.53 12.63 12.63 0 0 1 -1.19-1.31c.5.91 1 1.79 1.5 2.63a1.59 1.59 0 0 0 .13.22l.51.86.24.4c.13.22.27.45.41.66l.12.19a3.37 3.37 0 0 0 .22.35s0 0 0 0z"/><path d="m127.61 50.55a15.35 15.35 0 0 0 -4.29-8.1 7.55 7.55 0 0 0 -5-2.27 5.24 5.24 0 0 0 -1.11.12c-2 .42-3.73 2-4.78 4.43a15.35 15.35 0 0 0 -.7 9.14 17.31 17.31 0 0 0 1.62 4.55 13.34 13.34 0 0 0 2.65 3.58 7 7 0 0 0 6.16 2.15c2-.42 3.73-2 4.78-4.43a15.35 15.35 0 0 0 .67-9.17zm-1.72 24.09a11.86 11.86 0 0 1 -2.82-.46 12.07 12.07 0 0 1 -3.7-1.75c-7.8-4.85-18.5-5.82-28.39-3.76-8.92 1.73-12.56 1.39-16.38-4.93l.24.69c.08.21.16.42.23.63 1.52 4.14 2.57 5.35 4.84 15.73a30.81 30.81 0 0 0 28.29 26.14c8.6-5.33 16.17-12.05 20.36-20.17a30.66 30.66 0 0 0 3.44-12.76 25.22 25.22 0 0 1 -6.11.64zm-1.65 10a13 13 0 0 1 -.78 3.31 9.75 9.75 0 0 1 -3.81 4.8c-4.35 2.85-11.11 2.52-17.77.24-.48-.16-.95-.34-1.43-.52l-.88-.35c-.29-.11-.58-.24-.87-.37l-.85-.38a42.07 42.07 0 0 1 -3.76-2 34.83 34.83 0 0 1 -8.19-6.59c-.14-.16-.27-.33-.41-.5l-.49-.62c-.43-.56-.87-1.16-1.31-1.8a.86.86 0 0 1 -.07-.1c-.45-.65-.91-1.35-1.37-2.08s0 0 0 0a3.37 3.37 0 0 1 -.22-.35l-.19-.33c-.14-.21-.28-.44-.41-.66l-.24-.4-.51-.86a1.59 1.59 0 0 1 -.13-.22c-.5-.84-1-1.72-1.5-2.63a12.63 12.63 0 0 0 1.19 1.31 13 13 0 0 0 1.86 1.53c7.12 4.93 16.51 1.14 26.75 3.33a53.24 53.24 0 0 1 15.39 6.2zm-8.95-52a7.45 7.45 0 0 0 -.8.78 6.8 6.8 0 0 0 -1 1.53c-.45.9-.49 1.49-.29 1.7s.69.06 1.42-.36a11.06 11.06 0 0 1 3.07-1.35l.37-.08a30.41 30.41 0 0 0 -2.77-2.27zm-12.9-.88a7.21 7.21 0 0 0 -1.17-1.55 8.19 8.19 0 0 0 -2.22-1.61 8.6 8.6 0 0 0 -2.65-.74 5.68 5.68 0 0 0 -.72-.05c-.25 0-.49 0-.72 0a8.62 8.62 0 0 0 -1.4.21 9.88 9.88 0 0 0 -2.7 1.07 12.62 12.62 0 0 0 -1.23.83 14.6 14.6 0 0 0 -1.15 1c-.38.37-.71.74-1 1.11s-.65.77-1 1.19a13.44 13.44 0 0 0 -1.67 2.83 14.23 14.23 0 0 0 -.59 1.58 14.47 14.47 0 0 0 -.47 1.66 7 7 0 0 0 -.21 1.38c0 .59.23 1 .31.56a10 10 0 0 1 .34-1 11.86 11.86 0 0 1 .52-1.23c.22-.4.46-.85.74-1.28a11.91 11.91 0 0 1 2-2.48c.4-.38.84-.74 1.29-1.11a15.74 15.74 0 0 1 1.37-1 11.65 11.65 0 0 1 2.82-1.34 9.14 9.14 0 0 1 2.65-.37 10.73 10.73 0 0 1 1.14.1c.37.06.71.11 1 .18a13 13 0 0 1 3.46 1.35c.82.42 1.36.59 1.59.36s.17-.78-.33-1.7zm-5.38 5c-4.35-1-9 3.59-10.47 10.13s.94 12.62 5.29 13.57 9-3.58 10.47-10.13-.94-12.7-5.3-13.65zm-1.71-9.35s0 .05 0 .07l.92-.12s0 0 0 0zm-.06 0a50.18 50.18 0 0 0 -17.94 5.73 84 84 0 0 0 -22.11 17.15 4.09 4.09 0 0 0 -.28.33q-1.72 1.92-3.3 4c-.87 1.13-1.7 2.31-2.49 3.52a57.22 57.22 0 0 0 -4.12 7.57c-.44.93-.85 1.88-1.22 2.83-.3.75-.58 1.51-.84 2.26-.11.3-.21.62-.31.92s0 .18 0 .27c.1-.31.2-.62.31-.93q.39-1.12.84-2.25c.37-1 .78-1.9 1.22-2.84a58.53 58.53 0 0 1 4.17-7.55c.79-1.2 1.62-2.38 2.49-3.51 1-1.41 2.15-2.74 3.3-4l.28-.32c1.17-1.33 2.39-2.63 3.67-3.88l3.09-2.92a73.69 73.69 0 0 1 8-6.15l4.4-2.73a65.7 65.7 0 0 1 8-3.89c1.34-.53 2.68-1 4-1.47a52.19 52.19 0 0 1 8.89-2.06s-.05-.05-.05-.08zm-20.49 147.22s.1-.17.15-.33c-.04.11-.1.22-.15.33zm17.13-9.07a5.83 5.83 0 0 0 .48 1.47zm-37.44-82.56c-.88 3.48-1.21 6.89-3.25 8.66a69.78 69.78 0 0 1 -11.11 5 81.45 81.45 0 0 0 3.42 16.16c.53 1.51 1.08 2.95 1.63 4.33 3.28-6.65 8.8-14.25 9.19-20.67a32.87 32.87 0 0 0 9-1.11 43.16 43.16 0 0 1 -8.88-12.37z"/></g><path d="m130.53 58.23a19.25 19.25 0 0 0 0-8.28 18.42 18.42 0 0 0 -5.18-9.68 11.51 11.51 0 0 0 -4.74-2.75 35 35 0 0 0 -2.61-2.71l-.37.08a11.06 11.06 0 0 0 -3.07 1.35c-.73.42-1.21.58-1.42.36s-.16-.8.29-1.7a6.8 6.8 0 0 1 1-1.53 7.45 7.45 0 0 1 .8-.78 28.36 28.36 0 0 0 -19.08-5.26s0 0 0 0l-.92.12s0-.05 0-.07h-.06s0 .05 0 .08a52.19 52.19 0 0 0 -8.89 2.06c-1.35.44-2.69.94-4 1.47a65.7 65.7 0 0 0 -8 3.89l-4.28 2.76a73.69 73.69 0 0 0 -8 6.15l-3.13 2.92c-1.28 1.25-2.5 2.55-3.67 3.88l-.28.32c-1.15 1.29-2.25 2.62-3.3 4-.87 1.13-1.7 2.31-2.49 3.51a58.53 58.53 0 0 0 -4.13 7.58c-.44.94-.85 1.88-1.22 2.84q-.45 1.13-.84 2.25c-.11.31-.21.62-.31.93 0-.09 0-.18 0-.27a59.79 59.79 0 0 0 -2.55 24.85 69.78 69.78 0 0 0 11.11-5c2-1.77 2.37-5.18 3.25-8.66a43.16 43.16 0 0 0 8.83 12.33 32.87 32.87 0 0 1 -9 1.11c-.39 6.42-5.91 14-9.19 20.67 5.29 13.28 11.44 21.31 19.26 30.71 6.66 7.13 14.42 17.12 10.71 26.24a2.41 2.41 0 0 1 -.15.33c-.05.16-.11.32-.15.33a50.75 50.75 0 0 1 20 9.57c1-3 .24-8-1.26-13.48-.21-.74-.7-2.66-1.58-5.16-.2-.24-.39-.49-.58-.74-12.57-16.19-9.61-37.92 16.44-57.6.15-.09.31-.18.46-.29a30.81 30.81 0 0 1 -28.32-26.17c-2.27-10.38-3.32-11.59-4.84-15.73-.07-.21-.15-.42-.23-.63l-.24-.69c3.82 6.32 7.46 6.66 16.38 4.93 9.89-2.06 20.59-1.09 28.39 3.76a12.07 12.07 0 0 0 3.7 1.75 11.86 11.86 0 0 0 2.82.46 25.22 25.22 0 0 0 6.11-.64 62.79 62.79 0 0 0 -1.47-15.77zm-28.23-8c-1.43 6.55-6.12 11.08-10.47 10.13s-6.72-7-5.29-13.57 6.12-11.06 10.46-10.11 6.73 7.03 5.3 13.57zm.42-16.81c-.23.23-.77.06-1.59-.36a13 13 0 0 0 -3.46-1.35c-.3-.07-.64-.12-1-.18a10.73 10.73 0 0 0 -1.14-.1 9.14 9.14 0 0 0 -2.65.37 11.65 11.65 0 0 0 -2.82 1.34 15.74 15.74 0 0 0 -1.37 1c-.45.37-.89.73-1.29 1.11a11.91 11.91 0 0 0 -2 2.48c-.28.43-.52.88-.74 1.28a11.86 11.86 0 0 0 -.53 1.19 10 10 0 0 0 -.34 1c-.08.47-.33 0-.31-.56a7 7 0 0 1 .21-1.38 14.47 14.47 0 0 1 .47-1.66 14.23 14.23 0 0 1 .59-1.58 13.44 13.44 0 0 1 1.67-2.83c.32-.42.65-.81 1-1.19s.66-.74 1-1.11a14.6 14.6 0 0 1 1.15-1 12.62 12.62 0 0 1 1.23-.83 9.88 9.88 0 0 1 2.71-1.06 8.62 8.62 0 0 1 1.4-.21h.72a5.68 5.68 0 0 1 .72.05 8.6 8.6 0 0 1 2.65.76 8.19 8.19 0 0 1 2.22 1.56 7.21 7.21 0 0 1 1.17 1.55c.5.92.61 1.52.33 1.73zm24.19 26.25c-1 2.43-2.75 4-4.78 4.43a7 7 0 0 1 -6.13-2.1 13.34 13.34 0 0 1 -2.67-3.55 17.31 17.31 0 0 1 -1.62-4.55 15.35 15.35 0 0 1 .7-9.14c1.05-2.43 2.75-4 4.78-4.43a5.24 5.24 0 0 1 1.11-.12 7.55 7.55 0 0 1 5 2.27 15.35 15.35 0 0 1 4.29 8.1 15.35 15.35 0 0 1 -.68 9.11z" fill="#e9596b"/><path d="m124.24 84.62a13 13 0 0 1 -.78 3.31 9.75 9.75 0 0 1 -3.81 4.8c-7-8.47-15.42-1.13-25.56-3.37a34.83 34.83 0 0 1 -8.19-6.59c-.14-.16-.27-.33-.41-.5l-.37-.47-.09-.1c-.43-.56-.87-1.16-1.31-1.8a.86.86 0 0 1 -.07-.1c-.45-.65-.91-1.35-1.37-2.08h-.06s0 0 0 0a3.37 3.37 0 0 1 -.22-.35l-.16-.37c-.14-.21-.28-.44-.41-.66l-.24-.4-.51-.86a1.59 1.59 0 0 1 -.13-.22c-.5-.84-1-1.72-1.5-2.63a12.63 12.63 0 0 0 1.19 1.31 13 13 0 0 0 1.86 1.53c7.12 4.93 16.51 1.14 26.75 3.33a53.24 53.24 0 0 1 15.39 6.22z" fill="#e9596b"/><path d="m126.91 59.69c-1 2.43-2.75 4-4.78 4.43a7 7 0 0 1 -6.13-2.12 13.34 13.34 0 0 1 -2.67-3.55 17.31 17.31 0 0 1 -1.62-4.55 15.35 15.35 0 0 1 .7-9.14c1.05-2.43 2.75-4 4.78-4.43a5.24 5.24 0 0 1 1.11-.12 7.55 7.55 0 0 1 5 2.27 15.35 15.35 0 0 1 4.29 8.1 15.35 15.35 0 0 1 -.68 9.11z" fill="#fff"/><path d="m102.3 50.25c-1.43 6.55-6.12 11.08-10.47 10.13s-6.72-7-5.29-13.57 6.12-11.08 10.46-10.13 6.73 7.03 5.3 13.57z" fill="#fff"/><ellipse cx="117.48" cy="54.89" fill="#1d1e1c" rx="3.57" ry="6.07" transform="matrix(.99788169 -.06505481 .06505481 .99788169 -3.32 7.76)"/><ellipse cx="96.03" cy="52.98" fill="#1d1e1c" rx="6.07" ry="3.7" transform="matrix(.21337143 -.97697115 .97697115 .21337143 23.77 135.48)"/><path d="m95.25 27.19a.15.15 0 0 1 0 .07s0-.05 0-.07z" fill="#ef808b"/><path d="m115.61 106.57 25 23.46c11.47-2.66 20.65-17 19.37-26.81-5 1.23-7.06-.42-5.71-5.54 1-6.11 1.68-12-2.59-14.7-1.8.93-4.33 2.4-5.13 5 .39 22.36-14.15 28.38-24.47 16.81z" fill="#ff848c"/><path d="m63.27 95.31a32.87 32.87 0 0 1 -9 1.11c-.39 6.42-5.91 14-9.19 20.67 0 0 0 .07-.05.1-6 12.64-7 23.22-27.25 19.58-19.63-4.72-18.01-7.77-17.53-18.69.39-8.07 1.29-15.66 10.58-15.43 10.64-1.38 20.24-2.89 29.25-6.05a69.78 69.78 0 0 0 11.11-5c2-1.77 2.37-5.18 3.25-8.66a43.16 43.16 0 0 0 8.83 12.37z" fill="#ff848c"/><g fill="#f9bcc4"><path d="m158.89 125.49c3 2.46 2.7 7.19.86 10.08-1 .71-2.29.59-3.7 0a42.29 42.29 0 0 0 -11.54-1.72c-2.15.42-3.46-.59-3.87-3.1-.27-1.71 2.15-3.37 2.93-4.22z"/><path d="m140.62 121.47c-1.08 1.42-.37 6.43.91 7.05 3.65 0 13.84-.14 13.84-.14 11.23.48 9.59-13.31 7.75-14.88l-22 8.22z"/><path d="m160 103.22s-6.46 5.58-14 6.77c-5.33.94-6.94 6.31-6.94 6.31 0 1.39 0 7.39 5.6 5.58l17.15-7.08c3.88-2.32 4.85-6 1.92-11.58-1.08-1.11-2.29-1.32-3.73 0z"/></g><path d="m79.05 72.25v-.07c-.14-.16-.27-.33-.41-.51a2.44 2.44 0 0 0 -.16-.23 20.55 20.55 0 0 1 -1.25-1.92c-.12-.22-.25-.44-.37-.67-.35-.64-.68-1.31-1-2-.26-.55-.5-1.14-.74-1.75-.07-.21-.15-.42-.23-.63l-.24-.69c1.48 2.95 3 5.8 4.41 8.43-.06-.01-.06.01-.01.04z" fill="#f6bbc3"/><path d="m134 87.94a12.59 12.59 0 0 1 -3-.37c1.44 8.42-2.1 14.19-8.9 17.18-.45.21-.92.39-1.41.57a34.13 34.13 0 0 1 -5.07 1.26 32.11 32.11 0 0 1 -7.42.35 30.81 30.81 0 0 1 -28.29-26.14c-2.27-10.38-3.32-11.59-4.84-15.73.24.61.48 1.2.74 1.75.32.73.65 1.4 1 2 .12.23.25.45.37.67a20.55 20.55 0 0 0 1.25 1.92 2.44 2.44 0 0 1 .16.23c.14.18.27.35.41.51v.07c.5.91 1 1.79 1.5 2.63a1.59 1.59 0 0 0 .13.22l.51.86.24.4c.13.22.27.45.41.66l.12.19a3.37 3.37 0 0 0 .22.35s0 0 0 0c.46.73.92 1.43 1.37 2.08a.86.86 0 0 0 .07.1c.44.64.88 1.24 1.31 1.8l.09.1.37.47c.14.17.27.34.41.5a34.83 34.83 0 0 0 8.19 6.59 42.07 42.07 0 0 0 3.76 2l.85.38c.29.13.58.26.87.37l.88.35c.48.18 1 .36 1.43.52 6.66 2.28 13.42 2.61 17.77-.24a9.75 9.75 0 0 0 3.81-4.8 13 13 0 0 0 .78-3.31 53.24 53.24 0 0 0 -15.39-6.2c-10.09-2-19.48 1.77-26.6-3.14a13 13 0 0 1 -1.86-1.53 12.63 12.63 0 0 1 -1.19-1.31s0 0 0-.08c-1.46-2.63-2.93-5.48-4.41-8.43 3.82 6.32 7.46 6.66 16.38 4.93 9.89-2.06 20.59-1.09 28.39 3.76a12.07 12.07 0 0 0 3.7 1.75 11.86 11.86 0 0 0 2.82.46 25.22 25.22 0 0 0 6.07-.64c7.55 3.26 7.16 13.94 2 13.94z" fill="#f9bcc4"/><path d="m79.05 72.25v-.07c-.14-.16-.27-.33-.41-.51a2.44 2.44 0 0 0 -.16-.23 20.55 20.55 0 0 1 -1.25-1.92c-.12-.22-.25-.44-.37-.67-.35-.64-.68-1.31-1-2-.26-.55-.5-1.14-.74-1.75-.07-.21-.15-.42-.23-.63l-.24-.69c1.48 2.95 3 5.8 4.41 8.43-.06-.01-.06.01-.01.04z" fill="#f6bbc3"/><path d="m102.72 33.44c-.23.23-.77.06-1.59-.36a13 13 0 0 0 -3.46-1.35c-.3-.07-.64-.12-1-.18a10.73 10.73 0 0 0 -1.14-.1 9.14 9.14 0 0 0 -2.65.37 11.65 11.65 0 0 0 -2.82 1.34 15.74 15.74 0 0 0 -1.37 1c-.45.37-.89.73-1.29 1.11a11.91 11.91 0 0 0 -2 2.48c-.28.43-.52.88-.74 1.28a11.86 11.86 0 0 0 -.53 1.19 10 10 0 0 0 -.34 1c-.08.47-.33 0-.31-.56a7 7 0 0 1 .21-1.38 14.47 14.47 0 0 1 .47-1.66 14.23 14.23 0 0 1 .59-1.58 13.44 13.44 0 0 1 1.67-2.83c.32-.42.65-.81 1-1.19s.66-.74 1-1.11a14.6 14.6 0 0 1 1.15-1 12.62 12.62 0 0 1 1.23-.83 9.88 9.88 0 0 1 2.71-1.08 8.62 8.62 0 0 1 1.4-.21h.72a5.68 5.68 0 0 1 .72.05 8.6 8.6 0 0 1 2.65.76 8.19 8.19 0 0 1 2.22 1.56 7.21 7.21 0 0 1 1.17 1.55c.5.92.61 1.52.33 1.73z" fill="#1d1e1c"/><path d="m130.05 44.18a9.7 9.7 0 0 0 -.3-1c-.13-.36-.29-.76-.48-1.16s-.42-.83-.66-1.26a12 12 0 0 0 -1.79-2.43c-.36-.37-.75-.73-1.16-1.08a14.36 14.36 0 0 0 -1.22-1 10.09 10.09 0 0 0 -2.52-1.3 7.49 7.49 0 0 0 -2.35-.35 8.59 8.59 0 0 0 -1 .1l-.53.1-.37.08a11.06 11.06 0 0 0 -3.07 1.35c-.73.42-1.21.58-1.42.36s-.16-.8.29-1.7a6.8 6.8 0 0 1 1-1.53 7.45 7.45 0 0 1 .8-.78 7.79 7.79 0 0 1 1.16-.77 7.2 7.2 0 0 1 2.36-.74c.21 0 .42-.06.64-.06h.64a7.62 7.62 0 0 1 1.24.2 8.14 8.14 0 0 1 2.41 1.05 9.42 9.42 0 0 1 1.1.81 13 13 0 0 1 1 1c.33.35.63.72.92 1.08s.59.75.87 1.17a13.66 13.66 0 0 1 1.51 2.78c.2.5.37 1 .53 1.55a16.18 16.18 0 0 1 .42 1.63 6.76 6.76 0 0 1 .19 1.35c.09.57-.13 1.01-.21.55z" fill="#1d1e1c"/><circle cx="97.77" cy="49.82" fill="#fff" r="1.24"/><circle cx="118.4" cy="51.7" fill="#fff" r="1.28"/><path d="m118.44 93.43c-7.59 3.69-20-1.11-24.35-4.06 5.53 1.69 9.81-1.54 15.38-1.55 3.23-.01 7.31 2.53 8.97 5.61z" fill="#ff848c"/></svg>