<svg enable-background="new 0 0 347.39 278.72" viewBox="0 0 347.39 278.72" xmlns="http://www.w3.org/2000/svg" xmlns:xlink="http://www.w3.org/1999/xlink"><defs><circle id="a" cx="241.74" cy="234.72" r="44"/><clipPath id="b"><use xlink:href="#a"/></clipPath><clipPath id="c"><use xlink:href="#f"/></clipPath><clipPath id="d"><path d="m309.28 182.37-.56.22.38.17z"/></clipPath><clipPath id="e"><path d="m-579.59-295.28h1024v1344h-1024z"/></clipPath><path id="f" d="m-595.26-280.28h1024v1344h-1024z"/></defs><path d="m234.22 156.87c-.82-.05-1.66-.08-2.52-.1 4.15 1.53 8.88 4.34 12.18 6.39 3.73 2.33 7.09 4.95 10.25 7.58 3.16 2.64 6.06 5.22 9.05 7.75 2.98 2.53 5.98 5.01 9.1 7.34 3.13 2.34 6.39 4.49 9.92 6.35s7.36 3.41 11.59 4.39c-4.07 1.57-8.58 2.31-13.1 2.26-4.53-.05-9.06-.86-13.35-2.19-4.3-1.33-8.37-3.19-12.16-5.37-3.79-2.17-7.37-4.73-10.57-7.31-6.45-5.2-11.57-9.66-17.39-13.97-2.92-2.16-9.01-5.44-12.55-6.98-3.4-1.41-16.03-8.82-24.06-15.6-5.59-2.89-10.86-6.54-16.41-9.37-3.1-1.58-6.2-3.66-9.48-5.15l-.07-.04c-1.48-.97-3.06-2.01-4.7-3.03-1.07-.66-2.11-1.36-3.17-2.02l-.76-.47c-.31-.19-.62-.38-.93-.57-.84-.52-1.65-1.01-2.49-1.53-.36-.22-.67-.41-1.03-.63-.18-.11-.35-.22-.58-.35l-1.65-1.01-.27-.17c-.31-.19-.67-.41-.98-.6l-.05-.03c-.76-.46-1.49-.98-2.24-1.44-1.71-1.12-3.42-2.23-5.07-3.32-.77-.53 2.43 1.42 1.7.91-.05-.03-.09-.05-.09-.05-.05-.03-.05-.03-.09-.06l-.31-.19-.68-.49c-.09-.05-.22-.13-.31-.19-1.04-.7-2.08-1.41-3.12-2.11-1.26-.84-2.52-1.68-3.83-2.56-1.3-.87-2.56-1.71-3.91-2.61-.18-.11-.4-.24-.55-.4-1.44-.95-2.89-1.98-4.27-3.03-.86-.59-1.69-1.24-2.57-1.91-1.4-1.12-2.8-2.32-4.14-3.53-1.58-1.43-3.09-2.95-4.55-4.57-.05-.03-.09-.05-.1-.13-.05-.02-.05-.02-.09-.05-.61-.7-1.17-1.38-1.75-2.13-.06-.1-.16-.23-.25-.28-.09-.06-.1-.14-.17-.24-.74-.98-1.65-2.2-2.6-3.64-1.12-1.67-2.3-3.64-3.32-5.85-.49-1.1-1.03-2.21-1.46-3.4-1.07-2.43-1.8-5.84-2.36-9.01-.76-4.73-1.07-9-1.07-9 3.09 3.15 6.98 6 10.21 8.32.13.08.27.17.37.29 1.77 1.22 3.31 2.3 4.39 3.23l.05.03c.61.5 1.21.93 1.84 1.4.91.62 1.78 1.29 2.71 1.87.73.51 1.46 1.03 2.21 1.49.64.46 1.26.84 1.88 1.23.31.19.62.38.98.6l4.13 2.55c1.25.76 2.52 1.48 3.89 2.26 2.79 1.65 5.83 3.39 8.82 5.1.14.09.27.17.4.25l.97.6c1.16.71 2.3 1.35 3.5 2.09 3.41 2.03 2.77 1.59 6.05 3.74.22.14.44.27.71.44.04.03.09.05.09.05.05.03.05.03.09.06.77.54 1.62 1.06 2.39 1.6l.04.03c.6.43 1.14.83 1.77 1.22l.4.25c.14.08.22.13.33.26.44.27.86.6 1.27.92.42.32.86.59 1.32.94.22.14.37.3.55.4 2.2 1.62 4.33 3.33 6.37 5.1.19.18.38.37.61.51.15.16.33.27.48.42.39.37.81.69 1.24 1.09.09.05.1.13.19.18.33.27.62.58.95.85-2.8-4.63-7.82-18.01-9.45-41.68-.11-1.12-.25-2.19-.43-3.28-.01-.08.01-.12 0-.2s0-.2-.02-.28c-.04-.22-.06-.49-.1-.72l-.18-.9c-.18-.9-.32-1.77-.54-2.69-.01-.08-.03-.15-.09-.25-.32-1.38-.66-2.71-1.04-3.99-.19-.58-.34-1.13-.54-1.71-.48-1.41-1.02-2.93-1.64-4.49l-.01-.12c-.2-.58-.48-1.21-.8-2-.15-.35-.3-.71-.45-1.06-.09-.25-.22-.53-.34-.74-.32-.79-.68-1.6-1.05-2.48-.57-1.27-1.15-2.61-1.76-3.91l-.12-.21c-1.09-2.7-2.06-4.61-3.54-6.78-1.25-1.75-2.93-3.71-5.46-6.38.86.2 1.72.4 2.55.65.53.13 1.02.24 1.53.41.9.23 1.78.51 2.65.78.34.15.67.21 1.01.35 1.56.57 3.12 1.2 4.64 1.94.34.15.61.31.95.46.88.48 1.75.95 2.67 1.45l.54.33c.22.13.49.3.73.51l.4.24.44.27.13.08c.51.37 1.09.73 1.59 1.11.18.11.33.26.55.4.55.4 1.14.84 1.65 1.21 19.29 14.06 26.57 28.54 31.49 42.83 4.1-4.32 8.86-8.61 14-14.62 4.72-5.51 10.42-14.11 15.05-22.82 3.11-5.85 6.92-16.38 8.74-22.16 3.23 3.36 6.94 10.22 10.1 18.81 3.18 8.62 4.58 17.61 4.16 25.07-.38 6.83-1.93 11.58-3.69 17.97-1.85 6.7-5.42 13.04-8.74 19.39-.25.48-.7.81-1.05 1.22 3.43-2.89 6.86-5.51 9.93-7.63 4.65-3.19 9.49-6.09 14.91-8.65 5.39-2.55 11.3-4.68 17.64-6.02 3.16-.67 6.44-1.14 9.75-1.37s6.62-.21 9.9-.04c6.56.37 13.02 1.39 19.51 2.62-5.14 2.88-10.96 4.69-15.84 7.37-4.02 2.06-8.34 4.11-10.55 5.48-11.76 6.51-15.74 12-26.31 22.21-6.12 5.17-13.27 12.08-20.89 18.09.44-.03.88-.07 1.32-.1 6.57-.47 13.05-.38 19.27-.02 12.52.74 23.77 2.56 35.13 3.89 2.84.33 5.69.63 8.59.84 2.91.22 5.84.4 8.75.41 4.3-.05 12.8.85 20.06-.14 0 0-8.35 8.28-14.44 11.46-5.68 3.39-11.85 4.98-15.07 5.76-12.96 3.14-27.07.88-39.24.39-12.28-.47-24.38-1.56-34.77-2.22z" fill="#9daefe"/><path d="m260.95 171.66c-.61-.81-1.15-2.06-1.71-3.48-.55-1.43-1.15-3.03-1.8-4.53-.64-1.5-1.33-2.89-1.89-3.9-.17-.32-.33-.61-.47-.85-3.7.27-7.4.42-11.11.45 1.82.96 3.54 1.66 5 2.37 1.95.93 3.46 1.87 4.48 3.45 1.04 1.81 1.14 3.61.33 4.82-.79 1.19-2.6 1.76-5 .68-.94-.44-1.96-1.42-2.87-2.67s-1.7-2.75-2.27-4.2c-.58-1.44-.96-2.82-1.18-3.83-.05-.22-.09-.43-.12-.61-1.04 0-2.08-.01-3.12-.02-2.85-.04-5.7-.14-8.55-.3 1.51.81 2.92 1.48 4.12 2.16 1.82 1.03 3.19 2.09 3.95 3.77.74 1.92.52 3.74-.48 4.86-.98 1.11-2.79 1.48-4.92.24-.83-.5-1.65-1.53-2.36-2.8s-1.29-2.77-1.7-4.2-.66-2.78-.8-3.77c-.02-.14-.04-.27-.05-.39-3.53-.22-7.05-.52-10.57-.88.77.47 1.57.88 2.34 1.37 1.34.85 2.56 1.83 3.58 2.93 2.03 2.18 3.28 4.79 3.27 7.48-.07 1.48-.49 2.62-1.03 3.36-.57.75-1.25 1.12-1.95 1.16-1.43.06-2.81-1.11-3.94-3.27-.44-.87-.71-2.12-1.01-3.56-.3-1.43-.63-3.05-1.07-4.56-.22-.76-.45-1.48-.71-2.19-.26-.7-.51-1.39-.69-1.97-.1-.33-.18-.63-.24-.89-1.13-.12-2.27-.25-3.4-.38l.39-3.05c.44.06.87.12 1.31.18 1.11-4.93 1.87-9.07 4.95-10.99 3.77-2.06 7.05.62 5.21 4.73-1.12 2.39-6.25 5.15-8.85 6.43 2.84.37 5.69.69 8.54.97 1.89-2.33 3.2-4.65 4.53-6.64 1.51-2.31 3.05-4.24 5.21-5.57 4.91-2.79 8.06.06 4.73 5.21-1.34 2.02-5.06 4.51-8.61 6.04-1.15.5-2.27.9-3.26 1.2 3.46.3 6.93.53 10.39.67 1.19-.79 1.95-1.85 2.54-2.86.69-1.21 1.15-2.45 1.72-3.66.57-1.23 1.23-2.4 1.92-3.38.7-.99 1.46-1.83 2.35-2.56 1.02-.75 1.97-1.22 2.83-1.43s1.64-.16 2.26.19c.61.35 1.05 1.01 1.16 1.98.11.96-.1 2.24-.78 3.68-.55 1.14-1.68 2.41-3.03 3.57-.68.59-1.39 1.14-2.16 1.71s-1.6 1.14-2.47 1.64c-.87.49-1.76.91-2.61 1.19-.04.01-.07.03-.11.03 3.37.08 6.74.07 10.1-.04 1.4-2.89 2.5-5.57 3.68-7.89 1.32-2.58 2.73-4.72 4.76-6.29 2.32-1.65 4.31-1.93 5.42-1.05 1.1.87 1.3 2.92-.19 5.76-1.19 2.23-4.7 5.05-7.95 7.08-1.51.95-2.96 1.75-4.08 2.33 3.87-.17 7.73-.47 11.58-.94 1.09-2.44 2.02-4.71 2.99-6.61 1.12-2.21 2.27-3.94 3.98-5.15 1.96-1.25 3.77-1.47 4.96-.68.58.4.98 1.05 1.09 1.96.1.9-.1 2.04-.73 3.33-.5 1.01-1.57 2.12-2.88 3.14s-2.86 1.94-4.33 2.7c-.62.32-1.23.61-1.8.87 3.41-.5 6.8-1.14 10.15-1.92 1.8-5.48 3.23-10.03 6.36-13.06 3.91-3.53 6.55-1.76 4.11 3.32-1.32 2.68-5.8 6.84-8.62 9.29 3.57-.89 7.1-1.96 10.57-3.2.17-.06.34-.12.51-.19.86-2.54 1.31-4.87 1.8-6.88.53-2.19 1.1-4.01 2.29-5.57 1.38-1.67 2.86-2.38 4.04-1.99 1.15.38 1.98 1.97 1.49 4.64-.21 1.05-.87 2.35-1.8 3.63-.93 1.29-2.12 2.54-3.32 3.57-.79.68-1.57 1.27-2.27 1.76 3.76-1.46 7.44-3.14 11.01-5.03.37-2.91.65-5.58 1.2-7.93.15-.64.32-1.26.51-1.85.2-.6.41-1.15.62-1.63.22-.49.43-.92.66-1.31.11-.19.22-.37.35-.57s.27-.42.44-.66c.39-.51.83-1.03 1.31-1.45.48-.43.99-.74 1.47-.92.98-.35 1.76-.09 2.26.39.51.49.84 1.14 1.14 1.82.27.7.51 1.41.31 2.88-.08.57-.37 1.39-.76 2.11-.39.74-.89 1.45-1.42 2.1-1.04 1.27-2.29 2.56-3.51 3.72-.75.72-1.5 1.4-2.16 1.98 2.37-1.33 4.68-2.76 6.94-4.27l.01.01c4.46-2.82 6.62-4.56 8.6-8.62 1.7-4.62 2.29-6.31 4.15-8.12 1.68-1.51 4.37-2.13 5.72-1 2.08 2.02 1.52 5.71-.74 9.47-1.36 2.02-3.22 4.2-7.38 6.08-3.35 1.48-7.38 2.26-10.8 3.97 0 0-.01.01-.01.01h-.01c-1.59 1.08-3.22 2.11-4.87 3.09.29-.05.57-.08.84-.11 1-.08 1.84-.15 2.68-.2 1.66-.1 4.4-.1 5.82.4 1.54.62 2.37 1.49 2.35 2.34-.01.83-.92 1.63-2.81 1.8-1.5.12-5.37-.74-7.42-1.86-1.02-.56-1.81-1.07-2.47-1.31-.19-.07-.37-.12-.52-.16-2.34 1.36-4.73 2.62-7.18 3.79 1.76-.3 3.52-.41 5.19-.31 1.35.09 2.65.33 3.81.73 1.15.41 2.17.98 2.98 1.71.84.85 1.23 1.67 1.28 2.36.04.69-.23 1.24-.72 1.62-1.01.77-2.71.86-4.8.29-.82-.24-1.75-.78-2.81-1.42-1.05-.64-2.23-1.37-3.43-2.01-1.19-.65-2.4-1.2-3.31-1.59-.22-.1-.43-.18-.61-.26-1.93.87-3.88 1.68-5.86 2.43.11-.01.22-.01.33-.01 1.15-.04 2.25.01 3.3.16 2.08.31 3.91 1.05 5.22 2.42 1.38 1.58 1.49 3.07.83 3.89-.66.83-2.03 1.04-3.86.43-.72-.25-1.57-.83-2.48-1.53s-1.91-1.51-2.86-2.27c-.48-.37-.93-.73-1.36-1.06-.41-.31-.78-.57-1.11-.75-.25-.14-.47-.23-.66-.29-2.9 1.02-5.83 1.92-8.8 2.7 1.13.02 2.23.1 3.29.26 1.29.2 2.53.53 3.68 1.05 1.14.52 2.2 1.24 3.06 2.17.92 1.05 1.36 2.1 1.46 2.88.09.82-.14 1.38-.56 1.7-.42.33-1.02.42-1.73.3-.72-.1-1.55-.39-2.57-.84-.8-.37-1.78-1.06-2.96-1.86-1.18-.79-2.54-1.68-3.85-2.5-.65-.41-1.27-.8-1.85-1.16-.55-.34-1.05-.6-1.49-.77-.27-.11-.52-.17-.74-.21-3.09.7-6.2 1.28-9.33 1.75 2.45.54 4.7.95 6.68 1.48 1.27.34 2.38.69 3.34 1.11s1.78.9 2.51 1.52c.78.74 1.34 1.48 1.72 2.23.37.76.54 1.52.39 2.24-.15.71-.64 1.38-1.57 1.81-.92.44-2.29.61-3.92.31-1.28-.25-2.81-1.11-4.14-2.24-1.36-1.13-2.54-2.48-3.59-3.81-1.42-1.78-2.5-3.5-3.06-4.43-2.61.36-5.23.65-7.85.86 2.42.91 4.63 2.11 6.44 3.56 1.15.93 2.12 1.97 2.88 3.09.76 1.13 1.29 2.35 1.54 3.65.21 1.45.06 2.63-.31 3.48-.38.86-.96 1.37-1.63 1.57-1.34.42-2.97-.43-4.57-2.45z" fill="#582fb3"/><path d="m315.45 118.57c-.67.13-1.51.32-2.53.58-1.03.24-2.26.53-3.7.86-8.5 2.2-16.59 3.98-24.93 5.58-4.17.77-8.38 1.54-12.76 2.2-4.38.64-8.88 1.22-13.62 1.66-4.75.45-9.66.73-15.13.82-5.63.07-11.54.14-17.82.21-1.07.02-2.15.05-3.25.08 2.21-1.04 4.37-2.19 6.49-3.45 4.39-2.6 8.47-5.62 12.27-8.83 7.58-6.45 13.92-13.7 19.91-20.96 2.95-3.62 5.91-7.26 8.89-10.91 2.98-3.64 6.04-7.2 9.35-10.68.76-.77 1.44-1.51 2.06-2.1.63-.6 1.17-1.11 1.62-1.56.89-.89 1.38-1.51 1.35-1.92-.04-.4-.6-.58-1.8-.58-.61 0-1.38.05-2.33.14-.96.07-2.08.23-3.38.46-7.78 1.62-15.03 4.73-21.72 8.79-6.69 4.07-12.88 9.06-19.07 14.64-3.1 2.77-6.21 5.69-9.47 8.7-3.28 2.97-6.64 6.05-10.42 9.11-6.75 5.45-14.76 11.08-24.76 16.15.77-.7 1.53-1.44 2.27-2.19 3.82-3.88 7.41-8.35 10.23-13.62 1.37-2.63 2.62-5.48 3.51-8.39.91-2.89 1.56-5.77 2.05-8.58.49-2.82.85-5.53 1.15-8.17.31-2.68.56-5.31.8-7.93.49-5.22.89-10.34 1.44-15.33.56-4.98 1.31-9.84 2.41-14.58 1.17-4.73 2.67-9.18 4.94-13.89 2.21-4.71 4.89-9.66 6.8-14.94 1.75-4.8 2.23-7.77 1.76-8.31-.26-.29-.8 0-1.71.84-.92.83-2.26 2.17-4.29 3.9-2.93 2.69-5.96 5.19-9.02 8.04-3.03 2.85-6.16 6.05-8.85 10.1-2.7 3.98-4.87 8.41-6.5 13.09s-2.76 9.6-3.53 14.66c-.77 5.08-1.18 10.3-1.42 15.67-.28 5.34-.31 11.01-.65 16.4-.19 2.71-.47 5.38-1.04 8-.55 2.64-1.4 5.38-2.53 8.19-1.59 3.97-6.56 8.67-6.77 7.01-.53-4.14-.58-4.02-1.46-7.83-.88-3.82-1.91-7.42-2.87-10.83-.96-3.38-1.77-6.61-2.59-9.98-.84-3.34-1.53-6.74-2.2-10.2-.69-3.46-1.23-6.99-1.71-10.61-.51-3.61-.85-7.31-1.08-11.11-.26-3.8-.32-7.69-.22-11.66.02-1.82.16-3.25.21-4.3.03-1.05-.02-1.71-.29-1.96s-.75-.09-1.54.52c-.78.62-1.97 1.66-3.41 3.29-8.4 10.01-12.55 23.13-11.11 38.68.41 3.88 1.15 7.91 2.34 12.05 1.22 4.11 2.87 8.44 4.93 12.57 1.17 2.38 2.44 4.72 3.75 7.07-1.27-1.8-2.68-3.58-4.23-5.31-2.73-3.06-5.5-5.92-8.28-8.71-5.53-5.57-10.98-10.76-15.89-16.48-4.93-5.76-9.54-12.18-13.19-19.66-1.64-3.41-2.21-5.64-2.93-5.87-.35-.11-.71.25-1.15 1.21-.45.97-.96 2.52-1.48 4.79-1.28 6.85-.8 14.03 1.35 21 2.12 6.99 6.02 13.86 11.2 20.05 2.59 3.1 5.47 6.08 8.61 8.98 1.57 1.44 3.2 2.88 4.88 4.3.84.7 1.7 1.41 2.57 2.13.81.66 1.62 1.33 2.45 2 3.13 2.55 6.4 5.73 9.99 9.37 3.6 3.62 7.5 7.7 12.16 11.68.6.63 1.29 1.06 1.99 1.33-.01.16 0 .32.02.47 1.13.42 1.93 1.25 2.4 2.24 8.41 3.85 16.25 8.1 23.67 12.78 1.91 1.22 3.8 2.47 5.74 3.76 1.99 1.33 3.97 2.66 5.95 4 4.1 2.72 8.46 5.49 13.27 8.04 4.82 2.51 10.12 4.79 15.85 6.22 5.68 1.45 11.5 2.02 17.19 1.78 11.39-.48 22.29-4.2 30.95-10.28 3.91-2.78 5.95-4.64 5.92-5.34-.04-.36-.62-.5-1.83-.45-.6.03-1.35.1-2.28.19-.91.07-2.01.14-3.29.23-7.57.59-14.53.46-21.49-.32-6.94-.78-13.9-2.08-21.08-4.64-1.81-.64-3.67-1.37-5.61-2.22-1.95-.83-3.97-1.78-6.09-2.81-4.24-2.04-8.91-4.42-14.09-7.01-4.59-2.29-6.1-3.75-2.68-3.2 10.49 1.69 16.81 2.26 28.93 2.36 6.04.05 12.33-.42 18.42-1.47 6.11-1.05 12.09-2.66 17.85-4.78 11.51-4.24 22.08-10.57 30.97-18.35 4.03-3.56 6.27-5.75 6.2-6.48-.01-.38-.65-.43-1.99-.19z" fill="#e9596b"/><path d="m177.88 140.04c-.02-.03-.02-.05-.03-.07h.12c-.04.02-.07.03-.09.07z" fill="#e9596b"/><path d="m223.38 148.89s12.59.25 20.95-9.48c0 0 2.77-5.26 16.27-8.92 10.25-2.72 11.85-3.65 14.39-6.57.92-1.02 3.59-5.58 14.52-7.91 11.05-2.28 14.11-6.19 14.85-8.2 1-2.98 1.52-4.21 7.61-6.15 7.69-2.4 9.81-10.55 9.81-10.55s-10.84 1.81-15.37 4.74c-3.31 2.23-6.82 3.49-10.77 3.23-3.77-.41-11.22 1.49-15.59 5.01s-5.21 6.07-14.66 7.41c-5.04.91-9.28 2.55-13.4 4.66-3.39 1.91-6.21 4.58-7.27 7.03-1.12 3.19-5.48 5.76-8.95 6.75 0 0-8.99 2.39-16.49 8.48" fill="#5676ef"/><path d="m172.32 96.7c-.77-.54-1.91-.92-3.39-1-1.34 0-2.66.28-3.93.81s-2.49 1.3-3.64 2.25c-1.8 1.51-3.43 3.46-4.82 5.68.31-2.65.54-5.3.7-7.97 1.03-.37 2.95-1.11 5-2.16 1.52-.79 3.1-1.69 4.49-2.81 1.39-1.1 2.54-2.44 3.04-3.67.63-1.56.72-2.95.47-3.96-.24-1.01-.81-1.63-1.49-1.92s-1.48-.28-2.31-.06c-.82.23-1.68.64-2.56 1.27-.76.61-1.4 1.32-2 2.2-.61.87-1.18 1.91-1.77 3.1-.92 1.86-1.77 4.02-2.79 6.34.16-3.2.21-6.41.12-9.62.08-.21.19-.44.35-.69.25-.41.61-.85 1.06-1.33.48-.5.99-1.04 1.52-1.61 1.08-1.14 2.23-2.32 3.25-3.33 1.02-1.02 1.91-1.85 2.43-2.57.65-.92 1.11-1.69 1.35-2.39.25-.68.28-1.3.04-1.78s-.75-.81-1.58-.89c-.8-.05-1.93.17-3.15.88-1.1.67-2.02 1.58-2.77 2.61-.75 1.04-1.32 2.2-1.78 3.45-.37 1.03-.67 2.09-.92 3.22-.19-3.11-.5-6.2-.93-9.28.1-.17.23-.38.42-.6.25-.29.58-.61.97-.95.42-.36.86-.74 1.33-1.14.94-.8 1.95-1.62 2.82-2.39.88-.77 1.62-1.49 2.01-2.16.97-1.7 1.04-3.1.34-3.92-.68-.81-2.18-1-4.03.06-1.62 1.03-2.72 2.7-3.44 4.7-.36 1.01-.62 2.1-.82 3.24-.02.11-.04.22-.06.33-.35-2.11-.77-4.22-1.25-6.3.11-.17.23-.35.38-.56.56-.83 1.35-1.92 2.23-2.97.88-1.06 1.84-2.09 2.68-3.01s1.56-1.74 1.97-2.51c.98-1.96 1.23-3.67.67-4.83-.28-.56-.77-.94-1.47-1.04-.69-.09-1.59.14-2.6.81-.89.66-1.65 1.56-2.29 2.62-.63 1.07-1.12 2.31-1.48 3.63-.44 1.63-.67 3.4-.73 5.21-.68-2.66-1.46-5.29-2.34-7.88.07-.14.16-.31.26-.48.37-.61 1.03-1.29 1.79-2.19 1.53-1.81 3.15-5.48 3.33-6.99.21-1.91-.41-2.97-1.23-3.15-.84-.18-1.87.47-2.79 1.87-.78 1.31-1.32 4.04-1.55 5.7-.12.84-.22 1.7-.34 2.7-.03.27-.05.56-.06.86-.65-1.83-1.35-3.65-2.1-5.45v-.01-.01c-1.03-3.74-1-7.89-1.8-11.51-1.04-4.5-2.84-6.78-4.58-8.54-3.28-2.99-6.83-4.28-9.26-2.61-1.39 1.11-1.31 3.91-.14 5.88 1.43 2.2 2.98 3.13 7.24 5.74 3.64 2.77 4.94 5.26 6.85 10.25h-.01c1.05 2.55 2.01 5.13 2.86 7.74-.45-.77-.97-1.64-1.54-2.53-.91-1.44-1.94-2.94-2.99-4.22-.54-.65-1.15-1.29-1.8-1.82-.64-.53-1.4-.98-1.95-1.17-1.42-.48-2.17-.39-2.92-.26-.73.16-1.44.36-2.03.77-.57.4-.99 1.12-.83 2.17.08.51.29 1.08.62 1.64.32.56.75 1.1 1.18 1.59.21.21.39.4.57.57.17.16.32.31.49.46.34.3.73.6 1.17.91s.95.63 1.5.94 1.13.6 1.74.87c2.22 1.01 4.82 1.82 7.63 2.77 1.17 3.92 2.11 7.91 2.81 11.93-.34-.79-.77-1.69-1.29-2.6-.79-1.4-1.8-2.83-2.89-4-1.09-1.18-2.25-2.1-3.25-2.51-2.55-1.02-4.29-.5-4.9.56-.62 1.09-.22 2.7 1.17 4.4 1.32 1.49 3.01 2.42 5.08 3.38 1.9.89 4.13 1.79 6.48 3.15.03.18.06.36.08.54.55 3.69.9 7.4 1.08 11.13-1.88-3.28-5.11-8.56-7.51-10.4-4.56-3.44-6.85-1.16-4.12 3.42 2.39 3.72 6.62 6.04 11.71 8.92.11 3.49.07 6.98-.11 10.46-.14-.62-.31-1.28-.51-1.96-.46-1.61-1.07-3.33-1.82-4.84-.75-1.5-1.64-2.78-2.55-3.49-1.15-.88-2.25-1.31-3.16-1.39-.92-.08-1.65.19-2.16.69-1.02 1.02-1.17 2.86-.31 5.06.86 1.94 2.35 3.43 4.32 4.98 1.7 1.34 3.76 2.72 5.97 4.28-.3 3.91-.76 7.81-1.36 11.68-.35-1.22-.85-2.83-1.5-4.51-1.37-3.63-3.47-7.68-5.45-9.3-2.52-2.04-4.6-2.25-5.68-1.33-1.09.93-1.21 2.96-.03 5.59 1.16 2.33 3 4.16 5.3 5.98 2.07 1.64 4.51 3.27 7.1 5.23-.56 3.37-1.22 6.71-1.97 10.04 0-.04-.01-.08-.01-.11-.11-.9-.34-1.87-.66-2.83s-.73-1.9-1.14-2.78c-.41-.87-.82-1.69-1.27-2.48-.89-1.58-1.92-2.95-2.95-3.72-1.29-.96-2.52-1.43-3.5-1.51-.99-.08-1.74.23-2.2.76-.47.54-.67 1.3-.64 2.2.04.9.31 1.93.86 3.1.54 1.03 1.23 1.95 2.07 2.84.83.88 1.86 1.77 2.97 2.58 1.09.8 2.22 1.51 3.29 2.43.89.78 1.79 1.75 2.34 3.09-.08.34-.17.68-.26 1.01 1.04.22 1.85.74 2.44 1.44.28-1.18.55-2.37.81-3.55.22-1.03.44-2.06.64-3.09.19.01.4 0 .63 0 1.04-.01 2.49-.11 4.04-.41 1.55-.28 3.2-.77 4.62-1.42s2.6-1.47 3.22-2.32c1.55-2.17 1.34-4.08.32-5.1-1.04-1.05-2.84-1.3-4.85-.63-1.77.7-3 2.01-4.32 3.76-.99 1.31-2.03 2.87-3.34 4.49.7-3.69 1.29-7.4 1.76-11.12.27-.09.58-.19.93-.3 1.12-.35 2.63-.76 4.25-1.1s3.33-.62 4.85-.89c1.53-.27 2.87-.56 3.8-1 2.32-1.18 3.49-2.64 3.37-4.08-.04-.73-.44-1.41-1.21-1.95z" fill="#582fb3"/><path d="m187.61 129.68s8.7-8.66 4.05-21.25c0 0-3.68-5.58 1.51-17.57 4.01-9.07 4.1-10.83 2.72-14.64-.46-1.35-3.47-6.38 1.4-15.66 5.01-9.33 2.94-14.18 1.31-16.08-2.47-2.76-3.42-3.98-1.38-9.59 2.63-7.05-4.54-14.18-4.54-14.18s-5.36 8.85-5.31 14.05c.14 3.87-.89 7.2-3.82 9.78-2.96 2.36-5.96 8.9-5.17 14.4.79 5.51 2.91 7.86-2.02 15.4-2.42 4.17-3.53 8.27-4.07 12.61-.26 3.69.66 7.53 2.53 9.96 2.61 2.99 2.39 7.83 1.11 10.94 0 0-3.51 7.96-2.11 17.43" fill="#5676ef"/><path d="m277.24 153.41c-.38.31-2-.25-4.79-.6-6.13-.77-12.06-.38-17.51.84-2.74.62-5.52 1.46-8.5 2.28-2.98.81-6.15 1.61-9.58 2.04-6.99.86-14.12-.17-20.28-2.85-5.03-2.16-9.44-5.41-12.8-9.33-.69.17-11.11-7.16-11.86-11.47-.26-1.91-.55-3.78-.71-5.6-.17-1.82-.36-3.6-.41-5.34-.08-1.73-.16-3.42-.12-5.06 0-6.58.69-12.45 1.86-17.73 2.42-10.53 6.76-18.71 13.15-25.57 4.53-4.37 3.99-3.37 2.96 1.84-2.07 11.56-3.51 22.58-5.12 33.28-.86 5.85-1.8 11.61-2.87 17.38 1.17-1.68 2.34-3.27 3.41-4.87 1.16-1.75 2.33-3.4 3.38-5.07 1.07-1.65 2.11-3.23 3.07-4.82 3.92-6.28 7.19-11.9 10.24-17.03 6.04-10.31 11.3-18.57 17.78-27.14 4.44-5.64 4.01-4.63 3.07 1.72-2.21 13.9-7.27 27.64-14.89 39.56-4.33 6.79-9.48 13-15.26 18.33.77-.46 1.54-.91 2.28-1.35 4.31-2.53 8.03-5.16 11.4-7.9 3.37-2.72 6.34-5.48 9-8.24 2.69-2.75 4.99-5.5 7.43-8.34 2.44-2.83 4.93-5.65 7.75-8.22 2.78-2.57 5.96-4.91 9.36-6.59 6.75-3.29 12.67-4.01 18.05-6.43 1.82-.75 3.04-1.51 3.83-1.98.78-.49 1.21-.64 1.3-.42.16.41-.75 2.6-3.54 5.56-3.07 3.23-6.86 5.65-10.26 8.01-1.7 1.18-3.33 2.34-4.78 3.55-1.43 1.2-2.74 2.5-4.02 3.9-2.55 2.79-4.89 5.96-7.42 9.25-1.26 1.65-2.57 3.33-3.98 5.01s-2.94 3.35-4.51 4.92c-6.34 6.3-13.82 11.34-21.79 14.72-.66.28-1.31.55-1.96.79 4.64-1.2 8.93-2.14 12.78-3.21 1.03-.29 2.05-.56 3.01-.87.48-.15.97-.3 1.44-.44.46-.16.92-.32 1.38-.48.93-.3 1.78-.67 2.64-1 .43-.16.85-.33 1.26-.53.41-.18.82-.36 1.23-.56 3.25-1.53 6.34-3.34 9.43-5.14s6.19-3.61 9.4-5.19 6.4-2.9 9.59-3.97c6.37-2.14 12.73-3.3 19.18-3.6 4.29-.05 6.04.15 5.88.61-.16.49-2.26 1.28-5.62 2.93-7.38 3.67-14.37 7.75-21.02 12.13-3.31 2.17-6.51 4.49-9.98 6.82-3.46 2.31-7.16 4.6-11.29 6.47-1.03.46-2.09.89-3.16 1.3-1.08.38-2.16.72-3.24 1.07-1.08.29-2.16.58-3.23.84-1.06.22-2.13.45-3.19.64-4.23.74-8.29 1.07-12.21 1.33-3.35.22-6.6.37-9.78.63.99.31 1.97.57 2.93.81 3.41.79 6.65 1.16 9.68 1.23 3.03.08 5.84-.18 8.47-.57 2.65-.41 5.31-1 8.04-1.54 2.72-.53 5.51-.99 8.36-1.18 2.86-.19 5.77-.07 8.46.42 5.42.95 10.25 3.17 14.24 6.38 2.53 2.23 3.31 3.37 2.96 3.64z" fill="#ff848c"/><path d="m252.99 47.85s0-.01.01-.02c.1-.22.57-1.54 1.01-2.14.37-.52 1.98-2.67 2.73-3.75 1.16-1.66 1.79-2.32 3.59-5.44 1.56-2.67 6.68-11.86 7.13-18.22.37-5.94-1.06-10.18-3.83-11.34-2.73-1.15-5.82 1.04-8.3 5.87-1.79 3.84-2.74 8.45-3.08 14.94-.15 2.74-.18 5.62-.22 8.83l-.06 4.76c-.01.35-.01.72-.02 1.07-.02 1.08-.03 2.11-.19 3.14h-.01c-.9 3.76-1.93 7.48-3.11 11.16.12-1.25.24-2.67.33-4.15.14-2.38.21-4.93.06-7.26-.08-1.19-.25-2.4-.55-3.56-.3-1.13-.79-2.26-1.26-2.93-1.21-1.71-2.15-2.23-3.11-2.69-.96-.42-1.93-.78-2.94-.79-.99-.01-2.05.47-2.73 1.78-.33.64-.56 1.47-.64 2.37-.09.9-.05 1.87.04 2.78.06.41.12.77.18 1.11.06.32.11.62.18.93.14.63.34 1.28.58 2 .25.71.56 1.49.93 2.3.37.8.79 1.61 1.26 2.42 1.7 2.97 3.98 6.03 6.41 9.42-1.89 5.42-4.1 10.73-6.61 15.88.26-1.18.51-2.55.67-4.02.25-2.24.28-4.69 0-6.93-.27-2.23-.84-4.23-1.64-5.52-2.07-3.25-4.47-4.09-6.04-3.39-1.6.72-2.46 2.89-2.29 5.97.28 2.77 1.43 5.22 3 8.01 1.43 2.57 3.22 5.43 4.78 8.91-.11.23-.23.46-.35.68-2.41 4.65-5.06 9.16-7.91 13.55.56-5.28 1.21-13.94 0-18.01-2.37-7.66-6.83-6.95-7.49.51-.34 6.19 2.57 12.31 5.99 19.76-2.74 4.06-5.65 7.99-8.72 11.81.34-.82.7-1.71 1.04-2.65.8-2.21 1.53-4.67 1.9-7 .38-2.33.42-4.51-.03-6.06-.58-1.95-1.48-3.35-2.45-4.18-.99-.84-2.03-1.14-3.02-.99-1.99.32-3.68 2.3-4.51 5.5-.62 2.92-.15 5.83.82 9.21.84 2.92 2.04 6.19 3.27 9.78-3.55 4.2-7.28 8.26-11.15 12.17.61-1.68 1.35-3.92 2-6.37 1.42-5.26 2.36-11.58 1.44-15.06-1.18-4.39-3.38-6.33-5.37-6.18-2.01.16-3.81 2.38-4.63 6.33-.6 3.6-.01 7.19 1.11 11.15 1 3.56 2.44 7.42 3.78 11.78-3.4 3.37-6.9 6.64-10.49 9.81.03-.04.06-.09.08-.14.62-1.11 1.15-2.41 1.58-3.76s.74-2.76.99-4.09.46-2.59.6-3.86c.28-2.53.24-4.94-.29-6.65-.68-2.15-1.7-3.7-2.74-4.59-1.05-.9-2.16-1.17-3.13-.94-.98.22-1.84.93-2.54 1.98-.69 1.05-1.23 2.46-1.57 4.23-.23 1.61-.21 3.22.02 4.93.23 1.68.67 3.54 1.26 5.37.58 1.81 1.29 3.54 1.74 5.47.37 1.61.6 3.46.12 5.43-3.75 3.2-7.58 6.32-11.48 9.34.74-1.26 1.52-2.76 2.24-4.39 2.22-5.03 3.68-11.22 3.14-14.62-1.51-8.59-7.54-8.51-9.96-.86-.97 3.48-.7 6.97-.05 10.84.42 2.63 1.02 5.48 1.41 8.63.09.04.19.07.27.12.49.29.95.6 1.4.92 1.23.42 2.36.95 3.4 1.66.39.1.75.26 1.11.46.39-.32.79-.63 1.18-.95.13.12.28.24.43.36 1.1.9 2.66 2.07 4.47 3.16s3.87 2.1 5.83 2.74 3.83.92 5.17.64c3.42-.76 4.95-2.91 4.9-5-.04-2.13-1.56-4.25-4.2-5.53-2.42-1.02-4.87-.8-7.77-.11-1.92.45-4.04 1.12-6.38 1.74 3.11-2.59 6.18-5.24 9.19-7.94 1.1-.99 2.19-1.98 3.27-2.99.21.16.46.33.72.52 1.2.84 2.92 1.92 4.92 2.85 1.99.95 4.27 1.75 6.42 2.18 2.15.42 4.16.46 5.57 0 3.55-1.19 4.88-3.54 4.56-5.54-.32-2.04-2.16-3.82-5-4.7-2.59-.67-5.06-.18-8 .73-2.2.67-4.67 1.6-7.49 2.36 3.83-3.62 7.55-7.35 11.14-11.21.38.12.82.26 1.31.43 1.56.52 3.62 1.3 5.73 2.24 2.12.94 4.3 2.03 6.25 2.98 1.96.95 3.72 1.72 5.14 1.98 3.61.56 6.14-.13 7.19-1.87.51-.86.61-1.96.18-3.22-.43-1.25-1.41-2.62-3.04-3.93-1.52-1.1-3.25-1.87-5.13-2.31-1.88-.43-3.9-.58-5.99-.44-3.29.23-6.75 1.12-10.15 2.51 2.52-2.76 4.98-5.59 7.35-8.49 1.48.43 4.27 1.17 7.46 1.66 2.38.36 4.91.62 7.42.49 2.48-.11 4.89-.7 6.48-1.67 2-1.26 3.25-2.77 3.79-4.11.55-1.35.42-2.53-.11-3.41-.54-.9-1.46-1.53-2.58-1.96-1.12-.41-2.43-.65-3.96-.66-1.36.07-2.68.35-4.08.85-1.41.5-2.91 1.2-4.56 2.07-2.57 1.36-5.31 3.12-8.39 4.92 2.81-3.51 5.5-7.12 8.04-10.84.26-.17.59-.35.97-.5.62-.26 1.39-.46 2.29-.64.95-.18 1.98-.37 3.05-.58 2.16-.41 4.44-.8 6.43-1.12 2-.32 3.69-.54 4.88-.93 1.5-.51 2.65-1.02 3.49-1.61.84-.57 1.39-1.24 1.51-1.99.13-.74-.19-1.54-1.07-2.31-.87-.72-2.33-1.38-4.31-1.59-1.79-.14-3.59.13-5.29.69-1.71.57-3.32 1.42-4.86 2.46-1.27.86-2.48 1.84-3.68 2.91 2.34-3.69 4.53-7.46 6.56-11.32.25-.11.58-.23.97-.33.52-.13 1.16-.22 1.88-.29.77-.06 1.59-.13 2.45-.21 1.73-.14 3.55-.25 5.17-.41 1.63-.16 3.07-.37 4.06-.8 2.5-1.13 3.72-2.67 3.61-4.18-.11-1.48-1.65-2.93-4.63-3.25-2.68-.16-5.31.84-7.77 2.52-1.24.85-2.43 1.87-3.59 3.02-.11.11-.23.22-.33.33 1.34-2.69 2.59-5.42 3.76-8.2.26-.1.56-.21.89-.33 1.32-.49 3.12-1.07 4.98-1.55 1.87-.49 3.81-.87 5.52-1.22 1.71-.36 3.2-.69 4.3-1.23 2.73-1.43 4.42-3.16 4.72-4.94.14-.87-.11-1.7-.82-2.39-.72-.67-1.92-1.14-3.61-1.22-1.55.02-3.16.42-4.75 1.1-1.59.71-3.17 1.7-4.67 2.92-1.84 1.49-3.56 3.32-5.11 5.33 1.41-3.58 2.69-7.21 3.82-10.88.19-.11.43-.22.69-.33.92-.38 2.23-.62 3.84-1.02 3.22-.8 6.8-2.34 8.24-3.92 1.81-2 1.97-3.71 1.19-4.59-.8-.89-2.51-1-4.71-.16-1.96.84-3.53 2.2-5.16 3.9-.83.86-1.64 1.75-2.6 2.79-.26.29-.52.6-.78.93.78-2.59 1.48-5.24 2.1-7.91z" fill="#582fb3"/><use clip-rule="evenodd" fill="#5676ef" fill-rule="evenodd" xlink:href="#a"/><g clip-path="url(#b)" fill="#5676ef"><use xlink:href="#f"/><path clip-path="url(#c)" d="m192.74 185.72h98v98h-98z"/></g><g clip-path="url(#d)"><path clip-path="url(#e)" d="m303.75 177.47h10.6v10.3h-10.6z" fill="#fff" transform="matrix(.9336 -.3584 .3584 .9336 -44.9185 122.8831)"/></g><circle cx="173.41" cy="173.72" fill="none" r="98.45" stroke="#5676ef" stroke-miterlimit="10"/></svg>