<svg enable-background="new 0 0 281 311.3" viewBox="0 0 281 311.3" xmlns="http://www.w3.org/2000/svg"><path d="m280.9 0v83.7c-.2-.3-.3-.6-.5-.8-1.8-3.1-3.5-6.2-5.3-9.5-.5-1.1-1.1-2.3-1.7-3.6-.5-1.1-1-2.2-1.6-3.4-.6-1.3-1.2-2.7-1.7-4.1-.5-1.2-1-2.5-1.5-3.8-1-2.6-1.9-5.3-2.6-8 0-.2-.1-.4-.1-.5v.5c-.1 1.4-.2 2.8-.2 4.1 0 .8-.1 1.7-.1 2.5-.1 1.2-.1 2.5-.1 3.8-.1 3.4-.2 7-.2 10.7 0 2.4-.1 4.8-.1 7.2v1.7 2.1 5.6 2.3 1.3 3.7.6 2.2.1c0 1.7-.1 3.4-.1 5.1-.1 3.9-.2 7.8-.3 11.6-.1 1.8-.2 3.7-.3 5.4v.2.2.7l-.1 1.6v.7c-.1 2.4-.2 4.8-.3 7.2-.1 2.9-.2 5.8-.3 8.8s-.2 5.9-.3 9c0 .4 0 .9-.1 1.3-.1 3.3-.3 6.7-.6 10-.1 2-.3 4-.5 6.1-.4 3.4-.9 6.9-1.5 10.3-.7 4-1.6 8-2.7 12 0 .1 0 .2-.1.3v.2c-.5 1.7-1 3.3-1.6 5-.1.2-.2.5-.2.7 0 .2-.1.3-.2.5-.8 2.2-1.8 4.9-3.1 7.9-1.5 3.5-3.4 7.4-5.8 11.3-1.2 1.9-2.4 3.9-3.8 5.8-2.7 4.2-7.2 8.8-11.5 12.9-6.5 6-12.7 10.8-12.7 10.8 1.9-8.2 2.6-17.4 3.1-25 0-.3 0-.6.1-.9.2-4.1.4-7.7.8-10.4v-.1c.2-1.5.3-2.9.4-4.4.1-2.1.3-4.2.3-6.3.1-1.7.2-3.4.2-5.1.1-1.5.1-2.9.1-4.3 0-.7 0-1.4 0-2.2v-9.3c0-2.8-.1-5.6-.2-8.6-.1-6.2-.3-12.9-.5-19.5 0-.3 0-.6 0-.9v-2.2c0-2.6-.1-5.1-.1-7.8-.1-7.6-.1-15.2.1-22.7 0-.5 0-1 0-1.6 0-.1 0-.2 0-.2 0-.1 0-.1 0-.2.1-1.8.1-3.7.2-5.5v-.1c.1-1.4.2-2.7.2-4.1 0-.3 0-.6 0-.9s0-.5.1-.8c0-1 .1-2 .2-3s.1-2 .2-3.1c0-.5.1-.9.1-1.3.4-5.2 1-10.4 1.8-15.5.1-.5.2-1 .2-1.5.1-.4.1-.8.2-1.2.2-1 .3-2 .5-3.1 0-.2.1-.3.1-.5.1-.8.3-1.6.4-2.4 0 0 0 0-.1.1l-.2.3-.1.1c-.3.3-.6.7-1 1-.5.5-1 1.1-1.5 1.6-.2.2-.3.4-.5.5-.2.3-.5.5-.7.8-.3.3-.5.6-.8 1-.5.6-1.1 1.2-1.6 1.8-.7.9-1.5 1.8-2.2 2.6 0 0 0 .1-.1.1l-.1.1c-.1.1-.2.2-.3.4-1.3 1.5-2.5 3-3.7 4.5-.3.4-.6.8-.9 1.2-.2.3-.5.6-.7.9-.9 1.2-1.8 2.4-2.7 3.5-.4.5-.8 1-1.2 1.5 0 0 0 .1-.1.1v.1l-.2.3-1.5 1.9c-1 1.3-2.1 2.7-3.1 4-.3.4-.7.9-1.1 1.3-.2.3-.4.5-.6.8l-.1.1c-.7.8-1.4 1.7-2.1 2.5-.8.9-1.5 1.8-2.3 2.7-.2.2-.3.3-.4.5-.6.6-1.1 1.2-1.7 1.8-.7.8-1.5 1.6-2.3 2.3l-.2.2c-.6.5-1.2 1-1.8 1.5-.8.7-1.6 1.4-2.5 2.1-1.1.9-2.1 1.8-3.1 2.6-.5.5-1.1.9-1.6 1.3-.1.1-.3.2-.4.3-.2.2-.4.3-.6.5-1.5 1.2-3 2.4-4.4 3.5-.9.8-1.8 1.5-2.7 2.2-.5.4-1 .8-1.5 1.2-.6.5-1.2 1-1.9 1.5-1.6 1.3-3.1 2.6-4.6 4-.1.1-.2.1-.3.2s-.3.2-.4.3c-.3.3-.7.6-1 .9l-1.2 1.2c-1.2 1.2-2.4 2.3-3.6 3.6-.1.1-.2.2-.3.4-1.8 1.9-3.5 3.8-5.1 5.7-.7.9-1.4 1.7-2.1 2.6-1.7 2.2-3.5 4.6-5.3 7.2l-.1.1c-.7.9-1.4 2-2.3 3.3-.4.6-.8 1.2-1.2 1.8-.3.4-.6.9-.8 1.3-.9 1.3-1.8 2.7-2.8 4.2-1.4 2.2-2.9 4.5-4.3 6.8l-.2.4c-3.1 4.5-5.1 8-7 12.6-1.5 3.8-2.9 8.5-4.6 15.3-.5-1.6-1-3.2-1.4-4.8-.3-1-.6-1.9-.8-2.9-.5-1.7-.9-3.4-1.3-5.1-.1-.7-.3-1.3-.4-2-.6-3.1-1.1-6.3-1.4-9.5-.1-.7-.1-1.3-.2-2-.1-1.9-.2-3.8-.3-5.8v-1.2c0-.5 0-1.1.1-1.7 0-.3 0-.6 0-.9v-1c0-.1 0-.2 0-.3.1-1.2.1-2.5.2-3.7 0-.4.1-.8.1-1.3.1-1.3.2-2.7.3-3.9.1-1.1.2-2.3.4-3.4.1-.6.2-1.2.2-1.8.2-1.2.4-2.3.6-3.5.1-.8.3-1.6.4-2.4 0-.2.1-.4.1-.6.6-2.9 1.2-5.7 2-8.5.5-2 1.1-3.9 1.7-5.8s1.2-3.7 1.9-5.5c0-.1.1-.2.1-.2.4-.9.7-1.8 1.1-2.8 1.8-4.4 3.7-8.6 5.8-12.7 1.3-2.5 2.6-4.8 3.9-7.2.2-.4.4-.8.6-1.1 0-.1.1-.2.1-.2l.5-.8c.1-.2.2-.4.3-.5 0-.1.1-.2.1-.3 2.1-3.8 4-7.7 5.6-11.6l.2-.5 1.9-4.3s0 0 0-.1c.1-.2.2-.3.2-.5 1.7-4.1 3.8-8.1 6.2-11.9.6-.8 1.2-1.7 1.8-2.4 2.2-2.6 4.7-5.4 7.4-8.2 1.2-1.3 2.4-2.6 3.7-3.9l.5-.5.1-.1c.6-.6 1.3-1.3 1.9-1.9l.3-.3.8-.8.8-.7-.1.1-1.5 1h-.3l-.2.1-.5.4c-.4.2-.7.5-1.1.7-.1.1-.2.1-.3.2-.1 0-.1.1-.2.1-.1.1-.2.1-.3.2s-.2.1-.3.2c-2 1.3-4.1 2.6-6.2 3.9-6.7 4-13.7 7.2-21 9.5-.6.2-1.2.4-1.8.6l-1.4.4c-.4.1-.6.2-1 .3 0 0-.1 0-.1.1-1.8.6-3.8 1.3-5.6 1.8h-.1c-5.8 2-11.7 3.9-17.9 4.6-3.2.4-6.6.5-10.1.2-1.9-.2-3.8-.4-5.7-.6l-.7-.1c-1.6-.2-3.1-.4-4.7-.6s-3.2-.5-4.8-.8c-1-.2-2-.4-2.9-.6-1.6-.3-3.3-.7-4.9-1.2l-.5.1-.3-.1-.4.2h-.1c-.6-.1-1.1-.3-1.7-.5-1.3-.4-2.5-.8-3.8-1.3-.4-.1-.8-.3-1.2-.4-1.3-.5-2.6-1-4-1.6-.5-.2-1.1-.5-1.6-.7s-1-.4-1.4-.6c-.9-.4-1.7-.8-2.6-1.3-.7-.4-1.4-.7-2.1-1.1-3.1-1.7-6.1-3.5-9.1-5.5-.1 0-.1-.1-.2-.1-.1-.1-.2-.1-.3-.2-1-.7-2.1-1.4-3-2.1-6.8-4.9-12.1-9.6-17.1-13.2 6.1-4.1 13.9-6.9 23.3-12.1 4-2.1 9.8-5.7 16.3-9.9.2-.1.4-.2.5-.4 1.5-1 3.1-2 4.7-3.1 7.1-4.7 14.4-9.8 20.5-14h129.3v-.1c0-.1 0-.1 0-.1h.1l.3.1h5.4l.4-.1v.2z" fill="#9daefe"/><path d="m281 36.1v17.6l-.1-.1c-.9-.9-1.6-1.9-2.4-3-.6-.8-1.2-1.6-1.8-2.6-.3-.5-.7-1.1-1-1.6-1.6-2.6-3.5-5.5-5.6-8.6l-.2-.4.2.8c.9 7.1 1.7 14.2 2.3 21.3 0 .3 0 .6.1.9 0 .5.1 1 .1 1.4.1.3.1.5 0 .9.3.2.7.3 1.1.5.2.1.4.2.7.3.1 0 .2.1.3.1.4.2 1 .3 1.6.6 1.4.5 2.9 1.1 4.7 1.6h.1v12.3l-.3-.3c-2-2.2-3.9-4.7-5.4-7.2-.2-.2-.3-.5-.5-.7-.7-1.1-1.3-2.3-2-3.5.2 4.1.4 8.1.5 12.2 0 .8 0 1.6.1 2.5v3.3c.3.2.6.3 1.1.4 2.1 1 4.4 2.1 6.4 3.3v19.1c-.8-1.5-1.5-2.9-2-4.4-1.3-3-2.5-6.5-3.8-10.1-.6-1.5-1.1-3-1.7-4.7 0 2.9 0 5.8-.1 8.6 0 1.3-.1 2.6-.2 3.9-.1 1.4-.2 2.8-.2 4.2v.7c0 1.4-.2 2.8-.3 4.1.2.6.5 1.1.8 1.6.7 1.1 1.4 2.2 2.2 3.2.5.7.9 1.2 1.5 1.8.5.5.9 1.1 1.4 1.6.1.2.3.3.4.5.7.9 1.5 1.7 2.1 2.6v18.7c-.3-.3-.6-.6-.9-1-.2-.2-.3-.3-.5-.5s-.4-.5-.6-.8c-.7-.9-1.4-1.7-1.9-2.6-.1-.1-.2-.3-.3-.5-.4-.7-.8-1.5-1.1-2.1-.5-1.1-1-2.2-1.5-3.3-.3-.8-.6-1.5-.7-2.1-.3-1-.5-2-.8-3-.4-1.5-.7-2.9-.9-4.4-.1.6-.1 1.2-.2 1.7-.2 1.7-.4 3.5-.7 5.2-.2 1.3-.4 2.5-.6 3.8-.1.8-.2 1.5-.3 2.2-.1.6-.2 1.2-.3 1.8-.3 1.9-.7 3.8-1.1 5.8.2.6.5 1 .9 1.5s.7 1 1.2 1.4c.3.4.6.7.9.9l.8.8c.7.7 1.3 1.4 1.9 1.9 1.4 1.4 2.8 2.7 4.1 4 .2.2.4.3.6.6.5.5 1 .9 1.4 1.4.2.2.4.4.6.6v14.8c-.7-.1-1.4-.3-2.1-.6-1.1-.4-1.9-.9-2.8-1.5-.7-.6-1.4-1.2-2.1-1.9l-.3-.3c-.8-.9-1.5-1.7-2-2.8-1.2-1.8-2-3.9-2.7-6.1-.7-2.4-1.3-4.8-1.4-7.4 0-.2-.1-.5-.1-.8-1 4.7-2.1 9.3-3.5 13.9.2.4.5.9.8 1.4.9 1.4 2 3.2 3.1 4.9l1.5 2c.5.7 1 1.4 1.5 2 1 1.3 1.9 2.4 2.8 3.6.2.3.5.6.7.8.2.3.4.5.6.7 1.6 1.9 3 3.9 4 6 1.9 4.6 2.3 8.4 1 10.9v.1c-.7 1.3-1.8 1.9-3.3 1.9-.9 0-1.9-.2-3.1-.7-.3-.1-.5-.3-.8-.4-.1 0-.1-.1-.2-.1-.5-.3-1.1-.7-1.6-1.1-1.3-1.2-2.4-2.5-3.3-4-.1-.1-.1-.2-.2-.3s-.2-.3-.3-.5c-.3-.6-.7-1.1-.9-1.6-1.3-2.7-2.3-5.5-2.9-8.3-.3-1.8-.6-3.7-.8-5.5 0-.3-.1-.5-.1-.8-.1-1-.2-2.1-.2-3.1 0-.8 0-1.6 0-2.4-.3.9-.6 1.8-1 2.9-.1.2-.1.4-.2.6-.6 1.8-1.2 3.6-1.8 5.4-1 2.8-1.9 5.5-3 8.3v.1c0 .1 0 .2.1.2.1.2.2.3.3.5.1.1.2.3.2.4.4.7.8 1.3 1.3 2 .8 1.1 1.6 2.2 2.4 3.3 1.6 2.2 3.2 4.7 4.4 7.2.2.3.3.6.4.9.9 2 1.6 3.9 1.6 5.3.2 4.4-1.2 6.6-3 6.8-.4 0-.8 0-1.2-.1-.3-.1-.6-.2-1-.4-.6-.3-1.1-.7-1.7-1.3-.8-.8-1.5-1.7-2.1-2.9-1.5-3.1-2.4-6.7-2.5-10.2 0-.3-.1-.6-.1-.9-.1-1.6-.2-3.4-.4-5.3v-.5c-.1-.5-.1-1-.1-1.5-1.6 4-3.3 7.9-5.2 11.8-.2.7-.4 1.5-.6 2.2-.1.5-.2 1-.2 1.5-.1.8-.1 3.2-.2 5.3 0 .8-.1 1.5-.1 2 0 3.5-.4 7-.9 10.5-.2 1.5-.6 4-1.2 7-1.5 7.1-4 16.9-7.9 22.7-5.4 7.7-11.3 11.3-15.7 9.8-3.7-1.3-5.3-7.2-3.7-15.7.6-2.6 1.5-5.1 2.6-7.8 1.4-3.3 3.4-6.7 5.9-10.4.7-1.1 1.5-2 2.2-3.2 1.9-2.7 4.1-5.5 6.4-8.5.7-.9 1.3-1.6 1.9-2.6l4.6-5.9 1.1-1.4c1.1-1.4 1.9-2.7 2.8-4.1 2.6-5.5 5-11.1 7-16.9-1.1 1.6-2.4 3.4-3.7 5.4-2.1 3.1-4.6 6.1-7 8.9-1.3 1.5-2.6 2.6-4.1 3.7-.8.6-1.6 1.2-2.6 1.6-.6.3-1.3.5-1.8.7-2 .7-4.4.7-6.5 0-1-.3-1.9-.6-2.8-1.1-.4-.2-.8-.4-1.1-.7-.1-.1-.2-.1-.3-.2-1.6-1.3-2.1-3.2-1.6-5 .3-1.3.8-2.4 1.6-3.6.5-.7.9-1.3 1.4-1.8.3-.4.7-.8 1-1.2l.3-.3c.5-.4.9-.9 1.4-1.2s.8-.6 1.2-1c.9-.7 1.7-1.3 2.7-1.8 1-.7 2.1-1.3 3.4-1.8.3-.1.6-.3 1-.4 1-.4 1.9-.9 2.9-1.3 3.9-1.5 8.1-2.6 12.9-3.8 1-.2 2-.4 3-.7.1 0 .2 0 .3-.1.3-.1.6-.2 1-.2 1.4-4 2.6-8 3.9-12.1 0-.1.1-.2.1-.4.4-1.4.7-2.6 1.1-4 .6-2.1 1.1-4.3 1.6-6.4.3-1.2.6-2.3.8-3.4-.2.4-.4.8-.6 1.2-.8 1.5-1.6 2.9-2.5 4.4-.3.4-.5.8-.8 1.2-.6.9-1.2 1.7-1.8 2.6-1.3 1.6-2.7 3.3-4.2 4.7-.4.4-.8.7-1.1 1.1-.2.2-.4.4-.6.5-1.3 1.1-2.8 2.1-4.4 2.9-.4.2-.9.5-1.4.6-5.7 1.9-9.4.4-10.7-2.2s-.2-6.2 3-9.7c1.2-1.2 2.3-2.1 3.7-2.9 1.4-.9 2.9-1.6 4.5-2.4.3-.2.7-.3 1-.4.8-.3 1.6-.6 2.3-.9.9-.4 1.8-.7 2.8-1.1.2-.1.5-.2.7-.3.6-.2 1.1-.4 1.6-.6 2.7-1 5.4-2.1 8.1-3.4.3-.1.6-.3 1-.4.2-.1.3-.2.5-.3l.3-1.2c1.1-5.8 2-11.6 2.7-17.4.1-.7.2-1.4.3-2.1.1-.8.2-1.6.3-2.4 0-.9.2-1.8.2-2.7-.2.4-.5.8-.8 1.2-.2.3-.5.7-.7 1.1-.2.3-.4.7-.7 1-.4.6-.9 1.3-1.4 2-.3.4-.6.9-.9 1.3-2.1 3.1-4.5 6.2-6.7 9-2.3 2.8-4.5 5.1-6.4 6.4-.1 0-.1.1-.2.1-.6.4-1.3.8-1.8 1.1-.1.1-.2.1-.3.2-1.6.8-2.9 1.4-4.1 1.6-.5.1-1 .1-1.4.1-3 0-4.4-2.2-3.6-5.7.1-.5.2-.9.4-1.3.2-.6.5-1.3.8-1.9.5-.9 1-1.7 1.6-2.6.3-.4.5-.7.8-1.1l1.2-1.5c1.1-1.2 2.1-2.3 3.4-3.3.7-.5 1.4-1.1 2.1-1.6 4.1-3.1 9.1-5.6 14.5-8.2.1 0 .1-.1.2-.1.2-.2.5-.2.8-.4.1 0 .1-.1.2-.1.3-.2.7-.3 1-.5.9-.5 1.6-.8 2.5-1.2 0 0 0 0 0-.1.1-.9.1-1.7.2-2.6.1-1.5.2-3 .3-4.6.1-3 .3-6 .3-9 0-1.4 0-2.8 0-4.3v-3.2c-.1.1-.1.3-.2.4-.1.3-.2.7-.3 1-.1.2-.1.4-.2.6-.2.8-.5 1.5-.7 2.2 0 .1 0 .2-.1.2-.2.7-.4 1.4-.7 2-.6 1.6-1.2 3.1-1.9 4.6-.3.5-.5 1.1-.8 1.6-.1.2-.2.4-.3.6-.2.5-.5.9-.7 1.4-.2.3-.3.6-.6 1-.4.6-.8 1.3-1.2 1.8s-.7 1.1-1.1 1.5c-1 1.3-2.1 2.3-3.1 3.1-2.1 1.6-4.5 2.4-7.2 2.5h-1c-1.6 0-3-.8-4.1-1.8-.2-.1-.3-.3-.4-.5-.1-.3-.4-.5-.5-.8-.3-.5-.5-1-.6-1.5-.4-1.4-.4-2.8-.1-4.5.2-.9.4-1.7.7-2.5l.4-.9.4-.8c.8-1.6 1.7-3.1 2.9-4.4.9-1 1.7-1.8 2.7-2.7.3-.3.6-.5.9-.8.6-.5 1.2-1 1.9-1.5.2-.2.5-.4.7-.5.3-.2.7-.5 1-.7.6-.4 1.3-.9 1.8-1.2 2.3-1.6 4.8-3 7.5-4.7.1-.1.2-.1.3-.2s.2-.1.3-.2.3-.2.4-.2l1.5-.9 1-.6.4-.2.5-.3c0-.5 0-1-.1-1.6 0-1.1-.1-2.2-.1-3.3 0-.6-.1-1.3-.1-1.8s0-1.1-.1-1.6v-.2c-.3-6-.8-12-1.5-18 0 .1-.1.2-.1.3-.2.4-.3.9-.5 1.3-.3.9-.7 1.8-1.1 2.8-.2.5-.4 1-.6 1.6-.1.4-.3.8-.5 1.1-.3.7-.6 1.4-.9 2.1-.1.2-.2.4-.2.6-.6 1.4-1.3 2.8-1.9 4.3-.1.1-.1.3-.2.4-.4.8-.8 1.5-1.1 2.2 0 0-.1.1-.1.2-.3.5-.5.9-.8 1.4-.5.9-.9 1.7-1.5 2.6-1.2 1.9-2.4 3.7-3.6 5.1-.9 1.1-1.7 2-2.5 2.9-.2.2-.4.3-.6.5 0 0 0 0-.1 0-.2.2-.4.3-.5.4s-.2.1-.2.2c-.1 0-.1.1-.2.1-.6.5-1.3.9-1.9 1.3-.1.1-.2.1-.3.2-.3.2-.5.3-.8.5-.5.2-1 .4-1.5.6-.7.3-1.5.5-2.2.7-.9.3-1.7.2-2.7 0-.6-.1-1.3-.3-1.8-.7-.4-.3-.7-.5-1.1-.8-.3-.3-.5-.6-.8-1-.1-.1-.2-.3-.2-.4-.3-.6-.5-1.4-.6-2.1-.1-.4-.1-.8-.1-1.2 0-.9.1-1.8.4-2.8.3-1.6 1-3.2 1.8-4.9.1-.2.3-.4.4-.7l.9-1.5c.1-.2.2-.3.3-.5.2-.3.4-.5.6-.8s.4-.5.6-.8c.1-.2.2-.2.3-.4.9-1 1.7-1.9 2.6-2.8.6-.6 1.2-1.1 1.8-1.6.2-.2.4-.3.6-.5.5-.3.9-.7 1.4-1.1.2-.2.5-.4.8-.6.4-.3.8-.5 1.1-.8.4-.2.7-.5 1-.8.2-.2.5-.4.8-.6.6-.5 1.3-.9 1.9-1.3.1 0 .2-.1.2-.1 1.4-.8 2.6-1.7 4.1-2.6.3-.2.7-.5 1-.7.4-.2.8-.5 1.1-.7l.2-.1 1.5-.9s.1 0 .2-.1c1.1-.6 2-1.3 3-1.9.2-.1.4-.2.6-.4.1-.1.3-.2.4-.3s.2-.1.3-.2c.3-.2.6-.4.9-.6v-.3c-.2-1.5-.4-3.1-.6-4.7 0-.4-.1-.7-.1-1.1-.1-.4-.1-.8-.2-1.2-.1-.9-.3-1.9-.4-2.7 0-.2-.1-.4-.1-.6-.6-4.1-1.2-8-1.9-12.1l-.1.3c-.3 2.1-1 4.2-1.7 6.2-.2.6-.5 1.2-.7 1.7-.1.2-.2.4-.3.7s-.3.6-.4.9c-.3.6-.6 1.3-.9 1.8l-.5 1.1c-1 1.8-2 3.7-3 5.3-.6 1.1-1.3 2-2 2.9v.1c-1.3 1.6-2.6 2.9-4.2 4.4-.1.1-.2.1-.2.2l-.4.2c-1 .6-1.9 1.2-3 1.6-.8.4-1.7.7-2.5.9-.4.1-.8.2-1.2.2 0 0-.1 0-.2 0s-.2.1-.2.1h-.7c-.1 0-.1 0-.1 0s-.1 0-.2 0c-.3 0-.6 0-.8-.1-.1 0-.1 0-.2 0-.2 0-.5-.1-.7-.1-.1 0-.1 0-.3-.1-.1 0-.2-.1-.3-.1-.1-.1-.2-.1-.4-.2-.7-.4-1.2-.8-1.7-1.4l-.1-.1c-.3-.4-.5-.8-.7-1.3-.4-1-.6-2.1-.6-3.2 0-.2 0-.4 0-.6.1-.5.1-.9.2-1.4.3-1.3.7-2.5 1.2-3.7.2-.6.5-1.2.8-1.7 1-1.7 2.2-3.2 3.5-4.6.4-.5.9-.9 1.3-1.3.2-.2.3-.3.5-.5.3-.3.7-.6 1.1-.9.2-.1.3-.3.5-.4 1.4-1.2 2.8-2.2 4.3-3.2.2-.1.2-.1.4-.2.9-.6 1.7-1.1 2.6-1.6 1.5-.9 3-1.8 4.4-2.9.2-.1.3-.3.5-.4s.4-.3.5-.4c1-.8 1.9-1.6 2.8-2.6.1-.2.3-.3.4-.5.6-.8 1.2-1.6 1.6-2.4.1-.2.2-.4.3-.5-.1-.3-.1-.6-.2-.9-.5-2.7-1-5.5-1.6-8.1-.1-.3-.1-.6-.2-.8 0-.1 0-.2-.1-.3-.1-.2-.1-.4-.1-.7 0-.1 0-.2-.1-.3-.1-.4-.2-.9-.2-1.3-.1-.5-.2-1-.3-1.4 0 0 0 0 0-.1-.1-.6-.2-1.3-.4-1.8-.1-.4-.2-.8-.3-1.2-.4-1.7-.8-3.6-1.2-5.3-.1-.3-.1-.6-.2-.9 0-.1 0-.2-.1-.3v.3c-.1.8-.2 1.5-.4 2.1-.2 1.1-.4 2.1-.7 3.1-.2.7-.3 1.4-.5 2-.1.5-.3 1-.4 1.6-.1.2-.1.4-.2.7s-.2.6-.3.9c-.3.9-.5 1.6-.8 2.5-1.5 4.2-3.4 8.2-5.3 11.2-1.2 1.7-2.3 3.2-3.4 4.3s-.1.1-.1.1c-.3.3-.6.5-.9.7-.5.4-1 .7-1.4 1-.1.1-.3.2-.4.3-2.4 1.6-4.6 2.1-6.4 2-1.1-.1-1.9-.4-2.7-.9 0-.1-.1 0-.2-.1-.2-.1-.4-.3-.6-.5-.4-.5-.8-1-1.1-1.6-.6-1.3-1-2.8-.9-4.7v-.9c.1-1.2.4-2.3.8-3.5 0-.1 0-.1 0-.2.1-.3.3-.6.3-.9 0-.1.1-.3.2-.4.8-1.7 1.7-3.5 2.9-5 .1-.2.2-.3.4-.5s.4-.5.5-.7c.2-.2.4-.5.6-.8.3-.4.7-.8 1-1.2.9-1 1.7-1.9 2.7-2.7.2-.2.3-.4.5-.5.6-.6 1.4-1.2 2-1.8l.3-.3c.3-.3.7-.6 1-.9s.7-.6 1-.9c0 0 .1-.1.1-.1.1 0 .1-.1.2-.1 1.2-1 2.3-1.9 3.5-3 .1 0 .1-.1.2-.2s.3-.2.4-.4l6.9-.5 1.4-.1 2.8-.2 1.5-.1 1.5-.1v.1c0 .1.1.3.1.4.2.7.2 1.5.5 2.3.3-.1.6 0 .9.1 2.7.1 5.4.3 7.9.7h.5c.6.1 1.3.2 1.9.4.6.1 1.1.2 1.6.4.1 0 .2 0 .3.1.5.1.8.2 1.3.3h.1l1.4 20h-.1c-.9-.3-1.7-.7-2.5-1.1-1-.6-1.8-1.2-2.7-1.9-.5-.4-1-.8-1.3-1.3-.9-.9-1.6-1.8-2.4-2.7 0-.1-.1-.2-.2-.4s-.3-.4-.4-.5c-1.9-2.5-3.9-5.5-6.1-8.7.4 1.8.8 3.8 1.2 5.6.3 1.4.5 2.8.8 4.2 0 .1.1.3.1.4.1.4.2.8.2 1.2.3 1.4.5 2.8.7 4.2.1.4.2.8.3 1.3.2.8.3 1.5.4 2.3.3 2.4.8 4.7 1.2 7.1h.3c.3 0 .7.1 1 .1l.7.2c1.8.2 3.8.5 5.6 1 .9.2 1.6.4 2.4.6l.9.3c.4 1.5.6 1.5.8 1.5z" fill="#582fb3"/><path d="m281 34.7v61.1c-.1-.1-.1-.1-.2-.2-.6-.6-1.3-1.3-1.9-1.9-1.8-1.7-3.7-3.4-5.7-5-.4-.4-.9-.8-1.3-1.1-.8-.6-1.6-1.3-2.4-1.9-.1-.1-.2-.2-.3-.2-.1-.1-.2-.1-.3-.2-.3-.2-.5-.4-.7-.6s-.4-.3-.6-.5l-.3-.2c-.3-.2-.7-.5-1-.7-.1-.1-.2-.2-.4-.3-.1 0-.1-.1-.2-.1-.2-.1-.3-.3-.5-.4-.4-.3-.8-.6-1.2-.9 0 0-.1-.1-.1-.1-.8-.6-1.5-1.1-2.4-1.6-.1-.1-.2-.1-.3-.2-.5-.3-1.1-.7-1.6-1 0 0-.1-.1-.2-.1l-.2-.1-.1-.1h-.1l-1-.6c-.3-.2-.6-.4-.9-.5-.3-.2-.7-.4-1-.6-.1 0-.1-.1-.2-.1-.8-.5-1.7-1-2.5-1.5l-2.8-1.6-.2-.1-1-.6-.8-.5h-.1l-1.6-1-.6-.4c-.4-.2-.8-.5-1.2-.7-.5-.3-1.1-.6-1.6-.9l-1.5-.9c-.1-.1-.2-.1-.2-.1l-.2-.1-.8-.4-1.2-.7-1.2-.7-.4-.2-1.9-1.1-.4-.2-1.1-.6-.1-.1-.2-.1-.3-.2-3.3-1.9-.2-.1-.3-.2-.9-.5-.4-.2c-.6-.3-1.1-.6-1.6-.9-.3-.2-.6-.3-.9-.5-5.3-2.8-7.5-2.9-4.3.6 1.7 1.8 3.3 3.6 4.8 5.3.2.2.4.5.6.7l.1.1c.8.9 1.5 1.7 2.2 2.5.2.2.4.5.6.7l.1.1.1.2.4.6.4.5s0 0 .1.1c.3.3.6.7.9 1 .9 1.1 1.7 2.1 2.6 3.2 0 0 .1.1.1.1.2.3.5.6.7.9.6.8 1.2 1.6 1.8 2.4l.2.2v.1c.3.3.6.7.8 1.1l1.2 1.5c.1.1.2.3.3.4.3.3.5.7.8 1.1.2.2.4.5.6.8.1.1.1.1.2.2.4.5.8 1 1.1 1.6 1 1.5 2.1 3 3.2 4.7.4.6.8 1.2 1.2 1.8 0 0 0 .1.1.1.4.6.8 1.2 1.2 1.8.1.1.1.2.2.3v.1c.3.4.5.9.8 1.3.1.2.3.3.4.5l.1.1c.2.4.5.8.8 1.1 0 .1.1.1.1.2s.1.2.2.2c.1.1.2.3.3.4.2.3.3.5.5.8.3.5.6.9.9 1.4.2.4.5.8.7 1.2.1.2.2.4.3.5 0 .1.1.1.1.2 1.2 2 2.3 4 3.4 6.1.4.7.7 1.4 1.1 2 .7 1.2 1.3 2.4 1.8 3.7v.1c.6 1.3 1.2 2.6 1.8 4 .3.6.5 1.2.8 1.7.1.2.2.5.3.7s.2.5.3.8c.2.4.3.8.5 1.1.2.4.3.7.4 1 0 .1.1.2.1.4.2.6.5 1.2.7 1.9 0 .1 0 .1.1.2 0 .1 0 .2.1.3s.1.3.2.5c0 .1.1.2.1.3.2.5.4 1 .5 1.5.3.8.5 1.6.8 2.4 0 .1 0 .1.1.2.3 1 .6 2 1 3 .4 1.4.8 2.8 1.2 4.2.1.4.2.8.3 1.3.2.7.4 1.4.5 2 .4 1.8.8 3.6 1.2 5.4 0 .2.1.3.1.5 0 .3.1.6.2 1 0 .3.1.6.1.8.3 1.5.5 3.1.7 4.7.2 1.7.4 3.5.6 5.4.2 2.7.4 5.4.5 8.3 0 .4 0 .8.1 1.2.1 1.5.1 3 .1 4.6v.6c0 1.6.1 3.2.1 4.9v1.4c0 1.4 0 2.8-.1 4.2-.1 5.2-.3 10.5-.8 15.4-.1 1.6-.3 3.1-.5 4.6-.5 4.6-1.1 8.8-1.8 12.4-1.7 8.2-2.9 13-4 13.4-.6.3-1.2-.5-2-2.5-.4-1-.8-2.2-1.3-3.8-.3-.9-.6-1.8-1-2.9-.3-.8-.6-1.7-.9-2.6s-.5-1.8-.8-2.8c-.8-3.1-1.7-6.8-2.5-10.6-.7-3.3-1.5-6.7-2.2-10.2v-.1c-.1-.3-.1-.5-.2-.8 0-.1 0-.2-.1-.3v-.2c0-.1 0-.1 0-.2 0 0 0 0 0-.1-.4-1.7-.7-3.5-1.1-5.2-.4-1.8-.7-3.5-1.1-5.1-.1-.4-.2-.8-.3-1.2-.3-1.5-.7-2.9-1-4.4-.1-.3-.2-.7-.3-1-.2-.9-.5-1.8-.7-2.6-.2-.7-.4-1.4-.6-2-.1-.5-.3-.9-.4-1.3 0-.1-.1-.2-.1-.4-.3-.8-.5-1.6-.8-2.4-.1-.2-.2-.4-.2-.6-.3-.7-.6-1.4-.9-2.1-.3-.9-.7-1.8-1.1-2.7-.5-1.3-1.1-2.7-1.6-4-.1-.2-.2-.4-.2-.6-.2-.4-.3-.8-.5-1.2-.3-.7-.6-1.3-.8-2 0-.1-.1-.2-.1-.2-.4-1-.8-1.9-1.2-2.9-.2-.5-.5-1-.7-1.5-.1-.2-.1-.3-.2-.5 0 0 0-.1-.1-.1-.4-.9-.8-1.8-1.1-2.7-.2-.3-.3-.7-.5-1 0-.1 0-.1-.1-.2-.5-1.2-1-2.2-1.6-3.3-.1-.1-.1-.2-.2-.4-.6-1.2-1.1-2.5-1.7-3.7-.4-.9-.9-1.8-1.3-2.7-.6-1.3-1.3-2.6-2-4-.1-.2-.2-.4-.3-.6-.1-.1-.1-.2-.2-.3 0-.1-.1-.1-.1-.2-.3-.6-.6-1.1-.9-1.7 0-.1-.1-.2-.1-.2-.1-.1-.1-.2-.2-.3-.3-.6-.7-1.2-.9-1.8-.5-1-1.1-2.1-1.7-3.2-1.3-2.4-2.7-4.8-4.2-7.2 0 0-.1-.1-.1-.2-.3-.5-.6-1.1-1-1.6 0-.1-.1-.1-.1-.1-.2-.4-.4-.7-.7-1.2-.1-.2-.2-.3-.3-.5l-.3-.4-.8-1.4-.2-.3-.2-.3-4.8-7.7-.7-1.1-.2-.1-2.2-3.7-1.8-2.9-.1-.1-.1-.1-1.4-2.3v-.1l-.1-.1c-.1-.1-.1-.2-.2-.3-.5-.8-1-1.6-1.5-2.4 0-.1-.1-.2-.1-.2-.4-.6-.7-1.2-1-1.8l-2.6-4.3c.2 1.9.3 3.9.4 5.8.1.9.1 1.8.1 2.7v6.6c0 1 0 1.9-.1 3 0 .5 0 1-.2 1.5v.5c-.3 3.9-.7 7.7-1.4 11.6 0 .2 0 .4-.1.6 0 .2-.1.4-.1.7-.1.5-.1 1.1-.4 1.6-1.2 6.4-2.8 12.8-4.5 19-2.5 8.4-5.4 16.5-8.5 24.4-2.6 6.9-6.5 18.7-9 26.3-2.8 7.4-4.3 14.2-6.5 21.4-.4 1.6-.8 3.1-1.2 4.5s-.6 2.4-.8 3.4c-.5 1.9-1 3.1-1.5 3.3-.5.3-1.3-.3-2.3-1.9-.7-1-1.2-2.1-1.8-3.2-.8-1.5-1.6-3.2-2.2-4.8-3.8-10.3-5.6-21.2-5.8-32v-3.9c.1-4.4.5-14 1-18.1v-.7c.3-3.6.8-7.2 1.4-10.8.3-1.9.6-3.8 1-5.8v-.1c.1-.3.1-.5.1-.8v-.1c0-.1 0-.2.1-.4.1-.9.3-1.8.5-2.7.1-.6.2-1.2.3-1.8.1-.5.2-1 .4-1.5.3-1.2.6-2.6.8-3.9.2-.8.3-1.7.5-2.5 0 0 0 0 0-.1.1-.5.2-1.1.4-1.6.4-1.5.7-3 1-4.6 0-.2.1-.5.2-.8.3-1.6.7-3.2 1.1-4.7.1-.6.2-1 .4-1.6.2-.9.4-1.8.6-2.7.2-1.1.5-2.2.7-3.3.3-1.3.6-2.7.8-4.1.1-.4.2-.7.2-1.1.5-2.5 1-5.1 1.4-7.8 0-.3.1-.7.1-1 0-.4.1-.8.2-1.2.4-2.4.7-4.9 1.1-7.4.1-1.2.3-2.5.4-3.7.1-.2.1-.4.1-.6v-.6c.2-2.3.4-4.6.6-7v-.4l.1-2.1v-.3l.2-4v-.4c.1-2.1.1-4.2.1-6.4 0-1 0-1.9-.1-2.9 0-1.2-.1-2.4-.1-3.7v-1.2c0-1-.1-1.9-.2-2.8 0-.2 0-.3 0-.5 0-.6-.1-1.1-.1-1.7-.2.8-.4 1.5-.5 2.2 0 .2-.1.4-.2.6-.2.6-.3 1.3-.5 1.9-.1.5-.2.9-.4 1.4 0 .2-.1.4-.2.6 0 .1 0 .1-.1.2v.1c0 .1-.1.3-.1.4s-.1.1-.1.2c0 .2-.1.3-.1.5s-.1.3-.1.5c-.4 1.3-.8 2.6-1.3 3.8-1 2.7-2.1 5.3-3.3 8.1-.2.4-.3.7-.6 1.1-1.1 2.3-2.3 4.6-3.7 6.8-.2.3-.3.5-.5.8 0 .1-.1.2-.2.3 0 0-.1.1-.1.1-.2.2-.3.5-.4.7s-.2.3-.3.5-.2.3-.3.5-.2.3-.3.5c-1.3 2-2.8 4-4.4 5.8-.7.9-1.5 1.7-2.2 2.6-.3.3-.5.7-.8 1-3.2 3.5-6.8 6.8-10.4 9.9h-.2l-.2.2-.9.8-1.4 1.1-.3.3-.2.2s0 0-.1.1c-.9.8-1.8 1.5-2.7 2.2-1.5 1.2-3 2.2-4.5 3.4-2.4 1.8-4.8 3.6-7.2 5.3-.3.2-.7.5-1 .7-.8.5-1.5 1.1-2.3 1.6-7 5-13.8 9.8-20.5 14.7-6.2 4.6-12.2 9.5-17.9 14.7l-.6.6c-5.7 5.5-11 11.5-15.5 18-4.8 6.8-9.5 14.5-15.4 21.4-5.4 6.3-9.1 9.4-10.3 9.3-.6-.1-.7-1-.3-2.9s1.2-4.8 1.9-8.8c1.4-6 2.3-12.1 3.8-18.5 1.5-6.9 3.8-13.5 6.9-19.9 3.5-7 7.9-13.6 13-19.4 5.4-6.2 11.3-11.8 17.8-16.9 6.4-5.1 13.2-10 20.4-14.6.2-.1.4-.3.6-.4l.8-.6c.2-.1.4-.2.6-.3 6.9-4.6 14.4-9 21.2-13.7 3.7-2.4 7.1-5.2 10.5-8.1.2-.2.4-.3.6-.5.1-.1.2-.2.4-.3l.8-.8c.1-.1.2-.2.3-.3s.2-.2.2-.2c2.5-2.5 4.9-5.2 7.1-7.9 2.7-3.6 4.4-7.8 5.1-12.3.3-1.8 0-2.8-.9-2.5l-1.4.6c-1.1.5-2 .8-2.7 1.2-.5.2-1 .4-1.4.6-.3.1-.5.3-.8.4s-.7.2-1 .4c-.4.2-.9.3-1.4.5-.4.2-.9.3-1.5.5l-1.9.6-.2.1c-1.2.4-2.3.8-3.5 1.1-1.1.4-2.3.7-3.4 1.1-1.3.4-2.7.8-4 1.2-.1 0-.3.1-.4.1-1.3.4-2.6.7-3.8 1.1-.9.2-1.7.5-2.6.8l-.2.1c-.7.2-1.5.4-2.2.6-1.2.3-2.4.7-3.6 1.1-1.3.4-2.6.8-3.9 1.2-1.2.4-2.3.7-3.5 1.1-1 .3-1.9.6-2.9.9l-.8.3c-.5.2-1.1.3-1.6.5-1.1.4-2.2.7-3.3 1.1-.7.2-1.4.5-2 .7-.8.3-1.5.5-2.2.8l-1.1.2-4.5 1.6-.8.3c-.9.3-1.7.7-2.6 1s-1.8.7-2.7 1-1.8.7-2.6 1l-.3.2-.5.2-.5.2-.2.1c-.6.2-1.2.5-1.8.8-.8.3-1.6.7-2.4 1-.1.1-.3.1-.4.2-.5.2-1.1.5-1.7.7l-.7.3c-.4.2-.8.3-1.2.5-1 .4-2 .8-2.9 1.3-1.9.9-3.9 1.8-5.9 2.8-2.1 1.1-4.4 2.2-6.5 3.3-5.6 2.9-11.2 6-16.6 9.5-2.6 1.5-4.4 2.9-5.9 3.8s-2.5 1.4-3.1 1.3c-.5-.1-.7-.9-.4-2.4.4-2.5 1-4.9 1.8-7.2.7-2 1.5-3.8 2.5-5.7.9-2 1.9-3.9 3-5.8.9-1.5 1.8-3 2.8-4.5.3-.5.7-1 1-1.5 1.3-1.9 2.8-3.7 4.3-5.5 1.1-1.3 2.2-2.5 3.3-3.6l.3-.3.4-.4c1-1.1 2.3-2.3 3.5-3.3l.5-.5c.7-.6 1.3-1.1 2-1.7s1.4-1.2 2.1-1.7c.6-.5 1.2-1 1.9-1.5 1-.7 2-1.5 3-2.1 1.6-1.1 3.2-2.2 4.8-3.2 3.3-2 6.7-3.9 10.2-5.6 6.1-2.8 12.4-5.3 19-7.1h.2c.4-.1.8-.2 1.2-.3.2-.1.5-.1.8-.2 2.5-.6 5-1.2 7.5-1.8.5-.1 1-.2 1.5-.3 1.6-.3 3.1-.6 4.7-.8 1.7-.3 3.5-.5 5.3-.7.2 0 .5-.1.7-.1 4.3-.4 8.8-.8 13.2-1-3.7-.1-7.4-.5-11.1-1-1.2-.2-2.6-.4-4.3-.6-1.5-.2-3.1-.4-4.8-.6-.6-.1-1.2-.1-1.8-.2-6.5-.8-13.5-1.7-17.3-2.5-6-1.3-12-2.5-17.9-3.7h-.1c-.1 0-.1 0-.1 0h-.4c-6.3-.8-12.4-1.8-18.4-2.7-12.9-1.8-25.9-2-38.9-.6-6.2.7-9.8 1.9-10.8 1.1-.4-.4-.2-1.1.8-2.6 1.7-2.1 3.5-4.1 5.6-6 1.4-1.2 3-2.4 4.9-3.4h127.1l11.5.5 2.3.1 5 .2 4 .2 26 1.1 26.5 1.1 6.8.3h1l2.3.1v.4l.4.2 5.4.2h.4l-.1.1 3.3.1h.2l4.8.2 1.7.1h.7c.3.2.5.4.8.5.3.2.6.4.9.5 0 0 .1.1.2.1h.1c.2.1.4.3.6.4 1.2.7 2.3 1.5 3.4 2.2.8.5 1.5 1 2.2 1.5 0 0 .1.1.1.1.6.4 1.1.8 1.7 1.2 1 .7 1.9 1.4 2.8 2.1.1 0 .1.1.2.1.1.1.3.2.4.4.4.3.7.6 1.1.8.3.2.5.4.8.6.1.1.2.1.3.2 1 .8 1.9 1.5 2.8 2.2.1 0 .1.1.2.2.1 0 .1.1.2.1.1.1.3.3.5.4.1.1.1.1.2.2s.2.1.2.2c.2.2.4.3.6.5.4.4.8.7 1.2 1.1 1.6 1.4 3.2 2.8 4.8 4.3.8.8 1.6 1.5 2.4 2.3 1.9 2.6 3.9 5.2 5.7 8 0 0 .1.1.1.1z" fill="#e9596b"/><path d="m193.5 187.9c2.6-5.9 3.3-12.5 2.1-18.8-1.6-5.7-.7-18 3.5-25.7 3.3-6.2 6.3-8.7 7.2-16.9.2-2.6.3-5.3.2-7.9 0-.3 0-.7 0-1 0-1.9.1-3.8.3-5.6.6-5.3 1.6-10.4 3.2-15.4.7-2.2 1.7-4.2 2.7-6.2.3-.7.7-1.3 1-1.8 1.3-2.1 2.9-3.9 4.8-5.3l.2-.1c1.4-.9 2.6-2.2 3.5-3.5.1-.1.2-.3.3-.5.5-.8.9-1.7 1.4-2.5.6-1.3 1-2.4 1.4-3.8.2-.9.5-1.8.7-2.6.1-.6.2-1.1.3-1.7 0-.3.1-.6.1-.9.1-3 .3-6.3.7-9.8.2-1.8.5-3.7.7-5.5.5-3.7 1-7.4 1.7-11.2 0-.3.1-.6.1-.9.9-5.3 2.1-10.5 3.2-15.6 1.6-7.1 3.5-14 5.8-20.8l.7-2.1c.2-.5.3-.9.5-1.3h21.2c-.5 3.7-1 8.6-1.7 14.3-1 7.9-2.4 17.2-4.2 26.2-.5 2.2-.9 4.3-1.4 6.5-.6 2.5-1 4.9-1.7 7.2-1 4.5-2.4 8.8-3.9 13.2-1.1 3.4-2.6 6.6-4.6 9.6-.2.3-.5.7-.7.9 0 0-3.2 2.6-6.1 11.1-.2.6-.5 1.3-.6 1.9-1.4 4.9-2.2 9.8-2.6 14.9-.1.9-.1 1.8-.2 2.7-.2 3.1-.6 5.6-.9 7.8-1 7.8-2.3 10.2-5.1 13.7-1.4 1.6-2.6 3.3-3.7 5.3-.2.3-.5.8-.7 1.3-1.8 3.8-3.4 9.5-3.9 18.3-.1 3.9-.6 7.9-1.3 11.8-.1.8-.3 1.6-.6 2.3-.6 2.2-1.3 4.2-2.3 6.2-.9 2.1-2.5 3.9-4.3 5.1l-1.1.7c-3.4 2.1-4.9 3.9-6.2 12.9-1.6 12.7-13.4 18.3-13.4 18.3s.5-16.9 3.7-24.8z" fill="#5676ef"/><path d="m151.7 12.3c0 .1-.1.1-.2.2.2.4.3.9.5 1.5s.4 1.2.8 1.8c.5 1.4 1.2 2.9 2 4.4.3.5.5 1 .8 1.6.1.2.2.3.3.5.4.8.9 1.7 1.3 2.4.4.8.9 1.6 1.3 2.3.2.4.4.9.6 1.3.8 1.4 1.4 2.9 1.8 4.4.8 3.9.1 6.8-1.8 7.9-1.1.6-2.4.8-3.5.2-.5-.1-.9-.3-1.4-.6-.8-.5-1.6-1-2.2-1.7-.3-.3-.6-.7-.9-1-.3-.4-.5-.7-.8-1.1-.8-1.3-1.5-2.7-1.9-4.2 0-.1-.1-.3-.1-.4-.6-2.1-.9-4.4-.8-6.6 0-.1 0-.2 0-.2 0-.4 0-.9.1-1.3 0-.8.1-1.4.3-2.2.4-2.4 1-4.8 1.8-7.2 0-.1.1-.2.1-.4-3 2.8-6 5.5-9.1 8.3.2.7.5 1.3.7 2 .3.8.5 1.7.7 2.5.3 1.2.6 2.4.8 3.6.5 2.5.8 5.2.9 7.7v.4c0 1-.1 2-.2 3-.1.4-.1.8-.2 1.2-.2.7-.4 1.3-.7 2-.1.3-.3.6-.5.9-.9 1.9-2.5 3.3-4.4 4.3-.1.1-.2.1-.3.1-1.1.5-2.4.4-3.5-.2-.7-.4-1.3-1-1.8-1.8-.2-.2-.3-.5-.4-.8 0-.1-.1-.2-.1-.2-.3-.6-.4-1.1-.5-1.6-.2-.9-.3-1.8-.4-2.7.1-1.5.3-3 .8-4.5.5-1.7 1.3-3.5 2.1-5 1.4-2.8 3.2-5.9 5.1-9.3-3.8 3.2-7.7 6.1-11.7 9-.2.4-.4.7-.5 1.1-.3.8-.5 1.7-.6 2.5-.1 1-.3 2.2-.5 3.4-.4 2.4-.7 4.9-1 7.1v.4c-.1.9-.2 1.8-.3 2.7 0 .2 0 .3-.1.5-.1.6-.2 1.2-.3 1.8-.3 1.3-.9 2.6-1.6 3.9-.4.8-1.2 1.5-2.2 1.7-1 .1-2-.4-2.6-1.2-.9-1.1-1.5-2.4-1.8-3.7-.1-.3-.1-.6-.2-1-.1-.7-.1-1.2-.1-1.9.1-1.3.2-2.7.6-3.9.6-1.9 1.4-3.8 2.5-5.4.9-1.5 1.9-2.8 3-4.1-4 2.7-8 5.1-12.3 7.5-.1.4-.2.8-.3 1-.1.7-.2 1.4-.3 2.1l-.1 2.8c0 .8-.1 1.5-.1 2.3-.1 1-.1 2-.1 3v.2.1c0 1.5-.2 3-.7 4.5-1.1 2.6-2.7 4.1-4.2 4.1h-.1c-.2 0-.3 0-.4-.1-.7-.2-1.4-.7-2-1.5s-1-1.9-1.2-3.4c0-.2 0-.3 0-.5s0-.4 0-.6c0-.9.1-1.9.4-2.8.5-1.7 1.2-3.3 2.1-4.8.9-1.4 2-2.8 3.2-4 .1-.1.2-.3.4-.4-2.9 1.5-5.9 3-8.9 4.3l-.3.9c-.4 1.5-1 3.5-1.5 5.5v.2c-.2.9-.4 1.9-.5 2.8 0 .3-.1.5-.1.8-.1.5-.2 1.1-.3 1.6 0 .2-.1.5-.1.7-.2 1.6-.6 3.2-1.1 4.7-.5 1.1-1.1 2-1.7 2.7-1.1 1.4-2.3 2.3-3.6 2.6-1 .1-2-.2-2.7-.9-.7-.9-1.2-1.9-1.4-3-.5-.1-.5-.4-.5-.7 0-1 .1-2 .3-2.9.1-.5.2-.9.4-1.4.1-.3.2-.7.3-1 .3-.8.6-1.4.9-2 .2-.3.3-.6.5-.8.4-.7.9-1.5 1.5-2.2 1.6-2.1 3.6-4 5.7-5.8-3.9 1.6-7.8 3.1-11.9 4.3-.1.3-.2.5-.3.8s-.2.6-.2.8c-.2.9-.4 2.1-.7 3.4-.1.7-.3 1.4-.6 2.1-.3.9-.8 1.9-1.2 2.9-.2.5-.5 1-.8 1.5-.1.1-.1.2-.2.3-.9 1.7-1.8 3.1-2.6 3.8-2.1 2-4 2.3-5 1.4-.4-.3-.6-.7-.8-1.2-.1-.5-.2-1.1-.1-1.8.1-.6.2-1.3.5-2.1v-.1c.3-.7.8-1.6 1.5-2.5 1.2-1.7 2.8-3.4 4-4.6.9-.9 1.9-1.8 3-2.9.3-.4.6-.6 1-.9-2.9.9-5.8 1.8-8.7 2.4-2.2.9-4.3 2-6.4 3.2-.6.3-1.2.7-1.7 1-2.6 1.5-5.2 3.1-7.8 4.3-3.7 1.8-7.8 2.6-12 2.5-1 0-1.9-.2-2.9-.3-.5-.1-1.1-.2-1.6-.4h-.1c-5.9-1.5-10.1-4.5-10.3-8.7-.2-2.6 3.4-5.1 6.9-5.4 3.6-.3 6.1.5 11.7 2.7.1 0 .2.1.2.1.7.3 1.4.5 2.1.8l.4.1c3.9 1.1 7 1.3 10.4.8 2.4-.3 5-1 8.3-1.9 2.9-.7 5.7-1.6 8.5-2.4 1.3-.3 2.5-.8 3.8-1.2-1.3.1-3 .3-4.6.5l-.6.1c-2.5.2-5 .3-7.4.2-1.3 0-2.7-.2-4-.5-1.1-.2-2.3-.8-3.4-1.4-1.3-.8-2.4-2-3.1-3.4-.2-.4-.4-.7-.5-1.1 0-.1-.1-.3-.1-.4-.2-.5-.3-1.1-.4-1.6 0-1.2.6-2.3 1.5-2.8.1-.1.2-.2.3-.2.8-.4 1.7-.7 2.6-.8 1 0 2-.1 2.8 0h.2c.2 0 .4.1.6.1s.3.1.5.1h.2l1 .2c.8.1 1.5.4 2.3.6s1.7.5 2.6 1c.9.4 1.8.8 2.7 1.3 3.3 1.9 6.9 4.3 10.8 6.9 6-2.2 11.8-4.7 17.5-7.5-1.4.3-3 .6-4.4.8-2.6.4-5.2.3-7.7.1-2.2-.2-4.3-.8-6.2-1.7-3.7-2.3-4.8-4.9-4-6.6.8-1.8 3.1-2.7 6.5-2.6 3.1.2 5.8 1.5 9 3.1 2.9 1.6 6.1 3.4 10.2 5.1.2-.1.5-.3.8-.4 5.1-2.7 10-5.8 14.7-9-5.8.7-15.4 1.6-20 .3-5.7-1.6-7.4-4.3-5.4-6.2.5-.5 1.4-1 2.5-1.4h.1l1.2-.3c.6-.1 1.2-.2 1.8-.3.6 0 1.2-.1 1.8 0 6.3.1 12.8 2.9 20.5 6.3 4.4-3 8.7-6.4 12.7-9.8-.9.3-1.8.8-2.9 1.2-2.5.9-5.1 1.7-7.7 2.2-2.2.5-4.5.5-6.8.1-1.6-.4-3.2-1.2-4.4-2.3-.1-.1-.2-.2-.3-.3 0 0-.1-.1-.1-.2-.4-.5-.7-1-.9-1.5-.1-.2-.1-.4-.2-.7s-.1-.6-.1-1c.1-.3.1-.5.2-.8.3-1 .9-1.8 1.7-2.5 1.2-.9 2.5-1.5 3.9-1.8 3.2-.7 6.5-.3 10.2.7 3.3.9 7 2.1 11 3.4 4.6-4 8.8-8.2 13-12.5-1.8.7-4.3 1.5-7 2.3-5.8 1.7-12.8 2.8-16.6 1.9-4.9-1.2-7.2-3.5-7.1-5.8s2.5-4.3 6.8-5.2c3.9-.7 8-.1 12.4 1 3.9 1 8.4 2.6 13.2 4 1.7-1.7 3.3-3.5 4.8-5.3.2-.2.4-.4.5-.6h5.2c-.2.3-.5.5-.8.8-3.5 3.8-7.1 7.6-10.9 11.4 0-.1 0 0 0 0z" fill="#582fb3"/><path d="m172.1 17.2v.2.1c-.5 1.6-1.2 2.9-2 3.7-1.2 1.2-2.6 1.6-3.9 1.4-.7-.1-1.5-.4-2.1-.8-.7-.4-1.3-1-1.7-1.6-.1-.1-.1-.1-.1-.2-.6-.9-1.1-1.8-1.4-2.8-.8-2.8-.4-5.5.5-8.8v-.2c.4-1.4.8-2.9 1.3-4.5.3-1.2.6-2.4 1-3.7h3c.2.3.4.5.5.8.5.8 1 1.6 1.4 2.4.2.4.4.8.6 1.2 1.1 2.2 2.1 4.6 2.6 7.1.5 1.8.6 3.8.3 5.7z" fill="#582fb3"/><path d="m228.8 4.9c-.2 1-.4 2-.7 2.9-.5 1.8-1.1 3.5-1.9 5.1-.1.1-.1.2-.2.3-.2.5-.4.9-.7 1.3-.7 1.3-1.4 2.6-2.2 3.8-.6.9-1.2 1.7-1.8 2.5-2.6 3.2-5.7 6-9.2 8.1-.4.2-.8.5-1.1.7-2.1 1.2-4.3 2.1-6.6 2.8-.5.2-.9.3-1.5.5 0 0-7 .4-15.4 9.7-.4.5-.9 1-1.3 1.5-.6.7-1.1 1.4-1.7 2.1-1.8 2.3-3.5 4.8-4.8 7.4-.7 1.2-1.3 2.2-1.9 3.3-.3.5-.6 1-.9 1.5s-.6 1.1-1 1.6c-.8 1.4-1.6 2.6-2.3 3.6-1.1 1.7-2.1 3-3.1 4.1 0 .1-.1.1-.1.2-.3.3-.6.7-.9 1-2.2 2.2-4.4 3-7.4 3.9-.1 0-.1 0-.2.1-1.3.3-2.5.7-3.7 1.1-.8.3-1.6.6-2.4 1-1.4.7-2.8 1.6-4.1 2.6-2 1.5-3.8 3.4-5.4 5.4-.1.1-.1.2-.2.3-1.9 2.5-3.6 5.2-4.9 8.1-1 2.2-2.2 4.3-3.5 6.4v.1c-.5.9-1.1 1.8-1.8 2.6-1.2 1.6-2.5 3-3.9 4.4-1.1 1.1-2.4 2.1-3.8 3-1.5 1-3.2 1.7-5 2h-.1c-1.1.2-2.2.3-3.3.2-1.3-.1-2.4-.2-3.4-.2-4.2-.1-7 1.3-11.6 8.4-4.5 6.9-12.9 8.5-18.7 8.7-2 .1-4.1 0-6.2-.3.1 0 6.9-17 14.4-22.4 5.4-3.7 9-8.4 9.7-14.9 0-.1 0-.2 0-.2 0-.2 0-.4.1-.6.1-2.9 1.3-6.7 3.4-10.4 1.2-2.2 2.7-4.3 4.4-6.3 2.1-2.3 4.5-4.4 7.1-5.8 5.6-3 9.8-3.9 13.6-8 1.6-1.8 3.2-4.4 4.8-8 .4-.9.8-1.9 1.2-3 .2-.4.4-.8.5-1.2.2-.6.5-1.1.8-1.7 1.1-2.2 2.3-4.2 3.7-6.1.1-.2.3-.4.4-.6.9-1.3 1.9-2.6 2.9-3.8.4-.5.8-1 1.2-1.5 1.2-1.4 2.5-2.7 3.9-4 1.1-.9 2.2-1.8 3.4-2.5.5-.3 1-.7 1.6-1 2.2-1.3 4.6-2.2 6.9-2.8 1.7-.4 3.3-.6 4.9-.6h1.1.4c5.4-.2 10.4-3.7 13.5-7.5.7-.8 1.2-1.6 1.7-2.4 0 0 .1-.2.4-.6 1-1.5 2-3 3.2-4.5 1.1-1.4 2.3-2.8 3.5-4.1.7-.7 1.3-1.4 2-2.1l.1-.1h25.1l1.8.1v-.1c0-.1 0-.1 0-.1l.4.1 1.6 1.2.1.1.5.4.7.5 1.4 1 .6.4.1.1 1.4 1 .2.1z" fill="#5676ef"/><path d="m229.3-.1-.3.1-1 .3-2.3.8-.2.1-1 .4-.2.1-.4.1-1.2.4-.6.2h-.1l-2.8.9-.8.2c-4.5 1.4-8.9 2.8-13.4 4.1-1.2.3-2.3.7-3.5 1-2.8.8-5.5 1.6-8.3 2.4-2.6.7-5.1 1.5-7.7 2.3 0 0 0 0-.1 0-.5.1-1 .3-1.5.4-2.4.7-4.8 1.4-7.2 2.2-1.6.5-3.1.9-4.6 1.3-.3.1-.7.2-1 .3-1.5.4-3.1.9-4.6 1.4-1.4.4-2.8.8-4.2 1.3-2 .6-4.1 1.3-6.2 1.9-.1 0-.2 0-.2.1-2.2.7-4.3 1.4-6.6 2.1l-1.5.5c-.1 0-.2.1-.3.1-2.4.9-4.2 1.5-5.5 1.8-.4.1-.7.2-1 .2-1.1 0-1-.6.1-2.4.1-.1.1-.2.2-.3.6-1 1.6-2.3 2.9-4 .6-.7 1.2-1.5 1.9-2.2 1.1-1.3 2.3-2.5 3.5-3.7.7-.7 1.3-1.3 2-2 0 0 0-.1.1-.1 3.2-3 6.7-5.8 10.3-8.2.2-.1.3-.2.5-.3 1.3-.9 2.8-1.8 4.2-2.7.1-.1.2-.1.3-.2.4-.3.9-.5 1.3-.8h26.4l.1-.1h28.7v-.1c0-.1 0-.1 0-.1l.4.2c0 0 5.4 0 5.4 0z" fill="#ff848c"/><path d="m281-.4v118.2c-.7-.6-1.3-1.1-2.1-1.8-1.1-1.1-2.2-2.3-3.2-3.5-1.2-1.3-2.3-2.8-3.2-4.3-.6-.9-1.2-1.9-1.8-2.9-.5-1-1.1-2-1.5-3-.3-.5-.5-1.1-.8-1.6-.2-.5-.5-1-.7-1.6-.4-.9-.7-1.9-1-2.8-.2-.8-.5-1.5-.7-2.3-.1-.4-.2-.8-.3-1.1-.1-.4-.2-.8-.3-1.2-.1-.3-.1-.5-.2-.8 0-.1-.1-.3-.1-.5 0-.4-.1-.7-.2-1.1-.1-.3-.1-.7-.2-1-.4-2.2-.7-4.4-.8-6.7v-.1c0-.5 0-1-.1-1.4v-2.6c0-2.2.1-4.5.2-6.7.1-1.3.2-2.6.3-3.9 0-.3 0-.6.1-.9.1-1.3.3-2.6.4-3.8.2-1.8.4-3.6.5-5.5v-.4c.1-1.3.2-2.6.3-3.9 0-.8.1-1.6.1-2.4 0-.6 0-1.2 0-1.8 0-3.3-.2-6.6-.6-9.9 0-.3-.1-.5-.1-.8-.6-4.2-1.5-8.4-2.9-12.5-.1-.6-.3-1.1-.6-1.7-.1-.2-.1-.4-.2-.6-.5-1.5-1.1-3-1.8-4.6.1 3 .2 6 .3 9.1v.6c.1 2.1.2 4.3.3 6.5 0 .8.1 1.5.1 2.3 0 1.5.1 3 .1 4.6v5.8c0 2.5-.1 5.1-.3 7.7v.5c-.2 1.5-.3 3-.5 4.5v.2.3c-.2 1.5-.5 3.4-.8 5v.2c-.4 1.9-.8 3.7-1.2 5.6-.2.7-.4 1.5-.6 2.2 0 .1-.1.2-.1.3-.3 1-.5 1.9-.9 2.9v.1.1c-.5 1.6-1.1 3-1.6 4.5-.7 1.8-1.4 3.6-2.2 5.3-.5 1.2-1 2.3-1.5 3.5-.4.9-.8 1.7-1.3 2.5-.1.2-.1.3-.2.5-.2.4-.4.8-.6 1.1s-.3.7-.5 1l-.7 1.4c-.4.7-.8 1.5-1.1 2.2-2.8 5.3-5.7 10.4-8.3 15.7 0 0 0 .1-.1.2-.4.9-.9 1.7-1.3 2.6-1.4 3-2.9 6-4.3 9v.1c-.1.2-.2.3-.2.5-.2.5-.4.9-.6 1.4-.1.2-.1.3-.2.4-2.7 5.9-5.2 11.8-7.6 17.7l-.2.5-.3.7s0 .1-.1.2c-.2.4-.3.8-.4 1.1-.4 1-.8 2-1.1 3.1-.1.4-.3.7-.4 1.1v.1c-1.2 3.3-2 5.9-2.6 7.3-.3.8-.6 1.2-.8 1.4-.5.3-1-.8-1.3-3.3 0-.1 0-.2-.1-.4-.3-1.5-.5-3.4-.7-5.8-.7-10.8.2-21.7 2.6-32.3.8-3.2 1.6-6.3 2.6-9.5 0-.2.1-.3.1-.5.1-.2.2-.5.3-.7 0-.2.1-.4.2-.5 0 0 0 0 0-.1 0-.2.1-.3.1-.5.5-1.6 1-3.3 1.7-4.9.1-.3.2-.6.3-.9s.2-.5.3-.8c.1-.1.1-.3.2-.5 0-.1.1-.2.2-.4.2-.6.4-1.1.6-1.7.5-1.3 1-2.5 1.5-3.8.8-1.8 1.6-3.7 2.4-5.5.5-1 .9-2.1 1.4-3.1.2-.3.3-.7.5-1 .4-1 .8-1.9 1.2-2.8 1.1-2.5 2.2-5 3.2-7.5.1-.2.2-.4.2-.5 0 0 0 0 0-.1s.1-.2.2-.3c0 0 0 0 0-.1.5-1.4 1-2.8 1.5-4.2.2-.8.5-1.5.7-2.2.1-.5.3-1 .4-1.5v-.1c.1-.2.1-.3.2-.6.2-.6.3-1.1.4-1.6 0-.1 0-.2.1-.3 0-.1 0-.1.1-.2.2-.5.3-1.2.5-1.9 0-.2.1-.4.1-.6 0-.1 0-.2.1-.4.2-.7.4-1.4.5-2 .2-.8.4-1.7.5-2.5s.3-1.5.4-2.3c.2-1 .3-1.9.5-2.9.5-3.2 1-6.7 1.5-10.3 0-.3.1-.6.1-.9.1-.4.1-.8.2-1.2.1-.8.2-1.6.3-2.5.2-1.4.4-2.8.6-4.2.1-.7.2-1.3.3-2 0-.2.1-.5.1-.7-.1.3-.1.5-.2.8-.2.6-.4 1.3-.6 2 0 .2-.1.4-.2.6-.3 1.2-.7 2.4-1.1 3.6-.4 1.3-.9 2.7-1.4 4-.3.8-.6 1.6-1 2.4-.7 1.8-1.5 3.5-2.2 5.2-.4.9-.8 1.8-1.3 2.7-.8 1.5-1.5 3-2.3 4.5 0 0 0 .1-.1.1-.3.5-.6 1.1-.9 1.6-.5.9-1.1 1.9-1.6 2.8-.1.1-.1.2-.2.3s-.1.2-.2.3c-.1.2-.2.3-.3.5 0 .1-.1.1-.1.2-.2.3-.4.6-.5.8 0 0-.1.1-.1.1-.3.5-.5.9-.8 1.4-.4.5-.8 1.1-1.1 1.7-.1.2-.2.4-.4.5v.1c-.1.1-.1.2-.2.4-.1.1-.1.2-.2.3v.1c-.3.4-.6.8-.8 1.1-1.1 1.6-2.3 3.1-3.4 4.5-.2.3-.5.6-.7.9-.3.3-.5.7-.8 1-.3.4-.6.7-.9 1-.3.4-.6.8-1 1.1-1.3 1.5-2.7 3-4 4.5l-.9.9c-.3.4-.7.7-1 1l-5 5c-.2.2-.4.5-.7.7l-1 1-2 1.9c-.3.3-.7.6-1 .9-.1.1-.1.1-.2.2-.5.4-.9.9-1.3 1.3l-.5.5c-.3.3-.7.6-1 1l-.3.4c-1.2 1.2-2.4 2.4-3.6 3.7-.6.6-1.2 1.2-1.7 1.9-.5.5-1 1.1-1.4 1.6-.3.4-.7.8-1 1.2-.2.2-.4.4-.5.7-.8.9-1.5 1.8-2.2 2.8-.7.9-1.3 1.9-2 2.8-.1.2-.2.5-.4.7-.6.9-1.1 1.8-1.7 2.7-.7 1.2-1.5 2.5-2.1 3.8l-.1.2v.1l-.3.6-.2.4-.1.2c-.2.3-.3.6-.5 1-1.7 3.2-3.4 6.5-5.4 9.8-.1.2-.3.4-.4.6-.4.6-.8 1.2-1.2 1.8-.2.3-.3.6-.5.8-1 1.6-2.2 3.1-3.4 4.6-.7.9-1.5 1.7-2.3 2.6-.5.5-.9.9-1.4 1.4-.4.4-.9.8-1.3 1.2-.9.8-1.7 1.2-2.2 1.6-.2.1-.4.2-.5.2-.3.1-.5.2-.7.2-.4 0-.2-.8.5-2.2 0-.1.1-.1.1-.2.7-1.4 1.2-2.9 1.8-4.4.1-.1.1-.3.2-.4.1-.4.3-.8.4-1.2.1-.2.1-.4.2-.6 0-.1.1-.2.1-.3.4-1.2.7-2.4 1-3.7.1-.2.1-.4.1-.6 0 0 0-.1.1-.1v-.1c.3-1.4.6-2.8.9-4.2.2-.8.3-1.6.5-2.4.6-3.3 1.3-6.8 2.2-10.5.1-.5.2-1 .4-1.4.1-.3.2-.6.2-1 .6-2.2 1.3-4.5 2.1-6.9.1-.3.2-.6.3-.9 0-.1 0-.1.1-.2l.6-1.5c.1-.2.1-.3.2-.5.5-1.1 1-2.1 1.5-3.2.2-.3.3-.6.5-1 .5-1 1.1-1.9 1.6-2.9 1-1.7 2-3.3 3.1-4.9.5-.7.9-1.3 1.4-2 1.4-1.8 2.8-3.6 4.2-5.4.1-.1.2-.3.4-.5.6-.7 1.2-1.4 1.8-2.1.4-.4.8-.9 1.1-1.3s.7-.7 1-1.1c1.3-1.4 2.6-2.8 3.9-4.2 1-1.1 2.1-2.2 3.1-3.4.7-.7 1.3-1.4 1.9-2 .3-.4.6-.7.9-1.1 2.2-2.4 4.4-4.9 6.5-7.6.5-.6 1-1.2 1.5-1.8.2-.3.5-.6.7-1 0 0 0 0 .1-.1.4-.6.9-1.1 1.3-1.8 1.6-2.2 3.3-4.5 5-6.9.2-.3.4-.5.5-.8.5-.7.9-1.5 1.5-2.2.5-.7.9-1.5 1.4-2.2.7-1.1 1.4-2.3 2.1-3.5.4-.7.8-1.3 1.2-2 1.6-2.7 3.1-5.6 4.5-8.4.3-.5.5-1 .8-1.5.4-.9.8-1.8 1.3-2.7.4-.8.8-1.7 1.1-2.5.2-.4.3-.7.5-1.1.2-.5.5-1 .7-1.5.1-.3.3-.6.4-1l.1-.3c-.1.1-.2.2-.2.3-.2.2-.4.5-.5.8-.2.2-.4.5-.6.8-.2.2-.3.5-.5.7-.5.7-1 1.3-1.5 1.9-.6.8-1.2 1.6-1.8 2.4-.2.2-.4.5-.6.7-.1.1-.2.2-.2.3-1.8 2.2-3.6 4.3-5.5 6.4-.9.9-1.8 1.8-2.6 2.8-.3.3-.6.6-.9 1-.9 1-1.9 1.9-2.8 2.8-1.5 1.5-3 2.9-4.6 4.3-.1.1-.2.2-.4.3-1.5 1.3-3.1 2.7-4.5 4l-1.2 1.1c-1 .8-2.1 1.6-3.1 2.5-.1.1-.2.2-.3.2l-.4.3c-.8.6-1.6 1.2-2.4 1.8-1 .7-1.9 1.4-2.9 2.1-1.4 1-2.8 2-4.3 3-1.8 1.2-3.6 2.4-5.4 3.4-1.4.9-2.9 1.7-4.3 2.6-.9.6-1.9 1-2.8 1.6-.1 0-.1.1-.2.1-1.3.7-2.5 1.4-3.8 2.1-.4.2-.8.4-1.2.6-.2.1-.4.2-.6.3-.5.3-1.1.5-1.6.8h-.1c-.2.1-.4.2-.6.3 0 0-.1 0-.1.1-2.9 1.5-5.8 2.8-8.8 4.1-.3.1-.7.3-1 .4-.7.3-1.4.6-2.1.9-.1 0-.1 0-.2.1-.3.1-.6.3-1 .4-1.9.8-3.8 1.4-5.6 2.1-1 .3-2 .7-3 1-.2.1-.4.1-.5.2 0 0-.1 0-.2 0s-.3.1-.4.1c-1.5.5-3 1-4.5 1.4l-.8.2c-9.6 2.8-10.9 3.5-2.6-4.9 7.5-7.3 14.9-13.9 22.9-20.6 1.6-1.4 3.3-2.8 4.9-4.2h.1c.1-.1.2-.2.3-.2.1-.1.2-.2.4-.3l.1-.1 1.4-1.1.5-.4.2-.2.6-.5c.2-.1.3-.3.5-.4.1-.1.2-.2.3-.3.2-.2.5-.4.8-.6.2-.2.4-.4.7-.5 2.5-2 5.1-4.1 7.8-6.2l2.7-2.1 2.2-1.7c1.2-.9 2.4-1.8 3.7-2.8 1.2-1 2.5-1.9 3.8-2.9 2.7-2.1 5.5-4.4 8.5-6.7 1.2-1 2.4-2 3.6-3l1.8-1.4c1.8-1.4 3.5-2.8 5.2-4.3.7-.6 1.5-1.3 2.2-1.9l.9-.7c1.6-1.4 3.2-2.7 4.8-4.2.4-.3.8-.7 1.2-1 .3-.3.6-.5.9-.8.9-.7 1.7-1.4 2.5-2.2l1.2-1.2c.3-.3.7-.6 1.1-.9.1-.1.1-.1.2-.2.7-.6 1.3-1.1 2-1.7.2-.1.3-.3.5-.4h50.2z" fill="#ff848c"/><path d="m242.9 30.9c-.5.7-1.1 1.3-1.7 1.7-.2.2-.5.2-.7.4-.4.2-.8.4-1.3.5-.4.1-.8.2-1.2.2-1.8.1-3.8-.4-5.6-1.7-.2-.2-.5-.3-.7-.5-.1 0-.3-.2-.4-.3-.3-.2-.7-.6-.9-.9l-.1-.1c-.5-.7-.9-1.4-1.3-2.2-.4-.9-.8-1.8-1.1-2.7-.1-.3-.2-.6-.3-1-.2-.8-.3-1.6-.4-2.4-.1-.2-.1-.4-.1-.6-.2-1-.3-2.1-.5-3.2 0-.3-.1-.6-.1-1v-.4c-.1-.7-.2-1.4-.2-2.1-.1-.9-.2-1.9-.4-2.9-.6 2.2-1.2 4.5-1.9 6.7-.4 1.3-.8 2.6-1.1 3.9-.7 2.3-1.4 4.6-2.1 6.8 0 .1-.1.2-.1.2-.5 1.6-1 3.2-1.6 4.8 0 .1 0 .3-.1.4-.1.3-.2.5-.3.8l1 .6c1.2.8 2.4 1.5 3.5 2.4.6.5 1.3 1 1.9 1.5.3.2.5.5.8.7l.3.2c.4.4 1 .9 1.4 1.3.8.8 1.6 1.7 2.3 2.5.2.2.4.5.6.8.5.7 1 1.4 1.5 2.1.2.2.3.4.5.7.6 1 1.2 2 1.6 3.2.4 1.1.7 2.2.9 3.4v.3c0 1.1 0 2.1-.1 3v.1c-.1 1-.4 1.9-.8 2.7-.3.7-.7 1.2-1.1 1.7-.7.9-1.6 1.5-2.6 1.8-.4.1-.8.2-1.2.3-.5 0-1 0-1.5 0-.2 0-.4-.1-.6-.1-.8-.2-1.7-.6-2.5-1.2-.4-.3-.8-.5-1.1-.9-.5-.4-.9-.8-1.4-1.3v-.2c-.3-.4-.6-.9-.9-1.4-.9-1.8-1.5-3.7-1.9-5.6-.3-1.3-.4-2.6-.5-3.8s-.2-2.6-.3-3.9c-.2-2.3-.3-4.8-.7-7.4-1.9 5.7-4 11.3-6.1 16.9-.7 1.7-1.4 3.4-2 5.1.3.4.7.9 1.3 1.4 1.4 1.7 3.5 3.9 5.8 6.1l.8.7c.7.6 1.4 1.3 2 1.9.3.3.6.5.8.7.5.5 1 .9 1.6 1.4.2.1.4.3.5.5l.3.2.7.6.2.1.2.2c.6.5 1.1.9 1.7 1.4s1.1 1.1 1.6 1.7c.7.7 1.3 1.5 1.9 2.3.1.2.2.3.3.5.1.1.2.3.2.4.5 1 1 2.1 1.4 3.3l-1.2 3.1-1.8 4.9.2.5-.5.2c-.4.1-.8.2-1.2.2s-.8.1-1.2.1c-.3 0-.6 0-1-.1-.8-.1-1.6-.2-2.3-.5-.7-.2-1.4-.5-2-.9-1.8-1-3.4-2.3-4.7-3.9-.4-.4-.7-.8-1-1.3-.1-.2-.2-.4-.3-.5-.3-.5-.6-1-.9-1.5 0-.1-.1-.2-.1-.3-.3-.5-.6-1.1-.8-1.7 0-.1-.1-.1-.1-.2-.2-.5-.5-1.1-.7-1.7s-.4-1.2-.6-1.7c-1.4-4.8-2.2-9.8-2.2-15.1-.3.5-.5 1-.7 1.6-1.9 4.5-3.9 9.1-6.1 13.7 1 1.2 2 2.5 2.9 3.8.7 1 1.3 1.9 1.9 2.9.4.6.8 1.3 1.2 2 0 .1.1.2.2.3.1.2.3.5.4.7.2.4.4.8.7 1.2l.3.7c.1.1.1.2.2.3s.2.3.2.4c.7 1.2 1.2 2.5 1.8 3.8.3.7.5 1.4.8 2.1 1.2 3 1.6 6.3 1.3 9.6-.3 2.8-1.5 5.5-3.1 7.7-.8 1-1.7 1.6-2.9 2-.1 0-.1 0-.2.1-.4.1-.8.1-1.2.1-.3 0-.5-.1-.8-.2-.8-.2-1.5-.6-2.2-1.1-.3-.2-.6-.5-.8-.8-.8-1-1.6-2.1-2.3-3.3-.1-.1-.1-.3-.2-.4-.2-.3-.4-.7-.5-1-.5-1.5-.8-3.1-1-4.7 0-.4-.1-.8-.1-1.2 0-1 0-2 0-2.9s0-1.7.1-2.6c0-.6.1-1.2.2-1.8.1-.9.2-1.9.3-2.8.2-2.1.5-4.4.8-6.7.2-1.5.4-3.1.6-4.8-.3.7-.6 1.3-1 2-2.6 5.4-5.5 10.6-8.4 15.8-.1.5-.2 1-.1 1.6 0 .5 0 1 .1 1.5.1.7.1 1.3.3 2l.3 1.4.4 1.9.2 1c.1.5.2 1 .3 1.4.5 2.7 1.1 5.4 1.7 7.8.5 1.7.7 3.2 1.1 4.6.2.8.2 1.6.4 2.4.2 1.8.1 3.8-.2 5.7-.1 1.3-.7 2.5-1.7 3.2-1.1.7-2.4.7-3.4.2-1.8-1.1-3.2-2.6-4.2-4.5-1.1-2.3-1.7-4.8-1.9-7.4-.1-1.2-.1-2.5 0-3.8 0-.5 0-.9.1-1.3.1-.9.2-1.7.4-2.6 0-.1 0-.2.1-.3.1-.8.3-1.7.5-2.5.3-1.4.7-2.9 1.2-4.2-2.7 4.4-5.6 8.7-8.6 13-.7 1-1.4 2.1-2.2 3.1v.5c0 .3 0 .6.1 1 .1 1 .3 2 .6 2.9l.2.8.6 1.9.2.6c.7 2.3 1.5 4.9 2.2 7 .6 1.9 1.1 3.9 1.2 5.9-.1 4-1.4 6.7-3.3 7.5-1 .4-2 .3-2.9-.2-1.5-.8-2.8-2.1-3.5-3.8-1-2.4-1.5-5.1-1.5-7.8 0-.4 0-.8.1-1.2.1-1 .2-2 .4-3 .5-2.2 1.1-4.5 1.9-6.7.1-.2.2-.5.3-.7-1.4 1.8-2.8 3.6-4.2 5.4-.8 1-1.5 1.9-2.3 2.8-.6.7-1.2 1.4-1.7 2.1 0 .4.1.8.1 1.4v1c.1.7.1 1.4.2 2.2.1 1.4.3 2.9.5 4.3.4 2.8.9 5.6 1.3 8 .4 2 .7 4.3.7 6.5-.4 4.5-1.7 8-3.7 9.5-.8.7-1.8.9-2.7.7-.2 0-.5-.1-.7-.2-.3-.2-.6-.3-.8-.6-1.1-.8-2.1-2-2.6-3.4-.8-2.2-1.2-4.6-1.1-7 0-2.7.5-5.5 1.2-8.1 1-3.5 2.3-7.1 4-10.3-3.8 4.2-7.6 8.3-11.6 12.3 0 .4-.1.8-.1 1.2.1 1.9.3 3.9.7 5.8.8 4.7-.3 13-1.5 16-1.5 3.7-3.6 5.1-5.1 4.6-1.5-.4-2.7-2.6-2.7-6.1.1-3.1 1.9-8.7 3.2-12 .6-1.6 1.4-3.4 2.1-5.3.2-.5.5-1 .7-1.6-.1.2-.3.3-.5.4-.1.1-.1.1-.2.2-2.7 2.6-5.5 5-8.1 7.3-2.7 3-5 6.3-7.3 9.7-2.2 3.3-4.4 6.5-6.8 9.4-.1.1-.1.2-.2.3l-.7.8c-4.1 4.9-9.4 8.6-15.3 10.5-8.3 2.4-15.4 1.5-17.7-4-1.8-4.6 1.1-9.7 4.9-12.1 4.5-2.7 8-2.9 17.4-3.7 3.7-.7 6.7-1.7 9.5-3.2.1 0 .2-.1.2-.1 2.6-1.4 5-3.2 7.8-5.6 1.2-1 2.5-2.2 3.8-3.4 4.3-3.6 8.4-7.5 12.4-11.5-1.5 1.1-3.2 2.1-5.1 3.2-2.5 1.6-5.2 3-7.9 4.4l-1.2.5c-1.6.7-3.1 1.2-4.8 1.7-1.5.4-2.9.4-4.3.2-.4 0-.8-.1-1.2-.2-.2 0-.3-.1-.5-.1-1.2-.4-2.4-1-3.4-2-1.1-1-1.9-2.1-2.5-3.4-.6-1.6-.3-3.5.8-4.8.7-.9 1.6-1.8 2.6-2.4s2.1-1.2 3.1-1.6c.1 0 .2-.1.3-.2.2-.1.3-.1.5-.1.4-.1.7-.2 1-.4l1.2-.3c.9-.2 1.8-.4 2.8-.5s2.2-.3 3.4-.3c1.2-.1 2.5 0 3.7.1 1.2 0 2.3.2 3.6.3 3.6.4 7.4 1.2 11.5 1.8 4-4.3 8-8.7 11.7-13.2.7-.8 1.4-1.7 2-2.5.9-1.2 1.8-2.4 2.8-3.6-.8.7-1.6 1.3-2.5 1.9-.7.5-1.3 1-2 1.5-.1.1-.2.1-.2.2-2.8 1.9-5.6 3.4-8.6 4.7-2.6 1-5.2 1.6-7.8 1.5-1.3-.1-2.5-.4-3.6-.8-2.7-1.2-3.9-2.9-3.9-4.8 0-2.5 2.3-5.2 6.2-6.9.7-.3 1.4-.4 2.1-.7 3.2-.8 6.4-1 9.6-.7 2.2.1 4.6.3 7.2.4h2.4c1.2 0 2.4 0 3.6-.1h.5l.7-.9c.4-.5.8-1.1 1.2-1.7 1.4-2 2.8-3.9 4.1-5.9 2.7-3.8 5.1-7.9 7.6-11.8-2.2 1.4-5 3.2-7.8 5-.4.3-.9.5-1.3.8-.9.5-1.8 1.1-2.8 1.6-1.1.6-2.2 1.2-3.3 1.7-1.2.6-2.4 1.2-3.5 1.6-1.4.6-2.7 1-3.8 1.2-10.9 2-12.4-4.4-3.3-10.2 2.7-1.6 5.7-2.7 8.8-3.5 1.4-.3 2.9-.6 4.4-.8 1.1-.1 2.2-.3 3.3-.3.4 0 .7 0 1.1-.1.6 0 1.2-.1 1.8-.1 2.7-.2 5.6-.3 8.6-.4 3.7-6.3 7.1-12.8 10.3-19.2-.9 1-1.7 2-2.8 3.1-2.4 2.6-5 5-7.8 7.2-1.7 1.4-3.5 2.5-5.5 3.3-.7.3-1.4.5-2.1.7-.4.1-.9.2-1.3.2-.5 0-1 .1-1.4.1-1 0-1.9-.1-2.8-.4-.3-.1-.6-.2-.9-.3-1.4-.5-2.5-1.7-2.8-3.3-.6-2.8.9-6.4 4.6-9.6.2-.2.5-.4.7-.6.3-.2.6-.4.9-.6 3-2 6.4-3.1 10.5-3.9 1.2-.2 2.4-.5 3.6-.7 1.5-.3 3.2-.5 4.9-.8 1.8-.3 3.6-.5 5.5-.8 1.5-3.3 3-6.6 4.3-9.9 1.6-3.8 3.1-7.5 4.5-11.3l.5-1.4v-.1l-.7.8c-1.8 1.8-3.9 3.9-6.2 6.1-5.9 5.3-13.4 10.8-18.1 11.9l-1.2.2c-.8.1-1.6.2-2.4.2-1.8.1-3.3-.2-4.4-.7-.9-.4-1.5-.9-2-1.5-.2-.3-.5-.7-.6-1.2-.1-.2-.1-.4-.1-.6-.1-.5-.1-1.1 0-1.7 0-.1 0-.2.1-.4.4-1.7 1.5-3.5 3.3-5.4.7-.7 1.4-1.4 2.3-2.1s.1 0 .1-.1c3.3-2.4 6.8-4 10.7-5 1.3-.3 2.6-.6 4-.9 2.4-.6 4.9-1 7.6-1.4 1.2-.2 2.4-.4 3.7-.6l2.9-.5 2.6-.5c.9-2.5 1.8-5.1 2.6-7.6.1-.2.2-.5.2-.7 1.1-3.3 2.2-6.7 3.2-10 .2-.6.4-1.3.5-1.9v.1c-1.1 1.7-2.5 3.2-3.9 4.6-1.5 1.5-3 2.8-4.7 4-1 .7-1.9 1.5-2.9 2.2-.5.5-1.1.8-1.7 1.2-2.6 1.8-5.5 3.3-8.5 4.1-.6.2-1.4.1-2 .3-1.7.1-3.5-.1-5.1-.8-.2-.1-.5-.2-.7-.3-1.1-.7-1.8-1.8-2.2-3.2 0-.3 0-.6 0-.8 0-1.3.5-2.7 1.2-3.8l.2-.3c1.1-1.6 2.3-2.9 3.6-4h.1c.1-.1.3-.3.5-.3 1.8-1.3 3.7-2.3 5.6-3.1.2-.1.4-.2.6-.2 1.7-.7 3.5-1.2 5.3-1.6.5-.1 1.2-.2 1.7-.3l.5-.1c1.6-.2 3.2-.4 4.8-.7 1-.2 2-.4 3-.7 2.4-.6 4.7-1.7 6.8-3.4l.2-.1c1.2-4.1 2.3-8 3.4-12.1.1-.4.2-.8.3-1.3.2-.6.3-1.1.5-1.7.5-1.7.9-3.4 1.3-5.1 0-.2.1-.4.1-.6 0-.1.1-.3.1-.4v-.1l-.1.1c-.1.1-.1.2-.2.3-.1.2-.3.5-.5.7-1.2 1.7-2.4 3.3-3.6 4.8-2.4 2.9-5 5.5-7.7 7.9-2.7 2.6-5.7 4.6-9 6-1.1.3-2 .6-3.2.7l-.5.1c-.4 0-.7.1-1 .1h-.2c-4.9.1-7-2.7-5.8-6.8.3-1 .7-1.9 1.1-2.7 0-.1 0-.1.1-.2.5-.8 1-1.5 1.6-2.2.2-.3.5-.6.8-.9.2-.3.6-.6.8-.8.7-.7 1.4-1.2 2.1-1.8.5-.4 1.1-.8 1.7-1.1.8-.5 1.6-1 2.4-1.4 1.9-.9 3.9-1.7 5.9-2.4.5-.2.9-.3 1.4-.5 1.4-.4 2.9-.9 4.4-1.3 1-.3 2-.6 3-.9.1 0 .2-.1.3-.1h5.9c0-.1 0-.1 0-.1l.2.1h1.5c0-.1 0-.1 0-.1h.1c0-.1 0-.1 0-.1l.4.2h4.2v.1c0 .1 0 .2-.1.3-.2.6-.3 1.3-.5 1.9-.1.4-.2.9-.3 1.4v.1c-.3 1-.6 2.1-.9 3.1l.7.4c.4.2.8.4 1.2.7.7.4 1.4.7 2 1.2.1.1.2.1.4.2.5.3 1 .6 1.5 1l1.1.8c.9.6 1.7 1.2 2.5 1.9.1.1.2.2.3.3.3.3.6.5.9.8l.5.5c.8.7 1.6 1.5 2.3 2.3l.4.6c1.2 1.3 2.1 2.9 2.7 4.6.1.4.3.8.4 1.2.1 3.5-.5 6.1-1.8 7.9z" fill="#582fb3"/><path d="m257.3 6.8c-.5 1.2-1.4 2.3-2.5 2.9-.1.1-.2.1-.4.2-.1.1-.2.1-.4.1h-.1c-.2.1-.5.2-.7.2-1.5.4-3 .5-4.5.3-.5-.1-1.1-.2-1.6-.4-2-.7-3.8-1.6-5.4-3-.2-.2-.4-.4-.6-.5l-.2-.2-.5-.4c-.6-.6-1.1-1.2-1.6-1.8 0 0-.1-.1-.1-.2-.4-.5-.7-1-1.1-1.5-.5-.7-.9-1.4-1.4-2.2-.1 0-.2-.2-.2-.3h20.3c.1.2.2.3.3.5 1.1 2.2 1.4 4.4.7 6.3z" fill="#582fb3"/><path d="m229.6-.1-.2.1h-.2z" fill="#fff"/><path d="m223.8 0h-.3v-.2z" fill="#fff"/><path d="m280.7 83.9v7.6" fill="none"/><path d="m280.7 118.3v-.6l.3.3z" fill="#fff"/><g fill="#582fb3"><path d="m163.5-.1c0 .1 0 .1 0 0-.1.1 0 .1 0 0z"/><path d="m229.3-.1-.3.1h-34.3l.1-.1h26.9c0-.1 0-.1 0-.1l.2.1h1.5c0-.1 0-.1 0-.1h.1c0-.1 0-.1 0-.1l.4.2z"/><path d="m229.7-.1-.1.1h-.4l.4-.1z"/><path d="m281 0h-50.9z"/><path d="m229.3-.1-.3.1h-19v-.1h11.7c0-.1 0-.1 0-.1l.2.1h1.5c0-.1 0-.1 0-.1h.1c0-.1 0-.1 0-.1l.4.2z"/><path d="m229.6-.1h.1l-.1.1h-.4z"/><path d="m258.6 0h-28.6z"/></g></svg>