<svg enable-background="new 0 0 275.49 278.69" viewBox="0 0 275.49 278.69" xmlns="http://www.w3.org/2000/svg"><path d="m51.6.16v-.2l.4.1h5.4l.3-.1h.1v.1.1h129.3c6.1 4.2 13.4 9.3 20.5 14 1.6 1.1 3.2 2.1 4.7 3.1.1.2.3.3.5.4 6.5 4.2 12.3 7.8 16.3 9.9 9.4 5.2 17.2 8 23.3 12.1-5 3.6-10.3 8.3-17.1 13.2-.9.7-2 1.4-3 2.1-.1.1-.2.1-.3.2-.1 0-.1.1-.2.1-3 2-6 3.8-9.1 5.5-.7.4-1.4.7-2.1 1.1-.9.5-1.7.9-2.6 1.3-.4.2-.9.4-1.4.6s-1.1.5-1.6.7c-1.4.6-2.7 1.1-4 1.6-.4.1-.8.3-1.2.4-1.3.5-2.5.9-3.8 1.3-.6.2-1.1.4-1.7.5h-.1l-.4-.2-.3.1-.5-.1c-1.6.5-3.3.9-4.9 1.2-.9.2-1.9.4-2.9.6-1.6.3-3.2.6-4.8.8s-3.1.4-4.7.6l-.7.1c-1.9.2-3.8.4-5.7.6-3.5.3-6.9.2-10.1-.2-6.2-.7-12.1-2.6-17.9-4.6h-.1c-1.8-.5-3.8-1.2-5.6-1.8 0-.1-.1-.1-.1-.1-.4-.1-.6-.2-1-.3l-1.4-.4c-.6-.2-1.2-.4-1.8-.6-7.3-2.3-14.3-5.5-21-9.5-2.1-1.3-4.2-2.6-6.2-3.9-.1-.1-.2-.1-.3-.2s-.2-.1-.3-.2c-.1 0-.1-.1-.2-.1-.1-.1-.2-.1-.3-.2-.4-.2-.7-.5-1.1-.7l-.5-.4-.2-.1h-.3l-1.5-1-.1-.1.8.7.8.8.3.3c.6.6 1.3 1.3 1.9 1.9l.1.1.5.5c1.3 1.3 2.5 2.6 3.7 3.9 2.7 2.8 5.2 5.6 7.4 8.2.6.7 1.2 1.6 1.8 2.4 2.4 3.8 4.5 7.8 6.2 11.9 0 .2.1.3.2.5v.1l1.9 4.3.2.5c1.6 3.9 3.5 7.8 5.6 11.6 0 .1.1.2.1.3.1.1.2.3.3.5l.5.8s.1.1.1.2c.2.3.4.7.6 1.1 1.3 2.4 2.6 4.7 3.9 7.2 2.1 4.1 4 8.3 5.8 12.7.4 1 .7 1.9 1.1 2.8 0 0 .1.1.1.2.7 1.8 1.3 3.6 1.9 5.5s1.2 3.8 1.7 5.8c.8 2.8 1.4 5.6 2 8.5 0 .2.1.4.1.6.1.8.3 1.6.4 2.4.2 1.2.4 2.3.6 3.5 0 .6.1 1.2.2 1.8.2 1.1.3 2.3.4 3.4.1 1.2.2 2.6.3 3.9 0 .5.1.9.1 1.3.1 1.2.1 2.5.2 3.7v.3 1 .9c.1.6.1 1.2.1 1.7v1.2c-.1 2-.2 3.9-.3 5.8-.1.7-.1 1.3-.2 2-.3 3.2-.8 6.4-1.4 9.5-.1.7-.3 1.3-.4 2-.4 1.7-.8 3.4-1.3 5.1-.2 1-.5 1.9-.8 2.9-.4 1.6-.9 3.2-1.4 4.8-1.7-6.8-3.1-11.5-4.6-15.3-1.9-4.6-3.9-8.1-7-12.6l-.2-.4c-1.4-2.3-2.9-4.6-4.3-6.8-1-1.5-1.9-2.9-2.8-4.2-.2-.4-.5-.9-.8-1.3-.4-.6-.8-1.2-1.2-1.8-.9-1.3-1.6-2.4-2.3-3.3l-.1-.1c-1.8-2.6-3.6-5-5.3-7.2-.7-.9-1.4-1.7-2.1-2.6-1.6-1.9-3.3-3.8-5.1-5.7-.1-.2-.2-.3-.3-.4-1.2-1.3-2.4-2.4-3.6-3.6l-1.2-1.2c-.3-.3-.7-.6-1-.9-.1-.1-.3-.2-.4-.3s-.2-.1-.3-.2c-1.5-1.4-3-2.7-4.6-4-.7-.5-1.3-1-1.9-1.5-.5-.4-1-.8-1.5-1.2-.9-.7-1.8-1.4-2.7-2.2-1.4-1.1-2.9-2.3-4.4-3.5-.2-.2-.4-.3-.6-.5-.1-.1-.3-.2-.4-.3-.5-.4-1.1-.8-1.6-1.3-1-.8-2-1.7-3.1-2.6-.9-.7-1.7-1.4-2.5-2.1-.6-.5-1.2-1-1.8-1.5l-.2-.2c-.8-.7-1.6-1.5-2.3-2.3-.6-.6-1.1-1.2-1.7-1.8-.1-.2-.2-.3-.4-.5-.8-.9-1.5-1.8-2.3-2.7-.7-.8-1.4-1.7-2.1-2.5l-.1-.1c-.2-.3-.4-.5-.6-.8-.4-.4-.8-.9-1.1-1.3-1-1.3-2.1-2.7-3.1-4l-1.5-1.9-.2-.3v-.1c-.1 0-.1-.1-.1-.1-.4-.5-.8-1-1.2-1.5-.9-1.1-1.8-2.3-2.7-3.5-.2-.3-.5-.6-.7-.9-.3-.4-.6-.8-.9-1.2-1.2-1.5-2.4-3-3.7-4.5-.1-.2-.2-.3-.3-.4l-.1-.1c-.1 0-.1-.1-.1-.1-.7-.8-1.5-1.7-2.2-2.6-.5-.6-1.1-1.2-1.6-1.8-.3-.4-.5-.7-.8-1-.2-.3-.5-.5-.7-.8-.2-.1-.3-.3-.5-.5-.5-.5-1-1.1-1.5-1.6-.4-.3-.7-.7-1-1l-.1-.1-.2-.3c-.1-.1-.1-.1-.1-.1.1.8.3 1.6.4 2.4 0 .2.1.3.1.5.2 1.1.3 2.1.5 3.1.1.4.1.8.2 1.2 0 .5.1 1 .2 1.5.8 5.1 1.4 10.3 1.8 15.5 0 .4.1.8.1 1.3.1 1.1.1 2.1.2 3.1s.2 2 .2 3c.1.3.1.5.1.8s0 .6 0 .9c0 1.4.1 2.7.2 4.1v.1c.1 1.8.1 3.7.2 5.5v.2.2 1.6c.2 7.5.2 15.1.1 22.7 0 2.7-.1 5.2-.1 7.8v2.2.9c-.2 6.6-.4 13.3-.5 19.5-.1 3-.2 5.8-.2 8.6v9.3 2.2c0 1.4 0 2.8.1 4.3 0 1.7.1 3.4.2 5.1 0 2.1.2 4.2.3 6.3.1 1.5.2 2.9.4 4.4v.1c.4 2.7.6 6.3.8 10.4.1.3.1.6.1.9.5 7.6 1.2 16.8 3.1 25 0 0-6.2-4.8-12.7-10.8-4.3-4.1-8.8-8.7-11.5-12.9-1.4-1.9-2.6-3.9-3.8-5.8-2.4-3.9-4.3-7.8-5.8-11.3-1.3-3-2.3-5.7-3.1-7.9-.1-.2-.2-.3-.2-.5 0-.2-.1-.5-.2-.7-.6-1.7-1.1-3.3-1.6-5 0-.1 0-.1 0-.2-.1-.1-.1-.2-.1-.3-1.1-4-2-8-2.7-12-.6-3.4-1.1-6.9-1.5-10.3-.2-2.1-.4-4.1-.5-6.1-.3-3.3-.5-6.7-.6-10-.1-.4-.1-.9-.1-1.3-.1-3.1-.2-6-.3-9s-.2-5.9-.3-8.8c-.1-2.4-.2-4.8-.3-7.2 0-.2 0-.5 0-.7l-.1-1.6v-.7c0-.1 0-.1 0-.2 0 0 0-.1 0-.2-.1-1.7-.2-3.6-.3-5.4-.1-3.8-.2-7.7-.3-11.6 0-1.7-.1-3.4-.1-5.1v-.1c0-.7 0-1.5 0-2.2 0-.2 0-.4 0-.6v-3.7c0-.5 0-.9 0-1.3 0-.8 0-1.5 0-2.3 0-1.9 0-3.7 0-5.6 0-.7 0-1.4 0-2.1v-1.7c0-2.4-.1-4.8-.1-7.2 0-3.7-.1-7.3-.2-10.7 0-1.3 0-2.6-.1-3.8 0-.8-.1-1.7-.1-2.5 0-1.3-.1-2.7-.2-4.1v-.5c0 .1-.1.3-.1.5-.7 2.7-1.6 5.4-2.6 8-.5 1.3-1 2.6-1.5 3.8-.5 1.4-1.1 2.8-1.7 4.1-.6 1.2-1.1 2.3-1.6 3.4-.6 1.3-1.2 2.5-1.7 3.6-1.8 3.3-3.5 6.4-5.3 9.5-.2.2-.3.5-.5.8v-83.7z" fill="#9daefe"/><path d="m.2 55.26c.2 0 .4 0 .8-1.5l.9-.3c.8-.2 1.5-.4 2.4-.6 1.8-.5 3.8-.8 5.6-1l.7-.2c.3 0 .7-.1 1-.1h.3c.4-2.4.9-4.7 1.2-7.1.1-.8.2-1.5.4-2.3.1-.5.2-.9.3-1.3.2-1.4.4-2.8.7-4.2 0-.4.1-.8.2-1.2 0-.1.1-.3.1-.4.3-1.4.5-2.8.8-4.2.4-1.8.8-3.8 1.2-5.6-2.2 3.2-4.2 6.2-6.1 8.7-.1.1-.3.3-.4.5s-.2.3-.2.4c-.8.9-1.5 1.8-2.4 2.7-.3.5-.8.9-1.3 1.3-.9.7-1.7 1.3-2.7 1.9-.8.4-1.6.8-2.5 1.1h-.1l1.4-20h.1c.5-.1.8-.2 1.3-.3.1-.1.2-.1.3-.1.5-.2 1-.3 1.6-.4.6-.2 1.3-.3 1.9-.4h.5c2.5-.4 5.2-.6 7.9-.7.3-.1.6-.2.9-.1.3-.8.3-1.6.5-2.3 0-.1.1-.3.1-.4v-.1l1.5.1 1.5.1 2.8.2 1.4.1 6.9.5c.1.2.3.3.4.4s.1.2.2.2c1.2 1.1 2.3 2 3.5 3 .1 0 .1.1.2.1l.1.1c.3.3.7.6 1 .9s.7.6 1 .9l.3.3c.6.6 1.4 1.2 2 1.8.2.1.3.3.5.5 1 .8 1.8 1.7 2.7 2.7.3.4.7.8 1 1.2.2.3.4.6.6.8.1.2.3.5.5.7s.3.3.4.5c1.2 1.5 2.1 3.3 2.9 5 .1.1.2.3.2.4 0 .3.2.6.3.9v.2c.4 1.2.7 2.3.8 3.5v.9c.1 1.9-.3 3.4-.9 4.7-.3.6-.7 1.1-1.1 1.6-.2.2-.4.4-.6.5-.1.1-.2 0-.2.1-.8.5-1.6.8-2.7.9-1.8.1-4-.4-6.4-2-.1-.1-.3-.2-.4-.3-.4-.3-.9-.6-1.4-1-.3-.2-.6-.4-.9-.7l-.1-.1c-1.1-1.1-2.2-2.6-3.4-4.3-1.9-3-3.8-7-5.3-11.2-.3-.9-.5-1.6-.8-2.5-.1-.3-.2-.6-.3-.9s-.1-.5-.2-.7c-.1-.6-.3-1.1-.4-1.6-.2-.6-.3-1.3-.5-2-.3-1-.5-2-.7-3.1-.2-.6-.3-1.3-.4-2.1v-.3c-.1.1-.1.2-.1.3-.1.3-.1.6-.2.9-.4 1.7-.8 3.6-1.2 5.3-.1.4-.2.8-.3 1.2-.2.5-.3 1.2-.4 1.8v.1c-.1.4-.2.9-.3 1.4 0 .4-.1.9-.2 1.3-.1.1-.1.2-.1.3 0 .3 0 .5-.1.7-.1.1-.1.2-.1.3-.1.2-.1.5-.2.8-.6 2.6-1.1 5.4-1.6 8.1-.1.3-.1.6-.2.9.1.1.2.3.3.5.4.8 1 1.6 1.6 2.4.1.2.3.3.4.5.9 1 1.8 1.8 2.8 2.6.1.1.3.3.5.4s.3.3.5.4c1.4 1.1 2.9 2 4.4 2.9.9.5 1.7 1 2.6 1.6l.4.2c1.5 1 2.9 2 4.3 3.2.2.1.3.3.5.4.4.3.8.6 1.1.9l.5.5c.4.4.9.8 1.3 1.3 1.3 1.4 2.5 2.9 3.5 4.6.3.5.6 1.1.8 1.7.5 1.2.9 2.4 1.2 3.7.1.5.1.9.2 1.4v.6c0 1.1-.2 2.2-.6 3.2-.2.5-.4.9-.7 1.3l-.1.1c-.5.6-1 1-1.7 1.4-.2.1-.3.1-.4.2-.1 0-.2.1-.3.1-.2.1-.2.1-.3.1-.2 0-.5.1-.7.1-.1 0-.1 0-.2 0-.2.1-.5.1-.8.1-.1 0-.2 0-.2 0s0 0-.1 0h-.7s-.1-.1-.2-.1-.2 0-.2 0c-.4 0-.8-.1-1.2-.2-.8-.2-1.7-.5-2.5-.9-1.1-.4-2-1-3-1.6l-.4-.2c0-.1-.1-.1-.2-.2-1.6-1.5-2.9-2.8-4.2-4.4 0-.1 0-.1 0-.1-.7-.9-1.4-1.8-2-2.9-1-1.6-2-3.5-3-5.3l-.5-1.1c-.3-.5-.6-1.2-.9-1.8-.1-.3-.3-.6-.4-.9s-.2-.5-.3-.7c-.2-.5-.5-1.1-.7-1.7-.7-2-1.4-4.1-1.7-6.2l-.1-.3c-.7 4.1-1.3 8-1.9 12.1 0 .2-.1.4-.1.6-.1.8-.3 1.8-.4 2.7-.1.4-.1.8-.2 1.2 0 .4-.1.7-.1 1.1-.2 1.6-.4 3.2-.6 4.7v.3c.3.2.6.4.9.6.1.1.2.1.3.2s.3.2.4.3c.2.2.4.3.6.4 1 .6 1.9 1.3 3 1.9.1.1.2.1.2.1l1.5.9.2.1c.3.2.7.5 1.1.7.3.2.7.5 1 .7 1.5.9 2.7 1.8 4.1 2.6 0 0 .1.1.2.1.6.4 1.3.8 1.9 1.3.3.2.6.4.8.6.3.3.6.6 1 .8.3.3.7.5 1.1.8.3.2.6.4.8.6.5.4.9.8 1.4 1.1.2.2.4.3.6.5.6.5 1.2 1 1.8 1.6.9.9 1.7 1.8 2.6 2.8.1.2.2.2.3.4.2.3.4.5.6.8s.4.5.6.8c.1.2.2.3.3.5.3.5.6 1 .9 1.5.1.3.3.5.4.7.8 1.7 1.5 3.3 1.8 4.9.3 1 .4 1.9.4 2.8 0 .4 0 .8-.1 1.2-.1.7-.3 1.5-.6 2.1 0 .1-.1.3-.2.4-.3.4-.5.7-.8 1-.4.3-.7.5-1.1.8-.5.4-1.2.6-1.8.7-1 .2-1.8.3-2.7 0-.7-.2-1.5-.4-2.2-.7-.5-.2-1-.4-1.5-.6-.3-.2-.5-.3-.8-.5-.1-.1-.2-.1-.3-.2-.6-.4-1.3-.8-1.9-1.3-.1 0-.1-.1-.2-.1 0-.1-.1-.1-.2-.2s-.3-.2-.5-.4c-.1 0-.1 0-.1 0-.2-.2-.4-.3-.6-.5-.8-.9-1.6-1.8-2.5-2.9-1.2-1.4-2.4-3.2-3.6-5.1-.6-.9-1-1.7-1.5-2.6-.3-.5-.5-.9-.8-1.4 0-.1-.1-.2-.1-.2-.3-.7-.7-1.4-1.1-2.2-.1-.1-.1-.3-.2-.4-.6-1.5-1.3-2.9-1.9-4.3 0-.2-.1-.4-.2-.6-.3-.7-.6-1.4-.9-2.1-.2-.3-.4-.7-.5-1.1-.2-.6-.4-1.1-.6-1.6-.4-1-.8-1.9-1.1-2.8-.2-.4-.3-.9-.5-1.3 0-.1-.1-.2-.1-.3-.7 6-1.2 12-1.5 18v.2c-.1.5-.1 1.1-.1 1.6s-.1 1.2-.1 1.8c0 1.1-.1 2.2-.1 3.3-.1.6-.1 1.1-.1 1.6l.5.3.4.2 1 .6 1.5.9c.1 0 .3.1.4.2s.2.1.3.2.2.1.3.2c2.7 1.7 5.2 3.1 7.5 4.7.5.3 1.2.8 1.8 1.2.3.2.7.5 1 .7.2.1.5.3.7.5.7.5 1.3 1 1.9 1.5.3.3.6.5.9.8 1 .9 1.8 1.7 2.7 2.7 1.2 1.3 2.1 2.8 2.9 4.4l.4.8.4.9c.3.8.5 1.6.7 2.5.3 1.7.3 3.1-.1 4.5-.1.5-.3 1-.6 1.5-.1.3-.4.5-.5.8-.1.2-.2.4-.4.5-1.1 1-2.5 1.8-4.1 1.8h-1c-2.7-.1-5.1-.9-7.2-2.5-1-.8-2.1-1.8-3.1-3.1-.4-.4-.7-1-1.1-1.5s-.8-1.2-1.2-1.8c-.3-.4-.4-.7-.6-1-.2-.5-.5-.9-.7-1.4-.1-.2-.2-.4-.3-.6-.3-.5-.5-1.1-.8-1.6-.7-1.5-1.3-3-1.9-4.6-.3-.6-.5-1.3-.7-2-.1 0-.1-.1-.1-.2-.2-.7-.5-1.4-.7-2.2-.1-.2-.1-.4-.2-.6-.1-.3-.2-.7-.3-1-.1-.1-.1-.3-.2-.4v3.2 4.3c0 3 .2 6 .3 9 .1 1.6.2 3.1.3 4.6.1.9.1 1.7.2 2.6v.1c.9.4 1.6.7 2.5 1.2.3.2.7.3 1 .5.1 0 .1.1.2.1.3.2.6.2.8.4.1 0 .1.1.2.1 5.4 2.6 10.4 5.1 14.5 8.2.7.5 1.4 1.1 2.1 1.6 1.3 1 2.3 2.1 3.4 3.3l1.2 1.5c.3.4.5.7.8 1.1.6.9 1.1 1.7 1.6 2.6.3.6.6 1.3.8 1.9.2.4.3.8.4 1.3.8 3.5-.6 5.7-3.6 5.7-.4 0-.9 0-1.4-.1-1.2-.2-2.5-.8-4.1-1.6-.1-.1-.2-.1-.3-.2-.5-.3-1.2-.7-1.8-1.1-.1 0-.1-.1-.2-.1-1.9-1.3-4.1-3.6-6.4-6.4-2.2-2.8-4.6-5.9-6.7-9-.3-.4-.6-.9-.9-1.3-.5-.7-1-1.4-1.4-2-.3-.3-.5-.7-.7-1-.2-.4-.5-.8-.7-1.1-.3-.4-.6-.8-.8-1.2 0 .9.2 1.8.2 2.7.1.8.2 1.6.3 2.4.1.7.2 1.4.3 2.1.7 5.8 1.6 11.6 2.7 17.4l.3 1.2c.2.1.3.2.5.3.4.1.7.3 1 .4 2.7 1.3 5.4 2.4 8.1 3.4.5.2 1 .4 1.6.6.2.1.5.2.7.3 1 .4 1.9.7 2.8 1.1.7.3 1.5.6 2.3.9.3.1.7.2 1 .4 1.6.8 3.1 1.5 4.5 2.4 1.4.8 2.5 1.7 3.7 2.9 3.2 3.5 4.3 7.1 3 9.7s-5 4.1-10.7 2.2c-.5-.1-1-.4-1.4-.6-1.6-.8-3.1-1.8-4.4-2.9-.2-.1-.4-.3-.6-.5-.3-.4-.7-.7-1.1-1.1-1.5-1.4-2.9-3.1-4.2-4.7-.6-.9-1.2-1.7-1.8-2.6-.3-.4-.5-.8-.8-1.2-.9-1.5-1.7-2.9-2.5-4.4-.2-.4-.4-.8-.6-1.2.2 1.1.5 2.2.8 3.4.5 2.1 1 4.3 1.6 6.4.4 1.4.7 2.6 1.1 4 0 .2.1.3.1.4 1.3 4.1 2.5 8.1 3.9 12.1.4 0 .7.1 1 .2.1.1.2.1.3.1 1 .3 2 .5 3 .7 4.8 1.2 9 2.3 12.9 3.8 1 .4 1.9.9 2.9 1.3.4.1.7.3 1 .4 1.3.5 2.4 1.1 3.4 1.8 1 .5 1.8 1.1 2.7 1.8.4.4.7.7 1.2 1s.9.8 1.4 1.2c.1.1.2.2.3.3.3.4.7.8 1 1.2.5.5.9 1.1 1.4 1.8.8 1.2 1.3 2.3 1.6 3.6.5 1.8 0 3.7-1.6 5-.1.1-.2.1-.3.2-.3.3-.7.5-1.1.7-.9.5-1.8.8-2.8 1.1-2.1.7-4.5.7-6.5 0-.5-.2-1.2-.4-1.8-.7-1-.4-1.8-1-2.6-1.6-1.5-1.1-2.8-2.2-4.1-3.7-2.4-2.8-4.9-5.8-7-8.9-1.3-2-2.6-3.8-3.7-5.4 2 5.8 4.4 11.4 7 16.9.9 1.4 1.7 2.7 2.8 4.1l1.1 1.4 4.6 5.9c.6 1 1.2 1.7 1.9 2.6 2.3 3 4.5 5.8 6.4 8.5.7 1.2 1.5 2.1 2.2 3.2 2.5 3.7 4.5 7.1 5.9 10.4 1.1 2.7 2 5.2 2.6 7.8 1.6 8.5 0 14.4-3.7 15.7-4.4 1.5-10.3-2.1-15.7-9.8-3.9-5.8-6.4-15.6-7.9-22.7-.6-3-1-5.5-1.2-7-.5-3.5-.9-7-.9-10.5 0-.5-.1-1.2-.1-2-.1-2.1-.1-4.5-.2-5.3 0-.5-.1-1-.2-1.5-.2-.7-.4-1.5-.6-2.2-1.9-3.9-3.6-7.8-5.2-11.8 0 .5 0 1-.1 1.5v.5c-.2 1.9-.3 3.7-.4 5.3 0 .3-.1.6-.1.9-.1 3.5-1 7.1-2.5 10.2-.6 1.2-1.3 2.1-2.1 2.9-.6.6-1.1 1-1.7 1.3-.4.2-.7.3-1 .4-.4.1-.8.1-1.2.1-1.8-.2-3.2-2.4-3-6.8 0-1.4.7-3.3 1.6-5.3.1-.3.2-.6.4-.9 1.2-2.5 2.8-5 4.4-7.2.8-1.1 1.6-2.2 2.4-3.3.5-.7.9-1.3 1.3-2 0-.1.1-.3.2-.4.1-.2.2-.3.3-.5.1 0 .1-.1.1-.2s0-.1 0-.1c-1.1-2.8-2-5.5-3-8.3-.6-1.8-1.2-3.6-1.8-5.4-.1-.2-.1-.4-.2-.6-.4-1.1-.7-2-1-2.9v2.4c0 1-.1 2.1-.2 3.1 0 .3-.1.5-.1.8-.2 1.8-.5 3.7-.8 5.5-.6 2.8-1.6 5.6-2.9 8.3-.2.5-.6 1-.9 1.6-.1.2-.2.4-.3.5s-.1.2-.2.3c-.9 1.5-2 2.8-3.3 4-.5.4-1.1.8-1.6 1.1-.1 0-.1.1-.2.1-.3.1-.5.3-.8.4-1.2.5-2.2.7-3.1.7-1.5 0-2.6-.6-3.3-1.9v-.1c-1.3-2.5-.9-6.3 1-10.9 1-2.1 2.4-4.1 4-6 .2-.2.4-.4.6-.7.2-.2.5-.5.7-.8.9-1.2 1.8-2.3 2.8-3.6.5-.6 1-1.3 1.5-2l1.5-2c1.1-1.7 2.2-3.5 3.1-4.9.3-.5.6-1 .8-1.4-1.4-4.6-2.5-9.2-3.5-13.9 0 .3-.1.6-.1.8-.1 2.6-.7 5-1.4 7.4-.7 2.2-1.5 4.3-2.7 6.1-.5 1.1-1.2 1.9-2 2.8l-.3.3c-.7.7-1.4 1.3-2.1 1.9-.9.6-1.7 1.1-2.8 1.5-.7.3-1.4.5-2.1.6v-14.8l.6-.6c.4-.5.9-.9 1.4-1.4.2-.3.4-.4.6-.6 1.3-1.3 2.7-2.6 4.1-4 .6-.5 1.2-1.2 1.9-1.9l.8-.8c.3-.2.6-.5.9-.9.5-.4.8-.9 1.2-1.4s.7-.9.9-1.5c-.4-2-.8-3.9-1.1-5.8-.1-.6-.2-1.2-.3-1.8-.1-.7-.2-1.4-.3-2.2-.2-1.3-.4-2.5-.6-3.8-.3-1.7-.5-3.5-.7-5.2-.1-.5-.1-1.1-.2-1.7-.2 1.5-.5 2.9-.9 4.4-.3 1-.5 2-.8 3-.1.6-.4 1.3-.7 2.1-.5 1.1-1 2.2-1.5 3.3-.3.6-.7 1.4-1.1 2.1-.1.2-.2.4-.3.5-.5.9-1.2 1.7-1.9 2.6-.2.3-.4.6-.6.8s-.3.3-.5.5c-.3.4-.6.7-.9 1v-18.7c.6-.9 1.4-1.7 2.1-2.6.1-.2.3-.3.4-.5.5-.5.9-1.1 1.4-1.6.6-.6 1-1.1 1.5-1.8.8-1 1.5-2.1 2.2-3.2.3-.5.6-1 .8-1.6-.1-1.3-.3-2.7-.3-4.1 0-.3 0-.5 0-.7 0-1.4-.1-2.8-.2-4.2-.1-1.3-.2-2.6-.2-3.9-.1-2.8-.1-5.7-.1-8.6-.6 1.7-1.1 3.2-1.7 4.7-1.3 3.6-2.5 7.1-3.8 10.1-.5 1.5-1.2 2.9-2 4.4v-19.1c2-1.2 4.3-2.3 6.4-3.3.5-.1.8-.2 1.1-.4v-3.3c.1-.9.1-1.7.1-2.5.1-4.1.3-8.1.5-12.2-.7 1.2-1.3 2.4-2 3.5-.2.2-.3.5-.5.7-1.5 2.5-3.4 5-5.4 7.2l-.3.3v-12.3h.1c1.8-.5 3.3-1.1 4.7-1.6.6-.3 1.2-.4 1.6-.6.1 0 .2-.1.3-.1.3-.1.5-.2.7-.3.4-.2.8-.3 1.1-.5-.1-.4-.1-.6 0-.9 0-.4.1-.9.1-1.4.1-.3.1-.6.1-.9.6-7.1 1.4-14.2 2.3-21.3l.2-.8-.2.4c-2.1 3.1-4 6-5.6 8.6-.3.5-.7 1.1-1 1.6-.6 1-1.2 1.8-1.8 2.6-.8 1.1-1.5 2.1-2.4 3l-.1.1z" fill="#582fb3"/><path d="m.3 34.76c1.8-2.8 3.8-5.4 5.7-8 .8-.8 1.6-1.5 2.4-2.3 1.6-1.5 3.2-2.9 4.8-4.3.4-.4.8-.7 1.2-1.1.2-.2.4-.3.6-.5 0-.1.1-.1.2-.2s.1-.1.2-.2c.2-.1.4-.3.5-.4.1 0 .1-.1.2-.1.1-.1.1-.2.2-.2.9-.7 1.8-1.4 2.8-2.2.1-.1.2-.1.3-.2.3-.2.5-.4.8-.6.4-.2.7-.5 1.1-.8.1-.2.3-.3.4-.4.1 0 .1-.1.2-.1.9-.7 1.8-1.4 2.8-2.1.6-.4 1.1-.8 1.7-1.2l.1-.1c.7-.5 1.4-1 2.2-1.5 1.1-.7 2.2-1.5 3.4-2.2.2-.1.4-.3.6-.4h.1c.1 0 .2-.1.2-.1.3-.1.6-.3.9-.5.3-.1.5-.3.8-.5h.7l1.7-.1 4.8-.2h.2l3.3-.1-.1-.1h.4l5.4-.2.4-.2v-.4l2.3-.1h1l6.8-.3 26.5-1.1 26-1.1 4-.2 5-.2 2.3-.1 11.5-.5h127.1c1.9 1 3.5 2.2 4.9 3.4 2.1 1.9 3.9 3.9 5.6 6 1 1.5 1.2 2.2.8 2.6-1 .8-4.6-.4-10.8-1.1-13-1.4-26-1.2-38.9.6-6 .9-12.1 1.9-18.4 2.7h-.4s0 0-.1 0h-.1c-5.9 1.2-11.9 2.4-17.9 3.7-3.8.8-10.8 1.7-17.3 2.5-.6.1-1.2.1-1.8.2-1.7.2-3.3.4-4.8.6-1.7.2-3.1.4-4.3.6-3.7.5-7.4.9-11.1 1 4.4.2 8.9.6 13.2 1 .2 0 .5.1.7.1 1.8.2 3.6.4 5.3.7 1.6.2 3.1.5 4.7.8.5.1 1 .2 1.5.3 2.5.6 5 1.2 7.5 1.8.3.1.6.1.8.2.4.1.8.2 1.2.3h.2c6.6 1.8 12.9 4.3 19 7.1 3.5 1.7 6.9 3.6 10.2 5.6 1.6 1 3.2 2.1 4.8 3.2 1 .6 2 1.4 3 2.1.7.5 1.3 1 1.9 1.5.7.5 1.4 1.1 2.1 1.7s1.3 1.1 2 1.7l.5.5c1.2 1 2.5 2.2 3.5 3.3.1.1.3.3.4.4l.3.3c1.1 1.1 2.2 2.3 3.3 3.6 1.5 1.8 3 3.6 4.3 5.5.3.5.7 1 1 1.5 1 1.5 1.9 3 2.8 4.5 1.1 1.9 2.1 3.8 3 5.8 1 1.9 1.8 3.7 2.5 5.7.8 2.3 1.4 4.7 1.8 7.2.3 1.5.1 2.3-.4 2.4-.6.1-1.6-.4-3.1-1.3s-3.3-2.3-5.9-3.8c-5.4-3.5-11-6.6-16.6-9.5-2.1-1.1-4.4-2.2-6.5-3.3-2-1-4-1.9-5.9-2.8-.9-.5-1.9-.9-2.9-1.3-.4-.2-.8-.3-1.2-.5l-.7-.3c-.6-.2-1.2-.5-1.7-.7-.1-.1-.3-.1-.4-.2-.8-.3-1.6-.7-2.4-1-.6-.3-1.2-.6-1.8-.8l-.2-.1-.5-.2-.5-.2-.3-.2c-.8-.3-1.7-.7-2.6-1s-1.8-.7-2.7-1-1.7-.7-2.6-1l-.8-.3-4.5-1.6-1.1-.2c-.7-.3-1.4-.5-2.2-.8-.6-.2-1.3-.5-2-.7-1.1-.4-2.2-.7-3.3-1.1-.5-.2-1.1-.3-1.6-.5l-.8-.3c-1-.3-1.9-.6-2.9-.9-1.2-.4-2.3-.7-3.5-1.1-1.3-.4-2.6-.8-3.9-1.2-1.2-.4-2.4-.8-3.6-1.1-.7-.2-1.5-.4-2.2-.6l-.2-.1c-.9-.3-1.7-.6-2.6-.8-1.2-.4-2.5-.7-3.8-1.1-.1 0-.3-.1-.4-.1-1.3-.4-2.7-.8-4-1.2-1.1-.4-2.3-.7-3.4-1.1-1.2-.3-2.3-.7-3.5-1.1l-.2-.1-1.9-.6c-.6-.2-1.1-.3-1.5-.5-.5-.2-1-.3-1.4-.5-.3-.2-.7-.3-1-.4s-.5-.3-.8-.4c-.4-.2-.9-.4-1.4-.6-.7-.4-1.6-.7-2.7-1.2l-1.4-.6c-.9-.3-1.2.7-.9 2.5.7 4.5 2.4 8.7 5.1 12.3 2.2 2.7 4.6 5.4 7.1 7.9 0 0 .1.1.2.2s.2.2.3.3l.8.8c.2.1.3.2.4.3.2.2.4.3.6.5 3.4 2.9 6.8 5.7 10.5 8.1 6.8 4.7 14.3 9.1 21.2 13.7l.6.3.8.6c.2.1.4.3.6.4 7.2 4.6 14 9.5 20.4 14.6 6.5 5.1 12.4 10.7 17.8 16.9 5.1 5.8 9.5 12.4 13 19.4 3.1 6.4 5.4 13 6.9 19.9 1.5 6.4 2.4 12.5 3.8 18.5.7 4 1.5 6.9 1.9 8.8s.3 2.8-.3 2.9c-1.2.1-4.9-3-10.3-9.3-5.9-6.9-10.6-14.6-15.4-21.4-4.5-6.5-9.8-12.5-15.5-18l-.6-.6c-5.7-5.2-11.7-10.1-17.9-14.7-6.7-4.9-13.5-9.7-20.5-14.7-.8-.5-1.5-1.1-2.3-1.6-.3-.2-.7-.5-1-.7-2.4-1.7-4.8-3.5-7.2-5.3-1.5-1.2-3-2.2-4.5-3.4-.9-.7-1.8-1.4-2.7-2.2-.1-.1-.1-.1-.1-.1l-.2-.2-.3-.3-1.4-1.1-.9-.8-.2-.2h-.2c-3.6-3.1-7.2-6.4-10.4-9.9-.3-.3-.5-.7-.8-1-.7-.9-1.5-1.7-2.2-2.6-1.6-1.8-3.1-3.8-4.4-5.8-.1-.2-.2-.3-.3-.5s-.2-.3-.3-.5-.2-.3-.3-.5-.2-.5-.4-.7l-.1-.1c-.1-.1-.2-.2-.2-.3-.2-.3-.3-.5-.5-.8-1.4-2.2-2.6-4.5-3.7-6.8-.3-.4-.4-.7-.6-1.1-1.2-2.8-2.3-5.4-3.3-8.1-.5-1.2-.9-2.5-1.3-3.8 0-.2-.1-.3-.1-.5s-.1-.3-.1-.5c0-.1-.1-.1-.1-.2s-.1-.3-.1-.4v-.1c-.1-.1-.1-.1-.1-.2-.1-.2-.2-.4-.2-.6-.2-.5-.3-.9-.4-1.4-.2-.6-.3-1.3-.5-1.9-.1-.2-.2-.4-.2-.6-.1-.7-.3-1.4-.5-2.2 0 .6-.1 1.1-.1 1.7v.5c-.1.9-.2 1.8-.2 2.8v1.2c0 1.3-.1 2.5-.1 3.7-.1 1-.1 1.9-.1 2.9 0 2.2 0 4.3.1 6.4v.4l.2 4v.3l.1 2.1v.4c.2 2.4.4 4.7.6 7v.6c0 .2 0 .4.1.6.1 1.2.3 2.5.4 3.7.4 2.5.7 5 1.1 7.4.1.4.2.8.2 1.2 0 .3.1.7.1 1 .4 2.7.9 5.3 1.4 7.8 0 .4.1.7.2 1.1.2 1.4.5 2.8.8 4.1.2 1.1.5 2.2.7 3.3.2.9.4 1.8.6 2.7.2.6.3 1 .4 1.6.4 1.5.8 3.1 1.1 4.7.1.3.2.6.2.8.3 1.6.6 3.1 1 4.6.2.5.3 1.1.4 1.6v.1c.2.8.3 1.7.5 2.5.2 1.3.5 2.7.8 3.9.2.5.3 1 .4 1.5.1.6.2 1.2.3 1.8.2.9.4 1.8.5 2.7.1.2.1.3.1.4v.1c0 .3 0 .5.1.8v.1c.4 2 .7 3.9 1 5.8.6 3.6 1.1 7.2 1.4 10.8v.7c.5 4.1.9 13.7 1 18.1v3.9c-.2 10.8-2 21.7-5.8 32-.6 1.6-1.4 3.3-2.2 4.8-.6 1.1-1.1 2.2-1.8 3.2-1 1.6-1.8 2.2-2.3 1.9-.5-.2-1-1.4-1.5-3.3-.2-1-.4-2-.8-3.4s-.8-2.9-1.2-4.5c-2.2-7.2-3.7-14-6.5-21.4-2.5-7.6-6.4-19.4-9-26.3-3.1-7.9-6-16-8.5-24.4-1.7-6.2-3.3-12.6-4.5-19-.3-.5-.3-1.1-.4-1.6 0-.3-.1-.5-.1-.7-.1-.2-.1-.4-.1-.6-.7-3.9-1.1-7.7-1.4-11.6v-.5c-.2-.5-.2-1-.2-1.5-.1-1.1-.1-2-.1-3v-6.6c0-.9 0-1.8.1-2.7.1-1.9.2-3.9.4-5.8l-2.6 4.3c-.3.6-.6 1.2-1 1.8 0 0-.1.1-.1.2-.5.8-1 1.6-1.5 2.4-.1.1-.1.2-.2.3l-.1.1v.1l-1.4 2.3-.1.1-.1.1-1.8 2.9-2.2 3.7-.2.1-.7 1.1-4.8 7.7-.2.3-.2.3-.8 1.4-.3.4c-.1.2-.2.3-.3.5-.3.5-.5.8-.7 1.2 0 0-.1 0-.1.1-.4.5-.7 1.1-1 1.6 0 .1-.1.2-.1.2-1.5 2.4-2.9 4.8-4.2 7.2-.6 1.1-1.2 2.2-1.7 3.2-.2.6-.6 1.2-.9 1.8-.1.1-.1.2-.2.3 0 0-.1.1-.1.2-.3.6-.6 1.1-.9 1.7 0 .1-.1.1-.1.2-.1.1-.1.2-.2.3-.1.2-.2.4-.3.6-.7 1.4-1.4 2.7-2 4-.4.9-.9 1.8-1.3 2.7-.6 1.2-1.1 2.5-1.7 3.7-.1.2-.1.3-.2.4-.6 1.1-1.1 2.1-1.6 3.3-.1.1-.1.1-.1.2-.2.3-.3.7-.5 1-.3.9-.7 1.8-1.1 2.7-.1 0-.1.1-.1.1-.1.2-.1.3-.2.5-.2.5-.5 1-.7 1.5-.4 1-.8 1.9-1.2 2.9 0 0-.1.1-.1.2-.2.7-.5 1.3-.8 2-.2.4-.3.8-.5 1.2 0 .2-.1.4-.2.6-.5 1.3-1.1 2.7-1.6 4-.4.9-.8 1.8-1.1 2.7-.3.7-.6 1.4-.9 2.1 0 .2-.1.4-.2.6-.3.8-.5 1.6-.8 2.4 0 .2-.1.3-.1.4-.1.4-.3.8-.4 1.3-.2.6-.4 1.3-.6 2-.2.8-.5 1.7-.7 2.6-.1.3-.2.7-.3 1-.3 1.5-.7 2.9-1 4.4-.1.4-.2.8-.3 1.2-.4 1.6-.7 3.3-1.1 5.1-.4 1.7-.7 3.5-1.1 5.2v.1.2.2c-.1.1-.1.2-.1.3-.1.3-.1.5-.2.8v.1c-.7 3.5-1.5 6.9-2.2 10.2-.8 3.8-1.7 7.5-2.5 10.6-.3 1-.5 1.9-.8 2.8s-.6 1.8-.9 2.6c-.4 1.1-.7 2-1 2.9-.5 1.6-.9 2.8-1.3 3.8-.8 2-1.4 2.8-2 2.5-1.1-.4-2.3-5.2-4-13.4-.7-3.6-1.3-7.8-1.8-12.4-.2-1.5-.4-3-.5-4.6-.5-4.9-.7-10.2-.8-15.4-.1-1.4-.1-2.8-.1-4.2 0-.4 0-.9 0-1.4 0-1.7.1-3.3.1-4.9v-.6c0-1.6 0-3.1.1-4.6.1-.4.1-.8.1-1.2.1-2.9.3-5.6.5-8.3.2-1.9.4-3.7.6-5.4.2-1.6.4-3.2.7-4.7 0-.2.1-.5.1-.8.1-.4.2-.7.2-1 0-.2.1-.3.1-.5.4-1.8.8-3.6 1.2-5.4.1-.6.3-1.3.5-2 .1-.5.2-.9.3-1.3.4-1.4.8-2.8 1.2-4.2.4-1 .7-2 1-3 .1-.1.1-.1.1-.2.3-.8.5-1.6.8-2.4.1-.5.3-1 .5-1.5 0-.1.1-.2.1-.3.1-.2.1-.4.2-.5s.1-.2.1-.3c.1-.1.1-.1.1-.2.2-.7.5-1.3.7-1.9 0-.2.1-.3.1-.4.1-.3.2-.6.4-1 .2-.3.3-.7.5-1.1.1-.3.2-.6.3-.8s.2-.5.3-.7c.3-.5.5-1.1.8-1.7.6-1.4 1.2-2.7 1.8-4v-.1c.5-1.3 1.1-2.5 1.8-3.7.4-.6.7-1.3 1.1-2 1.1-2.1 2.2-4.1 3.4-6.1 0-.1.1-.1.1-.2.1-.1.2-.3.3-.5.2-.4.5-.8.7-1.2.3-.5.6-.9.9-1.4.2-.3.3-.5.5-.8.1-.1.2-.3.3-.4.1 0 .2-.1.2-.2s.1-.1.1-.2c.3-.3.6-.7.8-1.1l.1-.1c.1-.2.3-.3.4-.5.3-.4.5-.9.8-1.3 0-.1 0-.1 0-.1.1-.1.1-.2.2-.3.4-.6.8-1.2 1.2-1.8.1 0 .1-.1.1-.1.4-.6.8-1.2 1.2-1.8 1.1-1.7 2.2-3.2 3.2-4.7.3-.6.7-1.1 1.1-1.6.1-.1.1-.1.2-.2.2-.3.4-.6.6-.8.3-.4.5-.8.8-1.1.1-.1.2-.3.3-.4.4-.5.8-1 1.2-1.5.2-.4.5-.8.8-1.1v-.1l.2-.2c.6-.8 1.2-1.6 1.8-2.4.2-.3.5-.6.7-.9l.1-.1c.9-1.1 1.7-2.1 2.6-3.2.3-.3.6-.7.9-1 .1-.1.1-.1.1-.1l.4-.5.4-.6.1-.2.1-.1c.2-.2.4-.5.6-.7.7-.8 1.4-1.6 2.2-2.5l.1-.1c.2-.2.4-.5.6-.7 1.5-1.7 3.1-3.5 4.8-5.3 3.2-3.5 1-3.4-4.3-.6-.3.2-.6.3-.9.5-.5.3-1 .6-1.6.9l-.4.2-.9.5-.3.2-.2.1-3.3 1.9-.3.2-.2.1-.1.1-1.1.6-.4.2-1.9 1.1-.4.2-1.2.7-1.2.7-.8.4-.2.1s-.1 0-.2.1l-1.5.9c-.5.3-1.1.6-1.6.9-.4.2-.8.5-1.2.7l-.6.4-1.6 1h-.1l-.8.5-1 .6-.2.1-2.8 1.6c-.8.5-1.7 1-2.5 1.5-.1 0-.1.1-.2.1-.3.2-.7.4-1 .6-.3.1-.6.3-.9.5l-1 .6h-.1l-.1.1-.2.1c-.1 0-.2.1-.2.1-.5.3-1.1.7-1.6 1-.1.1-.2.1-.3.2-.9.5-1.6 1-2.4 1.6l-.1.1c-.4.3-.8.6-1.2.9-.2.1-.3.3-.5.4-.1 0-.1.1-.2.1-.2.1-.3.2-.4.3-.3.2-.7.5-1 .7l-.3.2c-.2.2-.4.3-.6.5s-.4.4-.7.6c-.1.1-.2.1-.3.2-.1 0-.2.1-.3.2-.8.6-1.6 1.3-2.4 1.9-.4.3-.9.7-1.3 1.1-2 1.6-3.9 3.3-5.7 5-.6.6-1.3 1.3-1.9 1.9-.1.1-.1.1-.2.2v-61.1c0 0 .1-.1.1-.1z" fill="#e9596b"/><path d="m91.4 212.86s-11.8-5.6-13.4-18.3c-1.3-9-2.8-10.8-6.2-12.9l-1.1-.7c-1.8-1.2-3.4-3-4.3-5.1-1-2-1.7-4-2.3-6.2-.3-.7-.5-1.5-.6-2.3-.7-3.9-1.2-7.9-1.3-11.8-.5-8.8-2.1-14.5-3.9-18.3-.2-.5-.5-1-.7-1.3-1.1-2-2.3-3.7-3.7-5.3-2.8-3.5-4.1-5.9-5.1-13.7-.3-2.2-.7-4.7-.9-7.8-.1-.9-.1-1.8-.2-2.7-.4-5.1-1.2-10-2.6-14.9-.1-.6-.4-1.3-.6-1.9-2.9-8.5-6.1-11.1-6.1-11.1-.2-.2-.5-.6-.7-.9-2-3-3.5-6.2-4.6-9.6-1.5-4.4-2.9-8.7-3.9-13.2-.7-2.3-1.1-4.7-1.7-7.2-.5-2.2-.9-4.3-1.4-6.5-1.8-9-3.2-18.3-4.2-26.2-.7-5.7-1.2-10.6-1.7-14.3h21.2c.2.4.3.8.5 1.3l.7 2.1c2.3 6.8 4.2 13.7 5.8 20.8 1.1 5.1 2.3 10.3 3.2 15.6 0 .3.1.6.1.9.7 3.8 1.2 7.5 1.7 11.2.2 1.8.5 3.7.7 5.5.4 3.5.6 6.8.7 9.8 0 .3.1.6.1.9.1.6.2 1.1.3 1.7.2.8.5 1.7.7 2.6.4 1.4.8 2.5 1.4 3.8.5.8.9 1.7 1.4 2.5.1.2.2.4.3.5.9 1.3 2.1 2.6 3.5 3.5l.2.1c1.9 1.4 3.5 3.2 4.8 5.3.3.5.7 1.1 1 1.8 1 2 2 4 2.7 6.2 1.6 5 2.6 10.1 3.2 15.4.2 1.8.3 3.7.3 5.6v1c-.1 2.6 0 5.3.2 7.9.9 8.2 3.9 10.7 7.2 16.9 4.2 7.7 5.1 20 3.5 25.7-1.2 6.3-.5 12.9 2.1 18.8 3.2 7.9 3.7 24.8 3.7 24.8z" fill="#5676ef"/><path d="m129.5 12.46c-3.8-3.8-7.4-7.6-10.9-11.4-.3-.3-.6-.5-.8-.8h5.2c.1.2.3.4.5.6 1.5 1.8 3.1 3.6 4.8 5.3 4.8-1.4 9.3-3 13.2-4 4.4-1.1 8.5-1.7 12.4-1 4.3.9 6.7 2.9 6.8 5.2s-2.2 4.6-7.1 5.8c-3.8.9-10.8-.2-16.6-1.9-2.7-.8-5.2-1.6-7-2.3 4.2 4.3 8.4 8.5 13 12.5 4-1.3 7.7-2.5 11-3.4 3.7-1 7-1.4 10.2-.7 1.4.3 2.7.9 3.9 1.8.8.7 1.4 1.5 1.7 2.5.1.3.1.5.2.8 0 .4 0 .7-.1 1s-.1.5-.2.7c-.2.5-.5 1-.9 1.5 0 .1-.1.2-.1.2-.1.1-.2.2-.3.3-1.2 1.1-2.8 1.9-4.4 2.3-2.3.4-4.6.4-6.8-.1-2.6-.5-5.2-1.3-7.7-2.2-1.1-.4-2-.9-2.9-1.2 4 3.4 8.3 6.8 12.7 9.8 7.7-3.4 14.2-6.2 20.5-6.3.6-.1 1.2 0 1.8 0 .6.1 1.2.2 1.8.3.4.1.8.2 1.2.3h.1c1.1.4 2 .9 2.5 1.4 2 1.9.3 4.6-5.4 6.2-4.6 1.3-14.2.4-20-.3 4.7 3.2 9.6 6.3 14.7 9 .3.1.6.3.8.4 4.1-1.7 7.3-3.5 10.2-5.1 3.2-1.6 5.9-2.9 9-3.1 3.4-.1 5.7.8 6.5 2.6.8 1.7-.3 4.3-4 6.6-1.9.9-4 1.5-6.2 1.7-2.5.2-5.1.3-7.7-.1-1.4-.2-3-.5-4.4-.8 5.7 2.8 11.5 5.3 17.5 7.5 3.9-2.6 7.5-5 10.8-6.9.9-.5 1.8-.9 2.7-1.3.9-.5 1.8-.8 2.6-1s1.5-.5 2.3-.6l1-.2h.2c.2 0 .3-.1.5-.1s.4-.1.6-.1h.2c.8-.1 1.8 0 2.8 0 .9.1 1.8.4 2.6.8.1 0 .2.1.3.2.9.5 1.5 1.6 1.5 2.8-.1.5-.2 1.1-.4 1.6 0 .1-.1.3-.1.4-.1.4-.3.7-.5 1.1-.7 1.4-1.8 2.6-3.1 3.4-1.1.6-2.3 1.2-3.4 1.4-1.3.3-2.7.5-4 .5-2.4.1-4.9 0-7.4-.2l-.6-.1c-1.6-.2-3.3-.4-4.6-.5 1.3.4 2.5.9 3.8 1.2 2.8.8 5.6 1.7 8.5 2.4 3.3.9 5.9 1.6 8.3 1.9 3.4.5 6.5.3 10.4-.8l.4-.1c.7-.3 1.4-.5 2.1-.8 0 0 .1-.1.2-.1 5.6-2.2 8.1-3 11.7-2.7 3.5.3 7.1 2.8 6.9 5.4-.2 4.2-4.4 7.2-10.3 8.7h-.1c-.5.2-1.1.3-1.6.4-1 .1-1.9.3-2.9.3-4.2.1-8.3-.7-12-2.5-2.6-1.2-5.2-2.8-7.8-4.3-.5-.3-1.1-.7-1.7-1-2.1-1.2-4.2-2.3-6.4-3.2-2.9-.6-5.8-1.5-8.7-2.4.4.3.7.5 1 .9 1.1 1.1 2.1 2 3 2.9 1.2 1.2 2.8 2.9 4 4.6.7.9 1.2 1.8 1.5 2.5v.1c.3.8.4 1.5.5 2.1.1.7 0 1.3-.1 1.8-.2.5-.4.9-.8 1.2-1 .9-2.9.6-5-1.4-.8-.7-1.7-2.1-2.6-3.8-.1-.1-.1-.2-.2-.3-.3-.5-.6-1-.8-1.5-.4-1-.9-2-1.2-2.9-.3-.7-.5-1.4-.6-2.1-.3-1.3-.5-2.5-.7-3.4 0-.2-.1-.5-.2-.8s-.2-.5-.3-.8c-4.1-1.2-8-2.7-11.9-4.3 2.1 1.8 4.1 3.7 5.7 5.8.6.7 1.1 1.5 1.5 2.2.2.2.3.5.5.8.3.6.6 1.2.9 2 .1.3.2.7.3 1 .2.5.3.9.4 1.4.2.9.3 1.9.3 2.9 0 .3 0 .6-.5.7-.2 1.1-.7 2.1-1.4 3-.7.7-1.7 1-2.7.9-1.3-.3-2.5-1.2-3.6-2.6-.6-.7-1.2-1.6-1.7-2.7-.5-1.5-.9-3.1-1.1-4.7 0-.2-.1-.5-.1-.7-.1-.5-.2-1.1-.3-1.6 0-.3-.1-.5-.1-.8-.1-.9-.3-1.9-.5-2.8 0 0 0-.1 0-.2-.5-2-1.1-4-1.5-5.5l-.3-.9c-3-1.3-6-2.8-8.9-4.3.2.1.3.3.4.4 1.2 1.2 2.3 2.6 3.2 4 .9 1.5 1.6 3.1 2.1 4.8.3.9.4 1.9.4 2.8v.6s0 .3 0 .5c-.2 1.5-.6 2.6-1.2 3.4s-1.3 1.3-2 1.5c-.1.1-.2.1-.4.1h-.1c-1.5 0-3.1-1.5-4.2-4.1-.5-1.5-.7-3-.7-4.5v-.1s0-.1 0-.2c0-1 0-2-.1-3 0-.8-.1-1.5-.1-2.3l-.1-2.8c-.1-.7-.2-1.4-.3-2.1-.1-.2-.2-.6-.3-1-4.3-2.4-8.3-4.8-12.3-7.5 1.1 1.3 2.1 2.6 3 4.1 1.1 1.6 1.9 3.5 2.5 5.4.4 1.2.5 2.6.6 3.9 0 .7 0 1.2-.1 1.9-.1.4-.1.7-.2 1-.3 1.3-.9 2.6-1.8 3.7-.6.8-1.6 1.3-2.6 1.2-1-.2-1.8-.9-2.2-1.7-.7-1.3-1.3-2.6-1.6-3.9-.1-.6-.2-1.2-.3-1.8-.1-.2-.1-.3-.1-.5-.1-.9-.2-1.8-.3-2.7v-.4c-.3-2.2-.6-4.7-1-7.1-.2-1.2-.4-2.4-.5-3.4-.1-.8-.3-1.7-.6-2.5-.1-.4-.3-.7-.5-1.1-4-2.9-7.9-5.8-11.7-9 1.9 3.4 3.7 6.5 5.1 9.3.8 1.5 1.6 3.3 2.1 5 .5 1.5.7 3 .8 4.5-.1.9-.2 1.8-.4 2.7-.1.5-.2 1-.5 1.6 0 0-.1.1-.1.2-.1.3-.2.6-.4.8-.5.8-1.1 1.4-1.8 1.8-1.1.6-2.4.7-3.5.2-.1 0-.2 0-.3-.1-1.9-1-3.5-2.4-4.4-4.3-.2-.3-.4-.6-.5-.9-.3-.7-.5-1.3-.7-2-.1-.4-.1-.8-.2-1.2-.1-1-.2-2-.2-3 0-.1 0-.2 0-.4.1-2.5.4-5.2.9-7.7.2-1.2.5-2.4.8-3.6.2-.8.4-1.7.7-2.5.2-.7.5-1.3.7-2-3.1-2.8-6.1-5.5-9.1-8.3 0 .2.1.3.1.4.8 2.4 1.4 4.8 1.8 7.2.2.8.3 1.4.3 2.2.1.4.1.9.1 1.3v.2c.1 2.2-.2 4.5-.8 6.6 0 .1-.1.3-.1.4-.4 1.5-1.1 2.9-1.9 4.2-.3.4-.5.7-.8 1.1-.3.3-.6.7-.9 1-.6.7-1.4 1.2-2.2 1.7-.5.3-.9.5-1.4.6-1.1.6-2.4.4-3.5-.2-1.9-1.1-2.6-4-1.8-7.9.4-1.5 1-3 1.8-4.4.2-.4.4-.9.6-1.3.4-.7.9-1.5 1.3-2.3.4-.7.9-1.6 1.3-2.4.1-.2.2-.3.3-.5.3-.6.5-1.1.8-1.6.8-1.5 1.5-3 2-4.4.4-.6.6-1.2.8-1.8s.3-1.1.5-1.5c-.1-.1-.2-.1-.2-.2z" fill="#582fb3"/><path d="m109.4 11.66c.5-2.5 1.5-4.9 2.6-7.1.2-.4.4-.8.6-1.2.4-.8.9-1.6 1.4-2.4.1-.3.3-.5.5-.8h3c.4 1.3.7 2.5 1 3.7.5 1.6.9 3.1 1.3 4.5v.2c.9 3.3 1.3 6 .5 8.8-.3 1-.8 1.9-1.4 2.8 0 .1 0 .1-.1.2-.4.6-1 1.2-1.7 1.6-.6.4-1.4.7-2.1.8-1.3.2-2.7-.2-3.9-1.4-.8-.8-1.5-2.1-2-3.7v-.1c0-.1 0-.1 0-.2-.3-1.9-.2-3.9.3-5.7z" fill="#582fb3"/><path d="m52.6 4.96.2-.1 1.4-1 .1-.1.6-.4 1.4-1 .7-.5.5-.4.1-.1 1.6-1.2.4-.1v.1.1l1.8-.1h25.1l.1.1c.7.7 1.3 1.4 2 2.1 1.2 1.3 2.4 2.7 3.5 4.1 1.2 1.5 2.2 3 3.2 4.5.3.4.4.6.4.6.5.8 1 1.6 1.7 2.4 3.1 3.8 8.1 7.3 13.5 7.5h.4 1.1c1.6 0 3.2.2 4.9.6 2.3.6 4.7 1.5 6.9 2.8.6.3 1.1.7 1.6 1 1.2.7 2.3 1.6 3.4 2.5 1.4 1.3 2.7 2.6 3.9 4 .4.5.8 1 1.2 1.5 1 1.2 2 2.5 2.9 3.8.1.2.3.4.4.6 1.4 1.9 2.6 3.9 3.7 6.1.3.6.6 1.1.8 1.7.1.4.3.8.5 1.2.4 1.1.8 2.1 1.2 3 1.6 3.6 3.2 6.2 4.8 8 3.8 4.1 8 5 13.6 8 2.6 1.4 5 3.5 7.1 5.8 1.7 2 3.2 4.1 4.4 6.3 2.1 3.7 3.3 7.5 3.4 10.4.1.2.1.4.1.6v.2c.7 6.5 4.3 11.2 9.7 14.9 7.5 5.4 14.3 22.4 14.4 22.4-2.1.3-4.2.4-6.2.3-5.8-.2-14.2-1.8-18.7-8.7-4.6-7.1-7.4-8.5-11.6-8.4-1 0-2.1.1-3.4.2-1.1.1-2.2 0-3.3-.2h-.1c-1.8-.3-3.5-1-5-2-1.4-.9-2.7-1.9-3.8-3-1.4-1.4-2.7-2.8-3.9-4.4-.7-.8-1.3-1.7-1.8-2.6 0-.1 0-.1 0-.1-1.3-2.1-2.5-4.2-3.5-6.4-1.3-2.9-3-5.6-4.9-8.1-.1-.1-.1-.2-.2-.3-1.6-2-3.4-3.9-5.4-5.4-1.3-1-2.7-1.9-4.1-2.6-.8-.4-1.6-.7-2.4-1-1.2-.4-2.4-.8-3.7-1.1-.1-.1-.1-.1-.2-.1-3-.9-5.2-1.7-7.4-3.9-.3-.3-.6-.7-.9-1 0-.1-.1-.1-.1-.2-1-1.1-2-2.4-3.1-4.1-.7-1-1.5-2.2-2.3-3.6-.4-.5-.7-1.1-1-1.6s-.6-1-.9-1.5c-.6-1.1-1.2-2.1-1.9-3.3-1.3-2.6-3-5.1-4.8-7.4-.6-.7-1.1-1.4-1.7-2.1-.4-.5-.9-1-1.3-1.5-8.4-9.3-15.4-9.7-15.4-9.7-.6-.2-1-.3-1.5-.5-2.3-.7-4.5-1.6-6.6-2.8-.3-.2-.7-.5-1.1-.7-3.5-2.1-6.6-4.9-9.2-8.1-.6-.8-1.2-1.6-1.8-2.5-.8-1.2-1.5-2.5-2.2-3.8-.3-.4-.5-.8-.7-1.3-.1-.1-.1-.2-.2-.3-.8-1.6-1.4-3.3-1.9-5.1-.3-.9-.5-1.9-.7-2.9z" fill="#5676ef"/><path d="m57.3.06.4-.2v.1.1h28.7l.1.1h26.4c.4.3.9.5 1.3.8.1.1.2.1.3.2 1.4.9 2.9 1.8 4.2 2.7.2.1.3.2.5.3 3.6 2.4 7.1 5.2 10.3 8.2.1 0 .1.1.1.1.7.7 1.3 1.3 2 2 1.2 1.2 2.4 2.4 3.5 3.7.7.7 1.3 1.5 1.9 2.2 1.3 1.7 2.3 3 2.9 4 .1.1.1.2.2.3 1.1 1.8 1.2 2.4.1 2.4-.3 0-.6-.1-1-.2-1.3-.3-3.1-.9-5.5-1.8-.1 0-.2-.1-.3-.1l-1.5-.5c-2.3-.7-4.4-1.4-6.6-2.1 0-.1-.1-.1-.2-.1-2.1-.6-4.2-1.3-6.2-1.9-1.4-.5-2.8-.9-4.2-1.3-1.5-.5-3.1-1-4.6-1.4-.3-.1-.7-.2-1-.3-1.5-.4-3-.8-4.6-1.3-2.4-.8-4.8-1.5-7.2-2.2-.5-.1-1-.3-1.5-.4-.1 0-.1 0-.1 0-2.6-.8-5.1-1.6-7.7-2.3-2.8-.8-5.5-1.6-8.3-2.4-1.2-.3-2.3-.7-3.5-1-4.5-1.3-8.9-2.7-13.4-4.1l-.8-.2-2.8-.9h-.1l-.6-.2-1.2-.4-.4-.1-.2-.1-1-.4-.2-.1-2.3-.8-1-.3-.3-.1c0 0 5.4 0 5.4 0z" fill="#ff848c"/><path d="m50.4-.24c.2.1.3.3.5.4.7.6 1.3 1.1 2 1.7.1.1.1.1.2.2.4.3.8.6 1.1.9l1.2 1.2c.8.8 1.6 1.5 2.5 2.2.3.3.6.5.9.8.4.3.8.7 1.2 1 1.6 1.5 3.2 2.8 4.8 4.2l.9.7c.7.6 1.5 1.3 2.2 1.9 1.7 1.5 3.4 2.9 5.2 4.3l1.8 1.4c1.2 1 2.4 2 3.6 3 3 2.3 5.8 4.6 8.5 6.7 1.3 1 2.6 1.9 3.8 2.9 1.3 1 2.5 1.9 3.7 2.8l2.2 1.7 2.7 2.1c2.7 2.1 5.3 4.2 7.8 6.2.3.1.5.3.7.5.3.2.6.4.8.6.1.1.2.2.3.3.2.1.3.3.5.4l.6.5.2.2.5.4 1.4 1.1.1.1c.2.1.3.2.4.3.1 0 .2.1.3.2h.1c1.6 1.4 3.3 2.8 4.9 4.2 8 6.7 15.4 13.3 22.9 20.6 8.3 8.4 7 7.7-2.6 4.9l-.8-.2c-1.5-.4-3-.9-4.5-1.4-.1 0-.3-.1-.4-.1s-.2 0-.2 0c-.1-.1-.3-.1-.5-.2-1-.3-2-.7-3-1-1.8-.7-3.7-1.3-5.6-2.1-.4-.1-.7-.3-1-.4-.1-.1-.1-.1-.2-.1-.7-.3-1.4-.6-2.1-.9-.3-.1-.7-.3-1-.4-3-1.3-5.9-2.6-8.8-4.1 0-.1-.1-.1-.1-.1-.2-.1-.4-.2-.6-.3h-.1c-.5-.3-1.1-.5-1.6-.8-.2-.1-.4-.2-.6-.3-.4-.2-.8-.4-1.2-.6-1.3-.7-2.5-1.4-3.8-2.1-.1 0-.1-.1-.2-.1-.9-.6-1.9-1-2.8-1.6-1.4-.9-2.9-1.7-4.3-2.6-1.8-1-3.6-2.2-5.4-3.4-1.5-1-2.9-2-4.3-3-1-.7-1.9-1.4-2.9-2.1-.8-.6-1.6-1.2-2.4-1.8l-.4-.3c-.1 0-.2-.1-.3-.2-1-.9-2.1-1.7-3.1-2.5l-1.2-1.1c-1.4-1.3-3-2.7-4.5-4-.2-.1-.3-.2-.4-.3-1.6-1.4-3.1-2.8-4.6-4.3-.9-.9-1.9-1.8-2.8-2.8-.3-.4-.6-.7-.9-1-.8-1-1.7-1.9-2.6-2.8-1.9-2.1-3.7-4.2-5.5-6.4 0-.1-.1-.2-.2-.3-.2-.2-.4-.5-.6-.7-.6-.8-1.2-1.6-1.8-2.4-.5-.6-1-1.2-1.5-1.9-.2-.2-.3-.5-.5-.7-.2-.3-.4-.6-.6-.8-.1-.3-.3-.6-.5-.8 0-.1-.1-.2-.2-.3l.1.3c.1.4.3.7.4 1 .2.5.5 1 .7 1.5.2.4.3.7.5 1.1.3.8.7 1.7 1.1 2.5.5.9.9 1.8 1.3 2.7.3.5.5 1 .8 1.5 1.4 2.8 2.9 5.7 4.5 8.4.4.7.8 1.3 1.2 2 .7 1.2 1.4 2.4 2.1 3.5.5.7.9 1.5 1.4 2.2.6.7 1 1.5 1.5 2.2.1.3.3.5.5.8 1.7 2.4 3.4 4.7 5 6.9.4.7.9 1.2 1.3 1.8.1.1.1.1.1.1.2.4.5.7.7 1 .5.6 1 1.2 1.5 1.8 2.1 2.7 4.3 5.2 6.5 7.6.3.4.6.7.9 1.1.6.6 1.2 1.3 1.9 2 1 1.2 2.1 2.3 3.1 3.4l3.9 4.2c.3.4.7.7 1 1.1s.7.9 1.1 1.3c.6.7 1.2 1.4 1.8 2.1.2.2.3.4.4.5l4.2 5.4c.5.7.9 1.3 1.4 2 1.1 1.6 2.1 3.2 3.1 4.9.5 1 1.1 1.9 1.6 2.9.2.4.3.7.5 1 .5 1.1 1 2.1 1.5 3.2.1.2.1.3.2.5l.6 1.5c.1.1.1.1.1.2.1.3.2.6.3.9.8 2.4 1.5 4.7 2.1 6.9 0 .4.1.7.2 1 .2.4.3.9.4 1.4.9 3.7 1.6 7.2 2.2 10.5.2.8.3 1.6.5 2.4.3 1.4.6 2.8.9 4.2v.1c.1 0 .1.1.1.1 0 .2 0 .4.1.6.3 1.3.6 2.5 1 3.7 0 .1.1.2.1.3.1.2.1.4.2.6.1.4.3.8.4 1.2.1.1.1.3.2.4.6 1.5 1.1 3 1.8 4.4 0 .1.1.1.1.2.7 1.4.9 2.2.5 2.2-.2 0-.4-.1-.7-.2-.1 0-.3-.1-.5-.2-.5-.4-1.3-.8-2.2-1.6-.4-.4-.9-.8-1.3-1.2-.5-.5-.9-.9-1.4-1.4-.8-.9-1.6-1.7-2.3-2.6-1.2-1.5-2.4-3-3.4-4.6-.2-.2-.3-.5-.5-.8-.4-.6-.8-1.2-1.2-1.8-.1-.2-.3-.4-.4-.6-2-3.3-3.7-6.6-5.4-9.8-.2-.4-.3-.7-.5-1l-.1-.2-.2-.4-.3-.6v-.1l-.1-.2c-.6-1.3-1.4-2.6-2.1-3.8-.6-.9-1.1-1.8-1.7-2.7-.2-.2-.3-.5-.4-.7-.7-.9-1.3-1.9-2-2.8-.7-1-1.4-1.9-2.2-2.8-.1-.3-.3-.5-.5-.7-.3-.4-.7-.8-1-1.2-.4-.5-.9-1.1-1.4-1.6-.5-.7-1.1-1.3-1.7-1.9-1.2-1.3-2.4-2.5-3.6-3.7l-.3-.4c-.3-.4-.7-.7-1-1l-.5-.5c-.4-.4-.8-.9-1.3-1.3-.1-.1-.1-.1-.2-.2-.3-.3-.7-.6-1-.9l-2-1.9-1-1c-.3-.2-.5-.5-.7-.7l-5-5c-.3-.3-.7-.6-1-1l-.9-.9c-1.3-1.5-2.7-3-4-4.5-.4-.3-.7-.7-1-1.1-.3-.3-.6-.6-.9-1-.3-.3-.5-.7-.8-1-.2-.3-.5-.6-.7-.9-1.1-1.4-2.3-2.9-3.4-4.5-.2-.3-.5-.7-.8-1.1 0-.1 0-.1 0-.1-.1-.1-.1-.2-.2-.3-.1-.2-.1-.3-.2-.4 0-.1 0-.1 0-.1-.2-.1-.3-.3-.4-.5-.3-.6-.7-1.2-1.1-1.7-.3-.5-.5-.9-.8-1.4l-.1-.1c-.1-.2-.3-.5-.5-.8 0-.1-.1-.1-.1-.2-.1-.2-.2-.3-.3-.5-.1-.1-.1-.2-.2-.3s-.1-.2-.2-.3c-.5-.9-1.1-1.9-1.6-2.8-.3-.5-.6-1.1-.9-1.6-.1 0-.1-.1-.1-.1-.8-1.5-1.5-3-2.3-4.5-.5-.9-.9-1.8-1.3-2.7-.7-1.7-1.5-3.4-2.2-5.2-.4-.8-.7-1.6-1-2.4-.5-1.3-1-2.7-1.4-4-.4-1.2-.8-2.4-1.1-3.6-.1-.2-.2-.4-.2-.6-.2-.7-.4-1.4-.6-2-.1-.3-.1-.5-.2-.8 0 .2.1.5.1.7.1.7.2 1.3.3 2 .2 1.4.4 2.8.6 4.2.1.9.2 1.7.3 2.5.1.4.1.8.2 1.2 0 .3.1.6.1.9.5 3.6 1 7.1 1.5 10.3.2 1 .3 1.9.5 2.9.1.8.3 1.5.4 2.3s.3 1.7.5 2.5c.1.6.3 1.3.5 2 .1.2.1.3.1.4 0 .2.1.4.1.6.2.7.3 1.4.5 1.9.1.1.1.1.1.2.1.1.1.2.1.3.1.5.2 1 .4 1.6.1.3.1.4.2.6v.1c.1.5.3 1 .4 1.5.2.7.5 1.4.7 2.2.5 1.4 1 2.8 1.5 4.2v.1c.1.1.2.2.2.3s0 .1 0 .1c0 .1.1.3.2.5 1 2.5 2.1 5 3.2 7.5.4.9.8 1.8 1.2 2.8.2.3.3.7.5 1 .5 1 .9 2.1 1.4 3.1.8 1.8 1.6 3.7 2.4 5.5.5 1.3 1 2.5 1.5 3.8.2.6.4 1.1.6 1.7.1.2.2.3.2.4.1.2.1.4.2.5.1.3.2.5.3.8s.2.6.3.9c.7 1.6 1.2 3.3 1.7 4.9 0 .2.1.3.1.5v.1c.1.1.2.3.2.5.1.2.2.5.3.7 0 .2.1.3.1.5 1 3.2 1.8 6.3 2.6 9.5 2.4 10.6 3.3 21.5 2.6 32.3-.2 2.4-.4 4.3-.7 5.8-.1.2-.1.3-.1.4-.3 2.5-.8 3.6-1.3 3.3-.2-.2-.5-.6-.8-1.4-.6-1.4-1.4-4-2.6-7.3v-.1c-.1-.4-.3-.7-.4-1.1-.3-1.1-.7-2.1-1.1-3.1-.1-.3-.2-.7-.4-1.1-.1-.1-.1-.2-.1-.2l-.3-.7-.2-.5c-2.4-5.9-4.9-11.8-7.6-17.7-.1-.1-.1-.2-.2-.4-.2-.5-.4-.9-.6-1.4 0-.2-.1-.3-.2-.5 0-.1 0-.1 0-.1-1.4-3-2.9-6-4.3-9-.4-.9-.9-1.7-1.3-2.6-.1-.1-.1-.2-.1-.2-2.6-5.3-5.5-10.4-8.3-15.7-.3-.7-.7-1.5-1.1-2.2l-.7-1.4c-.2-.3-.3-.7-.5-1s-.4-.7-.6-1.1c-.1-.2-.1-.3-.2-.5-.5-.8-.9-1.6-1.3-2.5-.5-1.2-1-2.3-1.5-3.5-.8-1.7-1.5-3.5-2.2-5.3-.5-1.5-1.1-2.9-1.6-4.5 0-.1 0-.1 0-.1 0-.1 0-.1 0-.1-.4-1-.6-1.9-.9-2.9 0-.1-.1-.2-.1-.3-.2-.7-.4-1.5-.6-2.2-.4-1.9-.8-3.7-1.2-5.6 0-.1 0-.1 0-.2-.3-1.6-.6-3.5-.8-5 0-.1 0-.2 0-.3 0 0 0-.1 0-.2-.2-1.5-.3-3-.5-4.5v-.5c-.2-2.6-.3-5.2-.3-7.7v-5.8c0-1.6.1-3.1.1-4.6 0-.8.1-1.5.1-2.3.1-2.2.2-4.4.3-6.5 0-.2 0-.4 0-.6.1-3.1.2-6.1.3-9.1-.7 1.6-1.3 3.1-1.8 4.6-.1.2-.1.4-.2.6-.3.6-.5 1.1-.6 1.7-1.4 4.1-2.3 8.3-2.9 12.5 0 .3-.1.5-.1.8-.4 3.3-.6 6.6-.6 9.9v1.8c0 .8.1 1.6.1 2.4.1 1.3.2 2.6.3 3.9v.4c.1 1.9.3 3.7.5 5.5.1 1.2.3 2.5.4 3.8.1.3.1.6.1.9.1 1.3.2 2.6.3 3.9.1 2.2.2 4.5.2 6.7v2.6c-.1.4-.1.9-.1 1.4v.1c-.1 2.3-.4 4.5-.8 6.7-.1.3-.1.7-.2 1-.1.4-.2.7-.2 1.1 0 .2-.1.4-.1.5-.1.3-.1.5-.2.8-.1.4-.2.8-.3 1.2-.1.3-.2.7-.3 1.1-.2.8-.5 1.5-.7 2.3-.3.9-.6 1.9-1 2.8-.2.6-.5 1.1-.7 1.6-.3.5-.5 1.1-.8 1.6-.4 1-1 2-1.5 3-.6 1-1.2 2-1.8 2.9-.9 1.5-2 3-3.2 4.3-1 1.2-2.1 2.4-3.2 3.5-.8.7-1.4 1.2-2.1 1.8v-118.2c0 0 50.2 0 50.2 0z" fill="#ff848c"/><path d="m26.72 25.38c.11-.44.33-.88.44-1.31.66-1.86 1.64-3.61 2.95-5.03l.44-.66c.77-.88 1.64-1.75 2.52-2.52l.55-.55c.33-.33.66-.55.98-.88.11-.11.22-.22.33-.33.88-.77 1.75-1.42 2.74-2.08l1.2-.88c.55-.44 1.09-.77 1.64-1.09.22-.11.33-.11.44-.22.66-.55 1.42-.88 2.19-1.31.44-.33.88-.55 1.31-.77l.77-.44c-.33-1.09-.66-2.3-.98-3.39 0-.11 0-.11 0-.11-.11-.55-.22-1.09-.33-1.53-.22-.66-.33-1.42-.55-2.08-.11-.09-.11-.2-.11-.31v-.11h4.6l.44-.22v.11h.11v.11h1.64l.22-.11v.11h6.46c.11 0 .22.11.33.11 1.09.33 2.19.66 3.28.98 1.64.44 3.28.98 4.81 1.42.55.22.98.33 1.53.55 2.19.77 4.38 1.64 6.46 2.63.88.44 1.75.98 2.63 1.53.66.33 1.31.77 1.86 1.2.77.66 1.53 1.2 2.3 1.97.22.22.66.55.88.88.33.33.66.66.88.98.66.77 1.2 1.53 1.75 2.41.11.11.11.11.11.22.44.88.88 1.86 1.2 2.95 1.31 4.49-.98 7.55-6.35 7.44h-.22c-.33 0-.66-.11-1.09-.11l-.55-.11c-1.31-.11-2.3-.44-3.5-.77-3.61-1.53-6.89-3.72-9.85-6.57-2.95-2.63-5.8-5.47-8.43-8.64-1.31-1.64-2.63-3.39-3.94-5.25-.22-.22-.44-.55-.55-.77-.11-.11-.11-.22-.22-.33l-.12-.1v.11c0 .11.11.33.11.44 0 .22.11.44.11.66.44 1.86.88 3.72 1.42 5.58.22.66.33 1.2.55 1.86.11.55.22.98.33 1.42 1.2 4.49 2.41 8.75 3.72 13.24l.22.11c2.3 1.86 4.81 3.06 7.44 3.72 1.09.33 2.19.55 3.28.77 1.75.33 3.5.55 5.25.77l.55.11c.55.11 1.31.22 1.86.33 1.97.44 3.94.98 5.8 1.75.22 0 .44.11.66.22 2.08.88 4.16 1.97 6.13 3.39.22 0 .44.22.55.33h.11c1.42 1.2 2.74 2.63 3.94 4.38l.22.33c.77 1.2 1.31 2.74 1.31 4.16v.88c-.44 1.53-1.2 2.74-2.41 3.5-.22.11-.55.22-.77.33-1.75.77-3.72.98-5.58.88-.66-.22-1.53-.11-2.19-.33-3.28-.88-6.46-2.52-9.3-4.49-.66-.44-1.31-.77-1.86-1.31-1.09-.77-2.08-1.64-3.17-2.41-1.86-1.31-3.5-2.74-5.14-4.38-1.53-1.53-3.06-3.17-4.27-5.03v-.11c.11.66.33 1.42.55 2.08 1.09 3.61 2.3 7.33 3.5 10.94 0 .22.11.55.22.77.88 2.74 1.86 5.58 2.85 8.32l2.85.55 3.17.55c1.42.22 2.74.44 4.05.66 2.95.44 5.69.88 8.32 1.53 1.53.33 2.95.66 4.38.98 4.27 1.09 8.1 2.85 11.71 5.47 0 .11.11.11.11.11.98.77 1.75 1.53 2.52 2.3 1.97 2.08 3.17 4.05 3.61 5.91.11.22.11.33.11.44.11.66.11 1.31 0 1.86 0 .22 0 .44-.11.66-.11.55-.44.98-.66 1.31-.55.66-1.2 1.2-2.19 1.64-1.2.55-2.85.88-4.81.77-.88 0-1.75-.11-2.63-.22l-1.34-.25c-5.14-1.2-13.35-7.22-19.81-13.02-2.52-2.41-4.81-4.71-6.78-6.67l-.77-.88v.11l.55 1.53c1.53 4.16 3.17 8.21 4.92 12.36 1.42 3.61 3.06 7.22 4.71 10.83 2.08.33 4.05.55 6.02.88 1.86.33 3.72.55 5.36.88 1.31.22 2.63.55 3.94.77 4.49.88 8.21 2.08 11.49 4.27.33.22.66.44.98.66.22.22.55.44.77.66 4.05 3.5 5.69 7.44 5.03 10.5-.33 1.75-1.53 3.06-3.06 3.61-.33.11-.66.22-.98.33-.98.33-1.97.44-3.06.44-.44 0-.98-.11-1.53-.11-.44 0-.98-.11-1.42-.22-.77-.22-1.53-.44-2.3-.77-2.19-.88-4.16-2.08-6.02-3.61-3.06-2.41-5.91-5.03-8.54-7.88-1.2-1.2-2.08-2.3-3.06-3.39 3.5 7 7.22 14.12 11.27 21.01 3.28.11 6.46.22 9.41.44.66 0 1.31.11 1.97.11.44.11.77.11 1.2.11 1.2 0 2.41.22 3.61.33 1.64.22 3.28.55 4.81.88 3.39.88 6.67 2.08 9.63 3.83 9.96 6.35 8.32 13.35-3.61 11.16-1.2-.22-2.63-.66-4.16-1.31-1.2-.44-2.52-1.09-3.83-1.75-1.2-.55-2.41-1.2-3.61-1.86-1.09-.55-2.08-1.2-3.06-1.75-.44-.33-.98-.55-1.42-.88-3.06-1.97-6.13-3.94-8.54-5.47 2.74 4.27 5.36 8.75 8.32 12.91 1.42 2.19 2.95 4.27 4.49 6.46.44.66.88 1.31 1.31 1.86l.77.98h.55c1.31.11 2.63.11 3.94.11h2.63c2.85-.11 5.47-.33 7.88-.44 3.5-.33 7-.11 10.5.77.77.33 1.53.44 2.3.77 4.27 1.86 6.78 4.81 6.78 7.55 0 2.08-1.31 3.94-4.27 5.25-1.2.44-2.52.77-3.94.88-2.85.11-5.69-.55-8.54-1.64-3.28-1.42-6.35-3.06-9.41-5.14 0-.11-.11-.11-.22-.22-.77-.55-1.42-1.09-2.19-1.64-.98-.66-1.86-1.31-2.74-2.08 1.09 1.31 2.08 2.63 3.06 3.94.66.88 1.42 1.86 2.19 2.74 4.05 4.92 8.43 9.74 12.8 14.44 4.49-.66 8.64-1.53 12.58-1.97 1.42-.11 2.63-.33 3.94-.33 1.31-.11 2.74-.22 4.05-.11 1.31 0 2.63.22 3.72.33s2.08.33 3.06.55l1.31.33c.33.22.66.33 1.09.44.22 0 .33 0 .55.11.11.11.22.22.33.22 1.09.44 2.3 1.09 3.39 1.75s2.08 1.64 2.85 2.63c1.2 1.42 1.53 3.5.88 5.25-.66 1.42-1.53 2.63-2.74 3.72-1.09 1.09-2.41 1.75-3.72 2.19-.22 0-.33.11-.55.11-.44.11-.88.22-1.31.22-1.53.22-3.06.22-4.71-.22-1.86-.55-3.5-1.09-5.25-1.86l-1.31-.55c-2.95-1.53-5.91-3.06-8.64-4.81-2.08-1.2-3.94-2.3-5.58-3.5 4.38 4.38 8.86 8.64 13.57 12.58 1.42 1.31 2.85 2.63 4.16 3.72 3.06 2.63 5.69 4.6 8.54 6.13 0 0 .11.11.22.11 3.06 1.64 6.35 2.74 10.4 3.5 10.29.88 14.12 1.09 19.04 4.05 4.16 2.63 7.33 8.21 5.36 13.24-2.52 6.02-10.29 7-19.37 4.38-6.46-2.08-12.26-6.13-16.74-11.49l-.77-.88c-.11-.11-.11-.22-.22-.33-2.63-3.17-5.03-6.67-7.44-10.29-2.52-3.72-5.03-7.33-7.99-10.61-2.85-2.52-5.91-5.14-8.86-7.99-.11-.11-.11-.11-.22-.22-.22-.11-.44-.22-.55-.44.22.66.55 1.2.77 1.75.77 2.08 1.64 4.05 2.3 5.8 1.42 3.61 3.39 9.74 3.5 13.13 0 3.83-1.31 6.24-2.95 6.67-1.64.55-3.94-.98-5.58-5.03-1.31-3.28-2.52-12.36-1.64-17.51.44-2.08.66-4.27.77-6.35 0-.44-.11-.88-.11-1.31-4.38-4.38-8.54-8.86-12.69-13.46 1.86 3.5 3.28 7.44 4.38 11.27.77 2.85 1.31 5.91 1.31 8.86.11 2.63-.33 5.25-1.2 7.66-.55 1.53-1.64 2.85-2.85 3.72-.22.33-.55.44-.88.66-.22.11-.55.22-.77.22-.98.22-2.08 0-2.95-.77-2.19-1.64-3.61-5.47-4.05-10.4 0-2.41.33-4.92.77-7.11.44-2.63.98-5.69 1.42-8.75.22-1.53.44-3.17.55-4.71.11-.88.11-1.64.22-2.41 0-.44 0-.77 0-1.09 0-.66.11-1.09.11-1.53-.55-.77-1.2-1.53-1.86-2.3-.88-.98-1.64-1.97-2.52-3.06-1.53-1.97-3.06-3.94-4.6-5.91.11.22.22.55.33.77.88 2.41 1.53 4.92 2.08 7.33.22 1.09.33 2.19.44 3.28.11.44.11.88.11 1.31 0 2.95-.55 5.91-1.64 8.54-.77 1.86-2.19 3.28-3.83 4.16-.98.55-2.08.66-3.17.22-2.08-.88-3.5-3.83-3.61-8.21.11-2.19.66-4.38 1.31-6.46.77-2.3 1.64-5.14 2.41-7.66l.22-.66.66-2.08.22-.88c.33-.98.55-2.08.66-3.17.11-.44.11-.77.11-1.09 0-.22 0-.33 0-.55-.88-1.09-1.64-2.3-2.41-3.39-3.28-4.71-6.46-9.41-9.41-14.23.55 1.42.98 3.06 1.31 4.6.22.88.44 1.86.55 2.74.11.11.11.22.11.33.22.98.33 1.86.44 2.85.11.44.11.88.11 1.42.11 1.42.11 2.85 0 4.16-.22 2.85-.88 5.58-2.08 8.1-1.09 2.08-2.63 3.72-4.6 4.92-1.09.55-2.52.55-3.72-.22-1.09-.77-1.75-2.08-1.86-3.5-.33-2.08-.44-4.27-.22-6.24.22-.88.22-1.75.44-2.63.44-1.53.66-3.17 1.2-5.03.66-2.63 1.31-5.58 1.86-8.54.11-.44.22-.98.33-1.53l.22-1.09.44-2.08.33-1.53c.22-.77.22-1.42.33-2.19.11-.55.11-1.09.11-1.64.11-.66 0-1.2-.11-1.75-3.17-5.69-6.35-11.38-9.19-17.29-.44-.77-.77-1.42-1.09-2.19.22 1.86.44 3.61.66 5.25.33 2.52.66 5.03.88 7.33.11.98.22 2.08.33 3.06.11.66.22 1.31.22 1.97.11.98.11 1.86.11 2.85v3.17c0 .44-.11.88-.11 1.31-.22 1.75-.55 3.5-1.09 5.14-.11.33-.33.77-.55 1.09-.11.11-.11.33-.22.44-.77 1.31-1.64 2.52-2.52 3.61-.22.33-.55.66-.88.88-.77.55-1.53.98-2.41 1.2-.33.11-.55.22-.88.22-.44 0-.88 0-1.31-.11-.11-.11-.11-.11-.22-.11-1.31-.44-2.3-1.09-3.17-2.19-1.75-2.41-3.06-5.36-3.39-8.43-.33-3.61.11-7.22 1.42-10.5.33-.77.55-1.53.88-2.3.66-1.42 1.2-2.85 1.97-4.16 0-.11.11-.33.22-.44s.11-.22.22-.33l.33-.77c.33-.44.55-.88.77-1.31.11-.22.33-.55.44-.77.11-.11.22-.22.22-.33.44-.77.88-1.53 1.31-2.19.66-1.09 1.31-2.08 2.08-3.17.98-1.42 2.08-2.85 3.17-4.16-2.41-5.03-4.6-10.07-6.67-14.99-.22-.66-.44-1.2-.77-1.75 0 5.8-.88 11.27-2.41 16.52-.22.55-.44 1.2-.66 1.86s-.55 1.31-.77 1.86c0 .11-.11.11-.11.22-.22.66-.55 1.31-.88 1.86 0 .11-.11.22-.11.33-.33.55-.66 1.09-.98 1.64-.11.11-.22.33-.33.55-.33.55-.66.98-1.09 1.42-1.42 1.75-3.17 3.17-5.14 4.27-.66.44-1.42.77-2.19.98-.77.33-1.64.44-2.52.55-.44.11-.77.11-1.09.11-.44 0-.88-.11-1.31-.11s-.88-.11-1.31-.22l-.55-.22c-2.56-1.24-4.4-4.95-3.06-9.3.44-1.31.98-2.52 1.53-3.61 0-.11.11-.33.22-.44.11-.22.22-.33.33-.55.66-.88 1.31-1.75 2.08-2.52.55-.66 1.09-1.31 1.75-1.86s1.2-.98 1.86-1.53l.22-.22.22-.11.77-.66.33-.22c.11-.22.33-.44.55-.55.66-.55 1.2-.98 1.75-1.53.22-.22.55-.44.88-.77.66-.66 1.42-1.42 2.19-2.08l.88-.77c2.52-2.41 4.81-4.81 6.35-6.67.66-.55 1.09-1.09 1.42-1.53-.66-1.86-1.42-3.72-2.19-5.58-2.3-6.13-4.6-12.26-6.67-18.49-.44 2.85-.55 5.58-.77 8.1-.11 1.42-.22 2.95-.33 4.27-.11 1.31-.22 2.74-.55 4.16-.44 2.08-1.09 4.16-2.08 6.13-.33.55-.66 1.09-.98 1.53v.22c-.55.55-.98.98-1.53 1.42-.33.44-.77.66-1.2.98-.88.66-1.86 1.09-2.74 1.31-.22 0-.44.11-.66.11-.55 0-1.09 0-1.64 0-.44-.11-.88-.22-1.31-.33-1.09-.33-2.08-.98-2.85-1.97-.44-.55-.88-1.09-1.2-1.86-.44-.88-.77-1.86-.88-2.95 0-.11 0-.11 0-.11-.11-.98-.11-2.08-.11-3.28 0-.11 0-.22 0-.33.22-1.31.55-2.52.98-3.72.44-1.31 1.09-2.41 1.75-3.5.22-.33.33-.55.55-.77.55-.77 1.09-1.53 1.64-2.3.22-.33.44-.66.66-.88.77-.88 1.64-1.86 2.52-2.74.44-.44 1.09-.98 1.53-1.42l.33-.22c.33-.22.55-.55.88-.77.66-.55 1.42-1.09 2.08-1.64 1.2-.98 2.52-1.75 3.83-2.63l1.09-.66c-.11-.33-.22-.55-.33-.88-.11-.11-.11-.33-.11-.44-.66-1.75-1.2-3.5-1.75-5.25 0 0-.11-.11-.11-.22-.77-2.41-1.53-4.92-2.3-7.44-.33-1.42-.77-2.85-1.2-4.27-.77-2.41-1.42-4.92-2.08-7.33-.22 1.09-.33 2.19-.44 3.17 0 .77-.11 1.53-.22 2.3v.44c0 .44-.11.77-.11 1.09-.22 1.2-.33 2.41-.55 3.5 0 .22 0 .44-.11.66-.11.88-.22 1.75-.44 2.63-.11.44-.22.77-.33 1.09-.33.98-.77 1.97-1.2 2.95-.44.88-.88 1.64-1.42 2.41l-.11.11c-.22.33-.66.77-.98.98-.11.11-.33.33-.44.33-.22.22-.55.33-.77.55-1.97 1.42-4.16 1.97-6.13 1.86-.44 0-.88-.11-1.31-.22-.55-.11-.98-.33-1.42-.55-.22-.22-.55-.22-.77-.44-.66-.44-1.31-1.09-1.86-1.86-1.48-1.92-2.14-4.77-2.03-8.6z" fill="#582fb3"/><path d="m13.7.76c.11-.22.22-.33.33-.55h22.21c0 .11-.11.33-.22.33-.55.88-.98 1.64-1.53 2.41-.44.55-.77 1.09-1.2 1.64 0 .11-.11.22-.11.22-.55.66-1.09 1.31-1.75 1.97l-.55.44-.22.22c-.22.11-.44.33-.66.55-1.75 1.53-3.72 2.52-5.91 3.28-.55.22-1.2.33-1.75.44-1.64.22-3.28.11-4.92-.33-.22 0-.55-.11-.77-.22h-.11c-.22 0-.33 0-.44-.11-.22-.11-.33-.11-.44-.22-1.2-.66-2.19-1.86-2.74-3.17-.75-2.08-.42-4.49.78-6.9z" fill="#582fb3"/><path d="m52 .16h-.2l-.2-.1z" fill="#fff"/><path d="m57.7-.04v.2h-.3z" fill="#fff"/><path d="m.5 91.66v-7.6" fill="none"/><path d="m.2 118.16.3-.3v.6z" fill="#fff"/><g fill="#582fb3"><path d="m117.7.06c0 .1 0 .1 0 0 0 .1.1.1 0 0z"/><path d="m57.3.06.4-.2v.1h.1v.1h1.5l.2-.1v.1h26.9l.1.1h-34.3l-.3-.1z"/><path d="m51.6.06.4.1h-.4l-.1-.1z"/><path d="m51.1.16h-50.9z"/><path d="m57.3.06.4-.2v.1h.1v.1h1.5l.2-.1v.1h11.7v.1h-19l-.3-.1z"/><path d="m52 .16h-.4l-.1-.1h.1z"/><path d="m51.2.16h-28.6z"/></g></svg>