<svg viewBox="0 0 2311.94 317.22" xmlns="http://www.w3.org/2000/svg"><g transform="translate(69.81 -7.9)"><path d="m1176.68 231.14a25.38 25.38 0 0 0 .54 9.71c1 5.76.61 8.54-5.81 23.35a85.89 85.89 0 0 0 -3.42 9.4c-3.79 12.83-1.42 18.37-1.42 18.37a38.71 38.71 0 0 1 .54 9.67 43.57 43.57 0 0 1 -2.09 10.62h-22.37a81.92 81.92 0 0 1 2.9-13.07c1.11-3.6 2.06-5.79 2.06-5.79a28.4 28.4 0 0 0 2.09-10.08 13.07 13.07 0 0 0 -1.57-6.91c-1.85-3.54-2.31-9.41-1.36-15.24a73.84 73.84 0 0 1 6.47-19.14c.2-.41.41-.83.63-1.24 7.26-12.55 5.1-15.93 5.08-24.44s4.75-19.21 8.74-23.35c4-4.48 5.8-9.86 6.3-15.9.83-8.15 8.84-22.81 8.84-22.81s7.46 10.12 3.07 21.56c-3.43 9.11-2.48 10.87 0 14.84 1.65 2.75 3.33 10-4.34 25.4a48.57 48.57 0 0 0 -4.88 15.05z" fill="#5676ef"/><path d="m1560.11 312.26 4.53-.79a74.21 74.21 0 0 0 -2.54-23.93c-.13-.45-.25-.92-.35-1.41a25.67 25.67 0 0 1 -.45-2.58c-.48-3.81-.23-8 1.44-10.37 1.62-2.76 2.33-7.65 2-12.67a71.18 71.18 0 0 0 -4.07-17.76l-.09-.24c-4.77-11.43-2.91-14-2.38-21.18s-2.45-16.73-5.23-20.69a25.22 25.22 0 0 1 -3.83-14.14c-.14-6.95-5.35-20.25-5.35-20.25a21.31 21.31 0 0 0 -3.69 17.75c2.06 8.07 1.23 9.45-.93 12.49-1.42 2.11-3.14 8.06 1.76 21.9a48.21 48.21 0 0 1 2.8 12.55 23.4 23.4 0 0 1 -1 8.81c-1.13 4.73-1 7.12 3 20.34 2.78 9.41 3.14 15.64 2.88 19.38a13.7 13.7 0 0 1 -.89 4.58c0 .16-.08.32-.11.48-.24 1-.42 2.06-.56 3.08a37.15 37.15 0 0 0 -.3 6.6 46.09 46.09 0 0 0 4.68 18z" fill="#5676ef"/><path d="m1767.19 212.85c-4.7 12-4.55 19.69-3.75 24.14a39.62 39.62 0 0 0 1.15 4.43c1.37 5.16 1.51 8.24-1.48 18.16-.75 2.5-1.71 5.44-2.89 8.95a94.08 94.08 0 0 0 -3.48 13.57c-1.39 8.21-.79 13.39-.15 16.11.06.28.13.53.2.76a9.05 9.05 0 0 0 .58 1.61 45.2 45.2 0 0 1 1.55 11.68h-25.08a76.9 76.9 0 0 1 2.1-8.24c.09-.29.18-.58.26-.88a33.17 33.17 0 0 0 1.21-8.38c.06-3.57-.54-7.05-2.12-9.55-.12-.19-.25-.38-.38-.56-2.45-3.85-3.53-10.49-3-17.21a87.66 87.66 0 0 1 3.95-18.13c.63-1.89 1.35-3.79 2.18-5.72a49.88 49.88 0 0 0 4.26-12.1c1.12-6.08-.27-9.83-.82-16.19-.82-9.69 3.56-22.3 7.71-27.39 4.1-5.47 5.66-11.77 5.64-18.69.16-9.34 7.88-26.78 7.88-26.78s9.45 10.79 5.55 24.23c-3 10.68-1.79 12.6 1.46 16.87 2.12 2.96 4.73 11.1-2.53 29.31z" fill="#5676ef"/><path d="m757.4 178.91q-2.35 6.68-4.22 13.53c.67-1.34 1.47-2.85 2.33-4.41a74.19 74.19 0 0 1 4.55-7.3 20.94 20.94 0 0 1 2.78-3.14 10.1 10.1 0 0 1 3-2 7.11 7.11 0 0 1 4.58-.33 8.56 8.56 0 0 1 3.21 1.44 4.12 4.12 0 0 1 1.39 3.85 8.4 8.4 0 0 1 -.92 2.87 17.12 17.12 0 0 1 -1.8 2.75l-.87 1c-.26.27-.49.52-.76.78a22.47 22.47 0 0 1 -1.8 1.56 27.66 27.66 0 0 1 -2.33 1.59 28.84 28.84 0 0 1 -2.7 1.47 115.8 115.8 0 0 1 -11.9 4.55 200.6 200.6 0 0 0 -3.94 20.88 46.49 46.49 0 0 1 1.95-4.53 36.44 36.44 0 0 1 4.4-6.94 15.4 15.4 0 0 1 5-4.28c4-1.68 6.74-.69 7.73 1.2s.43 4.78-1.69 7.72c-2 2.56-4.65 4.13-7.86 5.73a105.88 105.88 0 0 0 -10.08 5.28c0 .31 0 .64-.11.95-1.26 6.63-1.82 11.59-2.48 18.36 2.84-5.7 8.75-15.51 13-17.72 8-4.08 10.91.74 5.38 7.52a44.25 44.25 0 0 1 -18.52 13.14c-.11 2.17-.2 4.69-.29 7.31-.15 4-.31 8.21-.61 11.88.37-1 .77-2.11 1.23-3.24.66-1.63 1.42-3.31 2.26-4.92.52-1 1.08-1.95 1.65-2.85a16.25 16.25 0 0 1 4.73-5.2 8.75 8.75 0 0 1 5.23-1.37 4.34 4.34 0 0 1 3.21 1.91c1.36 2.1 1.17 5.35-.65 8.87-1.77 3.08-4.41 5.16-7.82 7.2l-.42.24c-2.86 1.67-6.22 3.32-9.83 5.2q-.17 2.81-.27 5.61c0 .57 0 1.12-.06 1.68 0 1.76-.1 3.53-.13 5.29v8.1c.51-1.27 1.16-2.79 1.93-4.42.43-.94.9-1.91 1.4-2.9.71-1.41 1.49-2.86 2.33-4.26.59-1 1.2-2 1.83-2.93a28.66 28.66 0 0 1 5.59-6.55 9.31 9.31 0 0 1 .81-.57c4.37-2.71 7.65-2.38 9.12-.43s1.23 5.53-1.19 9.69a20.75 20.75 0 0 1 -3 3.7 33.8 33.8 0 0 1 -6.57 4.91c-2.73 1.65-5.8 3.21-9.09 5-1 .55-2.06 1.13-3.12 1.72q.18 9 .83 18c0-.06 0-.12 0-.19a27.1 27.1 0 0 1 1.66-4.68 44.36 44.36 0 0 1 2.38-4.44l.36-.58c.7-1.16 1.41-2.25 2.16-3.3a19.36 19.36 0 0 1 5.41-5.47 9.91 9.91 0 0 1 5.79-1.46 4.11 4.11 0 0 1 3.25 2.05 6 6 0 0 1 .51 4 15 15 0 0 1 -2 5.09 20.07 20.07 0 0 1 -3.85 4.24 32.25 32.25 0 0 1 -5.2 3.48c-1.29.71-2.59 1.33-3.88 2.06-.6.33-1.2.67-1.79 1.07a13 13 0 0 0 -4.32 4.57l-4.3-.04c0-.52-.07-1-.1-1.56s-.06-.81-.08-1.21c-.12-1.85-.22-3.7-.32-5.56l-1-.22a34 34 0 0 1 -5.75-1.84c-.15-.05-.3-.12-.44-.18a31.68 31.68 0 0 1 -6.88-4 21.59 21.59 0 0 1 -2-1.75 12.18 12.18 0 0 1 -2.49-3.33 10 10 0 0 1 -1-6.21 2.36 2.36 0 0 1 .1-.38 4.6 4.6 0 0 1 1.51-2.34 4.2 4.2 0 0 1 1.71-.83 7.89 7.89 0 0 1 6 1.34 13.07 13.07 0 0 1 2.32 2.07 26 26 0 0 1 3.56 5.86c1.25 2.59 2.52 5.65 4.2 8.89-.27-6.62-.37-13.25-.26-19.84l-1.11-.68-.27-.15c-1.66-1-3.93-2.18-6.37-3.3-.82-.39-1.67-.75-2.51-1.12-1.28-.55-2.57-1.07-3.8-1.58l-1-.43a25 25 0 0 1 -5.69-3c-2.35-2-3.79-4-4.26-5.9a5.21 5.21 0 0 1 -.07-2.25 4.33 4.33 0 0 1 2.36-3 9 9 0 0 1 5.51-.61c.33.07.65.15 1 .25a15.89 15.89 0 0 1 5 2.45 25.83 25.83 0 0 1 5.13 5.11c.3.38.59.79.87 1.19.6.84 1.17 1.73 1.73 2.66a51.22 51.22 0 0 1 3.63 7.59c.07-2.76.17-5.5.32-8.24q.13-2.89.36-5.8c-.75-.48-1.81-1.19-3-2.08s-2.74-2-4.25-3.31c-1.33-1.13-2.69-2.35-4-3.66-.84-.85-1.64-1.75-2.4-2.69a19.56 19.56 0 0 1 -3.92-7.36 13 13 0 0 1 .14-7 4.09 4.09 0 0 1 2.75-2.83 5.12 5.12 0 0 1 3.61.66 14.63 14.63 0 0 1 3.7 3 20 20 0 0 1 2.63 4.46 46.47 46.47 0 0 1 1.86 5.28c.07.22.13.45.2.67.64 2.26 1.33 4.54 2 7.05.39 1.4.78 2.87 1.16 4.44.11-1.34.25-3.06.4-4.93s.27-3.63.4-5.47c.11-1.5.21-3 .3-4.31.08-1.09.14-2.1.21-3 .07-1.27.13-2.24.15-2.72-.2-.48-1.58-1-3.9-3.34-1.87-1.89-3.81-4-5.44-5.81a40.06 40.06 0 0 1 -3.68-4.85 19.77 19.77 0 0 1 -2.2-4.26 4.36 4.36 0 0 1 -.13-3.14 2.65 2.65 0 0 1 2.45-1.5 8.65 8.65 0 0 1 5 1.68 17.41 17.41 0 0 1 4.44 4.72 28.56 28.56 0 0 1 2.9 6.16 49.53 49.53 0 0 1 1.55 5.7c.19-5.46.72-8.59 1.3-14a7.59 7.59 0 0 0 -.68-1.06 16.29 16.29 0 0 0 -1.56-1.72c-.66-.66-1.37-1.35-2.12-2.08-1.5-1.44-3.12-2.94-4.51-4.33a18.53 18.53 0 0 1 -3.23-3.9 13.34 13.34 0 0 1 -1-2.44c-.56-1.89-.43-3.43.31-4.45v-.05c1-1.39 3.38-1.67 6.32.28 2.58 1.87 4.37 4.87 5.56 8.43a37 37 0 0 1 1.39 5.76c0 .2.07.39.1.59q.72-5.56 1.76-11.06c-.19-.3-.39-.64-.62-1-.9-1.49-2.19-3.44-3.6-5.34s-3-3.77-4.32-5.41a25.89 25.89 0 0 1 -3.17-4.51c-1.61-3.51-2.07-6.53-1.21-8.54a2.77 2.77 0 0 1 2.27-1.76 6.07 6.07 0 0 1 4.11 1.53 16.29 16.29 0 0 1 3.68 4.72 29.86 29.86 0 0 1 2.45 6.47 46.88 46.88 0 0 1 1.33 9.22q1.44-7 3.4-13.79c-.11-.25-.26-.55-.43-.86a43.45 43.45 0 0 0 -2.89-3.94c-2.46-3.26-5.14-9.81-5.46-12.47-.4-3.38.54-5.22 1.82-5.49s2.94.9 4.44 3.41c1.28 2.34 2.21 7.18 2.64 10.12.22 1.49.4 3 .62 4.78.05.48.1 1 .13 1.52 1-3.2 2-6.38 3.12-9.51 1.48-6.54 1.3-13.86 2.44-20.22 1.48-7.89 3.68-11.62 6-15 4.48-5.76 9.51-7.74 14.32-4.82 2.4 1.73 2.86 6.67 1.45 10.3-1.77 4.09-4 6-10.09 11.18-5.62 4.5-8.67 8.47-11.51 17.19z" fill="#5676ef"/><path d="m2054.15 312.26h-29.38a93.89 93.89 0 0 1 -1.62-27.15c.69-7.11-1.08-17.05-6.57-21.45-4.06-3.74-7.21-10.91-8.4-18.55a90.5 90.5 0 0 1 -.17-20.63q.39-3.66 1.18-7.49c4.6-18.38.18-21.8-3.49-32.45s-1.72-25.77 2-32.43c3.56-7.07 3.75-14.48 1.85-22.22-2.36-10.49 2.36-31.8 2.36-31.8s14.59 9.9 13.47 25.84c-.81 12.65 1.24 14.51 6.4 18.54 3.45 2.83 8.88 11.33 4.93 33.38-3.75 21.87 3.28 30.15 4.6 32.58 3.87 6.83 4.5 10.46 2 31.35a85.67 85.67 0 0 0 0 21.77c1.56 10.78 5.25 14.75 5.25 14.75 7.78 13.5 7.26 27.16 5.59 35.96z" fill="#5676ef"/><path d="m754.27 312.26h21.64c-2-2.53-4-5-6-7.56l-3.74-4.62c-4.13-5.06-8.33-10.16-12.55-15.39-4.4-5.45-8.83-11-13.22-16.8-4.34-5.95-4.77-7.39-5.53.78a54.41 54.41 0 0 0 2.87 19.13 70.46 70.46 0 0 0 8.72 17.14q2.51 3.63 5.6 7.32z" fill="#ff848c"/><path d="m797.48 284.36a98.38 98.38 0 0 1 1.62 27.9h-15.87c-.2-1.26-.42-2.49-.68-3.71-.48-2.53-.92-5-1.46-7.35-1.75-8.25-3.56-15.6-5.2-22.39-.25-1-.49-2-.73-3s-.52-2.11-.76-3.14a272.79 272.79 0 0 1 -6.94-38.67c-.7-9.34-.13-8 5.53-1 12.24 15.42 20.89 33.16 24.49 51.36z" fill="#ff848c"/><path d="m819.55 306.73c-.86 1.77-1.79 3.5-2.79 5.21a3.37 3.37 0 0 1 -.19.32h-16.57s0-.09 0-.13a99.14 99.14 0 0 0 5.25-17.57 104.34 104.34 0 0 0 2-15.82c.29-5 .1-9.67 0-14.54a96.9 96.9 0 0 1 .52-14.71 44.36 44.36 0 0 1 4.23-14.49 59.25 59.25 0 0 1 4.25-7c2.13-3.08 4.36-5.83 6.4-8.55a57.38 57.38 0 0 0 4.18-6.31l.24-.4a31.08 31.08 0 0 0 2.25-4.84 3.82 3.82 0 0 1 .74-1.42.32.32 0 0 1 .37-.11c.35.14.86 1 1.23 2.61a22.13 22.13 0 0 1 .48 5.75v.1a48.28 48.28 0 0 1 -2.29 11.79c-.49 1.66-1 3.29-1.48 4.88s-.87 2.94-1.23 4.36c-.28 1.1-.53 2.17-.72 3.23-.11.64-.21 1.28-.29 1.93a45 45 0 0 0 -.36 5.34 122.4 122.4 0 0 0 .77 13.11c.08.77.15 1.54.22 2.32.19 2 .36 4.1.48 6.22 0 .69.07 1.39.1 2.1a81.44 81.44 0 0 1 -.16 8.69c-.17 2.28-.45 4.56-.83 6.81s-.83 4.34-1.38 6.47a77.21 77.21 0 0 1 -5.42 14.65z" fill="#ff848c"/><path d="m846.62 304.35c-1 1.14-2.08 2.29-3.15 3.39-1.54 1.57-3.11 3.07-4.7 4.52h-1.33l-.09.73c0-.08 0-.15 0-.22s-.07-.34-.12-.51h-20.18l3.83-4.49c2.25-2.63 4.38-5.12 6.32-7.54.83-1.06 1.67-2.08 2.42-3.1.1-.12.18-.24.27-.36l1.26-1.69c.38-.55.77-1.11 1.14-1.66.75-1 1.36-2.07 2-3.08l.11-.19c.34-.53.66-1.06.94-1.59s.6-1.06.88-1.61.53-1 .79-1.54l.35-.7c1-2.13 2-4.29 2.88-6.45.51-1.23 1-2.43 1.51-3.66.11-.26.21-.53.32-.79 1.78-4.43 3.58-8.88 5.75-13.2a95.49 95.49 0 0 1 7.28-12.17 90.91 90.91 0 0 1 8.19-10 100 100 0 0 1 11-10.08c.92-.68 1.76-1.28 2.5-1.8 3.39-2.38 5-3.18 5.24-2.7s-1.35 3.2-3.63 7.71l-.37.75a229 229 0 0 0 -11.92 29.26c-.39 1.18-.77 2.35-1.13 3.53-1.19 3.83-2.3 7.71-3.58 11.74-.5 1.53-1 3.09-1.59 4.66q-.09.29-.21.57a77.86 77.86 0 0 1 -4.09 9.42c-.24.47-.5.95-.76 1.43-.74 1.34-1.55 2.68-2.41 4s-1.69 2.38-2.56 3.57l-.2.28c-.95 1.22-1.94 2.39-2.96 3.57z" fill="#ff848c"/><path d="m870.5 312.26.16-.2c2.71-3.37 5.16-6.6 7.79-9.57a74.73 74.73 0 0 1 14.55-12.57q2.68-1.79 5.62-3.42c3.74-2.07 6.28-2.93 6.41-3.56s-2-1-7.54-1a59.22 59.22 0 0 0 -21.11 4.81c-1 .42-1.92.86-2.86 1.33a53 53 0 0 0 -7.14 4.27c-1.2.84-2.37 1.73-3.49 2.65a96.48 96.48 0 0 0 -8.8 8.39l-.33.35c-2.22 2.37-4.35 4.73-6.6 7-.35.38-.72.75-1.1 1.12-.14.14-.28.28-.43.41h24.87z" fill="#ff848c"/><path d="m1707.44 271.68a36.26 36.26 0 0 1 -2.35 10.86s0 0 0 0a46.55 46.55 0 0 1 -4.14 8.67l-.26.4a44.45 44.45 0 0 1 -7.26 8.67 55.34 55.34 0 0 1 -5.89 4.72 81.25 81.25 0 0 1 -13.28 7.19h-163.35c-1-.49-1.88-1-2.8-1.54l-.8-.48c-1.09-.68-2.16-1.39-3.2-2.15a42.39 42.39 0 0 1 -9.67-9.61 60.63 60.63 0 0 1 -3.61-5.58 27.31 27.31 0 0 1 -3.8-11.41c1.55.73 3.32 1.57 5.21 2.38 2.22 1 4.59 1.9 6.89 2.67 1 .34 2 .66 3 1a79.11 79.11 0 0 0 12.19 2.71c1.46.18 3 .3 4.51.39 5.18.32 10.76.26 16.51.37 2.76.05 5.56.15 8.36.34h.33c2.72.19 5.54.26 8.43.36h1.28l-.48-.43c-1.32-1.15-2.6-2.26-3.86-3.31q-2.25-1.91-4.38-3.61c-.47-.36-.93-.74-1.39-1.1-4.09-3.16-8.35-6.28-12.56-9.77-1.38-1.14-2.75-2.33-4.1-3.55-.71-.65-1.41-1.3-2.1-2-2-1.89-3.86-3.84-5.64-5.85-.3-.33-.6-.67-.89-1a98.06 98.06 0 0 1 -8.59-11.54 99.41 99.41 0 0 1 -12.32-28.43c-1.5-7-1.77-10-.79-10.27s3.33 2 7.59 5.5c9.42 7.55 18.76 14.37 27.91 20.76 2.92 2 5.82 4 8.7 5.95l5 3.35c3 2.05 6.2 4.21 9.41 6.67q2.46 1.86 4.94 4a103.63 103.63 0 0 1 13.34 14q1.41 1.78 2.74 3.61c-2.69-5.31-5.38-10.79-7.86-16.83a127 127 0 0 1 -5.89-17.76c-1.56-6.36-4.26-21.65-4.3-28.57a57.89 57.89 0 0 1 3.1-19.77c2.18-6.1 5.69-11.39 10.13-14.68a61.06 61.06 0 0 0 .62 15 121.28 121.28 0 0 0 5.34 20.77c.6 1.66 1.16 3.17 1.7 4.61 3.07 8.17 5.5 13.77 12.2 29.62 1.35 3.21 2.72 6.58 4.17 10 .77-5.14 1.36-9.89 1.82-14.33 0-.28 0-.55.08-.83.52-5.41.94-11 1.64-16.61.37-3 .84-6 1.39-8.93s1.16-5.78 1.89-8.55a112.36 112.36 0 0 1 5.27-15.69 98.4 98.4 0 0 1 16.15-26.28c4.68-4.91 6.85-6.63 7.54-5.8s0 4.37-.72 10.35q-.94 8.43-1.61 16.64c-.61 7.35-1.09 14.58-1.49 21.66-.36 6.2-.59 12.27-.86 18.34-.13 3.22-.3 6.57-.56 10-.23 3.11-.54 6.32-1 9.63a128.8 128.8 0 0 1 -4.58 20.12 1.09 1.09 0 0 1 0 .17c-.58 1.82-1.16 3.58-1.78 5.32 1-1.44 2.05-2.86 3.15-4.27a107.93 107.93 0 0 1 7.43-8.66c.68-.72 1.38-1.43 2.09-2.13a159.49 159.49 0 0 1 13.91-11.87c.86-.67 1.71-1.35 2.57-2 3.53-2.77 7.1-5.55 10.68-8.45 8.88-7.18 18-14.81 27-23.16 1.08-1 2-1.92 2.85-2.71 2.34-2.26 3.75-3.6 4.51-3.43.92.21.85 2.9-.18 9.13-.07.38-.13.79-.2 1.21-.67 3.08-1.47 6.12-2.4 9.09a102.21 102.21 0 0 1 -4.51 11.95q-1.92 4.28-4.25 8.4a.05.05 0 0 0 0 0 103.21 103.21 0 0 1 -9 13.3c-1.69 2.17-3.5 4.27-5.4 6.33-1.46 1.58-3 3.16-4.53 4.66l-1.43 1.37c-2.24 2.12-4.5 4.12-6.73 6.1-1.83 1.6-3.64 3.17-5.42 4.75-3.09 2.78-6.31 5.84-9.76 9.29 3.34-.39 6.59-.74 9.69-1.24 2.85-.45 5.84-.93 8.88-1.43l3.14-.51c4.26-.69 8.52-1.38 12.45-2 2.59-.39 5-.74 7.27-1a48.84 48.84 0 0 0 6.45-1.33 54.71 54.71 0 0 0 9-3.37c1.27-.62 2.45-1.19 3.57-1.83a24.88 24.88 0 0 0 4.57-3.28c.34-.31.68-.64 1-1a30.22 30.22 0 0 0 2.38-2.45z" fill="#d8dfff"/><path d="m734.27 312.26.29-.22a61.39 61.39 0 0 0 11.56-12 55.27 55.27 0 0 0 3.53-5.49 68.78 68.78 0 0 0 6.24-15.78 46.87 46.87 0 0 0 1.61-10.13 41.06 41.06 0 0 1 -3.1 3.95c-3.21 3.59-6.23 5.36-10 7.46a58 58 0 0 1 -10.81 4.6 47.47 47.47 0 0 1 -6.86 1.61c-2.75.41-5.8.93-9 1.5-8.62 1.54-18.51 3.52-27.18 5.14-1.3.25-2.62.47-4 .68-2.3.35-4.67.67-7.07 1 3.32-3.79 6.46-7.21 9.48-10.36l1.71-1.77c4.53-4.58 9.26-9.13 13.93-14.15 2.33-2.49 4.64-5.17 6.84-7.86s4.25-5.43 6.2-8.24a141.25 141.25 0 0 0 10.36-17.3 149.07 149.07 0 0 0 12.95-38.22c1.45-9.19 1.63-13.09.52-13.37s-3.72 3-8.44 8c-10.42 10.88-20.8 20.83-31 30.2-5.09 4.71-10.16 9.16-15.18 13.66a200.85 200.85 0 0 0 -15.93 15.47c-2 2.26-4 4.62-5.84 7a149.48 149.48 0 0 0 -8.71 12.58q1.06-3.37 2.07-6.89c1.33-4.71 2.53-9.66 3.52-14.74.76-3.79 1.41-7.67 1.92-11.58 1.16-9.07 1.59-17.56 1.95-25.48s.67-15.72 1.12-23.75c.9-16 2.06-32.54 3.85-49.63.84-7.74 1.72-12.28.91-13.4s-3.26 1.18-8.63 7.58a133.61 133.61 0 0 0 -18.62 34.16 165.3 165.3 0 0 0 -6.13 20.35c-.85 3.6-1.58 7.3-2.23 11.09s-1.21 7.74-1.65 11.58c-.88 7.71-1.43 15.27-2.1 22.61-.56 5.75-1.28 11.9-2.2 18.56-1.62-4.44-3.15-8.79-4.67-12.92-8.81-24.06-11-29.84-15.54-44.22a172 172 0 0 1 -5.9-26.84 88.67 88.67 0 0 1 -.58-19.37c-5.09 4.3-9.13 11.19-11.67 19.09a83.85 83.85 0 0 0 -3.67 24.33v1.25c0 1.41.07 3.09.2 5a0 0 0 0 1 0 0 297.48 297.48 0 0 0 4.46 32 179.4 179.4 0 0 0 6.5 23l.12.32c2.74 7.67 5.71 14.64 8.7 21.4-1-1.57-2-3.1-3.1-4.64a129.11 129.11 0 0 0 -9.29-11.92c-1.85-2.12-3.78-4.18-5.78-6.14a153 153 0 0 0 -12.85-11c-1.15-.89-2.28-1.77-3.4-2.62-3.24-2.47-6.48-4.93-9.75-7.45l-2.69-2.09-3-2.38c-8.15-6.44-16.42-13.22-24.76-20.53q-3.42-3-6.86-6.13c-4.82-4.43-7.45-7.49-8.6-7.05s-.85 4.13.72 12.76c0 .17.07.35.1.53a144.1 144.1 0 0 0 4.79 16.69 131.49 131.49 0 0 0 9 20l.66 1.17q2.72 4.78 5.87 9.33c1.33 1.92 2.71 3.81 4.16 5.66l.81 1c.58.74 1.16 1.45 1.77 2.17 1.22 1.47 2.49 2.91 3.79 4.33 2.24 2.44 4.62 4.85 7 7.08.73.68 1.45 1.35 2.18 2 3.9 3.55 7.81 6.84 11.59 10.14l.45.4c1.47 1.3 3 2.67 4.49 4.1 2.24 2.1 4.56 4.34 7 6.75-2.7-.09-5.35-.14-7.92-.26q-1.6-.06-3.15-.18c-3.79-.28-7.55-.38-11.26-.41h-5.52c-2.25 0-4.45 0-6.61-.07s-4.25-.13-6.29-.28c-.8-.06-1.58-.12-2.36-.2-.6-.06-1.2-.13-1.79-.21a80.58 80.58 0 0 1 -13.82-3.39c-1.16-.39-2.33-.81-3.48-1.24l-1.68-.66a129.31 129.31 0 0 1 -12.06-5.78 30.23 30.23 0 0 0 1.18 6.89 46.17 46.17 0 0 0 3.06 7.86 75.3 75.3 0 0 0 4.06 7.19 50.49 50.49 0 0 0 5.42 7.13h214.09z" fill="#d8dfff"/><path d="m2055.18 286.94c-.86 6.47-4.19 12.8-9 18a54.68 54.68 0 0 1 -17.78 12.43c-6.83 3.08-32.92 4.52-32.92 4.52h-201.41c0 .35 0 .71.08 1.07-.21-.36-.4-.71-.59-1.07h-16.87a70.7 70.7 0 0 1 -13.12-6c-.5-.3-1-.6-1.49-.91l-.54-.34a57.45 57.45 0 0 1 -7.3-5.58 49.53 49.53 0 0 1 -6-6.41c1.59.53 3.16 1 4.74 1.4a72.59 72.59 0 0 0 7.21 1.47c.5.08 1 .16 1.48.22 1.8.25 3.6.43 5.38.57 2.82.2 5.6.29 8.37.27 1.3 0 2.6 0 3.89-.08h1.39c1.53-.07 3-.17 4.57-.28q3.9-.31 7.79-.75c2.63-.29 5.26-.62 7.89-1l2.28-.32 3.61-.5h.05l.42-.06c4.63-.67 9.28-1.38 14.17-2q3.23-.44 6.54-.75c2.11-.22 4.24-.38 6.4-.5 1.46-.08 2.94-.14 4.42-.17h2.31c4.16 0 9.5.13 14.63.65a65.05 65.05 0 0 1 6.6 1c-1.15-.66-2.28-1.29-3.39-1.87l-2-1c-4.37-2.27-9-4.61-13.7-7l-1.72-.89-4.46-2.27-5-2.57-4.32-2.24c-2-1-4-2.07-5.95-3.12l-5.29-2.82-.88-.48c-1.37-.74-2.75-1.49-4.12-2.25l-2.12-1.16c-2.17-1.17-4.39-2.32-6.65-3.49l-2.59-1.33-.68-.35-1.43-.74-5.24-2.71-1.66-.87c-.5-.27-1-.53-1.5-.81-3.87-2.06-7.73-4.23-11.48-6.55-3-1.87-6-3.84-8.78-5.95-.37-.28-.75-.56-1.13-.86a83 83 0 0 1 -7.83-6.79 94.44 94.44 0 0 1 -10.65-12.25 59.59 59.59 0 0 1 -4.36-7c-5.37-8.84-9.47-25.91-9.47-25.91a114.06 114.06 0 0 0 15.14 9.87c4.41 2.47 8.4 4.57 11 6.2q1.26.75 2.52 1.47c1 .59 2.07 1.17 3.11 1.73 1.59.87 3.21 1.71 4.82 2.54l1.35.69c4 2 8 3.91 12 5.75l1.59.72q4.2 1.92 8.44 3.79c1.41.64 2.84 1.26 4.26 1.9l.21.1 1.51.67c1.75.77 3.51 1.55 5.26 2.34 3.06 1.37 6.13 2.75 9.21 4.18l4.42 2.07.52.26c4.16 2 8.34 4 12.58 6.27l1.24.64c4.51 2.39 9 4.93 13.56 7.66 3.93 2.39 7.84 4.93 11.67 7.64.56.39 1.11.79 1.65 1.18-3.32-9-6-18.32-8.6-26.9-1.32-4.41-2.58-8.62-3.86-12.48-.42-1.68-.82-3.28-1.2-4.82-3.92-16.13-5.39-25.7-12.25-39.05-.81-1.61-1.71-3.27-2.71-5-.55-1.08-1.31-2.4-2.19-3.89-1.27-2.1-2.81-4.52-4.39-7-.91-1.44-1.83-2.9-2.73-4.36-.57-1-1.16-1.94-1.79-2.9-.39-.61-.8-1.22-1.21-1.83-2-3-4.21-5.89-6.34-8.88a97.45 97.45 0 0 1 -5.35-8.24l1.09.42c3.66 1.38 7.3 2.82 10.89 4.33l1.93.82c1 .42 1.91.83 2.85 1.26 2.5 1.12 5 2.28 7.41 3.5 1.2.6 2.38 1.21 3.55 1.84 3 1.61 6 3.31 8.86 5.16 1.37.87 2.74 1.79 4.08 2.74a107.53 107.53 0 0 1 11.65 9.47 120.3 120.3 0 0 1 18.15 21.57 156.21 156.21 0 0 1 12.41 22.73c2.28 5.11 4.61 11.13 6.73 17.5a12.07 12.07 0 0 1 -.38-2.37 227.21 227.21 0 0 1 2.81-27.62c1.56-9.77 2.67-15.49 9.82-30.87 4.74-10.2 11.91-18.43 23.18-26.79s21.3-11.76 28.74-15.71c.72 5.91 0 12.71.49 21.59.33 11.78 5.5 43.74 7.34 52.47a180.35 180.35 0 0 1 3.76 26.42 154.13 154.13 0 0 1 -.66 23c4-2.35 7.9-4.42 11.65-6.39 5.82-3 11.66-6.05 17.56-9.26 11.8-6.39 23.85-13.21 36-20.83 5.51-3.49 8.56-5.92 9.8-5.5s.65 3.6-1.68 11.07a102.91 102.91 0 0 1 -17.17 30 111.68 111.68 0 0 1 -12.61 13q-3.51 3.11-7.39 6c-2.59 1.93-5.32 3.84-8 5.59-5.46 3.52-11 6.66-16.24 9.84-4.13 2.52-8.48 5.34-13.11 8.54 4.15.06 8.2.19 12.09.13 13.07-.21 25.9.36 36.94.49a57.67 57.67 0 0 0 19.14-3.09c5.9-2.27 8.35-.39 14.08-4.97z" fill="#9daefe"/><path d="m1116.26 299.79c7-1.49 15.78-1.73 22-1.77 2.44 0 4.86.07 7.24.22 4.52.27 8.93.77 13.21 1.37 2.85.4 5.62.82 8.35 1.25 3.57.55 7.08 1.11 10.61 1.63 6.23.92 12.44 1.74 18.69 2.26 2.68.22 5.37.37 8.07.43 3.6.09 7.22 0 10.88-.27a84.73 84.73 0 0 0 10.74-1.55c1-.22 1.93-.45 2.9-.71q2.94-.75 5.91-1.8a53.12 53.12 0 0 1 -5.43 6.33c-.25.25-.5.5-.76.74a58.13 58.13 0 0 1 -5 4.28h-128.44c-.63.34-1.26.68-1.9 1 .08-.33.16-.67.22-1h-158.39a52.25 52.25 0 0 1 -9.93-8.83 43.68 43.68 0 0 1 -4.34-5.95c-.1-.17-.2-.34-.29-.51a35.68 35.68 0 0 1 -4.73-13.53c5.95 5.1 8.5 3 14.59 5.36a56.77 56.77 0 0 0 19.89 3.43c10.46-.14 22.45-.67 34.78-.59 1.2 0 2.42 0 3.63.05 4 .06 8.25-.09 12.56-.15-4.82-3.56-9.33-6.68-13.63-9.48-1-.66-2-1.31-3.07-2-2.14-1.35-4.31-2.72-6.49-4.12-1.61-1-3.23-2.08-4.84-3.16-.83-.54-1.65-1.11-2.47-1.68-2.84-1.94-5.68-5.05-8.38-7.2s-5.25-4.37-7.68-6.66a120.36 120.36 0 0 1 -13.1-14.45 116.16 116.16 0 0 1 -17.85-33.31c-2.43-8.27-3-11.83-1.75-12.27s4.46 2.23 10.18 6.1c9.39 6.26 18.7 13.05 27.89 18.5 2.61 1.55 5.21 2.08 7.79 3.57l1.78 1c6.14 3.55 12.21 6.89 18.26 10.28l1.56.87c3.41 1.93 26.76 7.21 30.36 9.48-.66-8.37 5.79-27.15 5.37-38.68-.79-21.92-.44-29.66-6.69-56.64-2.22-9.63-7.88-37.38-7.14-43.94 6.21 3.53 14.18 6.68 23.12 12.56 1 .68 2.11 1.41 3.18 2.18s2.37 1.74 3.58 2.7c11.72 9.27 19.17 18.41 24.1 29.73 7.43 17.07 8.59 23.42 10.2 34.26.84 5.57 1.45 10.44 1.92 15.45.15 1.58.28 3.18.41 4.82.24 3.24.43 6.63.59 10.38a13.8 13.8 0 0 1 -.39 2.63c1.62-5.21 3.36-10.21 5.12-14.76.62-1.61 1.24-3.17 1.87-4.66.28-.65.55-1.31.84-2 .08-.2.17-.4.26-.6 2.14-4.94 4.49-9.82 7.14-14.68q1.83-3.34 3.86-6.69l.79-1.28c.42-.67.85-1.36 1.29-2 .06-.11.13-.2.2-.31 1.07-1.65 2.19-3.31 3.35-4.94a127.94 127.94 0 0 1 14-16.67 114.44 114.44 0 0 1 12.11-10.5 127.47 127.47 0 0 1 13.45-8.77 236.26 236.26 0 0 1 28.82-13.5c-4.53 8.54-10.92 16.2-15.27 24.24-3.71 6.43-7.84 13.09-9.67 17-9.25 17.22-10.88 28-15 46.57-.54 2.41-1.12 4.95-1.77 7.66-1 3.27-2 6.76-3 10.4s-2 7.32-3.12 11.14c-1.95 7-4.06 14.15-6.46 21.18-.1.33-.22.65-.33 1 .57-.44 1.14-.88 1.72-1.31.29-.23.58-.44.88-.66 2.6-2 5.25-3.81 7.91-5.59 5.77-3.9 11.63-7.45 17.44-10.73q4.4-2.47 8.73-4.75c8-4.2 15.74-8 23.44-11.63 6.39-3 12.72-6 19-9.08 4.15-2 8.29-4.14 12.42-6.39 1.88-1 3.76-2.06 5.62-3.11 2.25-1.3 4.48-2.62 6.65-4 1.06-.7 2.33-1.48 3.77-2.34 6.43-3.83 16-9.16 23.43-15.5 0 0-4.26 18.94-9.85 28.75a66.89 66.89 0 0 1 -4.52 7.72 103.66 103.66 0 0 1 -11.08 13.61q-1.73 1.83-3.56 3.53a127.2 127.2 0 0 1 -22 16c-4.66 2.8-9.39 5.41-14 7.95s-9.21 5-13.5 7.57l-1 .6c-6.11 3.58-12.26 7-18.29 10.38-10.55 5.83-20.77 11.3-29.94 16.43-1.26.69-2.44 1.38-3.62 2.11z" fill="#9daefe"/><path d="m113.66 314.5c.41.11.82.2 1.23.28l-1.24.07c0-.11.01-.23.01-.35z" fill="#9daefe"/><path d="m209.14 314.74a1.58 1.58 0 0 0 .15-.12.65.65 0 0 0 0 .18z" fill="#9daefe"/><path d="m350.08 273.69a30.81 30.81 0 0 1 -.75 3.78 39.7 39.7 0 0 1 -9.46 16.61 54.61 54.61 0 0 1 -9.07 7.84c-.48.34-1 .66-1.45 1a70.74 70.74 0 0 1 -9.61 5.25 82.62 82.62 0 0 1 -11.26 4.1h-70.48c-.18.39-.38.79-.58 1.18v-1.18h-205.42a79 79 0 0 1 -12.06-5.77c-1.18-.69-2.33-1.42-3.46-2.19-.3-.19-.6-.4-.89-.6a59.77 59.77 0 0 1 -13-12.2 81.87 81.87 0 0 0 13.28 3.21c1.32.21 2.63.39 3.94.54s2.72.29 4.07.39a128.6 128.6 0 0 0 14 .22c1.25 0 2.5-.1 3.74-.18l2.9-.2c6.81-.52 13.57-1.36 20.35-2.3l2.38-.33c2.89-.41 5.78-.84 8.7-1.27 3.13-.45 6.31-.91 9.58-1.34l2.48-.31c4.86-.59 9.87-1.05 15-1.22 1 0 2-.07 2.95-.07h1.83a162.58 162.58 0 0 1 19.46 1.06c1.58.21 3.12.46 4.58.76-1.3-.75-2.58-1.46-3.84-2.12l-2.56-1.35q-5.45-2.82-11.26-5.8l-7.91-4-.87-.45c-4.65-2.38-9.4-4.82-14.2-7.33-3.37-1.76-6.77-3.56-10.16-5.38q-3.34-1.8-6.69-3.64c-3-1.67-6.18-3.33-9.4-5-7.26-3.75-14.87-7.56-22.29-11.8a154.57 154.57 0 0 1 -15.35-9.85 97.58 97.58 0 0 1 -10.8-9.15c-4-4-11.72-11.82-17-21.76-6.08-10-10.73-29.33-10.73-29.33 9.85 7.92 23.3 14.27 29.63 18.2 4.32 2.6 8.84 5 13.36 7.28s9 4.43 13.53 6.51l.68.31 2.86 1.3c9 4.09 18.16 8 27.43 12.28 4.59 2.1 9.22 4.27 13.89 6.55 1.8.89 3.62 1.79 5.44 2.72s3.62 1.86 5.45 2.82c1.34.71 2.69 1.43 4 2.18a247.59 247.59 0 0 1 24.52 15.13l1.76 1.25.11.08c-5.22-14.14-9.16-29-13.06-41.33-.35-1.11-.7-2.19-1-3.25-6.14-24.07-6.92-35.48-18.3-55.33-2-4-6.5-10.75-10.54-17.3-4.74-8.2-11.69-16-16.63-24.74a266.45 266.45 0 0 1 31.39 13.78 140.16 140.16 0 0 1 14.65 8.94 124.21 124.21 0 0 1 13.19 10.72 136.56 136.56 0 0 1 20.55 24.39 177.72 177.72 0 0 1 14 25.73c2.58 5.79 12.4 26.07 14.8 33.28a36.55 36.55 0 0 0 3.81-10.92c2.92-13.9 2.49-33.75 4.58-51.32 0-.26.05-.52.09-.77.42-3.46 1-6.82 1.62-10 .23-1.06.48-2.14.75-3.22.79-3.08 1.74-6.25 2.85-9.42.91-2.6 1.92-5.19 3-7.73.27-.63.54-1.26.83-1.88a95.93 95.93 0 0 1 4.89-9.42s0 0 0 0c3.44-5.78 7.34-10.72 11.47-14 12.81-9.44 18.63-11.08 32.63-17.8a118.79 118.79 0 0 0 -2.45 34.47c.26 9 1.63 26.54 3.14 40.05.73 6.54 1.49 12.13 2.17 15.35.08.39.16.78.23 1.16 1 4.82 1.85 9.53 2.55 14.34.67 4.65 1.18 9.38 1.48 14.4.1 1.58.16 3.1.19 4.6.09 4.16 0 8.08-.25 12-.1 1.93-.24 3.85-.39 5.79l-.3 3.64a57.2 57.2 0 0 1 9.19-3.78 77.58 77.58 0 0 0 9-3.45l9.24-4.83c3.53-1.85 7.08-3.72 10.65-5.66l.28-.15.74-.41c12.8-6.94 25.88-14.36 39.08-22.59l.69-.43c6.24-4 9.69-6.71 11.09-6.23s.74 4.08-1.9 12.53a115.59 115.59 0 0 1 -8.17 17.62 119 119 0 0 1 -11.26 16.32c-.82 1-1.65 2-2.51 2.95a125.67 125.67 0 0 1 -11.77 11.78c-.81.71-1.63 1.42-2.46 2.1q-2.86 2.42-5.91 4.7c-2.94 2.19-6 4.35-9.12 6.33-.86.55-1.71 1.1-2.57 1.63-5.33 3.34-10.67 6.41-15.81 9.51-1.2.73-2.41 1.49-3.65 2.26q-5.35 3.39-11.2 7.41c4.7.07 9.29.22 13.69.15h2.45c6.17-.06 12.28 0 18.19.14l6.65.15c4.5.11 8.86.22 13 .28h1.53c1.51 0 3.09 0 4.74-.14a64.83 64.83 0 0 0 16.92-3.36 24 24 0 0 1 3.31-.94c3.63-.75 6.18-.47 9.87-2.64a21.65 21.65 0 0 0 2.73-1.89z" fill="#9daefe"/><path d="m113.65 312.26h-21.17c-.83-2.07-1.51-4.07-2.08-5.92a74.1 74.1 0 0 1 -2.53-10.93 28.49 28.49 0 0 0 -1.87-6.77 16.18 16.18 0 0 0 -.75-1.64c-1.4-2.83-3.29-5.26-5.58-6.46a13 13 0 0 1 -2.19-1.73 26.77 26.77 0 0 1 -4.91-6.66c-.48-.89-.93-1.82-1.34-2.78-.18-.4-.35-.82-.51-1.23a74.15 74.15 0 0 1 -4.22-19.58c0-.52-.07-1-.1-1.57-.1-8-1.23-12.1-2.95-15.41-1.4-2.72-3.22-4.9-5.18-8.19a28 28 0 0 1 -2-4c-2.8-7-3.56-15.84-2.47-20.49 1.13-5.89-.06-11.45-2.72-16.89-3.46-7.46-4.08-24.17-4.08-24.17s11.58 4.89 13.66 17c1.71 9.57 3.42 10.61 7.62 12.73 2.82 1.52 8 6.93 9.25 24.06a60.59 60.59 0 0 0 1.3 8.71c.13.57.27 1.13.42 1.66 1.73 6.39 4.21 9.8 5.81 11.65.6.69 1.08 1.16 1.35 1.48 3.82 4.43 4.89 7 7 23a70 70 0 0 0 4.34 17.41c.48 1.15 1 2.16 1.41 3.06s.91 1.64 1.33 2.29a14 14 0 0 0 3 3.58c.72.82 1.38 1.65 2 2.5s1.26 1.79 1.82 2.7a45.74 45.74 0 0 1 6.34 22.59z" fill="#5676ef"/><path d="m1885.34 305.41a71.78 71.78 0 0 0 8.92 6.85h-27.66c-2.31-2.22-4.35-4.47-6.26-6.65l-2.63-3c-1.77-2.06-3.49-4-5.28-5.91a69.45 69.45 0 0 0 -5.65-5.21c-1-.85-2.08-1.69-3.19-2.5a82.38 82.38 0 0 0 -11.66-7.2l-1-.47c-2.11-1-3.75-1.69-4.69-2.17-.53-.27-.83-.48-.87-.68s.3-.43 1.15-.59a40.82 40.82 0 0 1 6.5-.34 65 65 0 0 1 15.78 2.46c1.91.55 3.8 1.19 5.65 1.92 1 .4 2 .83 3 1.28a57.84 57.84 0 0 1 9.5 5.5l1.3 1q1 .76 2 1.56c2.49 2 4.78 4.14 7 6.26 2.69 2.68 5.3 5.37 8.09 7.89z" fill="#d8dfff"/><path d="m1951.34 295.48c-.55 2.21-1 4.49-1.49 6.85-.09.39-.18.78-.25 1.18-.43 2-.75 4.05-1.15 6.15-.16.86-.3 1.72-.43 2.6h-47.09a161.84 161.84 0 0 1 -13-10.68c-1.09-1-2.15-2.1-3.2-3.16s-2-2.24-3-3.38-1.9-2.38-2.8-3.59-1.7-2.49-2.45-3.74c-.93-1.54-1.76-3.09-2.52-4.64-.31-.63-.6-1.26-.88-1.89-1.31-2.86-2.38-5.69-3.36-8.47-.16-.48-.33-.95-.48-1.42-1.49-4.4-2.78-8.63-4.3-12.83q-2.51-7-5.57-13.91-3-6.66-6.5-13.3l-.42-.79c-2.32-4.22-4-6.63-3.69-7.2s2.45.57 7.15 3.72l.72.48c2.25 1.63 4.41 3.32 6.47 5.09a90.14 90.14 0 0 1 13.06 13.67 88.57 88.57 0 0 1 7.39 11.36c2.2 4 4 8.18 5.84 12.31a131.94 131.94 0 0 0 5.94 12.29c.29.51.59 1 .89 1.5s.62 1 1 1.49c.68 1 1.32 2 2.14 3 .37.52.76 1 1.15 1.56l1.29 1.57c.83 1.06 1.78 2.13 2.73 3.22l.8.91c3.37 3.81 7.29 7.85 11.34 12.33-.53-.74-1-1.51-1.54-2.3a71.21 71.21 0 0 1 -4.75-8.74 66.75 66.75 0 0 1 -5.86-22.24 68.7 68.7 0 0 1 -.16-8.11c.1-2.66.33-5.25.58-7.76a124.41 124.41 0 0 0 1-14.4 38.46 38.46 0 0 0 -.66-6.78 63 63 0 0 0 -2-7.08c-1.59-4.88-3.6-10.14-3.83-15.56-.18-4.93 1.08-7.66 1.73-7.9.36-.13.71.36 1.14 1.43a27.05 27.05 0 0 0 2.53 4.9 73.72 73.72 0 0 0 6.75 8.89 72.53 72.53 0 0 1 8.31 11.53 39 39 0 0 1 4.27 13.55 84.38 84.38 0 0 1 .53 13.72c0 1.94-.11 3.84-.13 5.74 0 2.57 0 5.14.13 7.82a90.3 90.3 0 0 0 2 14.76 87.89 87.89 0 0 0 3.3 11.29c.61 1.67 1.28 3.37 2 5.1.42 1 .87 2 1.31 3.06q-.51-3.86-.65-7.75a85.39 85.39 0 0 1 2-21.22 101.84 101.84 0 0 1 12.57-31 123 123 0 0 1 12.31-16.93c5.76-6.52 6.33-7.79 5.62.92a216.07 216.07 0 0 1 -5 28.08c-.84 3.51-1.77 7.13-2.79 10.92-1.79 6.86-3.83 14.29-5.8 22.76-.09.37-.17.69-.24 1.02z" fill="#d8dfff"/><path d="m1993.42 287.73a69 69 0 0 1 -6.86 11.23 94.65 94.65 0 0 1 -8.76 10.04l-.16.15q-1.55 1.56-3.22 3.1h-23.32q3.14-3.76 6.37-7.49c1.18-1.39 2.39-2.77 3.61-4.15.54-.63 1.1-1.25 1.65-1.88 5.94-6.76 12.1-13.58 18.3-20.66 3.89-4.44 7.8-9 11.68-13.68 4.41-5.55 4.84-6.9 5.62.73a47.91 47.91 0 0 1 -4.91 22.61z" fill="#d8dfff"/><path d="m572.34 302.48s9-19.9-3.24-39.22c0 0-7.79-7.67-5.37-31.43 1.95-18 1.32-21.13-2.34-27-1.24-2.09-7.82-9.17-4.71-28 3.3-19-1.81-26.31-5-28.72-4.8-3.43-6.72-5-6.16-15.92.8-13.74-12.75-22.16-12.75-22.16s-4 18.39-1.7 27.41c1.87 6.65 1.8 13-1.36 19.15-3.31 5.76-4.87 18.8-1.35 27.94s7.64 12.05 3.64 27.92a70.25 70.25 0 0 0 -.51 24.22c1.2 6.57 4.21 12.73 8 15.92 5.11 3.75 6.88 12.3 6.35 18.43 0 0-1.7 15.8 4.42 31.51z" fill="#5676ef"/><path d="m386.83 241.12a.45.45 0 0 0 -.14-.1c-.31-.17-.82 0-1.56.45a11.45 11.45 0 0 0 -1.11.79c-.58.46-1.26 1-2 1.74l-.75.65c-1.12 1-2.48 2.08-4.07 3.41-1.31 1.12-2.62 2.2-3.94 3.26-2 1.62-4 3.17-6 4.67-3.05 2.26-6.11 4.38-9.21 6.39q-2.55 1.65-5.15 3.21c-1.33.8-2.66 1.58-4 2.34a167.35 167.35 0 0 1 -19.47 9.53c-1.2.5-2.41 1-3.64 1.43-2.87 1.08-5.83 2.08-8.88 3l-.16.05c-2.92.87-6 1.67-9.3 2.39s-6.9 1.47-10.65 2.14h-.17c-1.71.32-3.47.63-5.27.95-5.7 1-11.86 2-18.47 3.13l-1.23.21c-8.19 1.39-11.56 1-6.57-1.58 2.47-1.25 4.76-2.43 6.95-3.58s4.1-2.18 6-3.27c4.17-2.32 8.1-4.67 12.28-7.36 2.75-1.76 5.61-3.67 8.72-5.82 1.91-1.32 3.92-2.72 6-4.24a171.53 171.53 0 0 0 14.85-11.84q4-3.57 7.79-7.42a162.48 162.48 0 0 0 18.71-23 157.14 157.14 0 0 0 22.82-52.76c1.83-8.37 2.66-13.29 1.87-14.17-.42-.44-1.29.1-2.82 1.67-.74.79-1.65 1.83-2.74 3.13s-2.45 2.81-4 4.58c-9 10.85-17.83 20.77-27.18 30.68-4.7 4.92-9.46 9.89-14.54 14.86l-.6.58q-2.9 2.8-5.92 5.64-4.65 4.36-9.68 8.76c-1.26 1.1-2.53 2.2-3.83 3.29-4.66 4-9.61 7.91-15.13 12l-1.77 1.31-16.74 12.4-4.56 3.38-4.17 3.16q2.83-5.13 5.17-10.54 1-2.35 1.93-4.74a148.29 148.29 0 0 0 5.59-18.17c.84-3.49 1.55-7 2.16-10.44.09-.45.17-.91.24-1.36a301 301 0 0 0 3.46-33.86q.57-11.15 1.13-22.38c.39-7.48 1-14.94 1.95-22.52.25-1.71.43-3.29.68-4.64s.46-2.52.61-3.53c.31-2 .35-3.24-.08-3.73s-1.34-.18-2.92 1c-.79.57-1.75 1.35-2.91 2.38a50.31 50.31 0 0 0 -4 3.78 110 110 0 0 0 -19.92 31.77 183.48 183.48 0 0 0 -9.04 28.82c-.63 2.65-1.22 5.33-1.79 8-.72 3.35-1.4 6.75-2.07 10.21-.64 3.24-1.27 6.53-1.93 9.88-.25 1.22-.5 2.44-.76 3.68q-.6 2.9-1.23 5.87c-.85 3.9-1.77 7.88-2.86 12-.27 1-.54 2-.83 3-.38 1.37-.78 2.75-1.21 4.15-.82 2.76-1.71 5.57-2.69 8.43a212.18 212.18 0 0 1 -8.67 21.5c-1.07 2.29-2.21 4.59-3.41 6.93.33-1.63.62-3.29.86-4.95a92.75 92.75 0 0 0 .27-27.13 79.24 79.24 0 0 0 -3.48-14.07 102.11 102.11 0 0 0 -5.4-12.62s0 0 0 0l-.15-.29c-2.06-4.07-4.2-7.89-6.35-11.56s-4.37-7.33-6.57-10.93q-2.34-3.83-4.67-7.58c-2.8-4.52-5.55-9-8.18-13.44q-2.92-5-5.57-10c-1.9-3.63-3.67-7.28-5.29-11a.14.14 0 0 1 0-.06c-.15-.35-.3-.7-.43-1.05a109.33 109.33 0 0 1 -5.13-15.42q-.74-2.88-1.32-5.94c-.22-1.11-.44-2.24-.65-3.37-1-5.54-2-11.36-3.44-17.13-.42-1.7-.87-3.39-1.38-5.07s-1.09-3.47-1.62-4.9c-1.7-4.69-3.2-7.24-4.07-7.42-.62-.13-1.05.75-1.43 2.68-.22 1.06-.46 2.42-.79 4.11-.26 1.42-.6 3-1.06 4.94-1.24 6.21-2.8 12.28-4.05 18.81a90.49 90.49 0 0 0 -1.86 21.31 88.21 88.21 0 0 0 4.09 22.92 130.34 130.34 0 0 0 9.48 22.14c2.6 4.86 5.48 9.65 8.56 14.43q2.25 3.51 4.64 7c2.93 4.37 6.1 8.81 9.21 13.26 1.95 2.8 3.88 5.6 5.7 8.39a91 91 0 0 1 6.31 11.29c.42.91.83 1.84 1.22 2.79a80.23 80.23 0 0 1 3.34 10.1c0 .15.08.3.11.46 1.54 6.62-.37 16.79-2.21 14.9a86.39 86.39 0 0 0 -9.43-8.66q-3.34-2.82-6.65-5.4c-2.55-2-5.07-3.92-7.49-5.78-4.5-3.44-8.67-6.81-13-10.35s-8.47-7.21-12.67-11-8.32-7.81-12.42-12-8.14-8.58-12.08-13.23-7.81-9.55-11.48-14.74c-1.73-2.35-2.92-4.33-3.86-5.72s-1.67-2.17-2.27-2.23-1.06.59-1.5 2.12a42.13 42.13 0 0 0 -1.29 7.44c-.13 2-.18 4.05-.15 6.06.21 14.09 4.42 28.06 13 41.25a98.47 98.47 0 0 0 9.85 12.78 113.6 113.6 0 0 0 14.59 13.21 127.31 127.31 0 0 0 18.52 11.47c3.82 1.95 7.72 3.76 11.7 5.53a97.75 97.75 0 0 0 -10.63-2.81c-6.5-1.34-12.87-2.4-19.17-3.36-12.3-1.89-24.14-3.36-35.79-6l-.79-.17-3.26-.66q-5.07-1.23-10.16-2.8l-1.19-.38c-4.18-1.32-8.37-2.85-12.54-4.62q-4.5-1.89-9-4.18c-1.2-.63-2.29-1.23-3.25-1.8-3.37-1.93-5.32-3.26-6.22-3-.56.19-.67 1-.33 2.63a40.2 40.2 0 0 0 2.67 7.54c.27.54.54 1.08.82 1.61a64.23 64.23 0 0 0 6.78 10.31c1.24 1.59 2.58 3.13 4 4.62a71.79 71.79 0 0 0 6.91 6.44c1.12.91 2.28 1.8 3.46 2.66a82.84 82.84 0 0 0 12 7.31 100.35 100.35 0 0 0 14.85 5.92h112.26v1.18c.2-.39.4-.79.58-1.18h104.94l1.1-.37c1.82-.6 3.63-1.27 5.43-2 2.08-.83 4.12-1.72 6.12-2.69a96.26 96.26 0 0 0 18-11.26l1.42-1.14a96 96 0 0 0 10.12-9.6l.23-.25q1.65-1.83 3.2-3.72a91.23 91.23 0 0 0 5.67-7.7c1-1.49 1.93-3 2.81-4.54q1.17-2 2.21-4 1.64-3.18 3-6.45 1-2.44 1.87-4.94l.43-1.31c.47-1.43.87-2.74 1.2-3.9.27-1 .49-1.82.67-2.59v-.06c.65-2.59.75-4.13.35-4.62zm-177.69 73.62.11.06a.65.65 0 0 1 0-.18 1.58 1.58 0 0 1 -.11.12zm0 0 .11.06a.65.65 0 0 1 0-.18 1.58 1.58 0 0 1 -.11.12z" fill="#e9596b"/><path d="m644.26 284.63c-.55-.22-1.72.74-3.71 2.17q-1 .74-2.31 1.59a77.22 77.22 0 0 1 -9 4.93 91.36 91.36 0 0 1 -14 5.15l-1.69.46c-3.08.81-6.18 1.48-9.32 2.1-4 .79-8.09 1.49-12.25 2.29s-7.98 1.59-12.15 2.68a51.29 51.29 0 0 0 -6.75 2.22c2.52-1.4 5-2.83 7.43-4.37a76.84 76.84 0 0 0 21.07-19.52 78.79 78.79 0 0 0 6.52-10.58 72.25 72.25 0 0 0 7.88-36.9 42.35 42.35 0 0 0 -.82-5.88c-.28-1.21-.58-1.73-1-1.68s-.83.68-1.44 1.77-1.35 2.66-2.45 4.52q-3.49 6.15-7.3 11.65-1.78 2.63-3.61 5.12t-3.69 4.84c-.12.17-.25.33-.38.49-2.61 3.3-5.21 6.48-7.9 9.47s-5.32 5.94-8 8.7c-1.41 1.44-2.8 2.85-4.21 4.25s-2.66 2.61-4 3.93l-.69.66c-2.67 2.54-5.48 5.21-8.3 8.17-.94 1-1.59 1.67-2.12 2.23a50.69 50.69 0 0 0 -3.88 4.62c-.68.87-1.37-1.5-1.64-4.66a27.43 27.43 0 0 1 .3-7.49 70.86 70.86 0 0 1 2.91-10.18c.35-1 .73-1.9 1.14-2.83.87-2.07 1.86-4.07 2.89-6.06 1.57-3 3.27-6 5-9 1.54-2.71 3.07-5.42 4.51-8.09 2.08-3.79 4.06-7.57 5.87-11.38.88-1.84 1.73-3.69 2.53-5.56a117.39 117.39 0 0 0 6-17.49 85.43 85.43 0 0 0 2.59-18.11c0-.58 0-1.15 0-1.72 0-2.14 0-4.21-.18-6.21-.23-3.08-.61-6-1-8.82-.8-5.16-1.79-9.95-2.58-14.86-.63-3.26-.92-5.62-1.18-7.15s-.52-2.22-.9-2.12c-.73.19-2.14 3.56-3.62 9.73-1.64 6.78-2.44 13.79-3.49 20.21a102.28 102.28 0 0 1 -4.38 17.76c-1.8 5.12-3.9 10.1-6.2 15.08v.05c-.22.5-.46.93-.69 1.43-.9 1.89-1.83 3.79-2.77 5.7-1.77 3.59-3.59 7.21-5.41 10.91-1.39 2.84-2.79 5.69-4.17 8.63s-2.73 5.92-4 9.14c-.6 1.49-1.19 3-1.74 4.6-.21.56-.4 1.13-.58 1.71-.44 1.28-.84 2.56-1.21 3.89a73.42 73.42 0 0 0 -2.21 11.12 86.53 86.53 0 0 0 -.28 16.83c.12 1.55.26 3.09.44 4.6.16 1.31.34 2.62.55 3.91q-1.85-4.43-3.35-8.71a207.87 207.87 0 0 1 -7.34-26.11c-1.26-5.92-2.17-11.55-3.08-17s-1.66-10.75-2.54-15.88c-.8-4.72-1.66-9.29-2.68-13.75a152.41 152.41 0 0 0 -4.21-15.29c-.22-.65-.45-1.29-.68-1.93a90.32 90.32 0 0 0 -12-23.16 36.3 36.3 0 0 0 -2.52-3c-.74-.81-1.35-1.43-1.85-1.88-1-.9-1.58-1.14-1.86-.76s-.25 1.39-.05 3c.1.8.23 1.72.39 2.79s.28 2.31.43 3.66c.63 6 1 11.89 1.24 17.8s.48 11.81.72 17.68c.54 11.81 1.37 23.89 3.72 36.08a132.27 132.27 0 0 0 4.79 18.1q1.49 4.28 3.28 8.33c-.89-.85-1.78-1.68-2.65-2.5l-14.66-13.5c-2.94-2.74-5.64-5.39-8.17-8-1.34-1.37-2.63-2.74-3.89-4.11q-2.53-2.75-4.89-5.47c-1.87-2.13-3.66-4.26-5.41-6.37-3.23-3.92-6.25-7.85-9.24-11.74-6-7.83-11.57-15.67-17.28-24.24-1-1.4-1.83-2.61-2.55-3.62s-1.27-1.84-1.75-2.48c-1-1.23-1.52-1.66-1.78-1.31-.51.7 0 4.58 1.18 11.2q1 5.66 2.51 11.24 1.43 5.4 3.29 10.67a136.32 136.32 0 0 0 8.71 19.76 125.77 125.77 0 0 0 9.25 14.65c.86 1.19 1.75 2.35 2.65 3.5a116.46 116.46 0 0 0 10.86 12c1.17 1.12 2.35 2.21 3.53 3.25 3.68 3.25 6.77 5.87 9.67 8.18 3.6 2.86 6.93 5.24 10.77 7.78 1.57 1 3.22 2.09 5 3.22 3.18 2 1 2.35-4.17 1.24l-4.84-1c-4-.83-7.72-1.6-11.14-2.39-2.39-.53-4.65-1.08-6.78-1.69-.23-.06-.45-.12-.68-.2-1.88-.52-3.64-1.1-5.33-1.73-.9-.33-1.79-.68-2.66-1a88.7 88.7 0 0 1 -16.94-9.47l-.74-.51a113.59 113.59 0 0 1 -10.71-8.55c-2.45-2.21-4.88-4.58-7.32-7.15l-2.66-2.91c-.72-.79-1.3-1.42-1.78-1.9-1-.94-1.54-1.25-1.79-.91-.45.7.11 4.11 1.65 9.84a76.84 76.84 0 0 0 9.46 21.19 65.87 65.87 0 0 0 4.12 5.79 68.17 68.17 0 0 0 5.83 6.51c.61.6 1.24 1.19 1.87 1.76h173.92c1-.94 2-1.94 2.92-3a54.5 54.5 0 0 0 10-15.91c.09-.23.19-.46.28-.7a37.19 37.19 0 0 0 1.7-6c.23-1.26.15-1.89-.2-2.04z" fill="#e9596b"/><path d="m1797.75 277.68c-.69-.31-2.34 1.39-5.35 3.59l-.75.54q-2.69 1.86-5.38 3.4c-1 .55-1.89 1.07-2.85 1.57a86 86 0 0 1 -13.53 5.62l-.42.14-1.11.35a182.82 182.82 0 0 1 -17.91 4.18l-3.22.64-2.46.5c-3.35.69-6.74 1.43-10.18 2.33-.73.18-1.46.38-2.19.58a49.47 49.47 0 0 0 -6.84 2.44c2.13-1.29 4.25-2.59 6.3-4 .42-.27.82-.55 1.22-.83a75.44 75.44 0 0 0 6.92-5.3c.62-.52 1.23-1.06 1.82-1.6q1.67-1.5 3.21-3.05c.54-.56 1.08-1.12 1.6-1.69a86.07 86.07 0 0 0 7.7-9.62l.13-.18a89.89 89.89 0 0 0 6.53-11.45 86.33 86.33 0 0 0 4-9.93c.15-.47.3-.94.44-1.41a83.48 83.48 0 0 0 2.41-9.87 85.37 85.37 0 0 0 1.32-17.55c0-.64 0-1.28-.07-1.92a47.17 47.17 0 0 0 -.83-6.46c0-.1 0-.2-.06-.3-.27-1.11-.55-1.59-.91-1.54s-.84.75-1.46 1.94c-.38.75-.81 1.69-1.36 2.78-.33.67-.7 1.4-1.12 2.18-2.38 4.51-4.83 8.78-7.41 12.8s-5.12 7.87-7.79 11.47l-1.49 2c-1.55 2.1-3.09 4.13-4.68 6.11-.61.76-1.22 1.52-1.84 2.26-.9 1.1-1.8 2.19-2.7 3.26-1.8 2.16-3.61 4.26-5.46 6.29l-2 2.17c-2.11 2.3-4.19 4.54-6.4 6.81l-1.76 1.83c-2.39 2.46-4.87 5.05-7.36 7.87a66.17 66.17 0 0 0 -6.07 7.52c-1.17 1.61-2.38-6.89-1.48-12.63 0-.24.07-.48.12-.71a83.2 83.2 0 0 1 2.94-11.18 89.58 89.58 0 0 1 4.09-9.76c3-6.28 6.55-12.61 9.61-18.78l.53-1.05c2.18-4.33 4.23-8.65 6.11-13q1-2.26 1.88-4.54c.21-.53.41-1.07.62-1.6a132.52 132.52 0 0 0 5.48-17.55.13.13 0 0 1 0-.06q.72-3.09 1.25-6.23a95.54 95.54 0 0 0 1.39-13.66 89.2 89.2 0 0 0 -.35-11.23c-.23-2.49-.52-4.89-.85-7.21-.24-1.69-.5-3.35-.77-5-.62-3.84-1.29-7.55-1.84-11.33-.64-3.58-.93-6.17-1.2-7.85s-.52-2.44-.91-2.33c-.74.21-2.17 3.91-3.67 10.69-1.66 7.44-2.48 15.13-3.54 22.19a120 120 0 0 1 -4.44 19.5s0 .08 0 .12c-2 6.14-4.37 12.12-7 18.08s-5.47 12-8.3 18.24c-1.41 3.11-2.83 6.25-4.23 9.48s-2.76 6.5-4.1 10a109.64 109.64 0 0 0 -3.58 11.23c-.37 1.41-.71 2.85-1 4.3-.54 2.63-.94 5.29-1.25 7.9a98.59 98.59 0 0 0 -.52 13.65c.1 3.37.35 6.67.7 9.88.15 1.44.34 2.88.55 4.3q-2.65-7-4.66-13.57c-1.43-4.6-2.64-9.05-3.69-13.37-1-3.88-1.76-7.65-2.49-11.29-1.28-6.5-2.21-12.68-3.13-18.67-.49-3.34-1-6.61-1.42-9.83-.39-2.57-.76-5.11-1.16-7.61a223.7 223.7 0 0 0 -7-31.9 105.39 105.39 0 0 0 -12.31-26.75c-.17-.28-.36-.55-.54-.82a41.1 41.1 0 0 0 -2.56-3.28 27.75 27.75 0 0 0 -1.89-2.07c-1-1-1.59-1.24-1.87-.83s-.26 1.53-.06 3.24c.1.88.24 1.89.4 3.07s.28 2.53.43 4c.65 6.58 1 13.05 1.27 19.54s.48 13 .72 19.42c.22 5.48.51 11 .94 16.56a230.67 230.67 0 0 0 2.84 23.06c.19 1.06.39 2.12.61 3.18a145.89 145.89 0 0 0 4.25 16.7c1 3.13 2.11 6.18 3.32 9.14-.9-.93-1.8-1.84-2.69-2.74-4.53-4.53-8.84-8.82-13-12.92l-1.43-1.43-.48-.48c-4.54-4.59-8.5-8.91-12.23-13.31s-7.16-8.7-10.44-13l-1.9-2.51c-2.57-3.47-5-6.93-7.48-10.37-4.24-6-8.31-12.09-12.37-18.41-1.73-2.68-3.43-5.41-5.16-8.21-1-1.54-1.86-2.87-2.59-4s-1.28-2-1.76-2.71c-1-1.36-1.55-1.83-1.82-1.45-.51.77 0 5 1.21 12.3a164 164 0 0 0 14.71 45.78 141.37 141.37 0 0 0 12.07 19.93 125.34 125.34 0 0 0 14.59 16.71c10.27 9.81 15.94 14.34 25.83 21.06 3.22 2.19 1 2.58-4.24 1.36-6-1.37-11.37-2.53-16.2-3.74-2.43-.58-4.72-1.19-6.88-1.85s-4.18-1.35-6.1-2.12a87.35 87.35 0 0 1 -20.63-12.1 124.37 124.37 0 0 1 -18.29-17.25l-2.62-3c-.73-.86-1.31-1.55-1.8-2.08-1-1-1.56-1.37-1.82-1-.45.76.11 4.5 1.68 10.79 3.52 13.86 10.39 26.93 19.68 36.79a66.47 66.47 0 0 0 6.65 6.16h159.88l10.38-3.26.74-.23a54 54 0 0 0 5-5.63c1.16-1.49 2.26-3.06 3.29-4.69a57.27 57.27 0 0 0 3.65-6.68q1.21-2.55 2.2-5.25a44.15 44.15 0 0 0 1.74-6.39c.19-1.46.11-2.15-.25-2.32z" fill="#e9596b"/><path d="m1133.36 253.37c-.35-.39-1.17 0-2.55 1-.69.55-1.51 1.28-2.53 2.17s-2.26 1.89-3.69 3.1a164.22 164.22 0 0 1 -25.74 18q-2.47 1.41-5 2.73-2.82 1.49-5.74 2.87c-2.07 1-4.19 1.93-6.36 2.82a120.43 120.43 0 0 1 -11.89 4.22c-2.7.8-5.55 1.55-8.6 2.21s-6.26 1.34-9.66 1.94c-6.81 1.27-14.41 2.49-22.81 3.92-7.44 1.27-10.5.87-6-1.43a241.55 241.55 0 0 0 36.35-22c1.07-.76 2.15-1.55 3.21-2.35s2.37-1.8 3.55-2.73c2.15-1.72 4.28-3.5 6.37-5.36 2.55-2.26 5-4.61 7.41-7 .89-.91 1.76-1.82 2.62-2.75q2.68-2.88 5.19-5.89c1.28-1.52 2.53-3.08 3.72-4.65.87-1.1 1.7-2.22 2.51-3.35 1-1.38 2-2.79 2.94-4.21.59-.87 1.16-1.74 1.73-2.63q2.89-4.51 5.42-9.2a142.7 142.7 0 0 0 11-26.43q1.44-4.78 2.53-9.61c.46-2.07.84-3.88 1.14-5.47.23-1.2.41-2.25.55-3.17.35-2.36.39-3.79 0-4.21s-1.17.08-2.56 1.51l-.38.42c-.6.65-1.3 1.46-2.11 2.42-1 1.16-2.22 2.55-3.64 4.16-5.59 6.75-11.12 13.1-16.8 19.34-1.36 1.52-2.75 3-4.15 4.53-1.23 1.33-2.46 2.66-3.72 4-1.62 1.7-3.25 3.4-4.91 5.11l-.38.4c-1.43 1.48-2.87 3-4.35 4.44-.92.93-1.85 1.85-2.79 2.79l-.75.73q-2.62 2.55-5.37 5.12c-3 2.81-6.09 5.65-9.34 8.48-5.23 4.6-10.81 9.12-17.21 13.92l-20.93 15.51-3.78 2.87q2.57-4.65 4.68-9.57a128.63 128.63 0 0 0 6.84-20.79c3.36-14 4.54-27.87 5.31-41.44q.51-10.12 1-20.32c.37-6.78.87-13.56 1.77-20.44.23-1.55.39-3 .62-4.2s.42-2.29.55-3.2c0-.21.07-.42.09-.61.2-1.46.19-2.4-.16-2.79s-1.22-.16-2.64.87a.27.27 0 0 0 -.08.07c-.71.51-1.55 1.2-2.57 2.09a47.06 47.06 0 0 0 -3.6 3.44 99.74 99.74 0 0 0 -18 28.65 1.3 1.3 0 0 0 -.08.17 180.19 180.19 0 0 0 -9.59 32.41c-.08.31-.14.63-.2.94-1.27 5.89-2.41 11.94-3.64 18.23-1 4.71-2 9.54-3.14 14.54q-.6 2.46-1.27 5a209.17 209.17 0 0 1 -6.9 21.38c-.68 1.78-1.41 3.57-2.17 5.39q-2.68 6.52-6.18 13.25c.31-1.48.56-3 .78-4.49a96.17 96.17 0 0 0 1-11.43 76.37 76.37 0 0 0 -.51-11.34c-.08-.62-.16-1.23-.25-1.84a71.83 71.83 0 0 0 -3.15-12.78c-.28-.8-.57-1.61-.88-2.4a102 102 0 0 0 -4.16-9.33c-1-1.93-2-3.79-3-5.61-.93-1.66-1.85-3.28-2.79-4.87-2-3.38-4-6.66-6-9.91-4-6.5-8-12.81-11.66-19.08a180.12 180.12 0 0 1 -9.85-19 98.92 98.92 0 0 1 -6.26-20.4c-1.49-7.38-2.64-15.43-5-23.21-2.11-7.09-4.13-11-5.16-11.18-.56-.12-.95.68-1.3 2.44s-.78 4.47-1.68 8.21c-1.12 5.63-2.53 11.14-3.67 17.07a81.28 81.28 0 0 0 -1.68 19.34 80 80 0 0 0 3.7 20.8 118.26 118.26 0 0 0 8.6 20.1 214.41 214.41 0 0 0 12 19.45c4.32 6.45 9.23 13.08 13.53 19.65a82.12 82.12 0 0 1 5.75 10.2 71.09 71.09 0 0 1 4.15 11.7c1.57 6-.21 15.71-1.92 14a77.54 77.54 0 0 0 -8.55-7.87c-4.37-3.69-8.75-7-12.84-10.15s-7.87-6.18-11.77-9.39-7.69-6.53-11.51-10-7.55-7.09-11.27-10.88-7.39-7.79-11-12-7.09-8.67-10.42-13.38c-1.56-2.13-2.64-3.93-3.5-5.19s-1.52-2-2.05-2-1 .54-1.37 1.93a39.22 39.22 0 0 0 -1.17 6.75 66.65 66.65 0 0 0 .85 16c.3 1.74.68 3.49 1.13 5.23 3 11.55 9.08 22.81 18.58 33.3a102.26 102.26 0 0 0 13.27 12 114.31 114.31 0 0 0 16.8 10.41c2.66 1.36 5.36 2.64 8.1 3.88l2.51 1.14c-.74-.25-1.48-.48-2.25-.7-2.38-.71-4.85-1.34-7.39-1.85-5.9-1.22-11.69-2.18-17.4-3.05-6.35-1-12.56-1.83-18.67-2.82-4.9-.79-9.73-1.66-14.54-2.75l-.55-.12a157.36 157.36 0 0 1 -15.08-4.4l-.76-.25s0 0 0 0c-3.23-1.13-6.46-2.38-9.68-3.8-1-.45-2.1-.93-3.15-1.43-.87-.41-1.75-.84-2.63-1.29l-.8-.4-.49-.26c-4.59-2.44-7.09-4.4-8.1-4.06-.51.17-.61.9-.3 2.39.1.44.22.95.4 1.53a45 45 0 0 0 2 5.31 58.92 58.92 0 0 0 3 5.33c.52.84 1.08 1.68 1.65 2.5.25.38.51.74.8 1.1a55 55 0 0 0 3.9 4.81 57.19 57.19 0 0 0 4 4.1c.41.39.83.77 1.25 1.13q1.73 1.55 3.57 3c.57.44 1.16.89 1.75 1.31.82.6 1.65 1.18 2.5 1.75a78.28 78.28 0 0 0 8 4.67h223.56c-.06.29-.13.58-.2.86l1.72-.86 1.27-.66a88.2 88.2 0 0 0 13.06-8.55l.89-.71a84.39 84.39 0 0 0 26.79-37.77c2.22-6.58 3-10.49 2.36-11.29z" fill="#e9596b"/><path d="m2200 257.73c-.4-.43-1.29 0-2.82 1.15-.76.61-1.67 1.41-2.79 2.4l-.89.74-3.17 2.65c-2.93 2.49-5.84 4.82-8.77 7-3.48 2.63-7 5.07-10.52 7.36q-4.45 2.88-9.05 5.48c-2.21 1.25-4.45 2.47-6.72 3.64l-.89.46c-2.66 1.36-5.35 2.65-8.13 3.88q-4.27 1.89-8.82 3.53c-2.41.87-4.88 1.69-7.41 2.44l-1.52.44c-2 .56-4 1.09-6.11 1.58l-1.41.32-.43.1c-3.34.77-6.89 1.47-10.65 2.14q-3.18.6-6.58 1.18l-1.11.19h-.23c-5.35.91-11.09 1.85-17.21 2.9-8.19 1.4-11.57.95-6.57-1.57 5.72-2.89 10.53-5.43 15.14-8.07l2-1.15c1.59-.92 3.17-1.87 4.76-2.86 3.66-2.26 7.42-4.73 11.63-7.63 1.92-1.32 3.92-2.73 6.07-4.25l.44-.31c.47-.34.94-.67 1.41-1 3.92-2.85 7.79-5.91 11.54-9.16 1.83-1.57 3.63-3.19 5.38-4.85l.15-.14c1.41-1.34 2.8-2.7 4.15-4.09 1.09-1.11 2.17-2.24 3.22-3.39 1.47-1.58 2.89-3.18 4.29-4.82a161.83 161.83 0 0 0 11.2-14.76c1.27-1.89 2.49-3.8 3.68-5.74.46-.75.91-1.5 1.35-2.26q2.54-4.29 4.77-8.71c.16-.32.32-.62.47-.94a154.61 154.61 0 0 0 8.87-21.69q2.16-6.66 3.68-13.4c1.84-8.37 2.66-13.29 1.87-14.17-.41-.44-1.29.1-2.81 1.66-.75.8-1.66 1.84-2.75 3.13l-.32.36c-1.05 1.2-2.27 2.62-3.68 4.23-3.21 3.87-6.4 7.62-9.61 11.3l-2.16 2.49c-5.06 5.73-10.16 11.31-15.41 16.88l-.12.13-2 2.13-.19.2c-2.71 2.83-5.46 5.68-8.3 8.53-1.28 1.29-2.57 2.58-3.89 3.87s-2.41 2.33-3.64 3.5l-1.43 1.36q-3.57 3.38-7.36 6.78c-1.23 1.11-2.49 2.23-3.77 3.34-.75.66-1.51 1.31-2.27 2-.45.4-.9.78-1.36 1.17-4.72 4-9.74 8-15.33 12.2l-3.23 2.4-14.77 11c-1.67 1.22-3.35 2.47-5.06 3.74l-4.17 3.17c1.88-3.42 3.61-6.94 5.16-10.55.48-1.11.94-2.22 1.39-3.34a145 145 0 0 0 6.14-19.56c.11-.46.22-.93.32-1.39a224.5 224.5 0 0 0 4.81-33.35c.29-3.66.52-7.3.73-10.92.26-5 .51-10.06.76-15.12l.36-7.24c.4-7.48 1-14.94 1.95-22.53.25-1.7.43-3.29.68-4.63s.46-2.52.61-3.53c.32-2 .35-3.24-.08-3.74s-1.34-.17-2.91 1c-.8.58-1.75 1.36-2.91 2.38a48.84 48.84 0 0 0 -4 3.79 109.57 109.57 0 0 0 -19.92 31.77c-4.84 11.53-8.11 23.77-10.84 36.77-1.39 6.48-2.65 13.16-4 20.09s-2.86 14-4.84 21.52l-.63 2.31a216.88 216.88 0 0 1 -16.18 41.74c.33-1.62.61-3.29.86-4.95a92.69 92.69 0 0 0 .26-27.12 79.2 79.2 0 0 0 -3.47-14.07 106.06 106.06 0 0 0 -5.56-12.94c-2.07-4.07-4.2-7.89-6.35-11.56-1.62-2.77-3.25-5.48-4.89-8.18l-1.68-2.75c-4.39-7.15-8.77-14.1-12.86-21a199.68 199.68 0 0 1 -10.85-21 109.31 109.31 0 0 1 -6.9-22.47c-1.64-8.13-2.9-17-5.48-25.58-2.33-7.81-4.55-12.07-5.69-12.31-.61-.13-1 .75-1.42 2.68s-.86 4.92-1.86 9c-1.24 6.22-2.79 12.29-4 18.82a90.51 90.51 0 0 0 -1.85 21.31 88.62 88.62 0 0 0 4.08 22.92 129.59 129.59 0 0 0 9.49 22.14 235.45 235.45 0 0 0 13.2 21.43c4.76 7.11 10.17 14.41 14.91 21.64a91.81 91.81 0 0 1 6.33 11.25 77.06 77.06 0 0 1 4.49 12.85c1.74 6.6-.23 17.31-2.11 15.37a85.33 85.33 0 0 0 -9.42-8.66c-1-.85-2-1.68-3-2.48-3.8-3.1-7.57-6-11.15-8.7-.41-.32-.83-.63-1.23-.95-4-3.11-7.84-6.19-11.74-9.4-3.1-2.52-6.13-5.15-9.15-7.85-1.18-1-2.35-2.1-3.52-3.16-3.18-2.84-6.29-5.83-9.38-8.91-1-1-2-2-3-3.08-4.14-4.16-8.14-8.58-12.08-13.23s-7.81-9.55-11.48-14.74c-1.72-2.35-2.91-4.33-3.86-5.72s-1.67-2.17-2.26-2.24-1.06.59-1.51 2.13a44.11 44.11 0 0 0 -1.29 7.44c-.06.94-.11 1.89-.13 2.83-.42 15.19 3.76 30.31 13 44.54a99 99 0 0 0 9.8 12.71l.31.33a112.8 112.8 0 0 0 14.2 12.92c.84.62 1.69 1.24 2.56 1.86 3 2.12 6.2 4.19 9.53 6.11 2.09 1.24 4.23 2.4 6.42 3.5 3.37 1.72 6.8 3.32 10.29 4.89l1.41.64c-.52-.17-1-.34-1.57-.49a92.81 92.81 0 0 0 -9.05-2.33q-5.61-1.15-11.11-2.06c-2.64-.45-5.26-.86-7.87-1.26h-.19c-5.65-.86-11.2-1.65-16.69-2.5l-2.7-.41c-5.79-.92-11.52-1.93-17.19-3.22-.83-.19-1.66-.38-2.49-.59q-2.52-.6-5-1.29a145.25 145.25 0 0 1 -28.58-10.89c-1-.52-1.92-1-2.76-1.51l-1.72-1c-2.62-1.54-4.19-2.51-5-2.25-.56.19-.68 1-.33 2.63a30.51 30.51 0 0 0 1.36 4.4c.36.94.79 2 1.3 3.14.21.42.42.84.64 1.25a69 69 0 0 0 17 21h250.6c.22.41.44.81.67 1.21l-.09-1.21h28.86a92.54 92.54 0 0 0 7.4-6.53 94.44 94.44 0 0 0 14.47-18.1 88.87 88.87 0 0 0 5.08-9.45c1-2.24 1.95-4.5 2.77-6.78.15-.4.29-.8.43-1.21 2.37-7.27 3.25-11.59 2.55-12.47z" fill="#e9596b"/><path d="m1011.28 312.26h-27.76a84.22 84.22 0 0 1 -1.19-17c0-1.09.09-1.7.09-1.7a30.66 30.66 0 0 0 -.54-7.81 21.4 21.4 0 0 0 -3.61-8.62 11.25 11.25 0 0 0 -2.28-2.29 20.65 20.65 0 0 1 -4.57-6.08 36.54 36.54 0 0 1 -3.43-10c-.31-2.15-.55-4.27-.71-6.43a73.33 73.33 0 0 1 -.08-10.7 70.38 70.38 0 0 1 .93-7.66c3.6-16.32-.44-19.21-4-28.51s-2.23-22.67.89-28.63c3-6.33 2.94-12.86 1-19.63-2.39-9.18 1.24-28.08 1.24-28.08s13.26 8.34 12.7 22.41c-.38 11.18 1.5 12.76 6.21 16.18 3.14 2.4 8.21 9.75 5.29 29.28-1.5 10.64-.22 17.58 1.45 22a25.51 25.51 0 0 0 3 5.75c.22.33.4.6.53.81 3.63 5.92 4.3 9.1 2.66 27.57-2 24.37 5.69 32.06 5.69 32.06a44.62 44.62 0 0 1 6.49 27.08z" fill="#5676ef"/><path d="m1826.24 308.63c.82 1.34 1.5 2.7 2.24 4.06h-11.43c-2.86-.85-5.82-1.54-8.47-2.18a33.13 33.13 0 0 1 -7.69-2.39 20.2 20.2 0 0 1 -3.87-2.72c-2.12-1.9-3.18-4-3-6a5.33 5.33 0 0 1 1.6-3.3 7.54 7.54 0 0 1 1-.88 13.4 13.4 0 0 1 7.38-2 18.24 18.24 0 0 1 3.68.45 22 22 0 0 1 6 2.25c.53.29 1.06.6 1.58.94a29.94 29.94 0 0 1 4.72 3.79l.12.11a38 38 0 0 1 6.14 7.87z" fill="#582fb3"/><path d="m1860.76 300.56a7.49 7.49 0 0 1 1.28 6.18 12.37 12.37 0 0 1 -1.53 4 13.27 13.27 0 0 1 -1.57 2h-19.94c3.24-5.48 7.67-11.89 11.53-13.57a10.64 10.64 0 0 1 6.67-.79 6.41 6.41 0 0 1 3.56 2.18z" fill="#582fb3"/><path d="m1878 107q-5.13 7.26-9.68 14.86c1.31-1.41 2.82-3 4.43-4.58a95.93 95.93 0 0 1 8.29-7.41 29 29 0 0 1 4.65-3 15.24 15.24 0 0 1 4.65-1.53 11 11 0 0 1 6.24.85 11.84 11.84 0 0 1 3.88 2.59 4.54 4.54 0 0 1 .71 4.93 9.84 9.84 0 0 1 -2.08 3.14 22.13 22.13 0 0 1 -3.23 2.77c-.53.35-1 .64-1.45.91l-1.26.73a31.41 31.41 0 0 1 -2.88 1.35c-1.08.44-2.29.87-3.59 1.26s-2.66.72-4.06 1c-5.14 1.06-11 1.52-17.32 2.15-1.07 1.91-2.12 3.83-3.14 5.78q-2.76 5.24-5.24 10.61-1.67 3.62-3.21 7.27a55.54 55.54 0 0 1 4-4.84q.24-.27.51-.54a45.7 45.7 0 0 1 7.45-6.46 30.47 30.47 0 0 1 4.17-2.43 15.7 15.7 0 0 1 3.84-1.28c5.83-.91 9.23 1 10 3.52a5.94 5.94 0 0 1 -1 5 15.11 15.11 0 0 1 -3.5 3.69c-3.48 2.48-7.46 3.63-12.26 4.65-1.27.28-2.61.54-4 .82a113.71 113.71 0 0 0 -11.08 2.69c-.14.37-.29.73-.43 1.1q-4.36 11.2-7.58 22.79c5.51-6 14.81-15.49 20.71-18.2a25.48 25.48 0 0 1 2.91-1.12c8.45-2.66 11 2.2 5.06 9.16-.3.36-.63.72-1 1.09-3.77 3.7-8.53 6.22-14.08 8.34-1.54.59-3.12 1.14-4.77 1.69-3.12 1-6.43 2-9.93 3q-2.85 10.88-4.77 22c.61-1.23 1.27-2.54 2-3.87a61.59 61.59 0 0 1 5.22-8.13v-.05c.28-.37.56-.72.85-1.07a22.31 22.31 0 0 1 7-6.09 16.34 16.34 0 0 1 4.24-1.34 10.18 10.18 0 0 1 3-.06 5.67 5.67 0 0 1 4.19 2.48 5.79 5.79 0 0 1 .87 2.7c.23 2.31-.65 5.12-2.63 8-2.42 3.24-5.69 5.49-9.79 7.56-.53.28-1.08.54-1.64.8a0 0 0 0 1 0 0c-4.2 2-9.15 3.88-14.51 6.1a2.3 2.3 0 0 1 0 .26 0 0 0 0 1 0 0q-.62 4.2-1.13 8.41c-.1.87-.21 1.76-.3 2.63-.12 1.05-.23 2.1-.34 3.14v.06q-.54 5.3-.91 10.6l.82-1.47c1.21-2.13 2.73-4.66 4.48-7.26 1-1.52 2.1-3.07 3.24-4.58a59.49 59.49 0 0 1 9.19-10 19.34 19.34 0 0 1 3.44-2.29c4.55-2.25 8.15-2.56 10.47-1.62a4.76 4.76 0 0 1 2 1.54c1.85 2.47 1.12 6.79-2.59 11.73a30.46 30.46 0 0 1 -7.54 6.49l-1 .6c-1.33.8-2.75 1.56-4.23 2.3l-1.23.59c-4.81 2.31-10.31 4.43-16.24 7.06l-1.13.51q-.49 8-.62 16c0 2 0 4-.06 6 0-.07 0-.15.08-.23a27.56 27.56 0 0 1 1.32-3.07c.27-.52.54-1 .84-1.56q.27-.49.57-1a58.79 58.79 0 0 1 3.7-5.27c1.28-1.63 2.53-3.15 3.85-4.59a26.63 26.63 0 0 1 7.94-6.39l.17-.07a12.61 12.61 0 0 1 1.31-.51 14.11 14.11 0 0 1 6.59-.91 5.4 5.4 0 0 1 4.24 2.65 6.59 6.59 0 0 1 .29 4.92 17.75 17.75 0 0 1 -3.28 6.07 27.1 27.1 0 0 1 -5.69 5c-.83.55-1.72 1.09-2.65 1.61-1.51.84-3.14 1.64-4.81 2.36-.89.39-1.8.76-2.7 1.12a57.41 57.41 0 0 0 -5.36 2.41 18 18 0 0 0 -6.34 5.31s0 0 0 0v.1c.1 7.52.4 15 .85 22.55a67.92 67.92 0 0 1 2.79-7c3.54-7.64 9.18-15.58 13.65-18.39.23-.13.44-.27.67-.39s.75-.42 1.11-.6c3.14-1.59 5.79-2.06 7.79-1.64 3.23.66 4.73 3.62 3.8 7.77a18.7 18.7 0 0 1 -2.31 5.45 26.68 26.68 0 0 1 -2.82 3.57 45.89 45.89 0 0 1 -9.6 7.44c-2 1.27-4.18 2.52-6.43 3.91a88 88 0 0 0 -8.26 5.56q.45 6.67 1.09 13.33h-6.48q-.54-7.37-.91-14.76c0-.74-.07-1.47-.11-2.21l-.11-2.74c0-.73-.06-1.48-.09-2.23h-.24c-.19 0-.4-.06-.61-.1a59 59 0 0 1 -8.15-1.95 45.36 45.36 0 0 1 -6.52-2.59c-.71-.34-1.4-.7-2-1.09l-.47-.26c-2.72-1.6-4.92-3.46-6-5.29-2.58-4.7-1.67-8.63.8-10.69a7.92 7.92 0 0 1 4.34-1.78 12.46 12.46 0 0 1 6.26 1c3.2 1.56 5.31 4.1 7.23 7.46.25.44.51.9.75 1.36 1.43 2.66 2.8 5.78 4.46 9.1q-.18-6.58-.18-13.19c0-.61 0-1.21 0-1.81 0-1.2 0-2.4 0-3.6q0-3.39.14-6.78c-.4-.08-.85-.19-1.32-.3l-.31-.08a50.66 50.66 0 0 1 -8-2.71 42.09 42.09 0 0 1 -9-5.18c-.63-.49-1.24-1-1.81-1.51a23.7 23.7 0 0 1 -1.8-1.83 12 12 0 0 1 -2-3.06 11.33 11.33 0 0 1 -.88-7 7.07 7.07 0 0 1 .68-1.77 5.86 5.86 0 0 1 2-2.1c2.67-1.69 6.58-1.38 10.46 1a15.67 15.67 0 0 1 3.81 3.72 32.21 32.21 0 0 1 3.43 6.21l.18.39c1 2.16 1.93 4.59 3.08 7.16.49 1.13 1 2.28 1.6 3.46 0-.86.06-1.7.11-2.56.3-7.21.79-14.41 1.52-21.59-.5-.31-1.07-.66-1.76-1-2.17-1.27-5.15-2.85-8.37-4.33l-3.07-1.37c-2.27-1-4.57-1.93-6.68-2.8a34.08 34.08 0 0 1 -7.48-3.92c-.62-.52-1.2-1-1.71-1.56-3-3.05-4.21-6.05-3.4-8.59a5.23 5.23 0 0 1 2.18-2.75 7.07 7.07 0 0 1 1.34-.71 9.17 9.17 0 0 1 1.63-.49 13.65 13.65 0 0 1 3.25-.27 21 21 0 0 1 2.7.28 21.65 21.65 0 0 1 7.85 3.58 31.4 31.4 0 0 1 6.53 6.41 51.07 51.07 0 0 1 7.37 14.21q.55-5.18 1.31-10.34c.31-2.23.66-4.47 1-6.7a90.28 90.28 0 0 1 -9.46-6.9 58.3 58.3 0 0 1 -8.06-8 21.5 21.5 0 0 1 -4.63-9.15 14.37 14.37 0 0 1 .89-8.52 5.73 5.73 0 0 1 4-3.31 7.51 7.51 0 0 1 4.85 1 17.76 17.76 0 0 1 4.76 3.88 21.48 21.48 0 0 1 3.15 5.56 51.34 51.34 0 0 1 2.23 7.33c1 4.34 1.79 9.26 2.83 14.62 1.19-6.79 2.62-13.53 4.34-20.21a9.77 9.77 0 0 0 -.41-1.61 20.18 20.18 0 0 0 -1.59-3.29c-.76-1.28-1.58-2.66-2.42-4.09-1.72-2.91-3.57-5.92-5.21-8.53a58.25 58.25 0 0 1 -3.88-6.55 22.18 22.18 0 0 1 -1.68-5.65 4.86 4.86 0 0 1 .76-3.75 3.87 3.87 0 0 1 3.74-1.11 12.67 12.67 0 0 1 6.19 3.35 20.67 20.67 0 0 1 4.54 6.78 30.39 30.39 0 0 1 2.08 8.08 52.76 52.76 0 0 1 .38 7.18q2.84-9.63 6.4-19a10 10 0 0 0 -.6-1.45 19 19 0 0 0 -1.58-2.46l-2.23-3c-1.59-2.14-3.31-4.33-4.77-6.36a22.31 22.31 0 0 1 -3.19-5.5c-1.23-4-.68-7 1.17-8.38s5-1.06 8.41 2c2.9 2.93 4.4 7 5 11.5a40.53 40.53 0 0 1 .16 7.18v.72q2.63-6.39 5.63-12.61c-.15-.4-.32-.85-.52-1.35-.7-1.8-1.69-4.13-2.85-6.5l-.41-.8c-1.27-2.52-2.71-5-4-7.27l-.18-.31a29.66 29.66 0 0 1 -2.92-6.19c-1.11-4.58-.83-8.28.91-10.43a4 4 0 0 1 3.58-1.46 8.59 8.59 0 0 1 5 2.92 19 19 0 0 1 3.54 6.59 32.25 32.25 0 0 1 1.37 8.32 44.71 44.71 0 0 1 -.11 5 59.15 59.15 0 0 1 -.86 6.24c.93-1.81 1.88-3.6 2.85-5.39q2.77-5.07 5.82-10c-.08-.33-.18-.71-.32-1.13a48.51 48.51 0 0 0 -2.73-5.33c-2.33-4.52-4.18-10.2-3.82-13.44.47-4.11 2.27-6 4.07-6s3.69 1.86 5 5.25a24.28 24.28 0 0 1 .73 9.89c-.15 1.81-.35 3.65-.58 5.82-.07.59-.16 1.2-.28 1.82q3.35-5.28 7-10.4s0 0 0 0a19 19 0 0 0 1.45-3.32c.22-1 1.07-5 1.56-6.94a83.15 83.15 0 0 1 2.62-9.64c1.5-4.49 6.9-19.67 13.76-26.61 6.46-6.43 12.78-9.08 16.93-7.06s4.68 7.75 1.64 15.49c-2.61 5.94-6.94 11.69-14.07 18.64-3 2.94-6.28 5.89-9.94 9.18l-5.42 4.89-1.21 1.1a33.18 33.18 0 0 0 -3.44 3.33z" fill="#582fb3"/><path d="m468.42 312.34h-21.6l-.31-.4c-5.27-8.06.16-15.87 9.65-12.46 3.94 1.52 8.67 7.52 12.26 12.86z" fill="#582fb3"/><path d="m479.12 289.68q.17 11.34-.09 22.66h-6.69c.17-4.49.32-9 .4-13.45-5.54-3.82-10.93-6.36-15.63-9-5.41-3-10-6.07-13.35-10.67-2.1-3.1-3.08-6-3.09-8.26 0-5.46 5.4-7.82 13.9-3.21a18.5 18.5 0 0 1 3.27 2.41c4.07 3.64 8.57 9.76 11.74 15.77a67.35 67.35 0 0 1 3.24 7.07c.07-7.79 0-15.58-.31-23.35a18.2 18.2 0 0 0 -6.84-5.16c-2.83-1.33-5.67-2.16-8.46-3.2q-1.33-.49-2.61-1.05a45 45 0 0 1 -5.29-2.66 28.56 28.56 0 0 1 -6.12-4.8 18.75 18.75 0 0 1 -3.68-6.09 6.82 6.82 0 0 1 0-5.06 5 5 0 0 1 2.61-2.44 7.6 7.6 0 0 1 1.63-.51 15.77 15.77 0 0 1 8.36 1.11c2.65 1 5.67 3.33 8.52 6.14 1.44 1.42 2.79 2.92 4.19 4.53a58 58 0 0 1 4.09 5.23 32.28 32.28 0 0 1 3.11 5.64 1.57 1.57 0 0 1 .09.23c-.41-7.55-1-15.07-1.86-22.57-6.7-2.62-12.89-4.62-18.26-6.86-6-2.5-11-5.29-14.89-9.56-4.09-4.88-5.06-9.28-3.29-11.92s6.3-3.42 12.89-.59c5.2 2.27 12.1 9.62 17.22 16.54 1.71 2.3 3.24 4.55 4.53 6.52.5.77 1 1.49 1.37 2.16-1.05-8.62-2.41-17.19-4.13-25.71-5.07-1.79-9.79-3.35-13.9-5l-1.4-.56c-5.13-2.12-9.2-4.39-12.2-8-3.13-4.16-3.93-8.17-2.37-11a5.51 5.51 0 0 1 3.06-2.46 6.58 6.58 0 0 1 1.12-.31 13.76 13.76 0 0 1 7.58 1 23.11 23.11 0 0 1 7.51 5.89 62.11 62.11 0 0 1 6.79 9.21c.82 1.34 1.58 2.65 2.26 3.89q-2.56-11.31-6.05-22.36c-9.4-2.29-17.59-4.2-24.19-7.74l-.49-.26a31.9 31.9 0 0 1 -5.63-3.94c-6.93-6.58-6-11.9.9-11.26a21.67 21.67 0 0 1 5.81 1.49 13.15 13.15 0 0 1 1.23.56c6.25 3.09 15.44 11.6 21 17.09a244.57 244.57 0 0 0 -9-23.06c-.16-.37-.32-.73-.49-1.1-3.12-.79-6.09-1.33-8.86-1.77-2.42-.39-4.71-.7-6.85-1.05-1.66-.26-3.22-.55-4.72-.9a25.5 25.5 0 0 1 -8.12-3.24c-4-2.79-5.81-6-5.14-8.68s4-4.75 10-4.15h.06a22.51 22.51 0 0 1 8.43 3.38 48.39 48.39 0 0 1 8.57 6.79l.57.57c1.43 1.45 2.69 2.89 3.75 4.2-1-2-2-4-3-6q-4.71-9.1-10.2-17.77c-3.88-.18-7.57-.32-11-.57-2.05-.14-4-.33-5.9-.59l-1-.13c-1.46-.22-2.88-.49-4.23-.82s-2.63-.71-3.76-1.11a29.68 29.68 0 0 1 -3.05-1.24c-.45-.21-.86-.44-1.32-.67l-1.55-.87a23.25 23.25 0 0 1 -3.46-2.67 10.39 10.39 0 0 1 -2.31-3.13 4.69 4.69 0 0 1 .47-5.11 12.23 12.23 0 0 1 3.87-2.86 11.29 11.29 0 0 1 6.37-1.2 15.55 15.55 0 0 1 4.86 1.31 30.52 30.52 0 0 1 4.94 2.81 97.3 97.3 0 0 1 8.91 7.19c1.75 1.56 3.39 3.1 4.81 4.47q-5.09-7.59-10.75-14.77a36.79 36.79 0 0 0 -3.69-3.31l-1.31-1.07-5.83-4.73c-3.93-3.2-7.46-6.07-10.71-8.94-7.69-6.77-12.45-12.45-15.46-18.43-3.53-7.8-3.2-13.77.88-16s10.8.09 17.78 6.37c7.56 6.96 13.92 22.29 15.72 26.84a80.88 80.88 0 0 1 3.21 9.77c.61 2 1.7 6.09 2 7.05a21.15 21.15 0 0 0 1.67 3.34s0 0 0 0q4.05 5.07 7.77 10.34c-.15-.63-.29-1.26-.39-1.86-.35-2.22-.66-4.1-.91-6a25.25 25.25 0 0 1 .24-10.21c1.12-3.55 2.92-5.56 4.81-5.67s3.81 1.76 4.51 6c.53 3.32-1.07 9.26-3.23 14a51.79 51.79 0 0 0 -2.5 5.75 10.11 10.11 0 0 0 -.27 1.18q5.16 7.5 9.72 15.38a50.34 50.34 0 0 1 -1.63-11.47 33.73 33.73 0 0 1 1-8.63 19.77 19.77 0 0 1 3.3-7 8.84 8.84 0 0 1 5.05-3.28 4.11 4.11 0 0 1 3.75 1.32c1.9 2.12 2.39 5.91 1.48 10.68a29.64 29.64 0 0 1 -2.67 6.52c-1.25 2.46-2.68 5.23-3.9 8-.47 1-.91 2.08-1.3 3.09-.67 1.68-1.23 3.25-1.66 4.57-.17.51-.33 1-.46 1.41q3.44 6.22 6.45 12.67c0-.24-.05-.48-.08-.74a43 43 0 0 1 -.22-7.39c.33-4.71 1.68-8.93 4.5-12.09 3.29-3.37 6.6-3.86 8.54-2.54s2.69 4.36 1.63 8.56a21.82 21.82 0 0 1 -3 5.81c-1.39 2.17-3.05 4.53-4.56 6.8-.75 1.13-1.48 2.21-2.15 3.23a19.36 19.36 0 0 0 -1.48 2.62 8.71 8.71 0 0 0 -.55 1.52c2.79 6.29 5.3 12.69 7.58 19.19a57.06 57.06 0 0 1 0-7.4 31.82 31.82 0 0 1 1.72-8.42 21.14 21.14 0 0 1 4.32-7.21 12.94 12.94 0 0 1 6.19-3.78 4 4 0 0 1 3.9.94 5 5 0 0 1 1 3.82 22.6 22.6 0 0 1 -1.43 5.9 62.18 62.18 0 0 1 -3.64 7c-1.55 2.77-3.31 6-4.91 9l-2.33 4.43a19.6 19.6 0 0 0 -1.46 3.47 9.61 9.61 0 0 0 -.34 1.68c2.12 6.77 4 13.64 5.53 20.56.79-5.56 1.3-10.67 2.14-15.18a53.48 53.48 0 0 1 1.91-7.66 22.39 22.39 0 0 1 2.94-5.89 18.58 18.58 0 0 1 4.7-4.24 7.77 7.77 0 0 1 4.94-1.27 5.11 5.11 0 0 1 2.18.82 6.66 6.66 0 0 1 2.15 2.37 14.75 14.75 0 0 1 1.38 8.72 15.87 15.87 0 0 1 -1.28 4.4 27.52 27.52 0 0 1 -3 5.24 60.26 60.26 0 0 1 -7.88 8.7 94.8 94.8 0 0 1 -9.36 7.6q1.9 8.67 3.3 17.4a53.25 53.25 0 0 1 6.83-15 32.65 32.65 0 0 1 6.41-7 22.67 22.67 0 0 1 6.1-3.49 18.8 18.8 0 0 1 1.79-.6 16 16 0 0 1 6.47-.27 9.33 9.33 0 0 1 1.36.37 5.91 5.91 0 0 1 3.8 3.37c1.13 3-.5 6.81-4.72 10.72a22.48 22.48 0 0 1 -4.06 2.68c-.95.52-2 1-3.08 1.56l-.35.17c-3.09 1.49-6.57 3.1-9.81 4.81s-6.22 3.48-8.39 4.89c-.69.44-1.3.84-1.8 1.2q1.88 12.32 2.94 24.75c1.83-4.24 3.1-8.21 4.42-11.58 1.75-4.53 3.57-8.07 6.93-10.61a13.74 13.74 0 0 1 5.83-2.4c.26 0 .52-.06.79-.08a7.55 7.55 0 0 1 4.09.9 6.51 6.51 0 0 1 3.1 4.48 12.18 12.18 0 0 1 -.72 6.58c-.8 2.19-2.83 4.64-5.45 6.88a36.89 36.89 0 0 1 -4.26 3.14c-.83.54-1.66 1-2.52 1.51s-1.47.8-2.2 1.16c-.2.09-.39.2-.58.28a53 53 0 0 1 -7.77 3c-.49.14-.94.29-1.35.39.18 2.33.35 4.64.49 7 .35 5.43.59 10.86.75 16.29 0 .95.06 1.9.08 2.85 1.54-3.51 2.78-6.78 4.1-9.59a24.26 24.26 0 0 1 4.71-7.24 14.33 14.33 0 0 1 3-2.26 11.54 11.54 0 0 1 9.13-.79 7.19 7.19 0 0 1 1.82 1 7.09 7.09 0 0 1 2.71 6 12.16 12.16 0 0 1 -1.31 4.95c-1 1.93-3.13 4-5.85 5.75a39.11 39.11 0 0 1 -4.68 2.64 47 47 0 0 1 -4.42 1.89 62.2 62.2 0 0 1 -8.25 2.48z" fill="#582fb3"/><path d="m507.71 306.12a14.78 14.78 0 0 1 -2.67 1.25c-1.49.57-3.22 1.08-5.11 1.62-3.15.93-6.7 1.95-10 3.21l-.36.14h-10c.71-1.46 1.35-2.91 2.11-4.36a40.19 40.19 0 0 1 5.92-8.51 28.67 28.67 0 0 1 8.64-6.55 20.79 20.79 0 0 1 7.5-2.06 14 14 0 0 1 7.71 1.72 5.9 5.9 0 0 1 2.92 4.17c.37 3.18-2.02 6.46-6.66 9.37z" fill="#582fb3"/><path d="m261.31 294.57c3.84 5.88 7.59 11.76 11.24 17.69h-23.36c-1.41-1.77-2.74-3.54-4-5.29a124.65 124.65 0 0 1 -7.71-12.16c-.59-1.08-1.16-2.16-1.7-3.24-1.4-2.77-2.65-5.53-3.74-8.26a86.35 86.35 0 0 1 -5.17-18.45q-.54-3.3-.8-6.61c-.19-2.29-.28-4.58-.28-6.89 0-.72 0-1.44 0-2.17.71-9 1.13-8.72 4.15-3.52.43.75.92 1.61 1.47 2.55a0 0 0 0 1 0 0q4.18 6.84 8.38 13.4 2.41 3.78 4.82 7.49l3.54 5.43q2.48 3.8 4.94 7.53 4.18 6.29 8.22 12.5z" fill="#ff848c"/><path d="m336.08 298.6a172 172 0 0 1 -12 13.29l-.36.37h-47.81c-.1-1-.22-2-.35-2.93-.47-3.41-.83-6.7-1.37-9.89s-.88-6-1.4-8.87l-.06-.37c-.26-1.55-.53-3.08-.79-4.58-.2-1.16-.4-2.3-.61-3.42-1.24-6.94-2.5-13.37-3.67-19.44-.3-1.54-.59-3.05-.87-4.55-.23-1.18-.46-2.34-.68-3.49q-.87-4.47-1.63-8.74c-1.48-8.23-2.71-16-3.68-23.75-.68-5.47-1.24-10.95-1.68-16.6-.68-11.74-.11-10 5.63-1.22q3.72 5.84 7 12c.17.31.34.63.5 1a173.11 173.11 0 0 1 10.62 24.95c.87 2.57 1.67 5.17 2.41 7.78a161.13 161.13 0 0 1 4.18 19c.31 2 .59 3.94.82 5.91q.47 3.81.73 7.64c.12 1.6.21 3.21.27 4.81a148.23 148.23 0 0 1 -.62 20.68l1.34-4.18a148.43 148.43 0 0 0 4.56-17.51c.27-1.34.51-2.66.73-4 0-.2.07-.39.1-.59.74-4.39 1.27-8.64 1.62-12.75q.31-3.63.46-7.13c.32-6.29.14-12.16.06-18.28 0-2.51-.06-5 0-7.54s.1-4.83.27-7.26c.08-1.23.19-2.46.32-3.7a66.64 66.64 0 0 1 4.27-18.24 93.92 93.92 0 0 1 7.16-13.59c2.95-4.78 5.83-9.12 8-13.89a43.45 43.45 0 0 0 2.54-6.59c.43-1.45.79-2.1 1.14-1.92.65.32 1.9 4 1.7 10.65-.25 7.3-2.27 14.38-3.88 21-.73 3-1.41 5.87-1.86 8.65-.06.3-.11.59-.15.89a71.12 71.12 0 0 0 -.69 9.14c-.09 6.2.47 12.62 1 19.4.24 3.39.46 6.88.55 10.47q0 1 0 1.92c0 3 0 6-.22 9a115.72 115.72 0 0 1 -2.16 16.11q-.37 1.88-.84 3.72a110.56 110.56 0 0 1 -7.3 21l-.42.9c-.5 1.06-1 2.1-1.54 3.1q1.73-2.57 3.41-5c3.15-4.55 6.14-8.77 8.77-12.81 1-1.47 1.91-2.91 2.75-4.35.43-.7.87-1.41 1.29-2.11l1.16-2.09c.33-.56.63-1.11.92-1.66.43-.82.82-1.63 1.24-2.44.15-.29.3-.59.44-.89q.27-.56.51-1.11c.31-.67.61-1.34.9-2 2.32-5.41 4.14-11 6-16.54s3.67-11.16 5.88-16.58a128.87 128.87 0 0 1 7.41-15.38 114.55 114.55 0 0 1 19.6-25.24 62.57 62.57 0 0 1 6.19-5.14c1-.68 1.56-.82 1.69-.49.23.54-.55 2.31-1.84 5.3-.55 1.25-1.18 2.71-1.87 4.39a328.06 328.06 0 0 0 -12.6 37.69c-1.7 6.27-3.11 12.58-4.83 19.2q-.76 2.89-1.63 5.85a116 116 0 0 1 -5.18 14.44q-1.15 2.52-2.47 5c-.91 1.63-1.86 3.23-2.82 4.83s-2 3.06-3 4.54-2.17 2.85-3.26 4.23z" fill="#ff848c"/><path d="m398.71 267.59c-.09.54-1.3 1.2-3.26 2.38-.93.56-2 1.24-3.27 2.08-.54.37-1.07.74-1.6 1.13-.36.25-.72.51-1.07.78-1.77 1.31-3.47 2.69-5.1 4.12a83.6 83.6 0 0 0 -12.78 14s0 0 0 0c-.76 1.06-1.5 2.14-2.24 3.24-1.87 2.8-3.71 5.73-5.69 8.76-.71 1.08-1.43 2.17-2.17 3.26-1.11 1.62-2.26 3.26-3.5 4.89h-27.47c1.85-1.66 3.55-3.35 5.11-5.05 1.06-1.15 2.06-2.29 3-3.44 2.8-3.38 5.42-7 8.19-10.61 1.87-2.43 3.81-4.87 5.89-7.21q1.49-1.69 3.08-3.31a56.88 56.88 0 0 1 4.36-4 50.4 50.4 0 0 1 6.46-4.66c1.16-.72 2.33-1.38 3.52-2a50.54 50.54 0 0 1 7-3c1.38-.48 2.78-.89 4.19-1.24s2.81-.64 4.23-.86c1.15-.19 2.3-.33 3.45-.43h.38c.54-.05 1.09-.08 1.63-.11a32.93 32.93 0 0 1 6.25.42c1.04.27 1.47.53 1.41.86z" fill="#ff848c"/><path d="m-34.18 297.14c4.37 5 8.61 10 12.74 15.12h-23a102.82 102.82 0 0 1 -13.56-14.89c-8.51-11.73-12.12-22.86-11.78-34.46.78-7.77 1.22-6.4 5.62-.74 10.06 12.39 20.29 23.76 29.98 34.97z" fill="#d8dfff"/><path d="m79.26 222c-.65 1.25-1.79 3.13-3.14 5.63-.18.34-.36.68-.53 1a205.67 205.67 0 0 0 -9.14 19.94q-1.5 3.78-2.82 7.56c-.92 2.6-1.76 5.21-2.61 7.87-.24.72-.47 1.45-.71 2.18-.47 1.47-1 2.95-1.47 4.46s-1 2.89-1.59 4.36a71.25 71.25 0 0 1 -5.16 10.92q-1.14 1.9-2.45 3.81c-.78 1.06-1.58 2.1-2.4 3.13-.13.18-.27.35-.41.53-1 1.15-2 2.31-3 3.43s-2.15 2.18-3.24 3.18a160.65 160.65 0 0 1 -13.48 11.3l-1.26 1h-45.11c-.2-1.36-.4-2.69-.64-4-.48-2.57-.84-5.06-1.39-7.46s-.94-4.73-1.49-7c-2-9-4.17-16.91-6-24.17-3.84-14.5-6.41-26.47-7.82-39.71-.71-8.88-.14-7.59 5.62-.94 12.43 14.67 21.21 31.52 24.88 48.82a90.9 90.9 0 0 1 2 16.89 84.12 84.12 0 0 1 -.29 9c-.1 1.21-.23 2.42-.39 3.62l1.28-3v-.1a88.91 88.91 0 0 0 3.3-8.95c.82-2.64 1.49-5.21 2-7.74a92.49 92.49 0 0 0 2-15c.3-4.75.1-9.19 0-13.82a86.37 86.37 0 0 1 .52-14 42.52 42.52 0 0 1 2.91-11c.41-1 .86-1.9 1.36-2.83 4.68-8.6 11.12-14.14 15.07-20.8a26.46 26.46 0 0 0 2.34-4.34c.1-.24.19-.47.28-.67.42-1.1.78-1.59 1.13-1.46s1.07 1.32 1.45 3.43a21.65 21.65 0 0 1 .28 4.62c-.23 5.51-2.23 10.87-3.82 15.84a62.79 62.79 0 0 0 -2 7.21 39.94 39.94 0 0 0 -.67 6.91v1.91c.08 4.09.58 8.33 1 12.75.25 2.56.48 5.2.59 7.91a73.64 73.64 0 0 1 -.16 8.26 68.79 68.79 0 0 1 -6.21 23.38 70 70 0 0 1 -4.41 8.14c-.5.81-1 1.59-1.53 2.35 3.4-3.84 6.71-7.36 9.68-10.69.85-.94 1.67-1.87 2.45-2.79 1-1.11 1.9-2.2 2.74-3.29l1.28-1.6 1.16-1.58c.81-1 1.45-2.08 2.14-3.1.34-.5.67-1 1-1.52s.61-1 .89-1.53a137.07 137.07 0 0 0 6-12.51c1.78-4.15 3.6-8.34 5.75-12.4a1 1 0 0 0 .08-.14 89.15 89.15 0 0 1 18.3-23.62q3.21-3 6.75-5.68c.59-.46 1.19-.91 1.79-1.35a45.69 45.69 0 0 1 6.9-4.24c.55-.21.86-.22 1 0s-.11.77-.58 1.69z" fill="#d8dfff"/><path d="m103.14 276.46c-.1.46-1.61 1-4 2.15-.76.36-1.6.76-2.52 1.24l-.2.1c-.76.41-1.51.81-2.25 1.23a79.9 79.9 0 0 0 -9 5.82c-.75.56-1.49 1.13-2.2 1.71a70.34 70.34 0 0 0 -6.84 6.29c-.41.44-.82.88-1.22 1.33-2.22 2.44-4.36 5.06-6.69 7.77a99.67 99.67 0 0 1 -7.66 8.12h-28.37l1.3-.82a71.5 71.5 0 0 0 9.73-7.51c2.79-2.56 5.4-5.3 8.16-8 1.46-1.45 3-2.9 4.56-4.31 1.4-1.26 2.85-2.48 4.38-3.66 1.18-.9 2.41-1.78 3.68-2.61a55.63 55.63 0 0 1 7.12-4 60.4 60.4 0 0 1 6.32-2.54 61.32 61.32 0 0 1 7.63-2l.32-.07a64.73 64.73 0 0 1 10.09-1.18q1.23 0 2.25 0c3.94.11 5.52.48 5.41.94z" fill="#d8dfff"/><path d="m387.72 310.59 1.44 1.67h-24.16l-1.09-1.45c-.84-1.15-1.63-2.3-2.37-3.44a62.32 62.32 0 0 1 -6.39-12.56 49.09 49.09 0 0 1 -3-18.46c.78-7.76 1.21-6.39 5.62-.74.82 1 1.65 2 2.48 3q2.57 3.12 5.14 6.15l.14.17q3.08 3.63 6.13 7.16l8.05 9.24q4.06 4.65 8 9.22z" fill="#9daefe"/><path d="m415.77 291.26a88.51 88.51 0 0 1 2 21h-17.57c-.35-1.7-.69-3.37-1.09-5-.1-.46-.21-.92-.31-1.37-.92-4-1.86-7.83-2.78-11.45s-1.86-7.19-2.73-10.55c-.06-.26-.13-.53-.2-.79-.47-1.79-.92-3.53-1.36-5.25s-.78-3.14-1.15-4.67-.78-3.31-1.15-4.93l-.39-1.78c-1.08-5-2-9.88-2.71-14.81-.17-1.1-.32-2.2-.46-3.31q-.33-2.45-.6-5c-.06-.69-.1-1.32-.14-1.9-.29-4.34 0-5.22 1.66-3.65.73.69 1.72 1.85 3 3.39.33.39.68.8 1.06 1.23.75.88 1.48 1.77 2.2 2.67q3.61 4.5 6.76 9.24c1.12 1.68 2.19 3.37 3.2 5.09a111.15 111.15 0 0 1 6.71 13.12 99.21 99.21 0 0 1 6.05 18.72z" fill="#9daefe"/><path d="m443.82 298.2a71 71 0 0 1 -5.49 14.06h-17.83a88.62 88.62 0 0 0 3.23-11.26 93.39 93.39 0 0 0 2-15c.3-4.75.11-9.19 0-13.82a87.42 87.42 0 0 1 .53-14 40.47 40.47 0 0 1 4.27-13.81c4.67-8.59 11.12-14.13 15.07-20.79.3-.47.57-.92.81-1.34a30.08 30.08 0 0 0 1.72-3.64c.42-1.09.78-1.59 1.13-1.46.65.25 1.91 3 1.73 8a35.49 35.49 0 0 1 -1.29 7.73c-.75 2.79-1.7 5.51-2.53 8.12a62.35 62.35 0 0 0 -2 7.21 40.75 40.75 0 0 0 -.66 6.91 128.77 128.77 0 0 0 1 14.65c.25 2.57.48 5.2.58 7.91 0 .71 0 1.43.05 2.15 0 2-.05 4.09-.21 6.11a68.51 68.51 0 0 1 -2.11 12.27z" fill="#9daefe"/><path d="m471.54 303.16c-.91 1.24-1.86 2.45-2.81 3.66s-2 2.31-3 3.44l-2 2h-23.05c1.87-2.05 3.64-4 5.28-5.93.67-.79 1.35-1.57 2-2.34.26-.31.52-.63.76-.94l1.28-1.6c.39-.53.78-1.06 1.15-1.58.82-1.05 1.46-2.09 2.15-3.11.34-.5.67-1 1-1.52s.6-1 .89-1.52c.9-1.6 1.72-3.22 2.5-4.85 1.22-2.54 2.33-5.11 3.44-7.67 1.81-4.2 3.64-8.43 5.84-12.53.25-.47.51-.93.77-1.4a88.3 88.3 0 0 1 13.07-17.77 98.09 98.09 0 0 1 13.03-11.5c5.19-3.58 7.55-4.83 7.86-4.28s-1.37 3-3.69 7.34c-3.18 6-6 12-8.48 18q-2.16 5.24-4 10.48c-1.53 4.32-2.82 8.66-4.33 13.18l-.45 1.34a86.12 86.12 0 0 1 -6.17 14.26l-.58 1q-1.15 1.95-2.46 3.84z" fill="#9daefe"/><path d="m525 289.91c0 .26-.55.55-1.4 1-1.15.54-2.93 1.29-5.11 2.42a84.08 84.08 0 0 0 -7.87 4.65q-2.91 1.92-5.49 4c-1.4 1.12-2.74 2.27-4 3.44-1.09 1-2.14 2.05-3.13 3.09-1.15 1.22-2.27 2.48-3.38 3.78h-24.25l2.91-2.92a94.08 94.08 0 0 1 8.94-8l.34-.26a56.44 56.44 0 0 1 10.44-6.32l1.38-.62a62.26 62.26 0 0 1 13.2-4.09 65.68 65.68 0 0 1 9.78-1.12h1.1c4.8.04 6.7.44 6.54.95z" fill="#9daefe"/><path d="m613.59 298.93c3 4.55 6.1 9 9.09 13.33h-14.61a53.72 53.72 0 0 1 -3.8-11.23 49.42 49.42 0 0 1 -1.12-11.87c.5-6.37.78-5.25 3.62-.61 2.23 3.55 4.54 7 6.82 10.38z" fill="#9daefe"/><path d="m644.18 301.39a95 95 0 0 1 1.18 10.87h-12.36c-.18-1-.37-2-.55-3-1-5.29-2-10.09-2.92-14.6-.1-.46-.19-.92-.29-1.37a256.18 256.18 0 0 1 -4.75-31.21c-.46-7.28-.09-6.22 3.62-.77a105.38 105.38 0 0 1 12.41 25.46c.73 2.17 1.37 4.36 1.94 6.57q1.05 4.01 1.72 8.05z" fill="#9daefe"/><path d="m663.15 266.05a41.14 41.14 0 0 0 -.43 5.67c-.05 3.84.32 7.82.65 12 .16 2.1.31 4.26.37 6.49s0 4.52-.1 6.77a69.26 69.26 0 0 1 -2.7 15.25h-12.18q.3-1.47.54-2.91a95 95 0 0 0 1.31-12.32c.19-3.9.07-7.53 0-11.33a90 90 0 0 1 .34-11.47 40 40 0 0 1 2.75-11.33c2.48-5.81 5.74-9.92 8.23-14.24.53-.93 1-1.86 1.48-2.82a25.19 25.19 0 0 0 1.63-4.09c.27-.9.5-1.31.73-1.2.42.21 1.23 2.48 1.12 6.61a49.55 49.55 0 0 1 -1.84 10.55c-.21.83-.43 1.65-.63 2.45-.51 2.05-.99 4.03-1.27 5.92z" fill="#9daefe"/><path d="m686.05 295.5a77.59 77.59 0 0 1 -4.36 12.5c-.48 1.05-1 2.09-1.57 3.13-.21.37-.43.73-.66 1.1h-14.82c.26-.4.52-.8.76-1.2l.82-1.31.75-1.3c.52-.85.93-1.71 1.38-2.54.22-.41.43-.83.62-1.25s.39-.82.57-1.25c1.49-3.36 2.65-6.82 3.83-10.27s2.35-6.92 3.76-10.28a79.32 79.32 0 0 1 4.77-9.49 71.14 71.14 0 0 1 12.59-15.68c3.35-2.94 4.87-4 5.07-3.51s-.89 2.49-2.38 6a197.53 197.53 0 0 0 -8 23.4c-.06.23-.13.46-.18.69-.84 3.06-1.58 6.15-2.41 9.34-.21.66-.37 1.29-.54 1.92z" fill="#9daefe"/><path d="m714.59 300.28c-.08.5-1.74 1.16-4.19 2.78a52.35 52.35 0 0 0 -10.56 9.2h-15.29c.78-.88 1.6-1.74 2.45-2.57a36.45 36.45 0 0 1 7-5.4 33.74 33.74 0 0 1 15.7-4.78c3.57-.01 4.98.32 4.89.77z" fill="#9daefe"/><path d="m1275.06 304.35c-2.66 2.71-5.29 5.31-7.84 7.91h-57q-1.26-1.33-2.43-2.7c-1.15-1.29-2.26-2.59-3.33-3.87a129.56 129.56 0 0 1 -13.46-19.55 98.12 98.12 0 0 1 -8.46-20.2 82.55 82.55 0 0 1 -3.18-24.84c.77-10.15 1.2-8.36 5.55-1q5.8 9.45 11.65 18.37c6.08 9.36 12.13 18.39 18 27.34 4 6 7.82 12.05 11.58 18.14q1.34 2.13 2.62 4.27c.35.56.69 1.12 1 1.68q-.15-1.2-.27-2.37c-.17-1.44-.32-2.85-.48-4.24-.11-1-.23-2-.37-2.94-.47-3.36-.84-6.62-1.38-9.76s-.93-6.18-1.47-9.12c-2-11.81-4.11-22.11-6-31.59-.44-2.19-.86-4.33-1.26-6.44-2-10.51-3.62-20.11-4.84-29.74-.65-5.18-1.19-10.38-1.62-15.73-.7-11.6-.14-9.91 5.55-1.23q3.43 5.37 6.49 11a173.78 173.78 0 0 1 9.06 19.64 164 164 0 0 1 9 33.16 149.14 149.14 0 0 1 1.29 38.56c.45-1.38.89-2.74 1.3-4.07a146.61 146.61 0 0 0 5.27-21.82 157.87 157.87 0 0 0 2-19.64c.29-6.22.1-12 0-18.07a147.32 147.32 0 0 1 .52-18.27 65.83 65.83 0 0 1 4.21-18c4.62-11.23 11-18.48 14.89-27.18a42.49 42.49 0 0 0 2.49-6.52c.42-1.43.77-2.08 1.12-1.9.65.32 1.89 4 1.71 10.52-.22 7.2-2.2 14.2-3.78 20.71-.79 3.25-1.51 6.41-2 9.42a69.42 69.42 0 0 0 -.66 9c-.08 6.12.5 12.46 1 19.16.2 2.68.38 5.42.49 8.23 0 .7.06 1.4.08 2.11.11 3.54.06 7.2-.15 10.8-.12 1.85-.27 3.69-.48 5.52a112.22 112.22 0 0 1 -10 35.71c-.49 1.05-1 2.08-1.51 3.07 4.31-6.45 8.48-12.2 12-17.63.94-1.45 1.88-2.87 2.71-4.29l1.26-2.09 1.15-2.07c.34-.58.65-1.17.95-1.75.4-.78.77-1.55 1.16-2.3s.67-1.32 1-2 .6-1.32.88-2c1.84-4.31 3.35-8.72 4.82-13.16l1-3.19c1.79-5.5 3.6-11 5.77-16.39.1-.24.19-.47.3-.71a126.57 126.57 0 0 1 7-14.41q2.71-4.74 5.77-9.09a112.19 112.19 0 0 1 13.62-15.8 62 62 0 0 1 6-5.06c1-.71 1.58-.86 1.72-.53.23.53-.53 2.28-1.8 5.23-.53 1.24-1.16 2.69-1.84 4.36a320.11 320.11 0 0 0 -11.69 35c-.21.73-.4 1.46-.6 2.19-1.67 6.19-3.05 12.42-4.73 19-1.07 4.12-2.27 8.33-3.75 12.57-.81 2.31-1.71 4.63-2.72 6.94-.07.15-.13.31-.2.46-.75 1.66-1.56 3.33-2.42 5s-1.83 3.2-2.77 4.78-2 3-3 4.49-2.09 2.84-3.17 4.21l-.42.52a178.22 178.22 0 0 1 -12.9 14.19z" fill="#ff848c"/><path d="m1350.16 258.81a1.18 1.18 0 0 1 -.51.64c-.81.66-2.54 1.56-4.84 3.07q-.52.33-1.08.72a82.46 82.46 0 0 0 -12.94 11c-.49.51-1 1-1.43 1.55a81 81 0 0 0 -5.88 7.27c-1.72 2.42-3.36 5-5 7.6-.9 1.41-1.81 2.84-2.76 4.3a110.57 110.57 0 0 1 -9.39 12.77c-1 1.16-2.09 2.29-3.19 3.37-.38.38-.77.76-1.17 1.13h-31.45a76.9 76.9 0 0 0 10.89-7.73 75.11 75.11 0 0 0 9.31-9.46l.3-.35c2.76-3.35 5.34-6.93 8.07-10.51 1.59-2.09 3.24-4.18 5-6.21q1.76-2.07 3.68-4l.16-.17a56.11 56.11 0 0 1 10.66-8.59q2.15-1.32 4.35-2.42t4.64-2a49.15 49.15 0 0 1 15.08-3.17h1.55c3 0 4.79.31 5.56.67.29.14.43.32.39.52z" fill="#ff848c"/><path d="m1407.78 231.23c-.25 3.06-.6 6.11-1.07 9.16a134.63 134.63 0 0 1 -4.3 18.83q-1.79 5.88-4.16 11.85c0 .14-.11.28-.17.41-.13.35-.27.69-.41 1q-1.93 4.67-4.25 9.4-1.71 3.52-3.68 7.08c-.46.85-.93 1.69-1.41 2.53q-2.17 3.8-4.62 7.62c-.39.6-.78 1.2-1.18 1.8l-.12.19c-.88 1.39-1.82 2.75-2.79 4.12-.74 1.06-1.51 2.12-2.29 3.19-.91 1.29-1.87 2.55-2.86 3.81h-70.16c-.41-.36-.82-.74-1.22-1.13a68.64 68.64 0 0 1 -10-12.19q-1.24-1.92-2.39-3.87c-1-1.64-1.86-3.29-2.71-4.93-1.21-2.29-2.34-4.57-3.42-6.81-2.24-4.65-4.28-9.1-6.42-13.25-.22-.43-.44-.86-.67-1.29a100.14 100.14 0 0 0 -5.86-9.66 86.72 86.72 0 0 0 -12.51-14.6c-3.4-3.15-5.72-4.45-5.84-5.41s1.85-1.52 6.87-1.51a34.78 34.78 0 0 1 12 3.09 42.66 42.66 0 0 1 9.8 6.23 44.18 44.18 0 0 1 4 3.7 63.58 63.58 0 0 1 5.69 6.8 131.58 131.58 0 0 1 8 12.73c.1.18.2.36.31.54 1.38 2.45 2.73 4.91 4.09 7.3q1.44 2.55 2.92 5a86.93 86.93 0 0 0 8.72 12 73.8 73.8 0 0 0 11.81 10.92c1.29.9 2.62 1.81 4 2.65-3.22-4.55-6.64-9-10.09-13.79q-1.47-2-3-4.08c-3.08-4.32-6.17-8.9-9.13-13.93-.54-.91-1.07-1.85-1.59-2.8l-1.28-2.33c-.93-1.8-1.83-3.64-2.72-5.49l-1-2.38c-.5-1.15-1-2.3-1.47-3.47-.78-2-1.52-4.05-2.19-6.08a193.07 193.07 0 0 1 -6-23.87c0-.18-.08-.36-.11-.54-1.53-8-2.78-15.62-4.29-23.19-3-15.2-6.69-30.43-11.19-45.54-2.07-6.86-3.6-10.79-3.3-11.72s2.39 1.12 7 6.83a140.5 140.5 0 0 1 17.51 30.53 183.86 183.86 0 0 1 6.63 18.48c.16.55.33 1.1.48 1.65 1.76 6 3.27 12.22 4.75 18.38l1.17 4.81c1.27 5.11 2.58 10.2 4.16 15.17.25.84.52 1.64.8 2.45s.55 1.62.86 2.42c.61 1.63 1.19 3.29 1.92 5 .34.83.68 1.68 1 2.52l1.15 2.56c.38.89.79 1.78 1.22 2.67s.81 1.71 1.23 2.58c1.62 3.36 3.39 6.83 5.25 10.46s3.7 7.2 5.63 11.08c-.47-1.22-.92-2.47-1.37-3.76q-1.53-4.35-2.83-8.87c-1.26-4.4-2.36-8.92-3.27-13.52a185.18 185.18 0 0 1 -3.42-28c-.19-4.38-.23-8.86-.14-13.19s.3-8.54.52-12.63c.32-5.64.66-11.07.83-16.34 0-1.58.08-3.15.08-4.7 0-.8 0-1.59 0-2.38 0-3.74-.21-7.38-.6-11s-1-7.54-1.77-11.52c-1.43-7.94-3.22-16.5-3.43-25.3-.16-8 1-12.47 1.55-12.86.32-.21.64.58 1 2.33a64.39 64.39 0 0 0 2.26 8c3.54 10.64 9.32 19.49 13.51 33.22a103.92 103.92 0 0 1 3.82 22c.59 7.51.57 15 .48 22.33s-.27 14.48 0 22.07.77 15.57 1.81 24c0 .28.07.56.11.84q.3 2.44.66 4.92c1 6.7 2.26 13.62 4 20.91.38 1.62.78 3.29 1.18 5a240.79 240.79 0 0 1 -.35-29l.06-1.18c.29-5.67.78-11.35 1.46-17a253.61 253.61 0 0 1 22.3-78c5.16-10.62 5.67-12.68 5 1.49-1.27 21.16-3.57 40.29-7 63.45q-.45 3.1-.91 6.3-.42 2.91-.86 5.92c-.75 5.18-1.53 10.59-2.3 16.28-.44 3.27-.89 6.63-1.33 10.1-.18 1.32-.35 2.65-.5 4-.29 2.33-.55 4.72-.83 7.15-.34 2.64-.6 5.35-.87 8.13-.09 1-.19 1.93-.29 2.91l-.09.89c-.39 3.77-.66 7.66-1 11.67q1.51-3.36 3-6.69 2.78-6.06 5.64-12 1.69-3.6 3.44-7.19c.56-1.17 1.13-2.34 1.7-3.51l3-6.18q1.45-3 2.94-6l4-8.26q2.19-4.47 4.4-9 2.1-4.33 4.21-8.75 4.14-8.64 8.27-17.67c1-2.29 1.78-4.15 2.38-5.43 1.08-2.26 1.63-2.76 2-.79a70.84 70.84 0 0 1 .64 7.41v.11a134.65 134.65 0 0 1 -.19 13.61z" fill="#e9596b"/><path d="m1428.13 302.79q4.61 4.72 9 9.47h-23.93a94.12 94.12 0 0 1 -7.39-7.49c-.52-.59-1-1.18-1.51-1.77a63 63 0 0 1 -6.49-9.54 45.33 45.33 0 0 1 -3-6.7 37.8 37.8 0 0 1 -1.39-4.84c-.23-1-.42-2.08-.56-3.12a39 39 0 0 1 -.33-6.57c.77-6.86 1.2-5.74 5.47-.84l.08.09.07.08q4.29 4.72 8.63 9.25c7.22 7.59 14.43 14.82 21.35 21.98z" fill="#9daefe"/><path d="m1502.91 305.37c-.8.68-1.6 1.35-2.42 2-2.13 1.72-4.31 3.34-6.49 4.9h-51.67c-.44-2.13-.8-4.2-1.31-6.2s-.94-4.22-1.49-6.23c-2-8.07-4.16-15.1-6-21.58-3.83-12.95-6.41-23.64-7.82-35.47-.71-7.92-.13-6.77 5.63-.84 12.43 13.1 21.21 28.16 24.87 43.6a69.45 69.45 0 0 1 1.31 26.34c.44-.94.89-1.87 1.31-2.78a75.72 75.72 0 0 0 7.36-28.33c.3-4.24.11-8.2 0-12.34a69.86 69.86 0 0 1 .53-12.48 33.32 33.32 0 0 1 4.27-12.32c4.67-7.68 11.12-12.63 15.07-18.58a24.07 24.07 0 0 0 2.53-4.45c.42-1 .78-1.42 1.13-1.3.65.22 1.91 2.7 1.73 7.19-.23 4.92-2.23 9.7-3.82 14.15a50.93 50.93 0 0 0 -2 6.43 32.81 32.81 0 0 0 -.66 6.17 102.82 102.82 0 0 0 1 13.09c.25 2.29.48 4.64.58 7.07.08 1.8.08 3.64 0 5.47 0 .64-.08 1.27-.14 1.9a55.27 55.27 0 0 1 -1.52 8.72 59.84 59.84 0 0 1 -9.09 19.45q-.75 1.08-1.53 2.1c4.36-4.4 8.58-8.33 12.13-12 .95-1 1.9-2 2.74-2.94l1.28-1.42c.39-.48.78-.95 1.15-1.42.82-.93 1.46-1.86 2.15-2.77.34-.45.67-.9 1-1.35s.6-.9.89-1.37c1-1.51 1.82-3 2.64-4.58 1.16-2.18 2.23-4.39 3.3-6.59 1.81-3.76 3.64-7.54 5.84-11.2a79.81 79.81 0 0 1 7.4-10.33c.82-1 1.67-1.93 2.54-2.86a92.83 92.83 0 0 1 17-14.2c5.19-3.2 7.55-4.32 7.86-3.82s-1.37 2.71-3.69 6.55a176 176 0 0 0 -11 21.84c-.51 1.21-1 2.41-1.48 3.62-1.68 4.23-3.07 8.49-4.78 13-1 2.52-2 5.09-3.33 7.68a57.9 57.9 0 0 1 -3.42 6c-.76 1.13-1.58 2.27-2.45 3.4s-1.86 2.18-2.81 3.26-2 2.07-3 3.07-2.23 1.82-3.32 2.75z" fill="#9daefe"/><path d="m1565.45 284.33c-.09.39-1.48.88-3.7 1.8-.83.34-1.78.74-2.81 1.22l-.61.29-.94.45a83.39 83.39 0 0 0 -10.6 6.15 69.52 69.52 0 0 0 -8.33 6.68c-2.67 2.52-5.16 5.26-7.91 8.12-1 1.06-2.08 2.14-3.2 3.22h-26.35c1.13-.79 2.2-1.59 3.21-2.38.44-.34.86-.68 1.28-1 2.8-2.29 5.41-4.73 8.17-7.18a91.29 91.29 0 0 1 8.94-7.12 59 59 0 0 1 10.79-5.87c1.26-.52 2.53-1 3.82-1.45a65.75 65.75 0 0 1 10.39-2.68c2-.37 4.09-.64 6.15-.82 1.33-.12 2.66-.21 4-.25s2.53 0 3.51.06c3.06.09 4.3.43 4.19.76z" fill="#9daefe"/><path d="m1830.87 304.06c-2.77 2.81-5.51 5.49-8.1 8.2h-38.62c0 .22-.09.44-.13.67l-.31-.31-.35-.36c-1.07-1.09-2.11-2.16-3.09-3.26l-.85-1a103.1 103.1 0 0 1 -11.55-15.64l-.16-.26c-.4-.68-.79-1.35-1.16-2a78.3 78.3 0 0 1 -5-10.82c-.74-2-1.36-4-1.89-6a61 61 0 0 1 -1.48-7.45 62.53 62.53 0 0 1 -.59-9.38c0-.27 0-.55 0-.82.59-7.71.91-6.42 4.17-.88l.08.13.63 1q3 4.85 6 9.5c4.73 7.34 9.44 14.38 14 21.34l2 3.11c1.07 1.62 2.12 3.24 3.17 4.87.79 1.23 1.58 2.46 2.35 3.69 2.09 3.27 4.13 6.55 6.14 9.87-.31-2.51-.53-4.94-.86-7.3-.36-2.57-.64-5.07-1.06-7.47l-.27-1.78c-.27-1.77-.53-3.5-.85-5.19s-.62-3.58-.93-5.3c-1.25-6.87-2.5-13.07-3.62-18.86-.92-4.58-1.74-8.91-2.46-13.1-1.58-9.09-2.72-17.55-3.45-26.62-.53-8.87-.1-7.58 4.25-.93 2 3.15 3.9 6.4 5.64 9.73a127.87 127.87 0 0 1 13.16 39.08q.93 5.74 1.29 11.53a112.39 112.39 0 0 1 -.15 16.11c0 .62-.1 1.24-.16 1.86l.36-1.1c.21-.68.43-1.36.64-2a113.31 113.31 0 0 0 4-16.69 122.21 122.21 0 0 0 1.53-15c.09-1.93.12-3.8.12-5.66 0-2.72-.07-5.41-.12-8.16a115 115 0 0 1 .4-14c0-.15 0-.3 0-.45a49.82 49.82 0 0 1 3.18-13.35c3.52-8.6 8.39-14.14 11.38-20.8a31.94 31.94 0 0 0 1.91-5c.32-1.1.59-1.59.86-1.46.49.25 1.44 3 1.3 8-.17 5.51-1.68 10.87-2.89 15.84-.6 2.49-1.15 4.91-1.49 7.21a51.21 51.21 0 0 0 -.5 6.91c-.06 4.68.38 9.53.76 14.66.19 2.56.36 5.19.44 7.9s0 5.52-.12 8.27a87.27 87.27 0 0 1 -1.7 12.61c-.09.42-.18.84-.28 1.27a84.6 84.6 0 0 1 -6 17.66c-.38.8-.76 1.59-1.16 2.35 3.3-4.93 6.49-9.33 9.17-13.49.72-1.11 1.43-2.2 2.07-3.28l.65-1.07.32-.53.87-1.58c.33-.56.62-1.12.9-1.67l.72-1.43c.26-.51.51-1 .72-1.52s.46-1 .68-1.53c1.74-4.09 3.1-8.31 4.49-12.51s2.75-8.44 4.41-12.54a96.66 96.66 0 0 1 5.59-11.56q1.52-2.67 3.18-5.17c1-1.46 2-2.89 3-4.27a85.57 85.57 0 0 1 8.54-9.67c3.92-3.58 5.71-4.84 5.94-4.28s-1 3-2.79 7.33q-2.43 6.07-4.5 12.19t-3.73 12q-.63 2.16-1.2 4.32c-1.28 4.74-2.33 9.51-3.62 14.52a98.78 98.78 0 0 1 -5.1 15.27c-.21.46-.42.92-.64 1.37-.39.82-.8 1.63-1.22 2.44-.68 1.24-1.4 2.45-2.12 3.66-.62.95-1.24 1.9-1.87 2.83l-.42.61c-.79 1.07-1.6 2.17-2.42 3.21a139.86 139.86 0 0 1 -10.03 11.38z" fill="#ff848c"/><path d="m1888.32 269.22c-.1.6-2 1.41-4.92 3.38a63.08 63.08 0 0 0 -10 8.58q-.44.45-.84.9a60.25 60.25 0 0 0 -4 4.78l-.68.93-.66.94c-1.77 2.56-3.46 5.3-5.32 8.16-1.21 1.86-2.49 3.78-3.91 5.69-1 1.37-2.09 2.74-3.27 4.08a49.37 49.37 0 0 1 -5.79 5.6h-25.67c.83-.4 1.64-.82 2.44-1.23a58.38 58.38 0 0 0 17.3-14.34c1.39-1.68 2.71-3.44 4-5.23.7-.93 1.4-1.87 2.12-2.81 1.74-2.27 3.55-4.54 5.55-6.7.4-.43.8-.85 1.21-1.27a42.41 42.41 0 0 1 8.15-6.57 40.5 40.5 0 0 1 5.42-2.82 37.82 37.82 0 0 1 13-3c4.31-.02 5.97.38 5.87.93z" fill="#ff848c"/><path d="m2242.12 253.05c-.13.78-2.66 1.84-6.38 4.39a81.66 81.66 0 0 0 -20.08 19.69c-2 2.84-3.94 5.87-6 9l-1.42 2.2-.37.57a110.12 110.12 0 0 1 -9.3 12.67 63.38 63.38 0 0 1 -12.09 10.67h-48.14l.09 1.21c-.23-.4-.45-.8-.67-1.21h-28.33c-1-1-2-1.95-3-2.95-1.58-1.61-3.12-3.2-4.57-4.82-.13-.14-.26-.28-.38-.43s-.4-.45-.6-.68q-3-3.4-5.67-6.78c-1.2-1.51-2.33-3-3.41-4.52a123.23 123.23 0 0 1 -7.61-11.93q-2.55-4.63-4.49-9.18c-1-2.34-1.9-4.66-2.68-7a81.9 81.9 0 0 1 -4.36-28.51c.76-10.06 1.18-8.29 5.5-1q2.66 4.32 5.32 8.52c3.67 5.8 7.34 11.44 11 17 4.42 6.72 8.8 13.29 13.06 19.83 1.37 2.09 2.73 4.17 4.07 6.26q1.68 2.58 3.31 5.17c.77 1.22 1.54 2.44 2.3 3.66q1.84 2.94 3.65 5.9c.6 1 1.19 1.94 1.78 2.91-.13-1.09-.25-2.17-.37-3.23-.21-1.93-.42-3.82-.66-5.67 0-.2 0-.39-.08-.58s0-.35-.07-.52c-.44-3.15-.79-6.2-1.3-9.15-.08-.52-.16-1-.23-1.55-.14-.85-.27-1.69-.4-2.52-.26-1.69-.53-3.35-.83-5-.8-4.71-1.62-9.19-2.43-13.47-1.12-5.89-2.22-11.4-3.24-16.66-.08-.4-.15-.8-.23-1.2l-.39-2q-1-5.16-1.91-10c-.18-1-.36-2-.53-2.92-1.29-7.3-2.38-14.24-3.25-21.23-.52-4.11-1-8.24-1.34-12.45l-.24-2.87c0-.14 0-.28 0-.41-.66-11.05 0-9.32 5.53-.8.52.82 1 1.64 1.55 2.47.65 1 1.28 2.1 1.9 3.16a169.84 169.84 0 0 1 10 20q2.84 6.71 5.08 13.65c.93 2.85 1.77 5.71 2.53 8.6.62 2.31 1.18 4.62 1.68 7 .59 2.72 1.11 5.46 1.55 8.2v.24q.94 5.83 1.43 11.71c.06.62.1 1.24.14 1.85a146.49 146.49 0 0 1 .11 19.76c-.11 1.64-.24 3.28-.4 4.91.25-.82.51-1.63.77-2.42.17-.55.35-1.09.52-1.62a146.63 146.63 0 0 0 5.22-21.64c0-.24.08-.48.11-.71a.7.7 0 0 0 0-.14q.63-3.88 1-7.6c.18-1.56.32-3.09.44-4.61.06-.71.11-1.41.15-2.11.11-1.45.18-2.88.24-4.29.24-5 .15-9.79.06-14.65l-.06-3.27v-1.73c0-3.32-.05-6.66.1-10 0 0 0 0 0-.06 0-1.08.1-2.16.18-3.25s.15-2 .26-3a.77.77 0 0 1 0-.15 73.68 73.68 0 0 1 1.48-9.12 0 0 0 0 0 0 0c0-.1 0-.2.07-.3a55.46 55.46 0 0 1 2.61-8.29 91.25 91.25 0 0 1 6.54-12.64v-.05c3-4.93 5.95-9.34 8.14-14.22a42.36 42.36 0 0 0 2.48-6.46c.42-1.42.77-2.06 1.11-1.89.5.26 1.36 2.49 1.63 6.53.08 1.15.11 2.46.07 3.91 0 .95-.09 1.9-.18 2.84-.56 6.15-2.22 12.11-3.57 17.69q-.42 1.74-.81 3.45c-.12.54-.24 1.07-.35 1.6-.31 1.46-.57 2.9-.78 4.3-.26 1.76-.43 3.51-.52 5.28-.08 1.21-.12 2.44-.13 3.67-.05 3.91.17 7.91.46 12 .12 1.6.24 3.23.37 4.87.05.69.11 1.39.16 2.09.1 1.44.21 2.9.3 4.38l.09 1.7q.12 2.06.18 4.17c.1 3.51.05 7.15-.16 10.71-.13 2.11-.31 4.22-.57 6.32q-.43 3.87-1.17 7.68c-.06.4-.14.8-.22 1.2a110.81 110.81 0 0 1 -8.37 25.56l-.06.13c-.46 1-.92 1.91-1.4 2.82a1.51 1.51 0 0 1 -.11.22 1.88 1.88 0 0 1 .16-.23c.77-1.16 1.54-2.29 2.3-3.4 3.39-4.95 6.62-9.5 9.43-13.85.93-1.44 1.86-2.85 2.68-4.26.42-.68.84-1.38 1.26-2.07l1.13-2.05c.07-.11.13-.22.19-.33.71-1.24 1.29-2.48 1.91-3.69.22-.43.44-.87.64-1.31q.17-.33.3-.66c.3-.65.59-1.3.87-2 2.26-5.3 4-10.77 5.82-16.22 1.32-4 2.64-8.08 4.11-12.07.51-1.4 1-2.8 1.61-4.18a126.12 126.12 0 0 1 7.25-15 112.53 112.53 0 0 1 19.13-24.78c5.09-4.64 7.4-6.26 7.7-5.54s-1.34 3.94-3.61 9.51q-5.78 14.4-10 28.91-1.18 4-2.25 8.05c-1.1 4.09-2.08 8.2-3.1 12.42-.51 2.1-1 4.23-1.59 6.39a137.34 137.34 0 0 1 -5.24 16.53c-.43 1.09-.89 2.18-1.37 3.27-.74 1.65-1.54 3.3-2.4 4.93-.81 1.48-1.66 2.93-2.52 4.37l-.22.37c-1 1.51-2 3-3 4.46s-2.07 2.82-3.14 4.17q-2 2.47-4 4.78c-2.48 2.86-5 5.54-7.54 8.12-.56.58-1.12 1.14-1.68 1.71-3.78 3.85-7.51 7.49-11 11.19 1.51-.68 3-1.42 4.37-2.15a76 76 0 0 0 12.25-8.31c.23-.18.44-.37.66-.55a76.18 76.18 0 0 0 9.53-9.73l.68-.84c2.49-3.08 4.85-6.33 7.32-9.58.27-.35.54-.71.82-1.06 1.5-1.95 3.06-3.89 4.72-5.78q1.56-1.78 3.22-3.48a55.8 55.8 0 0 1 10.57-8.52 49.91 49.91 0 0 1 23.87-7.56c5.73-.07 7.88.45 7.75 1.16z" fill="#ff848c"/><path d="m1100.46 312.26h-20.27a15.94 15.94 0 0 1 -2.58-4c-3.78-9.91 3.88-17.05 13.3-11.15 3.58 2.32 7 8.96 9.55 15.15z" fill="#582fb3"/><path d="m1152 302.59a6.48 6.48 0 0 1 2.17 5.17 7.27 7.27 0 0 1 -2.33 4.5h-35.5s0 0 0-.06l.69-.79a42.52 42.52 0 0 1 7.67-7 31.6 31.6 0 0 1 10.17-4.87 24.21 24.21 0 0 1 5-.8 21.25 21.25 0 0 1 4.22.18 15.22 15.22 0 0 1 7.91 3.67z" fill="#582fb3"/><path d="m1159.94 216.76a36.59 36.59 0 0 1 -8.28 2.81l-.81.19c-3.67.87-7.79 1.8-11.67 2.88s-7.51 2.29-10.17 3.31c-.85.3-1.59.61-2.22.86-.57 9.13-1.46 18.23-2.61 27.31 3-4.13 5.25-8.11 7.45-11.43 2.94-4.45 5.73-7.82 9.94-9.78a15.16 15.16 0 0 1 6.47-1.23 8.41 8.41 0 0 1 5.41 2c2.64 2.33 3.44 6.95 0 12.46a11.66 11.66 0 0 1 -1.08 1.39 24.11 24.11 0 0 1 -6.4 4.72c-.89.48-1.82.94-2.78 1.36s-1.75.75-2.64 1.07a48.58 48.58 0 0 1 -5.6 1.73 59.72 59.72 0 0 1 -9.75 1.59c-.56 0-1.07.08-1.53.09q-.53 3.83-1.1 7.62c-.29 1.9-.6 3.8-.91 5.7-.82 5-1.72 10.08-2.68 15.09 2.47-3.41 4.58-6.64 6.65-9.37 3.14-4.11 6.19-7.09 10.55-8.39 4.95-1.18 9.33 0 11.73 2.8s2.68 7.32-1.07 12.11c-1.48 1.86-4.29 3.53-7.64 4.83a50.39 50.39 0 0 1 -10.84 2.75 70.05 70.05 0 0 1 -9.47.68h-1q-2.07 10.21-4.46 20.33h-7.51q1.53-6 3-11.92c-5.07-5.4-10.29-9.38-14.71-13.3-1.12-1-2.18-1.93-3.21-2.92a36.8 36.8 0 0 1 -8.67-11.68c-1.84-4.6-2-8.42-1-11a5.4 5.4 0 0 1 4.54-3.5c2.8-.34 6.53 1.06 10.74 4.67 3.35 2.95 6.92 9.25 9.56 16.09a72.3 72.3 0 0 1 2.33 7 74 74 0 0 1 1.83 8.36q2.14-9.45 4-18.94c.4-2.08.78-4.17 1.15-6.25a20.33 20.33 0 0 0 -6.14-7.15c-2.74-2.09-5.6-3.63-8.37-5.42a55.23 55.23 0 0 1 -6.92-5.19l-.7-.63a31.43 31.43 0 0 1 -5.46-6.6 20.33 20.33 0 0 1 -2.54-7.41 7.46 7.46 0 0 1 1.22-5.44 6.19 6.19 0 0 1 5.24-2.19 17.47 17.47 0 0 1 8.74 3.15 26.23 26.23 0 0 1 6.33 6.59c.48.65.94 1.33 1.39 2 1.22 1.86 2.33 3.79 3.46 5.84a63.65 63.65 0 0 1 3.17 6.59 35.34 35.34 0 0 1 2 6.78 2.36 2.36 0 0 1 0 .28c1.32-8.21 2.43-16.44 3.28-24.72-2.3-1.53-4.55-3-6.73-4.32-4.08-2.58-7.9-4.94-11.32-7.33-5.86-4.07-10.61-8.25-13.77-13.74-.35-.67-.66-1.32-.93-1.94-2.31-5.31-2.08-9.49.17-11.66 1.53-1.46 4-2 7.18-1.08a19.14 19.14 0 0 1 4 1.68 28.27 28.27 0 0 1 2.61 1.67.87.87 0 0 1 .18.11c5.06 3.66 10.77 13.18 14.65 21.81.71 1.55 1.36 3.07 2 4.53.94 2.3 1.74 4.43 2.37 6.22.32-3.5.6-7 .83-10.5q.6-9 .73-18.11c-5.6-3.48-10.82-6.53-15.16-9.53-.83-.58-1.64-1.15-2.4-1.73l-.19-.14c-3.76-2.86-6.7-5.82-8.66-9.59-2.4-5.2-2.32-9.72 0-12.34a6.49 6.49 0 0 1 5.16-2 15.27 15.27 0 0 1 7.89 2.9 19.13 19.13 0 0 1 4.4 4.54 39.51 39.51 0 0 1 2.31 3.55c.15.26.3.51.43.78a71.31 71.31 0 0 1 4.73 10.72q.86 2.46 1.53 4.7c-.08-7.08-.38-14.15-.94-21.21-.11-1.42-.23-2.83-.36-4.25l-3.22-1.57c-11.36-5.54-20.77-10.41-26.58-18.35-7.33-10.74-2.12-16.61 9.49-8.93 6 4 14.41 16 19.51 23.68l.32.49-.09-.82c-.95-8.7-1.86-16.56-2.59-25.34 0-.44-.08-.89-.13-1.33-5.5-3.67-10.78-6.23-15.25-8.68-4.89-2.64-8.85-5.17-11.82-9-3.1-4.36-3.84-8.35-2.16-10.89s5.95-3.48 12-.61a24.93 24.93 0 0 1 7.52 6.6 52.83 52.83 0 0 1 6.39 10.19 58.1 58.1 0 0 1 2.74 6.53 253.56 253.56 0 0 0 -5-29.45c-6.7-2.74-12.89-5.12-18.12-7.92-1.44-.76-2.81-1.55-4.09-2.39s-2.47-1.71-3.49-2.52a34.24 34.24 0 0 1 -2.72-2.4l-1.13-1.2c-.39-.44-.81-.91-1.28-1.46a26.6 26.6 0 0 1 -2.63-4 11.39 11.39 0 0 1 -1.24-4.09 5.17 5.17 0 0 1 2.36-5.14 13.72 13.72 0 0 1 5.06-1.56 12.65 12.65 0 0 1 7.06 1.09 17.38 17.38 0 0 1 4.56 3.15 34.54 34.54 0 0 1 4.09 4.71 107.7 107.7 0 0 1 6.63 10.74c1.23 2.26 2.38 4.45 3.35 6.4q-2.51-9.73-5.75-19.27a38.84 38.84 0 0 0 -2.62-4.79c-.32-.53-.65-1.06-1-1.59l-4.32-7.06c-2.91-4.74-5.53-9-7.85-13.17-5.5-9.86-8.36-17.5-9.29-24.8-.82-9.4 1.71-15.47 6.77-16.32s11.18 4.06 16.13 13.14c5.22 9.75 6.21 28 6.39 33.36a91.87 91.87 0 0 1 -.25 11.32c-.09 2.28-.47 6.93-.54 8a22.86 22.86 0 0 0 .51 4.07s0 0 0 0c1.55 4.48 3 9 4.27 13.56.07-.72.16-1.41.28-2.08.45-2.42.82-4.49 1.24-6.51.84-4 1.88-7.45 4-10.51 2.46-3.27 5.08-4.7 7.07-4.12s3.31 3.22 2.5 7.84c-.66 3.64-4.49 9.22-8.49 13.37a59.75 59.75 0 0 0 -4.7 5q-.43.63-.72 1.14c1.74 6.44 3.23 13 4.46 19.52a56.08 56.08 0 0 1 2.58-12.56 36.81 36.81 0 0 1 4.18-8.61 21.59 21.59 0 0 1 6-6c2.56-1.46 4.76-1.87 6.44-1.56a4.55 4.55 0 0 1 3.41 2.75c1.19 2.9.32 7-2.37 11.63a32.59 32.59 0 0 1 -5.17 5.79c-2.19 2.09-4.69 4.45-7 6.9a89.41 89.41 0 0 0 -5.88 6.88c-.37.48-.71.91-1 1.3.85 5.14 1.53 10.32 2 15.51.06-.25.13-.52.19-.79a45.67 45.67 0 0 1 2.5-7.75c2-4.77 5-8.66 9.08-10.9 4.65-2.29 8.26-1.6 9.79.48s1.2 5.52-1.44 9.49a24.42 24.42 0 0 1 -5.22 4.94c-2.24 1.73-4.83 3.58-7.23 5.38-1.19.91-2.34 1.76-3.4 2.57a21.65 21.65 0 0 0 -2.5 2.17 9.72 9.72 0 0 0 -1.13 1.38c.39 5.06 1.08 9.41 1.78 14 .34 2.25.68 4.56 1 7.05a96 96 0 0 1 4.56-9.73 40.73 40.73 0 0 1 5.22-8 23.92 23.92 0 0 1 7.19-5.84 14.2 14.2 0 0 1 7.83-1.56h.09a4.36 4.36 0 0 1 3.59 2.41 3.13 3.13 0 0 1 .16.52 6 6 0 0 1 -.59 3.8c0 .08-.07.17-.12.25a25.79 25.79 0 0 1 -3.59 5.3 63.76 63.76 0 0 1 -6.37 5.82c-2.65 2.28-5.66 4.92-8.48 7.51-1.39 1.27-2.89 2.19-4.21 3.22s-3.33 2.24-4 3.18c-.43.57 0 3.29-.14 3.81.69 7.78 1.05 15.58 1.14 23.39 2.15-5.79 3.89-11.17 5.84-15.83a59.59 59.59 0 0 1 3.84-7.79 25.07 25.07 0 0 1 4.54-5.65 20.49 20.49 0 0 1 6-3.46l.72-.22a8.1 8.1 0 0 1 4.9 0 6.44 6.44 0 0 1 3.91 4.44 16.18 16.18 0 0 1 -.56 9.7c-1 3.05-3.64 6.5-6.86 9.38a65.28 65.28 0 0 1 -10.49 7.51c-1.73 1-3.43 1.95-5 2.76-2.82 1.47-5.27 2.57-6.84 3.24 0 2.85 0 5.69-.09 8.53-.08 3.64-.23 7.29-.43 10.93a58 58 0 0 1 10.87-14.54 35.59 35.59 0 0 1 8.52-6 24.56 24.56 0 0 1 9.43-2.55h1.43a14.48 14.48 0 0 1 7 1.89 6.5 6.5 0 0 1 3.31 4.52c.55 3.74-2.05 7.44-7.51 10.67z" fill="#582fb3"/><path d="m1433.82 151.42c-2.1 4-4.48 5.64-11 10.38-6 4.06-9.38 7.79-12.92 16.28q-2.89 6.48-5.31 13.2c.79-1.29 1.7-2.74 2.69-4.22a70.17 70.17 0 0 1 5.14-6.95 21.34 21.34 0 0 1 3-2.92 10.16 10.16 0 0 1 3.18-1.74 7.21 7.21 0 0 1 4.61 0 8.62 8.62 0 0 1 3.1 1.7 4.16 4.16 0 0 1 1.08 4 8.7 8.7 0 0 1 -1.15 2.79 16.4 16.4 0 0 1 -2 2.6c-.35.35-.66.64-1 .91s-.54.5-.82.73a23 23 0 0 1 -1.93 1.41c-.73.48-1.56 1-2.46 1.42a30.33 30.33 0 0 1 -2.82 1.24 114.75 114.75 0 0 1 -12.26 3.61 200.09 200.09 0 0 0 -5.68 20.59c.62-1.33 1.39-2.84 2.3-4.38a36.73 36.73 0 0 1 5-6.58 15.44 15.44 0 0 1 5.36-3.89c4.11-1.36 6.79-.15 7.63 1.83s.05 4.8-2.3 7.57c-2.22 2.41-5 3.78-8.32 5.12-.89.36-1.82.72-2.8 1.1l-1.88.73c-1.85.75-3.8 1.59-5.82 2.65-.06.31-.1.63-.18.94-1.76 6.43-2.72 11.31-3.9 17.89a2.74 2.74 0 0 1 -.05.28c2.84-4.72 8.19-12.28 12.43-15.5a9.13 9.13 0 0 1 2-1.2c8.36-3.44 10.86 1.61 4.79 8a52.37 52.37 0 0 1 -7.18 5.93 44.17 44.17 0 0 1 -12.4 5.74c-.7 5.44-1.45 13.06-2.42 19.12.44-1 .94-2 1.49-3.14a48.5 48.5 0 0 1 4.52-7.47 16.19 16.19 0 0 1 5.15-4.82 11.2 11.2 0 0 1 2.66-.91 6.75 6.75 0 0 1 2.68 0 4.31 4.31 0 0 1 3 2.17c1.2 2.2.75 5.43-1.34 8.8-2 2.94-4.81 4.81-8.38 6.58-3.09 1.53-6.73 3-10.69 4.64-.94 6.85-1.64 13.75-2.12 20.66 1-1.94 2.33-4.46 3.93-7.06a.08.08 0 0 0 0 0 69.34 69.34 0 0 1 4.78-6.89l.23-.3c2.28-2.84 4.64-5.19 6.66-6.25 4.59-2.37 7.84-1.77 9.16.29s.79 5.64-2 9.61a22.68 22.68 0 0 1 -5.93 5.41 42.29 42.29 0 0 1 -4.32 2.44c-2.11 1.05-4.38 2-6.81 3.09-1.52.66-3.1 1.35-4.72 2.08l-1.21.57c0 .6-.08 1.19-.1 1.79-.3 5.43-.47 10.88-.52 16.32a1.27 1.27 0 0 1 .06-.18 26.78 26.78 0 0 1 2-4.56 44.2 44.2 0 0 1 2.74-4.25c.94-1.31 1.85-2.53 2.83-3.68.55-.66 1.12-1.29 1.69-1.86a15.45 15.45 0 0 1 4.15-3.18 9.91 9.91 0 0 1 5.91-1 4.12 4.12 0 0 1 3.09 2.3 6.12 6.12 0 0 1 .18 4.07 14.88 14.88 0 0 1 -2.42 4.92 19.66 19.66 0 0 1 -3.47 3.41l-.72.53a33.25 33.25 0 0 1 -5.48 3.07c-2 .87-3.94 1.58-5.91 2.67-.37.22-.75.44-1.12.69h-7.73c0-1.76.06-3.53.12-5.3-.3-.07-.61-.17-1-.29-.74-.23-1.61-.54-2.55-.92a31.66 31.66 0 0 1 -3.47-1.61 32 32 0 0 1 -6.56-4.53 20.16 20.16 0 0 1 -3.07-3.49 10.12 10.12 0 0 1 -1-1.94 12.68 12.68 0 0 1 -.77-3.52 7.65 7.65 0 0 1 .27-2.7 4.71 4.71 0 0 1 1.85-2.68 5.4 5.4 0 0 1 4.92-.36 10.71 10.71 0 0 1 2.72 1.47c2.47 2 3.87 4.81 5.26 8.41.8 2.07 1.59 4.43 2.57 6.95.29.74.6 1.5.92 2.27 0-1.32.1-2.63.18-3.95q.38-8 1.13-15.92c-.37-.27-.81-.59-1.32-.93-1.58-1.1-3.74-2.5-6.1-3.81-.7-.4-1.44-.79-2.16-1.18-1.69-.89-3.39-1.74-5-2.54-1.26-.66-2.44-1.29-3.44-1.94a12.39 12.39 0 0 1 -2-1.51c-3.11-3.07-4.39-6.1-3.68-8.52a4.34 4.34 0 0 1 2.59-2.76 8.58 8.58 0 0 1 4.8-.32l.75.15a15.68 15.68 0 0 1 5.72 3.17 25.18 25.18 0 0 1 4.6 5.26l.16.24a46.37 46.37 0 0 1 5.32 11.94c.48-4.67 1.08-9.34 1.8-14-1-.79-2.69-2.1-4.55-3.78-.75-.67-1.53-1.41-2.33-2.19a49.07 49.07 0 0 1 -5.86-6.86 19.64 19.64 0 0 1 -3.34-7.68c-.07-.49-.11-.95-.13-1.41a12 12 0 0 1 .8-5.5 1 1 0 0 1 0-.1 4.14 4.14 0 0 1 3-2.62 5.14 5.14 0 0 1 3.55.95 13.81 13.81 0 0 1 3.46 3.34 18.86 18.86 0 0 1 2.28 4.68 47.41 47.41 0 0 1 1.59 6.1c.24 1.19.49 2.39.74 3.61.52 2.5 1 5.15 1.53 8.14.66-4.05 1.85-11.74 2.56-16.52.26-1.81.45-3.2.53-3.82-.16-.49-1.5-1.14-3.63-3.65-1.74-2-3.5-4.28-5-6.24a39.83 39.83 0 0 1 -3.29-5.14 19 19 0 0 1 -1.86-4.44 4.38 4.38 0 0 1 .12-3.15 2.64 2.64 0 0 1 2.56-1.31 8.75 8.75 0 0 1 4.86 2.09 17.27 17.27 0 0 1 4.06 5.07 28.45 28.45 0 0 1 2.43 6.39 52.52 52.52 0 0 1 1.09 5.84c.63-5.46 1.4-8.56 2.41-13.91a6.67 6.67 0 0 0 -.6-1.13 16.79 16.79 0 0 0 -1.42-1.85l-2-2.23c-1.38-1.58-2.88-3.2-4.16-4.7a18.77 18.77 0 0 1 -2.93-4.16c-1.35-3.16-1.29-5.64-.12-7s3.52-1.41 6.31.77c2.43 2.08 4 5.22 4.89 8.88a38 38 0 0 1 .93 5.86c0 .21 0 .4.06.6.77-3.67 1.64-7.32 2.63-10.92l-.53-1c-.79-1.57-1.92-3.61-3.19-5.63s-2.66-4-3.88-5.76a24.89 24.89 0 0 1 -2.82-4.76c-1.32-3.63-1.54-6.68-.53-8.64a2.83 2.83 0 0 1 2.41-1.58 6.1 6.1 0 0 1 4 1.86 16.43 16.43 0 0 1 3.31 5 30.34 30.34 0 0 1 1.94 6.67 46 46 0 0 1 .58 9.33q2-6.87 4.51-13.52a9.25 9.25 0 0 0 -.36-.89 40.53 40.53 0 0 0 -2.59-4.18c-2.2-3.45-4.35-10.22-4.46-12.9-.13-3.42 1-5.18 2.26-5.36s2.87 1.14 4.18 3.78c1.07 2.44 1.63 7.35 1.82 10.32.1 1.51.16 3 .24 4.84v1.52c1.21-3.12 2.5-6.22 3.88-9.26 2-6.44 2.4-13.77 4-20 2.11-7.78 4.61-11.35 7.22-14.51 5-5.39 10.14-7 14.72-3.68 2.56 1.77 2.63 6.74.93 10.26z" fill="#5676ef"/><path d="m-18.76 315.57c-.89-1.11-1.78-2.21-2.68-3.31h2.18c.16 1.09.32 2.19.5 3.31z" fill="#fff"/><path d="m113.66 314.5c.41.11.82.2 1.23.28l-1.24.07c0-.11.01-.23.01-.35z" fill="#fff"/><path d="m209.14 314.74a1.58 1.58 0 0 0 .15-.12.65.65 0 0 0 0 .18z" fill="#fff"/><path d="m217.48 312.26h.52c-.18.39-.38.79-.58 1.18z" fill="#fff"/></g><path d="m804.08 304.36h-2.26" fill="none"/><path d="m849.82 304.36h-.91" fill="none"/><path d="m866.86 304.36h-.48" fill="none"/><path d="m817.19 312.26h.25l-.09.73c0-.08 0-.15 0-.22s-.11-.34-.16-.51z" fill="#fff" transform="translate(69.81 -7.9)"/><path d="m920.31 304.36h-3.26" fill="none"/><path d="m1093.55 312.26h1.68c-.63.32-1.26.64-1.9.95.08-.31.16-.63.22-.95z" fill="#fff" transform="translate(69.81 -7.9)"/><path d="m1629.92 304.36h-8.65" fill="none"/><path d="m1783.05 312.26h.79c0 .22-.09.44-.13.67-.11-.1-.21-.21-.31-.31z" fill="#fff" transform="translate(69.81 -7.9)"/><path d="m1823 312.26-.93.43.41-.43z" fill="#fff" transform="translate(69.81 -7.9)"/><path d="m2138.38 312.26.09 1.21c-.23-.4-.45-.8-.67-1.21z" fill="#fff" transform="translate(69.81 -7.9)"/></svg>