<svg viewBox="0 0 281.04 243.75" xmlns="http://www.w3.org/2000/svg"><path d="m229 216.14c-4 2.06-9.85 5.68-16.31 9.87-8.6 5.57-18.24 12.17-25.79 17.48h-129.28v.24l-.37-.24h-5.4l-.36.12.13-.12h-51.2v-83.65c2 3.35 3.85 6.82 5.58 10.43.53 1.11 1.1 2.31 1.68 3.57 1.59 3.45 3.31 7.38 4.79 11.33a80.19 80.19 0 0 1 2.59 8 2.19 2.19 0 0 1 .14.53v-.47c.11-1.41.2-2.78.25-4.12 0-.83.09-1.68.09-2.54.15-4.49.26-9.37.26-14.49q.06-3.6.06-7.34v-1.58c0-3.66.08-7.4.08-11.16v-3.69c0-2.67.07-5.34.13-8 .08-3.9.18-7.77.33-11.56.08-2 .17-3.89.27-5.79v-.68l.09-1.55c.34-5.42.51-11.06.69-16.84.11-3.4.22-6.83.37-10.3.14-3.34.32-6.66.57-10a141.52 141.52 0 0 1 4.79-28.83c.49-1.66 1-3.34 1.61-5 2-5.66 6-16.49 13.12-26.06 6.83-10.36 24.24-23.7 24.24-23.7-2 8.44-2.76 18.1-3.16 25.89-.25 4.1-.45 7.7-.75 10.37-.15 1.46-.27 3-.38 4.46q-.22 3.15-.34 6.31c-.08 1.72-.18 3.43-.18 5.15-.06 2.16-.11 4.32-.11 6.46v9.36q.06 4.17.16 8.58c.14 6.52.32 13.52.46 20.52v.74c.18 11.13.3 22.59 0 33.54-.06 2-.12 4-.21 6-.07 1.68-.16 3.33-.25 5a264.4 264.4 0 0 1 -3.3 29.43 3.85 3.85 0 0 0 -.08.47c-.13.8-.28 1.59-.42 2.37l.07-.07.25-.27q1.56-1.6 3.09-3.32c1.78-2 3.54-4.05 5.29-6.18a.21.21 0 0 1 .08-.11c.16-.17.3-.35.44-.53 3.16-3.85 6.27-7.92 9.32-11.85l1.77-2.32c1.63-2.11 3.25-4.11 4.84-6.11 2.26-2.78 4.48-5.38 6.64-7.67.84-.9 1.68-1.74 2.51-2.54 1.49-1.24 2.92-2.43 4.31-3.56 1.66-1.36 3.26-2.65 4.8-3.89 4.21-3.39 8-6.37 11.5-9.31 1.66-1.39 3.27-2.78 4.85-4.17.88-.81 1.76-1.61 2.63-2.43 1.21-1.15 2.41-2.32 3.6-3.55a113.28 113.28 0 0 0 7.71-8.77c1.74-2.17 3.49-4.56 5.31-7.17.72-.93 1.54-2.09 2.44-3.42 2.61-3.86 5.86-9.14 9.11-14.14l.24-.37c5.7-8.3 7.7-12.9 11.61-27.9.5 1.61 1 3.2 1.42 4.76a101.39 101.39 0 0 1 4.27 28.37v3.56c-.06 1.33-.14 2.67-.24 4-.12 1.73-.27 3.46-.45 5.18q-.47 4.38-1.21 8.74-.21 1.22-.45 2.43c-.6 3.13-1.3 6.13-2.11 9.13-.53 2-1.1 3.9-1.71 5.81s-1.24 3.7-1.9 5.51c-.38 1-.76 2-1.17 3-1.78 4.41-3.68 8.65-5.78 12.73q-2.19 4.29-4.59 8.29a1.71 1.71 0 0 1 -.13.23l-.5.84a100.28 100.28 0 0 0 -6 12.39c-.69 1.61-1.38 3.23-2.07 4.83a78.72 78.72 0 0 1 -6.38 12.43 29.38 29.38 0 0 1 -1.84 2.44c-2.24 2.62-4.73 5.38-7.41 8.2-1.4 1.49-2.85 3-4.35 4.46-.72.73-1.45 1.45-2.19 2.18l-.81.78-.76.74 1.6-1.12.77-.53c.35-.24.7-.49 1.06-.72 2.35-1.62 4.78-3.15 7.28-4.62a105.51 105.51 0 0 1 22.74-10.13l1.37-.43c2.24-.7 4.47-1.47 6.72-2.22 8.71-2.95 17.7-5.8 28-4.8 1.9.18 3.78.36 5.66.57l.72.08c3.16.4 6.31.8 9.47 1.4 2.59.47 5.19 1.05 7.83 1.77l1 .27c1.86.53 3.73 1.13 5.64 1.81 1.69.59 3.41 1.25 5.17 2 .58.23 1 .46 1.58.71 1.35.58 2.66 1.22 4 1.9a112.72 112.72 0 0 1 11.27 6.63c1.21.81 2.37 1.62 3.49 2.42 6.8 4.89 12.11 9.64 17.11 13.24-6.01 3.87-13.73 6.68-23.12 11.88z" fill="#9daefe"/><path d="m82.92 21.59c-2.92 3.27-5.69 4.41-13.35 7.61-5.56 3-8.41 6.15-11.76 11.57-.67 1.09-1.36 2.27-2.1 3.56q-3.57 5.87-6.65 12c.93-1.16 2-2.46 3.17-3.79a73.14 73.14 0 0 1 5.22-5.49l.77-.7a23 23 0 0 1 3.42-2.55 11.9 11.9 0 0 1 3.5-1.43 8.52 8.52 0 0 1 4.87.31 9.44 9.44 0 0 1 3.15 1.77 3.58 3.58 0 0 1 .84 3.78 8 8 0 0 1 -1.43 2.54 17.69 17.69 0 0 1 -2.34 2.32c-.39.3-.74.55-1.07.79l-.93.63a22.79 22.79 0 0 1 -2.16 1.2 29 29 0 0 1 -2.7 1.18c-1 .37-2.08.72-3.08 1s-2 .54-3.11.78c-3.18.68-6.54 1.23-10.18 1.85a173.89 173.89 0 0 0 -7.63 18.92 43.61 43.61 0 0 1 2.75-4 36.22 36.22 0 0 1 5.76-5.85 16.82 16.82 0 0 1 6-3.31 12.23 12.23 0 0 1 3.25-.35c2.55.07 4.14 1.12 4.67 2.51.78 2-.3 4.55-3 7-.47.4-1 .78-1.45 1.13a28.84 28.84 0 0 1 -7.75 3.2c-3.34 1-7.24 1.91-11.45 3.55l-.27.87q-1 3.54-2 7.11-1.44 5.42-2.55 10.93c1.37-1.73 3.09-3.83 4.93-5.92 3.33-3.87 7.14-7.72 10-9.3 8.37-4.51 11.55-.2 5.91 6.66-3.27 3.71-7.74 6.16-13.09 8.42-2.61 1.1-5.41 2.16-8.41 3.29q-1.59 8.57-2.46 17.24c.4-1 .84-2 1.33-3.1a47.2 47.2 0 0 1 4.21-7.5 17.2 17.2 0 0 1 5.07-5.09 13.65 13.65 0 0 1 2.24-1 8.65 8.65 0 0 1 3.31-.49 4.43 4.43 0 0 1 3.47 1.66c1.42 1.92 1.24 5-.76 8.39-.13.2-.26.4-.4.59-1.93 2.67-4.61 4.6-8 6.51-3.14 1.78-6.9 3.55-10.9 5.55q-.71 9.12-.7 18.26v1.3l.35-.75c.85-1.8 1.95-4 3.25-6.29 3.2-5.66 7.67-11.75 11.32-13.92l.91-.51c3.49-1.85 6.23-2 7.88-1a3.8 3.8 0 0 1 .88.72c1.56 1.8 1.25 5.2-1.35 9.2a26.23 26.23 0 0 1 -7.21 6.68q-1.42.93-3 1.83c-2.64 1.51-5.59 3-8.73 4.56l-2.31 1.27-2 1.06c0 2.14.08 4.27.16 6.4.11 3.54.3 7.07.55 10.61a.61.61 0 0 1 0-.19 23.44 23.44 0 0 1 1.8-4.48 40.54 40.54 0 0 1 2.57-4.29c.56-.83 1.1-1.62 1.67-2.39.3-.47.65-.92 1-1.37a20.77 20.77 0 0 1 5.79-5.38 15.46 15.46 0 0 1 1.65-.76 10.62 10.62 0 0 1 4.49-.84 4.24 4.24 0 0 1 3.43 1.81 5.18 5.18 0 0 1 .5 3.78l-.06.27a13.82 13.82 0 0 1 -1.82 4.12c-.09.15-.19.3-.29.45a21.09 21.09 0 0 1 -4.13 4.15 33.34 33.34 0 0 1 -3.87 2.56c-.42.25-.85.48-1.29.71l-.39.2c-2 1-4 1.92-6 3.17a13.64 13.64 0 0 0 -4.55 4.39.36.36 0 0 0 -.07.1q.46 5.51 1.13 11c.24 2.14.5 4.28.8 6.42a47.36 47.36 0 0 1 1.76-5.57 49.61 49.61 0 0 1 3.88-8 24.43 24.43 0 0 1 5.63-7 19.19 19.19 0 0 1 2.38-1.42l.35-.17c4.55-2.11 7.63-.56 7.94 3a8.58 8.58 0 0 1 -.14 2.32v.16a14.93 14.93 0 0 1 -1 2.91c-.12.27-.26.55-.4.83a22.72 22.72 0 0 1 -1.23 1.95 24.83 24.83 0 0 1 -2.61 3 43.89 43.89 0 0 1 -5.12 4.21c-1 .73-2.06 1.47-3.15 2.24a79.82 79.82 0 0 0 -7.68 5.9q1 7.19 2.28 14.3c.8-1.87 2-4.46 3.4-7a30.24 30.24 0 0 1 5.25-7.35 7.39 7.39 0 0 1 1.48-1.06 8.68 8.68 0 0 1 4.53-1 4.94 4.94 0 0 1 4.12 2.54c1 1.75 1 4.23-.29 6.91a13 13 0 0 1 -5.91 5.21l-.36.17a60.37 60.37 0 0 1 -9.6 3.19l-.4.11-1.85.5c.14.74.27 1.46.4 2.2l-5.11.89c-.31-1.9-.61-3.79-.9-5.69-.45-.09-1-.19-1.52-.34-.88-.23-1.89-.54-2.94-.88l-.43-.13c-1.22-.35-2.45-.69-3.75-1h-.15c-1.54-.37-3.13-.67-4.68-.94l-2.95-.49a25.8 25.8 0 0 1 -6.07-1.37c-3.73-1.74-5.81-4-5.81-6.39a4.39 4.39 0 0 1 1.8-3.37 10.23 10.23 0 0 1 5.58-2 15.94 15.94 0 0 1 6 .92l.17.06.55.21a21.77 21.77 0 0 1 5.23 3c.29.21.57.44.85.68a30.26 30.26 0 0 1 4.75 5.17c.16.2.3.41.45.62.89 1.27 1.63 2.57 2.48 3.84q-.81-5.37-1.47-10.77c-.29-2.36-.57-4.68-.82-7l-.67-.06a50.74 50.74 0 0 1 -5.21-.78l-1.18-.32c-1.36-.33-2.69-.73-4-1.19l-.58-.22a26.16 26.16 0 0 1 -2.6-1.13l-.5-.26a12.08 12.08 0 0 1 -4.4-3.49c-2.06-3.19-1.82-6-.39-7.84a4.69 4.69 0 0 1 .42-.47c1.73-1.68 4.59-2.24 7.73-1.31l.42.12a9.53 9.53 0 0 1 1.12.53 14.93 14.93 0 0 1 5.25 5.4c.1.14.19.28.28.43 1.29 2 2.52 4.3 4 6.77q-.74-7.16-1.16-14.36v-.15c-.08-1.31-.16-2.65-.22-4a7.38 7.38 0 0 1 -.05-1l-1-.16a39.73 39.73 0 0 1 -6.54-1.68l-.32-.12c-.53-.18-1.07-.39-1.61-.62a30.78 30.78 0 0 1 -5.31-2.77 13.85 13.85 0 0 1 -4.7-4.62c-2-4-1.17-7 .75-8.48s4.91-1.43 8 .13l.12.06a10.19 10.19 0 0 1 1.23.83 19.06 19.06 0 0 1 4.92 6.44c1.3 2.4 2.61 5.23 4.37 8.23-.22-6.24-.27-12.49-.09-18.74-.46-.21-.9-.46-1.46-.72-1.71-.88-4.14-1.88-6.71-2.88l-.9-.33c-1.83-.67-3.7-1.29-5.48-1.88l-1.39-.46a25.58 25.58 0 0 1 -6-2.6 15.36 15.36 0 0 1 -2.87-2.59v-6.8l-.33-.28.34-.28a5.55 5.55 0 0 1 .88-.53 10.69 10.69 0 0 1 5.83-.79 16.59 16.59 0 0 1 6.26 2.32 23.74 23.74 0 0 1 3.09 2.29 25.62 25.62 0 0 1 2.34 2.32 39.9 39.9 0 0 1 6.49 10.57 10.47 10.47 0 0 0 .06-1.37q.23-5.92.79-11.92a71.74 71.74 0 0 1 -7.69-4.81l-1.69-1.29-.47-.37a35.39 35.39 0 0 1 -4.53-4.12 16.65 16.65 0 0 1 -4.08-6.8 11 11 0 0 1 .21-6.63 4.67 4.67 0 0 1 1.93-2.31 3.56 3.56 0 0 1 1-.43 5.81 5.81 0 0 1 3.8.49 12.78 12.78 0 0 1 2.91 1.84c.34.28.67.57 1 .89a17 17 0 0 1 2.74 4.12 41.72 41.72 0 0 1 2.14 5.54c1 3.29 1.9 7 3 11.13q.81-8 2.22-15.85a6.45 6.45 0 0 0 -.4-1.22 16.65 16.65 0 0 0 -1.41-2.51l-2.1-3c-1.5-2.15-3.09-4.38-4.5-6.3-.86-1.13-1.65-2.2-2.3-3.13a14.2 14.2 0 0 1 -1.06-1.7 16.69 16.69 0 0 1 -1.61-4.27 3.7 3.7 0 0 1 .37-2.94 3 3 0 0 1 2.83-1.07 9.66 9.66 0 0 1 4.94 2.12 16.11 16.11 0 0 1 3.9 5 23.72 23.72 0 0 1 2.05 6.12 42.87 42.87 0 0 1 .7 5.53c1.1-5 2.38-10 3.88-15a8.43 8.43 0 0 0 -.55-1.08 15 15 0 0 0 -1.31-1.82l-1.9-2.21c-1.31-1.55-2.76-3.16-4-4.65a16.78 16.78 0 0 1 -2.77-4.06c-1.17-3-.92-5.36.43-6.54a3.31 3.31 0 0 1 2.51-.73 7.65 7.65 0 0 1 4.1 1.84 14.87 14.87 0 0 1 4.47 8.6 33.2 33.2 0 0 1 .52 5.54v.56q1.63-5 3.64-10c-.14-.29-.29-.63-.47-1-.72-1.51-1.76-3.53-2.93-5.45s-2.49-3.92-3.69-5.63a22.28 22.28 0 0 1 -2.6-4.61c-1.12-3.48-1.11-6.35.12-8.11a3.06 3.06 0 0 1 2.72-1.36 6.67 6.67 0 0 1 4.07 2 15.11 15.11 0 0 1 3.1 4.89 25.25 25.25 0 0 1 1.52 6.35 38.89 38.89 0 0 1 -.11 8.76q2.7-6.32 5.83-12.35c-.08-.26-.19-.55-.32-.86a39.91 39.91 0 0 0 -2.38-4.11c-2.1-3.33-3.86-9.81-3.75-12.33.13-3.2 1.39-4.78 2.81-4.87s2.95 1.24 4.12 3.79c1 2.34 1.12 7 1.12 9.76 0 1.42-.07 2.85-.13 4.53 0 .43-.06.94-.12 1.43q2.31-4.27 4.84-8.43c2.64-5.89 3.64-12.76 5.86-18.45l.33-.8a26.87 26.87 0 0 1 9.35-12.09c6.15-4.13 12.32-5.35 15.88-2 2.01 2.13 1.17 6.75-1.25 9.72z" fill="#582fb3"/><path d="m.39 152.18a126.24 126.24 0 0 0 15.47 12.48l.27.18c.41.32.93.63 1.41.94 2.09 1.4 4.3 2.77 6.67 4.13l.23.14 1.22.71q2.28 1.31 4.72 2.62l3.15 1.67 2 1 2.4 1.26c1.54.8 3.11 1.61 4.74 2.43l6.17 3.17 1.23.62.51.26 5.24 2.68c7.25 3.72 10.61 4.31 6.79.49-3.3-3.3-6.18-6.26-8.87-9.15l-.65-.72-.44-.47c-2.25-2.48-4.37-4.89-6.51-7.48l-.2-.24c-1.08-1.27-2.16-2.6-3.26-4l-.77-1c-1.88-2.4-3.83-5-5.94-7.86-.79-1.08-1.61-2.2-2.45-3.37-.46-.64-.92-1.29-1.36-1.94a17 17 0 0 1 -1-1.42c-.56-.81-1.11-1.64-1.66-2.47-.12-.18-.24-.36-.35-.54q-1.95-3-3.77-6.12c-2.29-3.9-4.4-7.92-6.29-12-.82-1.75-1.59-3.52-2.33-5.3-.15-.35-.29-.7-.43-1a141.9 141.9 0 0 1 -6.47-19.91 1.85 1.85 0 0 1 -.13-.5c-4.4-18.31-5.17-51.31-2.4-69.5 1.31-8.27 2.32-13.06 3.39-13.64.56-.29 1.19.47 2.06 2.37.47 1 .87 2.2 1.47 3.71s1.29 3.32 2.12 5.42c2.24 6.26 4.53 15.65 6.9 25 1 3.93 2 7.86 3 11.54a107.87 107.87 0 0 0 4.63 13.9c1.62 3.63 3.27 7.3 5 11 .76 1.65 1.56 3.32 2.38 5 .34.65.67 1.32 1 2 .62 1.25 1.22 2.49 1.89 3.76s1.32 2.55 2 3.84c1.74 3.35 3.53 6.73 5.53 10.17.16.29.32.58.49.87a1.59 1.59 0 0 0 .13.22c1.3 2.35 2.65 4.63 4.09 7s3 4.77 4.55 7.22c.72 1.1 1.46 2.22 2.22 3.35l1.38 2 6.18 8.95 4.54 6.58 1.63 2.34c1.07 1.57 2.17 3.15 3.28 4.76l2.81 4.11c-.42-2.83-.72-5.67-.9-8.54-.1-.9-.1-1.9-.17-2.73s-.08-1.67-.08-2.51c-.08-1.95-.07-3.86 0-5.86.11-4.06.42-8.11.89-12.11.12-1 .24-1.91.37-2.91 2.09-15.35 6.44-29.85 11.09-43.91 2.34-7 4.74-14 7.09-21s4.53-14.08 6.35-21.38c.34-1.65.74-3.15 1-4.48s.48-2.44.7-3.44c.45-1.93.87-3.12 1.45-3.43s1.33.24 2.4 1.75c.68 1 1.32 2 1.9 3.06a47.81 47.81 0 0 1 2.38 4.68 99.19 99.19 0 0 1 7.3 35.25c.13 4.15 0 8.31-.19 12.52-.34 6-1 12.08-1.94 18.28-.3 2.11-.64 4.24-1 6.38s-.73 4.3-1.11 6.48c-.68 3.83-1.4 7.7-2.14 11.7-.09.52-.18 1-.28 1.57-.57 3.33-1.16 6.72-1.71 10.19-.06.37-.12.74-.17 1.11-.4 2.54-.77 5.12-1.1 7.77-.1.74-.18 1.49-.27 2.24q-.66 5.37-1 11.13a6.57 6.57 0 0 0 -.07 1.17q-.24 3.77-.3 7.77v5.33c0 2.46.08 5 .21 7.54s.27 4.88.49 7.39a.29.29 0 0 0 0 .13 1.22 1.22 0 0 0 0 .27c.14 1.67.31 3.33.5 5 .29-1.61.63-3.22 1-4.83.11-.46.22-.92.34-1.38 0-.21.11-.41.16-.64s.11-.46.17-.69q.66-2.53 1.45-5.08 1.29-4.08 3-8.16a82.3 82.3 0 0 1 4.53-9.18c.26-.45.53-.9.8-1.35a80.85 80.85 0 0 1 6.81-9.63c.26-.35.53-.68.81-1a113.05 113.05 0 0 1 10-10.3l.36-.32.93-.85 1.88-1.67c2.32-2.07 4.67-4 7-5.94 3.41-2.79 6.81-5.47 10.21-8.14 6.76-5.31 13.44-10.42 19.84-15.59a220.76 220.76 0 0 0 17.28-15.51l.64-.64a115.79 115.79 0 0 0 14.73-18.71c4.5-7 8.93-14.85 14.5-22 5.06-6.52 8.71-9.8 9.88-9.69.63.07.68 1 .37 2.9s-1 4.8-1.54 8.9c-1.07 6.11-1.81 12.18-3 18.59a88.58 88.58 0 0 1 -6 20.22 91 91 0 0 1 -12.22 20 140.22 140.22 0 0 1 -17 17.63c-6.32 5.54-13.14 10.75-20.32 15.88l-.78.56c-6.89 5-14.37 9.92-21.23 15a97.76 97.76 0 0 0 -10.1 8.51c-.56.55-1.13 1.12-1.68 1.7a83.83 83.83 0 0 0 -7.34 8.85 28.54 28.54 0 0 0 -4.65 12.45c-.2 1.77.12 2.81 1 2.37l1.37-.67c2.28-1.12 3.56-1.72 4.87-2.26 1.06-.49 2.14-.85 3.8-1.49l2.05-.78c3.65-1.41 7.24-2.68 10.73-3.86 2.29-.79 4.54-1.53 6.74-2.27l.25-.08c3.26-1.09 6.4-2.19 9.53-3.32 2.09-.75 4.17-1.52 6.28-2.31l.8-.3c3.05-1.12 6.13-2.32 9.13-3.57l5.29-2.19.8-.34c2.6-1.08 5.19-2.23 7.79-3.42l1.45-.67 6.24-3 .66-.32c3.28-1.54 6.54-3.22 9.81-5 2.14-1.16 4.3-2.36 6.46-3.6q8.19-4.65 16.25-10.21c2.48-1.65 4.29-3.14 5.73-4.13s2.42-1.52 3-1.4.78.86.65 2.41a41.76 41.76 0 0 1 -1.49 7.26q-.94 3-2.16 5.85a74.71 74.71 0 0 1 -6.33 12 79.37 79.37 0 0 1 -7.83 10.23c-1.2 1.34-2.47 2.65-3.79 3.93s-2.57 2.42-3.9 3.58a105.66 105.66 0 0 1 -19.31 13.16 126.11 126.11 0 0 1 -18.72 7.92c-3.55 1.14-7.29 2.18-11.13 3.07-3.47.78-7 1.47-10.59 2q-6.49.94-13.09 1.63a102.5 102.5 0 0 1 11.08.55c2.63.28 6.65.59 10.94.93 6.51.5 13.64 1.07 17.45 1.67 6.22 1 12.33 2 18.33 2.9 6.2.94 12.35 1.76 18.57 2.29a161 161 0 0 0 38.87-1.06c6.15-1 9.7-2.28 10.7-1.59.46.35.28 1.12-.65 2.54a42.52 42.52 0 0 1 -5.27 6.17c-3.79 3.54-9.51 6.53-15.69 9.13h-201.57v.24l-.37-.24h-5.4l-.36.12.13-.12h-10.7c-.68-.37-1.34-.76-2-1.15a176.06 176.06 0 0 1 -17.21-11.34c-3.71-2.79-7.23-5.72-10.51-8.72-3.76-4.62-7.35-9.55-10.86-14.74v-47.7z" fill="#e9596b"/><path d="m79.28 79a27.2 27.2 0 0 0 -1.75 16.5c1.37 5 .55 15.66-3.11 22.48-2.89 5.38-5.47 7.62-6.26 14.83a54.52 54.52 0 0 0 -.21 7v.92c0 1.69-.15 3.33-.31 4.93a72.69 72.69 0 0 1 -2.8 13.54 34.59 34.59 0 0 1 -2.42 5.42c-.3.55-.61 1.06-.93 1.55a16.69 16.69 0 0 1 -4.24 4.62l-.2.12a10.22 10.22 0 0 0 -3 3.14c-.1.15-.2.3-.29.45a19.62 19.62 0 0 0 -1.16 2.17 24.06 24.06 0 0 0 -1.2 3.26 22 22 0 0 0 -.61 2.39c-.11.52-.2 1-.26 1.52a5.56 5.56 0 0 0 -.1.78c-.1 2.61-.32 5.49-.64 8.56-.16 1.57-.36 3.18-.58 4.84-.41 3.17-.92 6.47-1.5 9.82a4.54 4.54 0 0 0 -.14.82c-.81 4.56-1.81 9.18-2.81 13.65a182.32 182.32 0 0 1 -5.15 18.21l-.61 1.78c-.15.39-.29.78-.44 1.15h-18.33c.35-3.16.86-7.54 1.53-12.54.92-6.92 2.14-15 3.67-22.92.36-1.91.75-3.81 1.15-5.69.46-2.15 1-4.31 1.46-6.31a111.58 111.58 0 0 1 3.4-11.46 37 37 0 0 1 4-8.43q.3-.43.6-.81s2.84-2.29 5.26-9.65c.17-.54.35-1.1.52-1.7a71.55 71.55 0 0 0 2.31-13c.07-.83.14-1.62.22-2.38.25-2.7.49-4.92.75-6.79.93-6.79 2-8.91 4.46-12a24.7 24.7 0 0 0 3.22-4.56c.18-.34.37-.72.56-1.12 1.56-3.26 3-8.31 3.37-16a59 59 0 0 1 1.14-10.27c.14-.72.29-1.38.46-2a24.57 24.57 0 0 1 2-5.45 10.92 10.92 0 0 1 3.83-4.5l1-.56c3-1.79 4.33-3.36 5.41-11.31 1.45-11.12 11.67-16 11.67-16s-.06 14.21-2.94 21z" fill="#5676ef"/><path d="m258.53 177.8c-4.26.47-7.09-.54-14.87-3.22l-.45-.1c-7.07-1.59-11.54-.65-19.64 2q-4.48 1.34-8.84 2.91c-1.29.44-2.58 1-3.86 1.44 1.44-.23 3.09-.46 4.8-.66l.64-.07a65.81 65.81 0 0 1 7.82-.5 22.69 22.69 0 0 1 4.19.39 12.52 12.52 0 0 1 3.55 1.25 8.81 8.81 0 0 1 3.44 3.41 9 9 0 0 1 1.19 3.3 3.26 3.26 0 0 1 -1.5 3.05l-.32.22a7.69 7.69 0 0 1 -2.71.91 17.44 17.44 0 0 1 -3.23.14c-.42 0-.79-.11-1.13-.11h-.18l-1.1-.15a23.66 23.66 0 0 1 -2.39-.54c-.85-.24-1.77-.53-2.77-.91s-2-.81-3-1.29c-3.59-1.77-7.41-4.2-11.59-6.77a169.43 169.43 0 0 0 -17.87 8.71 42.86 42.86 0 0 1 4.63-1 36.34 36.34 0 0 1 8.07-.48 17.11 17.11 0 0 1 6.6 1.52c4 2.17 5.26 4.9 4.53 6.75s-3.13 3-6.73 3c-3.26-.13-6.23-1.3-9.63-2.92-3.13-1.48-6.64-3.35-10.85-4.91-.25.14-.51.29-.76.45a175.92 175.92 0 0 0 -15 10.06c6.11-1 16.14-2.35 21-1.22 9.14 2.21 8.76 7.41.14 8.69-7.18.81-14.61-2.13-23.61-5.58-4.46 3.43-8.76 7.07-12.91 10.87.94-.45 1.94-.92 3-1.38a47 47 0 0 1 8-2.67 17.15 17.15 0 0 1 7.06-.37 10.58 10.58 0 0 1 5.11 2.55 5.24 5.24 0 0 1 1.17 1.73 4.06 4.06 0 0 1 .27 1.69 5.09 5.09 0 0 1 -1.93 3.45 11.56 11.56 0 0 1 -4 2.14c-3.34.91-6.81.56-10.81-.33-3.49-.77-7.41-1.94-11.72-3.12-4.55 4.39-8.91 9-13.1 13.71 1.9-.81 4.44-1.82 7.23-2.74 6-2 13.27-3.51 17.41-2.69 5.23 1.07 7.71 3.45 7.72 5.78s-2.4 4.57-6.93 5.78c-4.11.94-8.38.47-13.11-.53-4.24-.92-8.88-2.32-14.09-3.57q-3.25 3.75-6.34 7.62h-7.13a37.75 37.75 0 0 1 -2.91-4.08c-.25-.39-.49-.8-.73-1.22a32.81 32.81 0 0 1 -3.16-7.27 13.82 13.82 0 0 1 -.57-6.32.21.21 0 0 1 0-.11c1-4.18 3.64-5.88 6-5.64a6.46 6.46 0 0 1 4.32 2.59 12 12 0 0 1 1.55 2.8c1 2.95.71 5.84-.07 9.29v.11c-.56 2.56-1.39 5.44-2 8.71q5.79-7 12-13.63c-.17-.42-.37-.9-.62-1.48s-.54-1.23-.87-1.92c-.65-1.39-1.43-3-2.31-4.55-.28-.52-.57-1-.87-1.57-1.06-1.87-2.21-3.74-3.21-5.45-.25-.43-.5-.85-.73-1.26a20.74 20.74 0 0 1 -2.07-4.55c-1-4.12-.45-7.1 1.48-8.42a4.41 4.41 0 0 1 3.73-.43 7.75 7.75 0 0 1 1.47.58 11.54 11.54 0 0 1 2.41 1.7c.33.32.66.65 1 1s.58.72.85 1.1a16.64 16.64 0 0 1 2.34 4.67 24.08 24.08 0 0 1 1.09 6.9v1.59c0 .76-.08 1.52-.17 2.3a40.49 40.49 0 0 1 -1.74 8q4.45-4.67 9.18-9.06a70.47 70.47 0 0 1 -2.66-8.51 43.31 43.31 0 0 1 -1.29-8.54 19.65 19.65 0 0 1 .11-3.16 12.76 12.76 0 0 1 1.21-4.44 10.38 10.38 0 0 1 4.42-4.66 4.41 4.41 0 0 1 4-.1 6 6 0 0 1 2.53 2.85 11.28 11.28 0 0 1 .63 1.71 15 15 0 0 1 .52 2.81 16.41 16.41 0 0 1 -.59 4.78 38.44 38.44 0 0 1 -2 5.4c-1.33 3-3.11 6.33-4.91 10 3.85-3.46 7.76-6.82 11.85-10a6.81 6.81 0 0 0 .48-1.15 15.53 15.53 0 0 0 .53-2.7c.11-1.11.24-2.31.37-3.56.27-2.51.5-5.19.68-7.51v-.42a36 36 0 0 1 .57-5.28 15.37 15.37 0 0 1 1.54-4.15 3.53 3.53 0 0 1 2.17-1.88 3.09 3.09 0 0 1 2.8 1.08 9.74 9.74 0 0 1 2.3 4.88 15 15 0 0 1 -.3 6.12 22.26 22.26 0 0 1 -2.39 5.77 41.88 41.88 0 0 1 -3 4.46q6.09-4.44 12.55-8.35a6.35 6.35 0 0 0 .29-1.14 14.71 14.71 0 0 0 .2-2.18v-8.84a15.88 15.88 0 0 1 .54-4.75c1.06-2.91 2.7-4.46 4.43-4.46h.1a2.64 2.64 0 0 1 .62.08c1.52.36 3 2 3.58 5a11.71 11.71 0 0 1 -.16 4.09 17.37 17.37 0 0 1 -2 5.07 31.41 31.41 0 0 1 -3.17 4.35c-.12.14-.23.28-.35.41 3-1.73 6.07-3.36 9.18-4.9l.3-1c.44-1.56.94-3.67 1.32-5.86v-.19c.31-1.87.55-3.78.76-5.53 0-.24.08-.48.08-.71a21.32 21.32 0 0 1 1-5c1.4-3.25 3.3-5.32 5.3-5.79a3.11 3.11 0 0 1 2.86.79 6.64 6.64 0 0 1 1.76 4.09 14.26 14.26 0 0 1 -.82 5.57 21.32 21.32 0 0 1 -.93 2.2c-.15.32-.31.63-.49.94a27 27 0 0 1 -1.52 2.45 36.37 36.37 0 0 1 -5.64 6.18q6-2.82 12.3-5.15a8.18 8.18 0 0 0 .32-.82c.09-.28.17-.6.25-.94.2-1 .34-2.18.57-3.57a16.17 16.17 0 0 1 .52-2.16c1.07-3.55 3.25-7.74 4.64-9.2 2.15-2.23 4.11-2.56 5.23-1.69s1.41 2.83.64 5.44v.1c-.83 2.32-3.61 5.7-5.4 7.7-.92 1-1.88 2-3 3.2a9.44 9.44 0 0 1 -1 1q4.44-1.61 9-2.94c5.75-2.55 10.9-6.84 16.27-9.55a27.2 27.2 0 0 1 12.49-3.17c1 0 2 .07 3 .16 7.23 1.09 12.62 4.24 13.13 9 .11 2.84-3.47 5.61-7.18 6.2z" fill="#582fb3"/><path d="m190.53 124.39c-5.89 4.45-9.59 10-9.89 17.45 0 3.16-1.16 7.28-3.16 11.39-2.64 5.3-6.81 10.56-11.94 13.64-5.85 3.52-10.43 4.65-14.35 9.35-2.15 2.62-4.13 6.36-6 12.22a57.84 57.84 0 0 1 -5.34 10.78 51.91 51.91 0 0 1 -3 4.32 75.13 75.13 0 0 1 -5.35 6.19 32.08 32.08 0 0 1 -3.5 2.87c-4.51 3.22-9.69 5.26-14.3 5.39a14.06 14.06 0 0 0 -1.59 0c-7 .57-13.15 6.26-16 11.51 0 0-.13.25-.38.69a58.05 58.05 0 0 1 -3.2 5 70.38 70.38 0 0 1 -7 8.32h-27.93v.24l-.37-.24-1.81-1.18-1.47-1-4.33-2.84a35.42 35.42 0 0 1 2.38-8.81 40.29 40.29 0 0 1 4.87-8.84 37.84 37.84 0 0 1 10.79-10 41.27 41.27 0 0 1 7-3.43q.77-.3 1.56-.57s8.33-.84 17.59-12.84a71.11 71.11 0 0 0 6.65-10.57c.67-1.31 1.3-2.53 1.9-3.68q.45-.87.9-1.68c3.12-5.83 5.25-9.16 7.59-11.61s4.67-3.55 8-4.71a32.67 32.67 0 0 0 6.51-2.54 29.75 29.75 0 0 0 9.87-9.1 50 50 0 0 0 5.13-9.32 63 63 0 0 1 3.46-7.11 38.92 38.92 0 0 1 5.8-7.93 24 24 0 0 1 4-3.38 15.61 15.61 0 0 1 9-2.92c1.36.07 2.56.07 3.66.07 4.64-.12 7.48-1.67 12.22-9.59 4.5-7.67 13.56-9.82 19.82-10.34a39 39 0 0 1 6.66 0s-6.65 18.59-14.45 24.8z" fill="#5676ef"/><path d="m140 219c-.65 1-1.68 2.41-3.09 4.27-.62.73-1.24 1.45-1.88 2.16a88.75 88.75 0 0 1 -15.92 14q-3.12 2.15-6.51 4.08h-55v.24l-.37-.24h-5.4l3.59-1.18 1.75-.57q2.73-.88 5.46-1.74 8.4-2.64 16.92-5.13c5.31-1.57 10.67-3.12 16.1-4.69q7.08-2.06 14.33-4.19c1.54-.45 3.09-.92 4.64-1.39q5.13-1.53 10.35-3.16c2.27-.71 4.55-1.43 6.85-2.18l1.54-.49c3.43-1.19 5.72-2.12 6.78-2.12s.94.57-.14 2.33z" fill="#ff848c"/><path d="m.37 152.24v91.1l.16.18h51.12c.8-.71 1.52-1.37 2.35-2.14s1.66-1.52 2.48-2.27 1.64-1.49 2.46-2.2c2.37-2 4.62-4.1 6.9-6l.86-.72c2.53-2.16 5-4.22 7.39-6.16l1.75-1.43c7-5.72 13.54-10.79 19.61-15.53l4.87-3.8q5.25-4.11 10.11-8l.82-.65 2-1.62c2-1.58 3.86-3.14 5.73-4.7 8-6.66 15.39-13.27 22.89-20.57 8.29-8.38 7-7.7-2.56-4.87l-.78.23c-1.7.52-3.4 1.06-5.09 1.64q-5.19 1.74-10.26 3.81-6.42 2.6-12.62 5.69c-2.45 1.22-4.89 2.5-7.29 3.84-1 .56-2 1.14-3 1.72-3.29 1.86-6.38 3.8-9.67 6s-6.51 4.51-9.63 6.93l-.37.29c-1.15.9-2.29 1.8-3.41 2.73l-1.09.9q-4.95 4.13-9.53 8.57a160.74 160.74 0 0 0 -12.13 13.18q-2.92 3.54-5.59 7.22c-.09.12-.18.23-.26.35l.19-.42c.55-1.24 1.09-2.46 1.63-3.64.8-1.79 1.61-3.52 2.44-5.21a158 158 0 0 1 8.6-15.35c.47-.74.94-1.48 1.42-2.2 2.31-3.5 4.65-6.78 7-9.88 1.2-1.62 2.42-3.13 3.63-4.62 2.14-2.64 4.32-5.17 6.5-7.64 1.92-2.18 3.92-4.31 5.92-6.51q1.89-2.07 3.75-4.18c1.46-1.65 2.86-3.3 4.29-5.05s2.82-3.55 4.15-5.41a80.88 80.88 0 0 0 4.49-6.91 64.63 64.63 0 0 0 3.75-7.49c.36-.83.69-1.67 1-2.51 3.54-9.85 4.26-18.31 6.16-26.31a44 44 0 0 1 1.33-4.84c.18-.63.37-1.22.56-1.78a47.8 47.8 0 0 1 2-5c.67-1.4.85-2.18.46-2.24s-1.65.54-3.45 2a38.55 38.55 0 0 0 -5.08 5.14 51.91 51.91 0 0 0 -3.43 4.64 159.1 159.1 0 0 0 -8 14.07l-.81 1.5c-1.24 2.27-2.47 4.49-3.76 6.49-.15.23-.29.46-.44.68a72.79 72.79 0 0 1 -4.74 6.32c-.33.39-.66.79-1 1.18-2.58 3-5.37 5.91-8.37 8.85-.84.84-1.69 1.67-2.55 2.51l-2.39 2.35-.63.62c-2.21 2.17-4.45 4.41-6.68 6.78-.3.3-.58.61-.87.92-1.67 1.81-3.34 3.7-5 5.63-.8.92-1.59 1.92-2.36 2.92q-2.46 3.15-4.7 6.45c-1 1.46-2 2.95-2.9 4.46-.27.42-.52.84-.77 1.26a118.14 118.14 0 0 0 -6.24 11.7 115.59 115.59 0 0 0 -5.79 15.36c-.06.19-.12.38-.17.57-.29 1-.56 1.9-.8 2.84.14-.92.27-1.83.4-2.73.42-3 .8-5.87 1.17-8.66.51-3.62 1-7.07 1.51-10.35.17-1 .32-1.94.49-2.88.13-.77.27-1.45.43-2.27s.31-1.68.49-2.48.38-1.51.56-2.37.43-1.8.62-2.5.37-1.34.57-2.08.42-1.46.65-2.18.46-1.43.71-2.15c.49-1.41 1-2.8 1.54-4.19a1.36 1.36 0 0 0 .15-.41c1.46-3.7 3.06-7.35 4.66-11 .16-.31.31-.66.46-1 .46-1 .92-2.09 1.36-3.09 1.65-3.74 3.26-7.5 4.72-11.3l.84-2.25c.66-1.81 1.27-3.62 1.84-5.41q1.8-5.69 3.06-11.27a117.48 117.48 0 0 0 2.48-32.23c-.22-2.41-.44-4.33-.66-5.79-.43-2.84-.87-4-1.35-3.74-.73.36-1.59 3.55-3.45 8.8q-.21.52-.39 1.08-.81 2.19-1.64 4.37l-.48 1.23q-4 10.28-8.58 20.1-2.12 4.53-4.35 9c-.42.87-.85 1.73-1.29 2.59-3 6-6.26 11.75-9.5 18l-.74 1.44c-.43.86-.86 1.71-1.29 2.59-1 1.93-1.92 3.94-2.82 6-1.41 3.18-2.72 6.48-3.85 9.91-.36 1.08-.69 2.18-1 3.29-.21.73-.42 1.47-.61 2.21-.44 1.86-.82 3.72-1.2 5.58v.22c-.28 1.75-.62 3.66-.79 5.27s-.34 3.24-.46 4.84v.55q-.32 3.92-.31 7.69c-.05 3.54 0 7 .14 10.36 0 .78.08 1.55.08 2.32.2 5.57.51 10.94.62 16.22-.67-1.56-1.26-3.1-1.83-4.63a75.76 75.76 0 0 1 -3.55-14.85 5.23 5.23 0 0 1 -.11-.78 74.88 74.88 0 0 1 -.58-11.69c0-.79.07-1.58.07-2.36.07-1.42.18-2.85.3-4.29.25-3.06.58-6.15.86-9.29q.21-2.37.36-4.77c.13-2.27.2-4.57.2-6.88-.05-.69-.05-1.39-.05-2.08v-.28a58.56 58.56 0 0 0 -1.48-11.44c-.18-.78-.39-1.53-.61-2.3s-.46-1.53-.71-2.28a49.27 49.27 0 0 0 -4-9 47.67 47.67 0 0 0 -8.19-10.7c-.76-.65-1.4-1.23-2.06-1.72v26.25z" fill="#ff848c"/><path d="m41.35 243.51h-5.35l-.36.12.13-.12h-8c-1.4-1-2.79-2-4.1-2.93l-.38-.27a37.22 37.22 0 0 1 -6.86-5.58c-3.67-4.55-4.93-8.68-3.43-11.75a6.27 6.27 0 0 1 4.39-3.19 14.84 14.84 0 0 1 8.35.94 21.14 21.14 0 0 1 3.08 1.64 23.65 23.65 0 0 1 4 3.26l.07.07a28.47 28.47 0 0 1 3.26 4 33.47 33.47 0 0 1 2.85 5.3 39.9 39.9 0 0 1 1.53 4.12c.28.87.52 1.76.74 2.66.14.57.27 1.16.38 1.75v.24z" fill="#582fb3"/><path d="m227 37.44c-5.09 4.93-11.85 9-21.94 13.26-4.26 1.76-8.81 3.43-13.88 5.29l-7.51 2.76-1.69.62a37.27 37.27 0 0 0 -4.87 2.07q-8.2 5.24-15.94 11.13c1.91-.84 4.1-1.84 6.39-2.84a103.47 103.47 0 0 1 11.48-4.17 33.28 33.28 0 0 1 5.96-1.12 16.79 16.79 0 0 1 5.38.34 12.09 12.09 0 0 1 6 3.42 13.25 13.25 0 0 1 2.89 4.24 5 5 0 0 1 -1.39 5.28 11.08 11.08 0 0 1 -3.4 2.35 25.82 25.82 0 0 1 -4.42 1.49c-.69.14-1.29.26-1.86.34s-1 .17-1.57.23a34.2 34.2 0 0 1 -3.5.19 41.09 41.09 0 0 1 -4.17-.18c-1.47-.14-3-.36-4.54-.64a182.82 182.82 0 0 1 -18.51-4.89q-5.43 4.38-10.56 9-5.62 5-10.92 10.41a59.38 59.38 0 0 1 6-3.32c1.46-.68 2.92-1.33 4.46-1.91a47.66 47.66 0 0 1 6.52-2 23.88 23.88 0 0 1 9.67-.49c6.31 1.45 9 4.67 8.74 7.67s-3.18 5.55-8.18 7c-4.55 1.11-9.08.65-14.38-.27-1.26-.22-2.61-.47-4-.74a127.72 127.72 0 0 0 -12.76-1.85l-.89.93q-9 9.66-17 20.13c8-3.84 21.41-9.73 28.53-10.08 10.46-.41 13.59 4 9.06 8.47a19.89 19.89 0 0 1 -5.72 3.69 34.75 34.75 0 0 1 -8.12 2.2c-.92.14-1.86.25-2.81.34-7 .59-14.89-.19-23.74-1q-6.6 8.91-12.48 18.27l-1.33 2.33c.38-.35.77-.7 1.18-1 .77-.68 1.59-1.38 2.44-2.08a66.25 66.25 0 0 1 10-6.93c3.48-1.91 6.92-3.19 9.62-3.34a14.87 14.87 0 0 1 8 1.55q.25.15.51.33a6.08 6.08 0 0 1 2.75 3.91 1.34 1.34 0 0 1 .08.55c.19 2.15-.71 4.45-2.71 6.62a17.92 17.92 0 0 1 -2 1.9l-.8.62-.73.5a22.84 22.84 0 0 1 -5.15 2.3 42.66 42.66 0 0 1 -9.91 1.56c-4 .25-8.4.25-13.19.25h-4.09q-7 12-13 24.48c2.34-1.9 5.47-4.33 9-6.74 2.23-1.52 4.6-3 7-4.4 5.11-2.94 10.37-5.31 14.46-6.08a14.36 14.36 0 0 1 1.62-.23 27.26 27.26 0 0 1 3-.07 16.78 16.78 0 0 1 5.52 1 7.23 7.23 0 0 1 3.8 3 5 5 0 0 1 .49 1.17c.87 3.28-1.63 7.37-7.44 10.88a29.66 29.66 0 0 1 -5.34 2.3 44.94 44.94 0 0 1 -9.17 1.86c-1.24.14-2.5.24-3.8.32-1.15.07-2.32.17-3.52.17-2.6.1-5.32.14-8.16.19h-2.2c-2.29 0-4.61.1-7 .2-.92 1.94-1.83 3.89-2.71 5.85q-3.69 8.06-7 16.26l.17-.21a34.11 34.11 0 0 1 5.08-4.6 56 56 0 0 1 5-3.29l1-.57c2-1.11 3.85-2.18 5.79-3.11a30.6 30.6 0 0 1 10.17-3.22h.54a22.66 22.66 0 0 1 3.59.16 17 17 0 0 1 2.9.62 9.31 9.31 0 0 1 1.21.45 9.54 9.54 0 0 1 1.11.55l.28.17a5.77 5.77 0 0 1 3 4.26 7.3 7.3 0 0 1 -1.72 5.12 19.88 19.88 0 0 1 -5.82 4.86 30.19 30.19 0 0 1 -7.85 2.67 52 52 0 0 1 -9.22 1h-3.29c-2.12 0-4.24.07-6.34.26a19.69 19.69 0 0 0 -8.68 2.85q-2.38 6.18-4.59 12.42-2 5.48-3.79 11a70.31 70.31 0 0 1 5.71-6c6.73-6.33 15.72-12.14 21.42-13.14 7.11-1.19 11.52.56 12.86 3.56 1 2.18.37 5.06-2 8a22.33 22.33 0 0 1 -3.92 3.73 36.33 36.33 0 0 1 -13.61 5.45c-1.15.26-2.34.48-3.55.69-5.63 1-11.94 1.71-18.85 3.64-.43 1.33-.85 2.67-1.26 4h-7.32c.38-1.17.77-2.33 1.16-3.49q1.53-4.58 3.16-9.12c.32-1 .66-1.87 1-2.87-.26-.14-.53-.31-.82-.48a66.87 66.87 0 0 1 -7.5-5.32c-.53-.43-1-.88-1.58-1.35-.86-.76-1.71-1.57-2.54-2.4a22.9 22.9 0 0 1 -1.59-1.7c-.68-.74-1.31-1.5-1.89-2.26a22.47 22.47 0 0 1 -3.38-5.8 5 5 0 0 1 -.22-.65 8.1 8.1 0 0 1 -.31-1.38c-.47-3.88.5-6.78 2.17-8.61a7.12 7.12 0 0 1 3-2 7.38 7.38 0 0 1 1.68-.35c2.88-.31 6.12.86 9 3.45l.49.46a15.4 15.4 0 0 1 3.21 5.61 29.72 29.72 0 0 1 1.2 5.6 9.87 9.87 0 0 1 .11 1c.36 3.3.49 7 .82 11.09q2.85-7.81 6-15.55c.46-1.16.93-2.31 1.41-3.46q1.41-3.43 2.91-6.86c-.38-.24-.78-.53-1.22-.85l-.65-.47a55.82 55.82 0 0 1 -6.63-5.74l-.72-.74a45 45 0 0 1 -6.32-8.22c-1.87-3.17-3.06-6.34-3.12-8.81a15.41 15.41 0 0 1 .36-3.77 10.67 10.67 0 0 1 .79-2.33 7.47 7.47 0 0 1 .85-1.44.21.21 0 0 1 .08-.11 3.75 3.75 0 0 1 .44-.53 6.44 6.44 0 0 1 3.64-2.11h.05c3.41-.63 7.24 1.3 10.24 5.3a20.37 20.37 0 0 1 3.11 9.82c.1 1 .21 2.13.21 3.26.15 3.73.08 8 .41 12.73v.47l.34-.76c3.5-7.83 7.19-15.57 11.19-23.16-.4-.54-.86-1.15-1.4-1.83-.34-.4-.72-.91-1.11-1.4-1.6-1.93-3.6-4.18-5.71-6.48-1.59-1.68-3.28-3.37-4.93-5l-2.78-2.73-.51-.5c-.6-.6-1.19-1.19-1.74-1.76a28.26 28.26 0 0 1 -4.28-5.29 23.53 23.53 0 0 1 -1.72-4c-1.07-3.24-1-5.94.23-7.87a5.24 5.24 0 0 1 .44-.61 6.31 6.31 0 0 1 5-2.09 13.54 13.54 0 0 1 6.06 1.59 19.61 19.61 0 0 1 1.86 1 23.37 23.37 0 0 1 3.89 3.41 24.43 24.43 0 0 1 2.64 3.43v.07a34.58 34.58 0 0 1 4 9.18 52.54 52.54 0 0 1 1.75 12.48v5q4.39-8.31 9.3-16.31c-.2-.28-.43-.59-.66-.94a98.49 98.49 0 0 1 -6.14-10c-1.07-2-2.15-4.17-3.07-6.38-.34-.85-.7-1.77-1-2.6s-.58-1.66-.83-2.51c-1.24-4-1.66-8.2-1-11.2a15.63 15.63 0 0 1 4.39-8.37 6.22 6.22 0 0 1 5.47-1.73 8.34 8.34 0 0 1 4.55 3 16 16 0 0 1 1 1.3 20.8 20.8 0 0 1 2.29 4.6c.16.55.31 1.1.43 1.66a26.06 26.06 0 0 1 .51 5.29 58.75 58.75 0 0 1 -.73 8.38c-.5 3.42-1.27 7.08-2.08 11-.32 1.64-.66 3.32-1 5.06q4.83-7.82 10.15-15.3 1.25-1.77 2.53-3.51a9.16 9.16 0 0 0 .24-1.81 21.4 21.4 0 0 0 -.26-4l-.37-2.38c-.14-.9-.28-1.78-.43-2.78-.33-2.16-.69-4.39-1.06-6.53-.25-1.45-.5-2.86-.74-4.19v-.06c-.35-1.91-.7-3.64-.93-5.16a23 23 0 0 1 -.33-3.1 23.66 23.66 0 0 1 .59-6.44 5.21 5.21 0 0 1 2.31-3.51 4.18 4.18 0 0 1 4.25.4l.41.26a14.28 14.28 0 0 1 4.54 5.8 21 21 0 0 1 1.24 3.75 24.09 24.09 0 0 1 .62 5 33.92 33.92 0 0 1 -1.19 9.07 61.39 61.39 0 0 1 -2.54 7.47q6.8-8.66 14.27-16.73a9.88 9.88 0 0 0 0-1.72 22.41 22.41 0 0 0 -.59-3.15c-.33-1.26-.68-2.61-1-4-.57-2.16-1.2-4.4-1.75-6.52-.18-.65-.35-1.29-.5-1.91a24.38 24.38 0 0 1 -1-6.89c.39-4.6 2.16-7.4 4.61-8.07 1.83-.49 4.09.33 6 2.73a13.39 13.39 0 0 1 1.7 2.82c1.76 4.16 1.65 8.88.35 13.73a44.93 44.93 0 0 1 -2.78 7.38c-.11.24-.21.48-.33.72q5.28-5.45 10.89-10.54v-1.59c0-2.37-.07-5.52-.34-8.76s-.74-6.53-1.15-9.43a32.48 32.48 0 0 1 -.45-7.5c.74-5.13 2.54-8.77 5.2-10.25l.14-.07a4.38 4.38 0 0 1 4.1 0c1.46.72 2.88 2.36 3.95 5a21 21 0 0 1 .91 8.15 36.08 36.08 0 0 1 -2 9 51.8 51.8 0 0 1 -2.69 6.1c-.9 1.7-1.84 3.37-2.9 5 .94-.82 1.85-1.63 2.85-2.42q6-5.06 12.26-9.72c.06-.42.11-.85.14-1.28a57.12 57.12 0 0 0 -.54-6.66c-.53-5.56-.09-12.09 1.6-15.26 2.16-4 4.72-5.22 6.61-4.45s3 3.38 2.89 7.38a27.12 27.12 0 0 1 -3.32 10.37c-.93 1.79-1.88 3.58-3 5.69a15.83 15.83 0 0 1 -1 1.75q5.55-4 11.41-7.79a24.14 24.14 0 0 0 2.84-2.79c.61-.88 3.12-4.64 4.41-6.42a86.45 86.45 0 0 1 6.62-8.74c3.35-4 15.06-17.26 24.89-21.49 9.21-3.91 16.72-4 20.13-.27s1.61 9.81-4.69 16.5z" fill="#582fb3"/><path d="m51.62 243.49h.23l-.36.12z" fill="#fff"/><path d="m57.3 243.49h.32v.24z" fill="#fff"/><path d="m.34 159.84v-7.6" fill="none"/><path d="m.34 125.44v.56l-.34-.28z" fill="#fff"/></svg>