<svg viewBox="0 0 281.04 243.73" xmlns="http://www.w3.org/2000/svg"><g transform="translate(-18.35 -6.56)"><path d="m47.23 210.82c5-3.6 10.31-8.35 17.11-13.24 1.12-.8 2.28-1.61 3.49-2.42a110.46 110.46 0 0 1 11.27-6.63c1.34-.68 2.65-1.32 4-1.9.53-.25 1-.48 1.58-.71q2.63-1.12 5.17-2c1.91-.68 3.78-1.28 5.64-1.81l1-.27c2.64-.72 5.24-1.3 7.83-1.77 3.16-.6 6.31-1 9.47-1.4l.72-.08c1.88-.21 3.76-.39 5.66-.57 10.3-1 19.29 1.85 28 4.8 2.25.75 4.48 1.52 6.72 2.22l1.37.43a105.58 105.58 0 0 1 22.74 10.13c2.5 1.47 4.93 3 7.28 4.62.36.23.71.48 1.06.72l.77.53 1.6 1.12-.76-.74-.81-.78c-.74-.73-1.47-1.45-2.19-2.18q-2.25-2.23-4.35-4.46c-2.68-2.82-5.17-5.58-7.41-8.2a27.77 27.77 0 0 1 -1.84-2.44 78.14 78.14 0 0 1 -6.35-12.48c-.69-1.6-1.38-3.22-2.07-4.83a101.08 101.08 0 0 0 -6-12.39l-.5-.84a1.71 1.71 0 0 1 -.13-.23q-2.4-4-4.59-8.29c-2.1-4.08-4-8.32-5.78-12.73-.41-1-.79-2-1.17-3q-1-2.71-1.9-5.51c-.61-1.91-1.18-3.84-1.71-5.81-.81-3-1.51-6-2.11-9.13q-.24-1.22-.45-2.43-.75-4.36-1.21-8.74c-.18-1.72-.33-3.45-.45-5.18q-.15-2-.24-4c0-.33 0-.66 0-1 0-.85 0-1.71 0-2.56a100.9 100.9 0 0 1 4.27-28.37q.66-2.34 1.42-4.76c3.92 15.08 5.92 19.65 11.62 27.91l.24.37c3.25 5 6.5 10.28 9.11 14.14.9 1.33 1.72 2.49 2.44 3.42 1.82 2.61 3.57 5 5.31 7.17a114.49 114.49 0 0 0 7.71 8.81c1.19 1.23 2.39 2.4 3.6 3.55.87.82 1.75 1.62 2.63 2.43 1.58 1.39 3.19 2.78 4.85 4.17 3.51 2.94 7.29 5.92 11.5 9.31 1.54 1.24 3.14 2.53 4.8 3.89 1.39 1.13 2.82 2.32 4.31 3.56.83.8 1.67 1.64 2.51 2.54 2.16 2.29 4.38 4.89 6.64 7.67 1.59 2 3.21 4 4.84 6.11l1.77 2.27c3.05 3.93 6.16 8 9.32 11.85.14.18.28.36.44.53a.28.28 0 0 1 .08.11c1.75 2.13 3.51 4.2 5.29 6.18q1.53 1.71 3.09 3.32l.25.27.07.07c-.14-.78-.29-1.57-.42-2.37 0-.16-.06-.31-.08-.47a263.49 263.49 0 0 1 -3.3-29.43c-.09-1.67-.18-3.32-.25-5-.09-2-.15-4-.21-6-.3-10.95-.18-22.41 0-33.54 0-.25 0-.5 0-.74.14-7 .32-14 .46-20.52q.1-4.41.16-8.58c0-.65 0-1.31 0-2 0-2.43 0-4.86 0-7.31 0-2.14-.05-4.3-.11-6.46 0-1.72-.1-3.43-.18-5.15q-.12-3.16-.34-6.31c-.11-1.49-.23-3-.38-4.46-.3-2.67-.5-6.27-.75-10.37-.4-7.79-1.12-17.45-3.16-25.89 0 0 17.41 13.34 24.24 23.7 7.13 9.57 11.12 20.4 13.12 26.06.59 1.66 1.12 3.34 1.61 5a142.12 142.12 0 0 1 4.79 28.83c.25 3.34.43 6.66.57 10 .15 3.47.26 6.9.37 10.3.18 5.78.35 11.42.69 16.84l.09 1.55v.68c.1 1.9.19 3.84.27 5.79.15 3.79.25 7.66.33 11.56.06 2.66.09 5.33.13 8v3.69c0 3.76.06 7.5.08 11.16v1.58q0 3.74.06 7.34c0 5.12.11 10 .26 14.49 0 .86.06 1.71.09 2.54.05 1.34.14 2.71.25 4.12v.47c0-.17.09-.35.14-.53a79.49 79.49 0 0 1 2.59-8c1.48-3.95 3.2-7.88 4.79-11.33.58-1.26 1.15-2.46 1.68-3.57 1.73-3.61 3.62-7.08 5.58-10.43v83.65h-51.2l.13.12-.36-.12h-5.4l-.37.24a2 2 0 0 1 0-.24h-129.25c-7.55-5.31-17.19-11.91-25.79-17.48-6.46-4.19-12.34-7.81-16.31-9.87-9.42-5.2-17.14-8.01-23.19-11.88z" fill="#9daefe"/><path d="m215.22 18.42c3.56-3.35 9.73-2.13 15.88 2a26.9 26.9 0 0 1 9.35 12.09l.33.8c2.22 5.69 3.22 12.56 5.86 18.45q2.53 4.16 4.84 8.43c-.06-.49-.1-1-.12-1.43-.06-1.68-.11-3.11-.13-4.53 0-2.79.17-7.42 1.12-9.76 1.17-2.55 2.7-3.88 4.12-3.79s2.68 1.67 2.81 4.87c.09 2.53-1.65 9-3.71 12.34a38.7 38.7 0 0 0 -2.38 4.11c-.13.31-.24.6-.32.86q3.13 6.04 5.83 12.35a38.44 38.44 0 0 1 -.11-8.76 25.22 25.22 0 0 1 1.52-6.35 15.09 15.09 0 0 1 3.1-4.89 6.67 6.67 0 0 1 4.07-2 3.08 3.08 0 0 1 2.72 1.36c1.23 1.76 1.24 4.63.12 8.11a22.37 22.37 0 0 1 -2.6 4.61c-1.2 1.71-2.52 3.71-3.69 5.63s-2.21 3.94-2.93 5.45c-.18.37-.33.71-.47 1q2 5 3.64 10c0-.19 0-.37 0-.56a32.66 32.66 0 0 1 .52-5.54 14.84 14.84 0 0 1 4.47-8.6 7.59 7.59 0 0 1 4.1-1.84 3.32 3.32 0 0 1 2.51.73c1.35 1.18 1.6 3.51.43 6.54a16.75 16.75 0 0 1 -2.77 4.06c-1.24 1.49-2.69 3.1-4 4.65l-1.9 2.21a14.3 14.3 0 0 0 -1.35 1.82 7.37 7.37 0 0 0 -.55 1.08c1.5 5 2.78 10 3.88 15a42.4 42.4 0 0 1 .7-5.53 23.46 23.46 0 0 1 2.05-6.12 16 16 0 0 1 3.9-5 9.63 9.63 0 0 1 4.94-2.12 3 3 0 0 1 2.83 1.07 3.7 3.7 0 0 1 .37 2.94 16.77 16.77 0 0 1 -1.61 4.27 16.1 16.1 0 0 1 -1.06 1.7c-.65.93-1.44 2-2.3 3.13-1.41 1.92-3 4.15-4.5 6.3l-2.1 3a15.52 15.52 0 0 0 -1.41 2.46 6.16 6.16 0 0 0 -.4 1.22q1.41 7.88 2.22 15.85c1.1-4.08 1.95-7.84 3-11.13a40.47 40.47 0 0 1 2.14-5.54 16.81 16.81 0 0 1 2.74-4.12c.33-.32.66-.61 1-.89a12.67 12.67 0 0 1 2.91-1.84 5.84 5.84 0 0 1 3.8-.49 3.58 3.58 0 0 1 1 .43 4.76 4.76 0 0 1 1.93 2.36 11.07 11.07 0 0 1 .21 6.63 16.8 16.8 0 0 1 -4.08 6.8 35.93 35.93 0 0 1 -4.53 4.12l-.47.37-1.69 1.29a71.29 71.29 0 0 1 -7.69 4.81q.56 6 .79 11.92c0 .46 0 .91.06 1.37a40 40 0 0 1 6.49-10.57 25.58 25.58 0 0 1 2.34-2.32 22.83 22.83 0 0 1 3.09-2.29 16.63 16.63 0 0 1 6.26-2.32 10.71 10.71 0 0 1 5.83.79 5.7 5.7 0 0 1 .88.53l.34.28-.34.27v6.76a15.75 15.75 0 0 1 -2.87 2.59 25.79 25.79 0 0 1 -6 2.6l-1.39.46c-1.78.59-3.65 1.21-5.48 1.88l-.9.33c-2.57 1-5 2-6.71 2.88-.56.26-1 .51-1.46.72.18 6.25.13 12.5-.09 18.74 1.76-3 3.07-5.83 4.37-8.23a18.9 18.9 0 0 1 4.92-6.44 10.59 10.59 0 0 1 1.23-.83l.12-.06c3.09-1.56 6.08-1.57 8-.13s2.76 4.52.75 8.48a14 14 0 0 1 -4.7 4.62 31.43 31.43 0 0 1 -5.31 2.77c-.54.23-1.08.44-1.61.62l-.32.12a39.69 39.69 0 0 1 -6.54 1.68l-1 .16c0 .35 0 .7-.05 1.05-.06 1.35-.14 2.69-.22 4v.15q-.43 7.2-1.16 14.36c1.48-2.47 2.71-4.8 4-6.77.09-.15.18-.29.28-.43a14.89 14.89 0 0 1 5.25-5.4 8.22 8.22 0 0 1 1.12-.53 3.31 3.31 0 0 1 .42-.12c3.14-.93 6-.37 7.73 1.31a4.69 4.69 0 0 1 .42.47c1.43 1.79 1.67 4.65-.39 7.84a12.09 12.09 0 0 1 -4.4 3.49l-.5.26a27.89 27.89 0 0 1 -2.6 1.13l-.58.22a40.94 40.94 0 0 1 -4 1.19l-1.19.27a48.82 48.82 0 0 1 -5.21.78l-.67.06c-.25 2.32-.53 4.64-.82 7q-.67 5.4-1.47 10.77c.85-1.27 1.59-2.57 2.48-3.84.15-.21.29-.42.45-.62a30.17 30.17 0 0 1 4.75-5.17c.28-.24.56-.47.85-.68a21.37 21.37 0 0 1 5.23-3l.55-.21.17-.06a15.92 15.92 0 0 1 6-.92 10.28 10.28 0 0 1 5.58 2 4.41 4.41 0 0 1 1.8 3.37c0 2.42-2.08 4.65-5.81 6.39a25.52 25.52 0 0 1 -6.07 1.37l-2.95.49c-1.55.27-3.14.57-4.68.94h-.13c-1.3.31-2.53.65-3.75 1l-.43.13c-1.05.34-2.06.65-2.94.88-.56.15-1.07.25-1.52.34-.29 1.9-.59 3.79-.9 5.69l-5.11-.89c.13-.74.26-1.46.4-2.2l-1.85-.5-.4-.11a59.6 59.6 0 0 1 -9.6-3.19l-.36-.17a13 13 0 0 1 -5.91-5.21c-1.31-2.68-1.27-5.16-.29-6.91a4.94 4.94 0 0 1 4.12-2.54 8.66 8.66 0 0 1 4.53 1 7.87 7.87 0 0 1 1.48 1.06 30.41 30.41 0 0 1 5.25 7.35c1.41 2.54 2.6 5.13 3.4 7q1.26-7.12 2.28-14.3a82.59 82.59 0 0 0 -7.68-5.9c-1.09-.77-2.14-1.51-3.15-2.24a44.55 44.55 0 0 1 -5.12-4.21 24.14 24.14 0 0 1 -2.61-3 21.26 21.26 0 0 1 -1.23-1.94c-.14-.28-.28-.56-.4-.83a14.38 14.38 0 0 1 -1-2.91.76.76 0 0 1 0-.16 8.16 8.16 0 0 1 -.14-2.32c.31-3.56 3.39-5.11 7.94-3l.35.17a18.93 18.93 0 0 1 2.38 1.46 24.5 24.5 0 0 1 5.63 7 50.27 50.27 0 0 1 3.88 8 48 48 0 0 1 1.76 5.57q.44-3.21.8-6.42.66-5.5 1.13-11a.61.61 0 0 0 -.07-.1 13.81 13.81 0 0 0 -4.55-4.39c-2-1.25-4-2.13-6-3.17l-.39-.2c-.44-.23-.87-.46-1.29-.71a33.16 33.16 0 0 1 -3.88-2.56 21.07 21.07 0 0 1 -4.13-4.15c-.1-.15-.2-.3-.29-.45s0 0 0 0a13.6 13.6 0 0 1 -1.82-4.12l-.06-.27a5.14 5.14 0 0 1 .5-3.78 4.22 4.22 0 0 1 3.43-1.81 10.55 10.55 0 0 1 4.49.84 16.92 16.92 0 0 1 1.65.76 20.79 20.79 0 0 1 5.79 5.38c.35.45.7.9 1 1.37.57.77 1.11 1.56 1.67 2.39a41.24 41.24 0 0 1 2.57 4.29 24 24 0 0 1 1.8 4.48 1.62 1.62 0 0 1 0 .19c.25-3.54.44-7.07.55-10.61q.12-3.19.16-6.4l-2-1.06-2.31-1.27c-3.14-1.6-6.09-3.05-8.73-4.56-1.05-.6-2.05-1.21-3-1.83a26 26 0 0 1 -7.21-6.68c-2.6-4-2.91-7.4-1.35-9.2a3.65 3.65 0 0 1 .88-.72c1.65-1 4.39-.85 7.88 1l.91.51c3.66 2.17 8.13 8.29 11.31 13.92 1.3 2.29 2.4 4.49 3.25 6.29l.35.75v-1.3c0-6.09-.23-12.18-.7-18.26-4-2-7.76-3.77-10.9-5.55-3.39-1.91-6.07-3.84-8-6.51-.14-.19-.27-.39-.4-.59-2-3.39-2.18-6.47-.76-8.39a4.42 4.42 0 0 1 3.47-1.66 8.61 8.61 0 0 1 3.31.49 13.84 13.84 0 0 1 2.24 1 17.19 17.19 0 0 1 5.07 5.09 47.55 47.55 0 0 1 4.21 7.5c.49 1.07.93 2.12 1.33 3.1q-.87-8.67-2.46-17.24c-3-1.13-5.8-2.19-8.41-3.29-5.35-2.26-9.82-4.71-13.09-8.42-5.64-6.86-2.46-11.17 5.91-6.66 2.86 1.58 6.67 5.43 10 9.3 1.84 2.09 3.56 4.19 4.93 5.92q-1.11-5.51-2.55-10.93c-.63-2.38-1.3-4.75-2-7.11l-.27-.87c-4.21-1.64-8.11-2.57-11.45-3.55a28.6 28.6 0 0 1 -7.75-3.2 16.65 16.65 0 0 1 -1.45-1.13c-2.7-2.45-3.78-5-3-7 .53-1.39 2.12-2.44 4.67-2.51a12.27 12.27 0 0 1 3.25.35 16.93 16.93 0 0 1 6 3.31 36.63 36.63 0 0 1 5.76 5.85 43.13 43.13 0 0 1 2.75 4 175.53 175.53 0 0 0 -7.63-18.92c-3.62-.62-7-1.17-10.14-1.85-1.07-.24-2.11-.5-3.11-.78s-2.1-.63-3.08-1-1.9-.78-2.7-1.18a22.27 22.27 0 0 1 -2.16-1.2l-.93-.63c-.33-.24-.68-.49-1.07-.79a17.11 17.11 0 0 1 -2.34-2.32 7.8 7.8 0 0 1 -1.43-2.54 3.55 3.55 0 0 1 .82-3.78 9.28 9.28 0 0 1 3.15-1.77 8.53 8.53 0 0 1 4.87-.31 11.91 11.91 0 0 1 3.5 1.43 23.21 23.21 0 0 1 3.42 2.55l.77.7a75.22 75.22 0 0 1 5.22 5.49c1.16 1.33 2.24 2.63 3.17 3.79q-3.08-6.13-6.65-12c-.74-1.29-1.43-2.47-2.1-3.56-3.35-5.42-6.2-8.54-11.76-11.57-7.66-3.21-10.45-4.34-13.35-7.61-2.42-2.97-3.26-7.56-1.25-9.73z" fill="#582fb3"/><path d="m299.05 166.4v47.65c-3.51 5.19-7.1 10.12-10.86 14.74-3.28 3-6.8 5.93-10.51 8.72a176.85 176.85 0 0 1 -17.21 11.39c-.66.39-1.32.78-2 1.15h-10.7l.13.12-.36-.12h-5.4l-.37.24a2 2 0 0 1 0-.24h-201.57c-6.18-2.6-11.9-5.59-15.69-9.13a42.5 42.5 0 0 1 -5.27-6.17c-.93-1.42-1.11-2.19-.65-2.54 1-.69 4.55.59 10.7 1.59a161.25 161.25 0 0 0 38.87 1.06c6.22-.53 12.37-1.35 18.57-2.29 6-.92 12.11-1.94 18.33-2.9 3.81-.6 10.94-1.17 17.45-1.67 4.29-.34 8.31-.65 10.94-.93a102.09 102.09 0 0 1 11.08-.55c-4.4-.46-8.76-1-13.09-1.63-3.57-.53-7.12-1.22-10.59-2-3.84-.89-7.58-1.93-11.13-3.07a124.8 124.8 0 0 1 -18.72-7.92 105.36 105.36 0 0 1 -19.31-13.16q-2-1.74-3.9-3.58c-1.32-1.28-2.59-2.59-3.79-3.93a78.57 78.57 0 0 1 -7.83-10.23 74.69 74.69 0 0 1 -6.33-12q-1.22-2.88-2.16-5.85a41.73 41.73 0 0 1 -1.49-7.26c-.13-1.55.07-2.29.65-2.41s1.56.41 3 1.4 3.25 2.48 5.73 4.13q8.06 5.56 16.25 10.21 3.24 1.86 6.46 3.6c3.27 1.78 6.53 3.46 9.81 5l.66.32c2.09 1 4.16 2 6.24 3l1.45.67c2.6 1.19 5.19 2.34 7.79 3.42l.8.34 5.29 2.19c3 1.25 6.08 2.45 9.13 3.57l.8.3c2.11.79 4.19 1.56 6.28 2.31 3.13 1.13 6.27 2.23 9.53 3.32l.25.08c2.2.74 4.45 1.48 6.74 2.27 3.49 1.18 7.08 2.45 10.73 3.86l2.05.78c1.66.64 2.74 1 3.8 1.49 1.31.54 2.59 1.14 4.87 2.26l1.37.67c.88.44 1.2-.6 1-2.37a28.6 28.6 0 0 0 -4.65-12.45 84.33 84.33 0 0 0 -7.34-8.85c-.55-.58-1.12-1.15-1.68-1.7a99 99 0 0 0 -10.1-8.51c-6.86-5.08-14.34-10-21.23-15l-.78-.56c-7.18-5.13-14-10.34-20.32-15.88a139.33 139.33 0 0 1 -17-17.63 91 91 0 0 1 -12.22-20 88.24 88.24 0 0 1 -6-20.22c-1.19-6.41-1.93-12.48-3-18.59-.57-4.1-1.23-7-1.54-8.9s-.26-2.83.37-2.9c1.17-.11 4.82 3.17 9.88 9.69 5.57 7.15 10 15 14.5 22a115.9 115.9 0 0 0 14.73 18.71c.21.22.42.43.64.64a219.25 219.25 0 0 0 17.28 15.51c6.4 5.17 13.08 10.28 19.84 15.59 3.4 2.67 6.8 5.35 10.21 8.14 2.33 1.91 4.68 3.87 7 5.94l1.88 1.67.93.85.36.32a112.31 112.31 0 0 1 10 10.3c.28.32.55.65.81 1a81.27 81.27 0 0 1 6.81 9.63c.27.45.54.9.8 1.35a83 83 0 0 1 4.53 9.18q1.71 4.08 3 8.16.79 2.55 1.45 5.08c.06.23.12.46.17.69s.12.43.16.64c.12.46.23.92.34 1.38.37 1.61.71 3.22 1 4.83.19-1.67.36-3.33.5-5a2.45 2.45 0 0 0 0-.27.57.57 0 0 0 0-.13q.33-3.76.49-7.39c.13-2.56.19-5.08.21-7.54 0-1.81 0-3.58 0-5.33q-.07-4-.3-7.77c0-.39 0-.78-.07-1.17-.23-3.84-.56-7.55-1-11.13-.09-.75-.17-1.5-.27-2.24-.33-2.65-.7-5.23-1.1-7.77-.05-.37-.11-.74-.17-1.11-.55-3.47-1.14-6.86-1.71-10.19-.1-.53-.19-1.05-.28-1.57-.74-4-1.46-7.87-2.14-11.7q-.58-3.27-1.11-6.48c-.36-2.14-.7-4.27-1-6.38-.91-6.2-1.6-12.27-1.94-18.28-.24-4.21-.32-8.37-.19-12.52a99.07 99.07 0 0 1 7.3-35.25 46.58 46.58 0 0 1 2.38-4.68 35.21 35.21 0 0 1 1.9-3.06c1.07-1.51 1.82-2.06 2.4-1.75s1 1.5 1.45 3.43c.22 1 .44 2.11.7 3.44s.66 2.83 1 4.48c1.82 7.3 4 14.36 6.35 21.38s4.75 14 7.09 21c4.65 14.06 9 28.56 11.09 43.91.13 1 .25 1.94.37 2.91.47 4 .78 8.05.89 12.11.07 2 .08 3.91 0 5.86 0 .84 0 1.67-.08 2.51s-.09 1.82-.15 2.73q-.28 4.3-.9 8.54l2.79-4.16c1.11-1.61 2.21-3.19 3.28-4.76l1.63-2.34 4.54-6.58 6.18-8.95 1.38-2c.76-1.13 1.5-2.25 2.22-3.35 1.59-2.45 3.11-4.85 4.55-7.22s2.79-4.65 4.09-7a2.53 2.53 0 0 0 .13-.22c.17-.29.33-.58.49-.87 2-3.44 3.79-6.82 5.53-10.17.68-1.29 1.33-2.57 2-3.84s1.27-2.51 1.89-3.76c.33-.68.66-1.35 1-2q1.23-2.52 2.38-5c1.73-3.7 3.38-7.37 5-11a108.68 108.68 0 0 0 4.63-13.9c1-3.68 2-7.61 3-11.54 2.37-9.35 4.66-18.74 6.9-25 .83-2.1 1.52-3.91 2.12-5.42s1-2.75 1.47-3.71c.87-1.9 1.5-2.66 2.06-2.37 1.07.58 2.08 5.37 3.39 13.64 2.77 18.19 2 51.19-2.4 69.5 0 .17-.08.33-.13.5a143.15 143.15 0 0 1 -6.47 19.91c-.14.35-.28.7-.43 1.05q-1.11 2.67-2.33 5.3c-1.89 4.08-4 8.1-6.29 12q-1.82 3.12-3.77 6.12c-.11.18-.23.36-.35.54-.55.83-1.1 1.66-1.66 2.47-.32.48-.65 1-1 1.42-.44.65-.9 1.3-1.36 1.94-.84 1.17-1.66 2.29-2.45 3.37-2.11 2.87-4.06 5.46-5.94 7.86-.26.33-.51.66-.77 1-1.1 1.4-2.18 2.73-3.26 4l-.2.24c-2.14 2.59-4.26 5-6.51 7.48l-.44.47-.65.72c-2.69 2.89-5.57 5.85-8.87 9.15-3.82 3.82-.46 3.23 6.79-.49l5.24-2.68.51-.26 1.23-.62 6.17-3.17c1.63-.82 3.2-1.63 4.74-2.43l2.4-1.26 2-1 3.15-1.67q2.44-1.32 4.72-2.62l1.22-.71.23-.14c2.37-1.36 4.58-2.73 6.67-4.13.48-.31 1-.62 1.41-.94l.27-.18a127.65 127.65 0 0 0 15.47-12.48z" fill="#e9596b"/><path d="m217.17 64.56s10.23 4.88 11.67 16c1.08 7.95 2.42 9.52 5.41 11.31l1 .56a11 11 0 0 1 3.83 4.5s0 0 0 0a24.78 24.78 0 0 1 2 5.45c.17.62.32 1.28.46 2a60.53 60.53 0 0 1 1.14 10.27c.32 7.69 1.81 12.74 3.37 16 .19.4.38.78.56 1.12a24.86 24.86 0 0 0 3.22 4.56c2.43 3.09 3.53 5.21 4.46 12 .26 1.87.5 4.09.75 6.79.08.76.15 1.55.22 2.38a71.58 71.58 0 0 0 2.31 13c.17.6.35 1.16.52 1.7 2.42 7.36 5.26 9.65 5.26 9.65q.3.38.6.81a37.32 37.32 0 0 1 4 8.43 113.45 113.45 0 0 1 3.4 11.46c.51 2 1 4.16 1.46 6.31q.6 2.82 1.15 5.69c1.53 7.95 2.75 16 3.67 22.92.67 5 1.18 9.38 1.53 12.54h-18.3c-.15-.37-.29-.76-.44-1.15l-.64-1.78a181.66 181.66 0 0 1 -5.15-18.21c-1-4.47-2-9.09-2.81-13.65 0-.28-.09-.55-.14-.82-.58-3.35-1.09-6.65-1.5-9.82-.22-1.66-.42-3.27-.58-4.84-.32-3.07-.54-5.95-.64-8.56 0-.25-.06-.51-.1-.78-.06-.49-.15-1-.26-1.52a24 24 0 0 0 -.61-2.39 23.57 23.57 0 0 0 -1.2-3.26 20.31 20.31 0 0 0 -1.16-2.17c-.09-.15-.19-.3-.29-.45a10.3 10.3 0 0 0 -3-3.14l-.2-.12a16.56 16.56 0 0 1 -4.24-4.62c-.32-.49-.63-1-.93-1.55a33.85 33.85 0 0 1 -2.42-5.42 71.94 71.94 0 0 1 -2.8-13.54c-.16-1.6-.27-3.24-.31-4.93 0-.3 0-.61 0-.92a54.07 54.07 0 0 0 -.21-7c-.79-7.21-3.37-9.45-6.26-14.83-3.66-6.82-4.48-17.44-3.11-22.48a27.22 27.22 0 0 0 -1.75-16.46c-2.88-6.83-2.94-21.04-2.94-21.04z" fill="#5676ef"/><path d="m33.68 178.11c.51-4.76 5.9-7.91 13.13-9 1-.09 2-.16 3-.16a27.19 27.19 0 0 1 12.49 3.17c5.37 2.71 10.52 7 16.27 9.55q4.56 1.34 9 2.94c-.36-.32-.7-.64-1-1-1.12-1.18-2.08-2.19-3-3.2-1.79-2-4.57-5.38-5.4-7.7v-.1c-.77-2.61-.48-4.57.64-5.44s3.08-.54 5.23 1.69c1.39 1.46 3.57 5.65 4.64 9.2a17.2 17.2 0 0 1 .52 2.16c.23 1.39.37 2.6.57 3.57.08.34.16.66.25.94a6.71 6.71 0 0 0 .32.82q6.25 2.33 12.3 5.15a36 36 0 0 1 -5.64-6.18 25.37 25.37 0 0 1 -1.52-2.45c-.18-.31-.34-.62-.49-.94a19.82 19.82 0 0 1 -.93-2.2 14.09 14.09 0 0 1 -.82-5.57 6.59 6.59 0 0 1 1.76-4.09 3.09 3.09 0 0 1 2.86-.79c2 .47 3.9 2.54 5.3 5.79a21.83 21.83 0 0 1 1 5c0 .23.06.47.08.71.21 1.75.45 3.66.76 5.53v.22c.38 2.19.88 4.3 1.32 5.86l.3 1c3.11 1.54 6.18 3.17 9.18 4.9-.12-.13-.23-.27-.35-.41a31.18 31.18 0 0 1 -3.17-4.35 17.26 17.26 0 0 1 -2-5.07 11.49 11.49 0 0 1 -.16-4.09c.58-3 2.06-4.64 3.58-5a2.57 2.57 0 0 1 .62-.08h.1c1.73 0 3.37 1.55 4.43 4.46a16.16 16.16 0 0 1 .54 4.75v3.57 2.43 2.84a13.78 13.78 0 0 0 .16 2.2 5.86 5.86 0 0 0 .29 1.14q6.45 3.91 12.55 8.35a40.33 40.33 0 0 1 -3-4.46 22.23 22.23 0 0 1 -2.39-5.77 16.29 16.29 0 0 1 -.48-4.12 14.05 14.05 0 0 1 .18-2 9.7 9.7 0 0 1 2.3-4.88 3.06 3.06 0 0 1 2.8-1.08 3.55 3.55 0 0 1 2.17 1.88 15.78 15.78 0 0 1 1.54 4.15 37.26 37.26 0 0 1 .57 5.28v.42c.18 2.32.41 5 .68 7.51.13 1.25.26 2.45.37 3.56a14.82 14.82 0 0 0 .53 2.7 6.33 6.33 0 0 0 .48 1.15c4.09 3.18 8 6.54 11.85 10-1.8-3.67-3.58-7-4.91-10a37.69 37.69 0 0 1 -2-5.4 16 16 0 0 1 -.59-4.78 14.48 14.48 0 0 1 .52-2.81 10.79 10.79 0 0 1 .63-1.71 6 6 0 0 1 2.53-2.85 4.43 4.43 0 0 1 4 .1 10.44 10.44 0 0 1 4.42 4.66 12.91 12.91 0 0 1 1.21 4.44 20.55 20.55 0 0 1 .11 3.16 43.67 43.67 0 0 1 -1.29 8.54 71.35 71.35 0 0 1 -2.66 8.51q4.72 4.4 9.18 9.06a40.42 40.42 0 0 1 -1.74-8c-.09-.78-.15-1.54-.17-2.3q0-.79 0-1.59a23.84 23.84 0 0 1 1.09-6.9 16.77 16.77 0 0 1 2.34-4.67 12.89 12.89 0 0 1 .85-1.1q.5-.52 1-1a11.39 11.39 0 0 1 2.41-1.7 7.84 7.84 0 0 1 1.47-.58 4.4 4.4 0 0 1 3.73.43c1.93 1.32 2.48 4.3 1.48 8.42a21.05 21.05 0 0 1 -2.07 4.55c-.23.41-.48.83-.73 1.26-1 1.71-2.15 3.58-3.21 5.45-.3.53-.59 1.05-.87 1.57-.88 1.59-1.66 3.16-2.31 4.55-.33.69-.62 1.34-.87 1.92s-.45 1.06-.62 1.48q6.21 6.61 12 13.63c-.61-3.27-1.44-6.15-2-8.71v-.11c-.78-3.45-1.1-6.34-.07-9.29a11.4 11.4 0 0 1 1.55-2.8 6.45 6.45 0 0 1 4.32-2.59c2.36-.24 5 1.46 6 5.64a.43.43 0 0 1 0 .11 13.93 13.93 0 0 1 -.57 6.32 33 33 0 0 1 -3.16 7.27c-.24.42-.48.83-.73 1.22a38 38 0 0 1 -2.91 4.08h-7.1q-3.09-3.87-6.34-7.62c-5.21 1.25-9.85 2.65-14.09 3.57-4.73 1-9 1.47-13.11.53-4.53-1.21-6.94-3.45-6.93-5.78s2.49-4.71 7.72-5.78c4.14-.82 11.42.68 17.41 2.69 2.79.92 5.33 1.93 7.23 2.74-4.19-4.73-8.55-9.32-13.1-13.71-4.31 1.18-8.23 2.35-11.72 3.12-4 .89-7.47 1.24-10.81.33a11.42 11.42 0 0 1 -4-2.14 5.08 5.08 0 0 1 -1.93-3.45 3.85 3.85 0 0 1 .27-1.69 5 5 0 0 1 1.17-1.73 10.54 10.54 0 0 1 5.11-2.55 17.12 17.12 0 0 1 7.06.37 46.93 46.93 0 0 1 8 2.67c1.06.46 2.06.93 3 1.38-4.15-3.8-8.45-7.44-12.91-10.87-9 3.45-16.43 6.39-23.61 5.58-8.62-1.28-9-6.48.14-8.69 4.86-1.13 14.89.21 21 1.22a177 177 0 0 0 -15-10.06c-.25-.16-.51-.31-.76-.45-4.21 1.56-7.72 3.43-10.85 4.91-3.4 1.62-6.37 2.79-9.63 2.92-3.6 0-6-1.15-6.73-3s.54-4.58 4.53-6.75a17.08 17.08 0 0 1 6.6-1.52 36.31 36.31 0 0 1 8.07.48 43 43 0 0 1 4.63 1 170.48 170.48 0 0 0 -17.87-8.71c-4.18 2.57-8 5-11.59 6.77-1 .48-2 .91-3 1.29s-1.92.67-2.77.91a22.06 22.06 0 0 1 -2.39.54l-1.1.15h-.18c-.34 0-.71.08-1.13.11a17.32 17.32 0 0 1 -3.23-.14 7.79 7.79 0 0 1 -2.71-.91 3.62 3.62 0 0 1 -.32-.22 3.25 3.25 0 0 1 -1.49-3.05 8.94 8.94 0 0 1 1.19-3.3s0 0 0 0a8.77 8.77 0 0 1 3.44-3.41 12.4 12.4 0 0 1 3.55-1.25 22.69 22.69 0 0 1 4.19-.39 67 67 0 0 1 7.82.5l.64.07c1.71.2 3.36.43 4.8.66-1.28-.49-2.57-1-3.86-1.44q-4.36-1.57-8.84-2.91c-8.1-2.65-12.57-3.59-19.64-2l-.45.1c-7.78 2.68-10.61 3.69-14.87 3.22-3.71-.59-7.29-3.36-7.18-6.25z" fill="#582fb3"/><path d="m94.41 106.13a39.12 39.12 0 0 1 6.66 0c6.26.52 15.32 2.67 19.82 10.34 4.74 7.92 7.58 9.47 12.22 9.59 1.1 0 2.3 0 3.66-.07a15.62 15.62 0 0 1 9 2.92 24.37 24.37 0 0 1 4 3.38 39.17 39.17 0 0 1 5.8 7.93 64 64 0 0 1 3.46 7.11 49.75 49.75 0 0 0 5.13 9.32 29.7 29.7 0 0 0 9.87 9.1 32.7 32.7 0 0 0 6.51 2.54c3.33 1.16 5.66 2.26 8 4.71s4.47 5.78 7.59 11.61q.45.81.9 1.68c.6 1.15 1.23 2.37 1.9 3.68a70.31 70.31 0 0 0 6.65 10.57c9.26 12 17.56 12.86 17.56 12.86q.79.27 1.56.57a41.87 41.87 0 0 1 7 3.43 37.94 37.94 0 0 1 10.79 10 40.49 40.49 0 0 1 4.87 8.84 35.32 35.32 0 0 1 2.41 8.81l-4.33 2.84-1.47 1-1.81 1.18-.37.24a2 2 0 0 1 0-.24h-27.92a69.29 69.29 0 0 1 -7-8.32 55.11 55.11 0 0 1 -3.2-5c-.25-.44-.38-.69-.38-.69-2.85-5.25-9-10.94-16-11.51a14 14 0 0 0 -1.59 0c-4.61-.13-9.79-2.17-14.3-5.39a32.08 32.08 0 0 1 -3.51-2.87 74.61 74.61 0 0 1 -5.35-6.19c-1.06-1.39-2.08-2.82-3-4.32a57.06 57.06 0 0 1 -5.34-10.78c-1.87-5.86-3.85-9.6-6-12.22-3.92-4.7-8.5-5.83-14.35-9.35-5.13-3.08-9.3-8.34-11.94-13.64-2-4.11-3.19-8.23-3.16-11.39-.3-7.45-4-13-9.89-17.45-7.8-6.21-14.45-24.82-14.45-24.82z" fill="#5676ef"/><path d="m159.23 223.21c1.06 0 3.35.93 6.78 2.12l1.54.49c2.3.75 4.58 1.47 6.85 2.18q5.22 1.63 10.35 3.16c1.55.47 3.1.94 4.64 1.39q7.25 2.14 14.33 4.19c5.43 1.57 10.79 3.12 16.1 4.69q8.52 2.49 16.92 5.13 2.73.85 5.46 1.74l1.75.57 3.59 1.18h-5.4l-.37.24a2 2 0 0 1 0-.24h-55q-3.39-1.94-6.51-4.08a88.6 88.6 0 0 1 -15.92-14c-.64-.71-1.26-1.43-1.88-2.16-1.41-1.86-2.44-3.26-3.09-4.27-1.06-1.74-1.1-2.38-.14-2.33z" fill="#ff848c"/><path d="m299.05 158.8v-26.25c-.62.5-1.3 1.08-2.06 1.75a47.53 47.53 0 0 0 -8.19 10.7 49.62 49.62 0 0 0 -4 9c-.25.75-.49 1.51-.71 2.28s-.43 1.52-.61 2.3a58 58 0 0 0 -1.48 11.42v.28c0 .69 0 1.39-.05 2.08 0 2.31.07 4.61.2 6.88q.15 2.4.36 4.77c.28 3.14.61 6.23.86 9.29.12 1.44.23 2.87.3 4.29 0 .78.06 1.57.07 2.36a74.93 74.93 0 0 1 -.58 11.69c0 .26-.07.52-.11.78a76.06 76.06 0 0 1 -3.55 14.85c-.57 1.53-1.16 3.07-1.83 4.63.11-5.28.42-10.65.62-16.22 0-.77.06-1.54.08-2.32.12-3.37.19-6.82.14-10.36q0-3.78-.31-7.69c0-.18 0-.37 0-.55-.12-1.6-.29-3.23-.46-4.84s-.51-3.52-.79-5.27c0-.08 0-.14 0-.22-.38-1.86-.76-3.72-1.2-5.58-.19-.74-.4-1.48-.61-2.21-.31-1.11-.64-2.21-1-3.29-1.13-3.43-2.44-6.73-3.85-9.91-.9-2.06-1.85-4.07-2.82-6-.43-.88-.86-1.73-1.29-2.59l-.74-1.44c-3.24-6.25-6.49-12-9.5-18-.44-.86-.87-1.72-1.29-2.59q-2.24-4.47-4.35-9-4.58-9.83-8.58-20.1l-.48-1.23q-.83-2.18-1.64-4.37-.19-.56-.39-1.08s0 0 0 0c-1.86-5.25-2.72-8.44-3.45-8.8-.48-.24-.92.9-1.35 3.74-.22 1.46-.44 3.38-.66 5.79a117.42 117.42 0 0 0 2.48 32.23q1.25 5.59 3.06 11.27c.57 1.79 1.18 3.6 1.84 5.41q.41 1.13.84 2.25c1.46 3.8 3.07 7.56 4.72 11.3.44 1 .9 2.06 1.36 3.09.15.34.3.69.46 1 1.6 3.65 3.2 7.3 4.66 11 0 .14.1.27.15.41.54 1.39 1.05 2.78 1.54 4.19.25.72.48 1.43.71 2.15s.45 1.44.65 2.18.38 1.38.57 2.08.44 1.64.62 2.5.38 1.57.56 2.37.33 1.66.49 2.48.3 1.5.43 2.27c.17.94.32 1.91.49 2.88.54 3.28 1 6.73 1.51 10.35.37 2.79.75 5.67 1.17 8.66.13.9.26 1.81.4 2.73-.24-.94-.51-1.88-.8-2.84-.05-.19-.11-.38-.17-.57a116.18 116.18 0 0 0 -5.85-15.34 118.42 118.42 0 0 0 -6.24-11.7c-.25-.42-.5-.84-.77-1.26-.93-1.51-1.89-3-2.9-4.46q-2.24-3.3-4.7-6.45c-.77-1-1.56-2-2.36-2.92-1.61-1.93-3.28-3.82-4.95-5.63-.29-.31-.57-.62-.87-.92-2.23-2.37-4.47-4.61-6.68-6.78l-.63-.62-2.39-2.35c-.86-.84-1.71-1.67-2.55-2.51-3-2.94-5.79-5.85-8.37-8.85-.34-.39-.67-.79-1-1.18a70.34 70.34 0 0 1 -4.74-6.32c-.15-.22-.29-.45-.44-.68-1.29-2-2.52-4.22-3.76-6.49l-.81-1.5c-2.44-4.55-4.9-9.47-8-14.07a54.39 54.39 0 0 0 -3.43-4.64 38.56 38.56 0 0 0 -5.08-5.14c-1.8-1.46-3.06-2.06-3.45-2s-.21.84.46 2.24a48 48 0 0 1 2 5c.19.56.38 1.15.56 1.78.52 1.6 1 3.21 1.33 4.84 1.9 8 2.62 16.46 6.16 26.31.31.84.64 1.68 1 2.51a64.63 64.63 0 0 0 3.75 7.49 78.65 78.65 0 0 0 4.49 6.91c1.33 1.86 2.72 3.66 4.15 5.41s2.83 3.4 4.29 5.05q1.86 2.11 3.75 4.18c2 2.2 4 4.33 5.92 6.51 2.19 2.45 4.37 4.94 6.51 7.62 1.21 1.49 2.43 3 3.63 4.62 2.35 3.1 4.69 6.38 7 9.88.48.72.95 1.46 1.42 2.2a157.87 157.87 0 0 1 8.6 15.35c.83 1.69 1.64 3.42 2.44 5.21.54 1.18 1.08 2.4 1.63 3.64l.19.42c-.08-.12-.17-.23-.26-.35q-2.67-3.68-5.59-7.22a162 162 0 0 0 -12.13-13.18q-4.59-4.44-9.53-8.57l-1.09-.9c-1.12-.93-2.26-1.83-3.41-2.73l-.37-.29c-3.12-2.42-6.34-4.73-9.63-6.93s-6.38-4.14-9.67-6c-1-.58-2-1.16-3-1.72-2.4-1.34-4.84-2.62-7.29-3.84q-6.21-3.09-12.62-5.69-5.08-2.07-10.26-3.81c-1.69-.58-3.39-1.12-5.09-1.64l-.78-.23c-9.57-2.83-10.85-3.51-2.56 4.87 7.5 7.3 14.9 13.91 22.89 20.57 1.87 1.56 3.78 3.12 5.73 4.7l2 1.62.82.65q4.86 3.89 10.11 8l4.87 3.8c6.07 4.74 12.58 9.81 19.61 15.53l1.75 1.43c2.44 1.94 4.86 4 7.39 6.16l.86.72c2.28 1.9 4.53 3.95 6.9 6 .82.71 1.64 1.45 2.46 2.2s1.65 1.5 2.48 2.27 1.55 1.43 2.35 2.14h51.12l.16-.18v-91.1z" fill="#ff848c"/><path d="m241.77 250.29a2 2 0 0 1 0-.24c.11-.59.24-1.18.38-1.75.22-.9.46-1.79.74-2.66a38.8 38.8 0 0 1 1.53-4.12 33.17 33.17 0 0 1 2.87-5.26 27.91 27.91 0 0 1 3.26-4l.07-.07a23.45 23.45 0 0 1 4-3.26 21.14 21.14 0 0 1 3.08-1.64 14.82 14.82 0 0 1 8.35-.94 6.28 6.28 0 0 1 4.39 3.19c1.5 3.07.24 7.2-3.43 11.75a37.38 37.38 0 0 1 -6.86 5.58l-.38.27c-1.31.93-2.7 1.91-4.1 2.93h-8l.13.12-.36-.12h-5.4z" fill="#582fb3"/><path d="m51.7 27.5c3.41-3.74 10.92-3.64 20.13.27 9.83 4.23 21.54 17.52 24.89 21.49a88.94 88.94 0 0 1 6.62 8.74c1.29 1.78 3.8 5.54 4.41 6.42a22.8 22.8 0 0 0 2.84 2.79s0 0 0 0q5.85 3.79 11.41 7.79c-.38-.59-.73-1.18-1-1.75-1.12-2.11-2.07-3.9-3-5.69a26.93 26.93 0 0 1 -3.3-10.37c-.09-4 1-6.61 2.89-7.38s4.45.46 6.61 4.45c1.69 3.17 2.13 9.7 1.6 15.26a54.16 54.16 0 0 0 -.54 6.66 12.84 12.84 0 0 0 .14 1.28q6.28 4.67 12.26 9.72c1 .79 1.91 1.6 2.85 2.42-1.06-1.63-2-3.3-2.9-5a50.83 50.83 0 0 1 -2.69-6.1 35.76 35.76 0 0 1 -2-9 20.9 20.9 0 0 1 .91-8.15c1.07-2.64 2.49-4.28 3.95-5a4.38 4.38 0 0 1 4.1 0l.14.07c2.66 1.48 4.46 5.12 5.2 10.25a32.47 32.47 0 0 1 -.45 7.5c-.41 2.9-.88 6.19-1.15 9.43s-.37 6.39-.34 8.76v1.59q5.61 5.1 10.89 10.54c-.12-.24-.22-.48-.33-.72a45.17 45.17 0 0 1 -2.78-7.38c-1.3-4.85-1.41-9.57.35-13.73a13.45 13.45 0 0 1 1.73-2.79c1.91-2.4 4.17-3.22 6-2.73 2.45.67 4.22 3.47 4.61 8.07a24.36 24.36 0 0 1 -1 6.89c-.15.62-.32 1.26-.5 1.91-.55 2.12-1.18 4.36-1.75 6.52-.37 1.39-.72 2.74-1.05 4a20.93 20.93 0 0 0 -.59 3.15 9.12 9.12 0 0 0 0 1.72q7.47 8.07 14.27 16.73a60.4 60.4 0 0 1 -2.54-7.47 33.64 33.64 0 0 1 -1.19-9.07 23.25 23.25 0 0 1 .62-5 20.24 20.24 0 0 1 1.24-3.79 14.26 14.26 0 0 1 4.54-5.8l.41-.26c1.71-1 3.15-1 4.25-.4a5.25 5.25 0 0 1 2.31 3.51 23.93 23.93 0 0 1 .59 6.44 22.65 22.65 0 0 1 -.33 3.1c-.23 1.52-.58 3.25-.93 5.16v.09c-.24 1.33-.49 2.74-.74 4.19-.37 2.14-.73 4.37-1.06 6.53-.15 1-.29 1.88-.43 2.78s-.25 1.61-.37 2.38a21 21 0 0 0 -.26 4 9 9 0 0 0 .24 1.81q1.28 1.74 2.53 3.51 5.31 7.48 10.15 15.3c-.34-1.74-.68-3.42-1-5.06-.81-3.92-1.58-7.58-2.08-11a57.84 57.84 0 0 1 -.73-8.38 25.6 25.6 0 0 1 .51-5.29c.12-.56.27-1.11.43-1.66a20.56 20.56 0 0 1 2.29-4.6 14.64 14.64 0 0 1 1-1.3 8.28 8.28 0 0 1 4.55-3 6.24 6.24 0 0 1 5.47 1.73 15.66 15.66 0 0 1 4.39 8.31c.66 3 .24 7.2-1 11.2-.25.85-.53 1.68-.83 2.51s-.66 1.75-1 2.6c-.92 2.21-2 4.34-3.07 6.38a99.41 99.41 0 0 1 -6.14 10c-.23.35-.46.66-.66.94q4.9 8.07 9.35 16.39c-.08-1.69-.1-3.36-.05-5a52.06 52.06 0 0 1 1.75-12.48 34.28 34.28 0 0 1 4-9.18v-.07a24.79 24.79 0 0 1 2.64-3.43 22.92 22.92 0 0 1 3.89-3.41 19.37 19.37 0 0 1 1.86-1 13.51 13.51 0 0 1 6.06-1.59 6.31 6.31 0 0 1 5 2.09 5.24 5.24 0 0 1 .44.61c1.21 1.93 1.3 4.63.23 7.87a23.7 23.7 0 0 1 -1.72 4 28.51 28.51 0 0 1 -4.28 5.29c-.55.57-1.14 1.16-1.74 1.76l-.51.5-2.78 2.73c-1.65 1.63-3.34 3.32-4.93 5-2.14 2.26-4.09 4.51-5.66 6.44-.39.49-.77 1-1.11 1.4-.54.68-1 1.29-1.4 1.83 4 7.59 7.69 15.33 11.19 23.16l.34.76v-.47c.33-4.73.26-9 .41-12.73 0-1.13.11-2.22.21-3.26a20.31 20.31 0 0 1 3.11-9.82c3-4 6.83-5.93 10.24-5.3h.05a6.54 6.54 0 0 1 3.64 2.11 4.42 4.42 0 0 1 .44.53s0 0 0 0a.28.28 0 0 1 .08.11 7.8 7.8 0 0 1 .85 1.44 10.8 10.8 0 0 1 .79 2.33 15.68 15.68 0 0 1 .36 3.77c-.06 2.47-1.25 5.64-3.12 8.81a45.33 45.33 0 0 1 -6.32 8.22l-.72.74a55.77 55.77 0 0 1 -6.63 5.74l-.65.47c-.44.32-.84.61-1.22.85q1.49 3.42 2.91 6.86c.48 1.15.95 2.3 1.41 3.46q3.15 7.73 6 15.55c.33-4.06.46-7.79.82-11.09 0-.35.08-.69.11-1a29.57 29.57 0 0 1 1.2-5.6 15.38 15.38 0 0 1 3.21-5.61l.49-.46c2.83-2.59 6.07-3.76 8.95-3.45a7.27 7.27 0 0 1 1.68.35 7.1 7.1 0 0 1 3 2c1.67 1.83 2.64 4.73 2.17 8.61a8.44 8.44 0 0 1 -.31 1.38 5.53 5.53 0 0 1 -.22.65 22.42 22.42 0 0 1 -3.38 5.8c-.58.76-1.21 1.52-1.89 2.26-.51.58-1 1.15-1.59 1.7-.83.83-1.68 1.64-2.54 2.4-.53.47-1.05.92-1.58 1.35a66.39 66.39 0 0 1 -7.5 5.32c-.29.17-.56.34-.82.48.34 1 .68 1.91 1 2.87q1.63 4.55 3.16 9.12c.39 1.16.78 2.32 1.16 3.49h-7.32q-.62-2-1.26-4c-6.91-1.93-13.22-2.62-18.85-3.64-1.21-.21-2.4-.43-3.55-.69a36.32 36.32 0 0 1 -13.61-5.45 21.75 21.75 0 0 1 -3.92-3.73c-2.37-2.94-3-5.82-2-8 1.34-3 5.75-4.75 12.86-3.56 5.7 1 14.69 6.81 21.42 13.14a72 72 0 0 1 5.71 6q-1.85-5.52-3.79-11-2.21-6.24-4.59-12.42a19.66 19.66 0 0 0 -8.68-2.85 62 62 0 0 0 -6.34-.26c-1.11 0-2.21 0-3.31 0a51.73 51.73 0 0 1 -9.22-1 30 30 0 0 1 -7.83-2.72 19.69 19.69 0 0 1 -5.82-4.86 7.26 7.26 0 0 1 -1.72-5.12 5.78 5.78 0 0 1 3-4.26 2.61 2.61 0 0 1 .28-.17 9.56 9.56 0 0 1 1.11-.55 10.12 10.12 0 0 1 1.21-.45 17.57 17.57 0 0 1 2.9-.62 22.86 22.86 0 0 1 3.59-.16h.54a30.85 30.85 0 0 1 10.17 3.22c1.94.93 3.82 2 5.79 3.11.32.19.64.37 1 .57a56.18 56.18 0 0 1 5 3.29 34.52 34.52 0 0 1 5.08 4.6l.17.21q-3.31-8.2-7-16.26-1.33-2.94-2.71-5.85c-2.39-.1-4.71-.16-7-.2h-2.14c-2.84-.05-5.56-.09-8.16-.19-1.2 0-2.37-.1-3.52-.17-1.3-.08-2.56-.18-3.8-.32a44.47 44.47 0 0 1 -9.17-1.86 29.66 29.66 0 0 1 -5.34-2.3c-5.81-3.51-8.31-7.6-7.44-10.88a4.61 4.61 0 0 1 .49-1.17 7.2 7.2 0 0 1 3.8-3 16.67 16.67 0 0 1 5.52-1 27.69 27.69 0 0 1 3 .07 14 14 0 0 1 1.62.23c4.09.77 9.35 3.14 14.46 6.08 2.4 1.37 4.77 2.88 7 4.4 3.53 2.41 6.66 4.84 9 6.74q-6.06-12.48-13.05-24.48h-4.14c-4.79 0-9.21 0-13.19-.25a42.68 42.68 0 0 1 -9.91-1.56 22.45 22.45 0 0 1 -5.15-2.3l-.73-.5-.8-.62a16.75 16.75 0 0 1 -2-1.9c-2-2.17-2.9-4.47-2.71-6.62 0-.18 0-.36.08-.55a6.06 6.06 0 0 1 2.75-3.91 4.45 4.45 0 0 1 .51-.33 14.82 14.82 0 0 1 8-1.55c2.7.15 6.14 1.43 9.62 3.34a66.43 66.43 0 0 1 10 6.93c.85.7 1.67 1.4 2.44 2.08.41.35.8.7 1.18 1.05l-1.35-2.33q-5.89-9.36-12.48-18.27c-8.85.81-16.7 1.59-23.74 1-.95-.09-1.89-.2-2.81-.34a34.53 34.53 0 0 1 -8.12-2.2 19.69 19.69 0 0 1 -5.72-3.69c-4.53-4.43-1.4-8.88 9.06-8.47h.05c7.12.35 20.49 6.24 28.53 10.08q-8-10.47-17-20.13l-.89-.93a126.56 126.56 0 0 0 -12.76 1.85c-1.39.27-2.74.52-4 .74-5.3.92-9.83 1.38-14.38.27-5-1.45-7.93-4-8.18-7s2.43-6.22 8.74-7.67a23.91 23.91 0 0 1 9.67.49 48.13 48.13 0 0 1 6.52 2c1.54.58 3 1.23 4.46 1.91a61.21 61.21 0 0 1 6 3.32q-5.3-5.37-10.92-10.41-5.14-4.62-10.56-9c-6.72 2-12.85 3.86-18.51 4.89-1.55.28-3.07.5-4.54.64s-2.9.19-4.17.18a33.74 33.74 0 0 1 -3.5-.19c-.53-.06-1-.15-1.57-.23s-1.17-.2-1.86-.34a24.71 24.71 0 0 1 -4.42-1.49 11.1 11.1 0 0 1 -3.4-2.35 5 5 0 0 1 -1.39-5.28 13.2 13.2 0 0 1 2.89-4.24 12.13 12.13 0 0 1 6-3.42 16.78 16.78 0 0 1 5.38-.34 33.28 33.28 0 0 1 5.94 1.12 104 104 0 0 1 11.48 4.17c2.29 1 4.48 2 6.39 2.84q-7.74-5.89-15.94-11.13a37.29 37.29 0 0 0 -4.87-2.07l-1.69-.62-7.51-2.76c-5.07-1.86-9.62-3.53-13.88-5.29-10.09-4.26-16.85-8.33-21.94-13.26-6.27-6.69-8-12.82-4.66-16.5z" fill="#582fb3"/><path d="m247.9 250.17-.36-.12h.23z" fill="#fff"/><path d="m241.77 250.29a2 2 0 0 1 0-.24h.32z" fill="#fff"/></g><path d="m280.7 152.24v7.6" fill="none"/><path d="m299.39 132.28-.34.27v-.55z" fill="#fff" transform="translate(-18.35 -6.56)"/></svg>