<svg viewBox="0 0 99.99 176.03" xmlns="http://www.w3.org/2000/svg"><path d="m75.57 47.52v.18l-.21-.61c-.17-.5-.36-1-.56-1.5s-.51-1.25-.8-1.88a39 39 0 0 0 -2.77-5c-.52-.79-1.07-1.57-1.65-2.32-.69-.94-1.42-1.82-2.18-2.67a1.8 1.8 0 0 0 -.19-.21c-.77-.88-1.58-1.74-2.43-2.57l-2.07-1.94a49.56 49.56 0 0 0 -5.29-4.07l-2.91-1.81a43.39 43.39 0 0 0 -5.27-2.57c-.89-.36-1.78-.69-2.67-1a34.35 34.35 0 0 0 -5.89-1.36s0 0 0-.06c.79-5.13-1.91-10.2-8.78-15.13l3.67-1.63c5.3 4.24 7.92 8.67 9 13.22.5-4.67-1-9.53-4.45-14.56q3.33 1 6.27 2.07c1.16.41 2.29.83 3.37 1.25a68.88 68.88 0 0 1 10.24 4.86l2.95 1.91a29.76 29.76 0 0 1 6.74 6.52l2 3.27a33 33 0 0 1 3.31 10.62l.44 3.87a108.55 108.55 0 0 1 .13 13.12z" fill="#ff848c"/><path d="m40.66 18.2-.61-.08s0 0 0 0c-1.85-5.48-5-9.54-11.06-10.35l.35-.88c6.17 1.29 9.86 5.11 11.31 11.26a.07.07 0 0 0 .01.05z" fill="#ff848c"/><path d="m54.06 115.22.1.22c-.03-.11-.07-.22-.1-.22z" fill="#ef808b"/><path d="m53.81 176c.26-8.59-.35-15.23-4.61-21.81-4-6.22-6.76-11.57-7.14-15-.32-3-1.35-4.09-.41-7.52-3.27 6.82-7.66 8.83-19.19 10.51-9.92 1.57-15.92 5.2-22.46 10.96 9.06-28.14 21-31.14 31.39-34.7 4-1.34 7.51-2.75 10-5.67a3.65 3.65 0 0 1 0 1v1.16s0 .86.05 1.28a.15.15 0 0 1 0 .07c.2 3.73.76 7 2 8.73l.34-.53.52-.76.59-.78c.1-.14.21-.27.32-.4a33.73 33.73 0 0 1 7.58-7l.4-.28c.27-.19.52-.35.75-.49 18.67 21.34 12.18 51.14-.13 61.23z" fill="#ff848c"/><g fill="#e85a6b"><path d="m49.32 51.41h-.01z" stroke="#e85a6b" stroke-miterlimit="10" stroke-width="2"/><path d="m51.44 47.81v-.05z"/><path d="m30.24 69.56.8.53.33.22zm-2.24-34.73c-.45-2.18-1.85-3.73-3.13-3.46s-1.95 2.24-1.5 4.41 1.85 3.72 3.13 3.46 1.92-2.24 1.5-4.41zm23.47 13v.05zm-11.55-17.27c-1.35 0-2.45 1.79-2.45 4s1.1 4 2.45 4 2.45-1.8 2.45-4-1.09-4-2.45-4zm.73-12.41h-.61s0 0 0 0l.61.08a.07.07 0 0 1 0-.08zm34.92 29.35-.21-.61c-.17-.49-.36-1-.56-1.49s-.51-1.26-.8-1.88a37.69 37.69 0 0 0 -2.77-5c-.52-.8-1.07-1.58-1.65-2.33-.69-.93-1.42-1.82-2.18-2.66a1.3 1.3 0 0 0 -.19-.22 55.45 55.45 0 0 0 -14.64-11.31 33.34 33.34 0 0 0 -11.88-3.8s0 0 0 .06a34.35 34.35 0 0 1 5.89 1.36c.89.29 1.78.62 2.67 1a43.39 43.39 0 0 1 5.27 2.57l2.91 1.81a49.56 49.56 0 0 1 5.28 4l2.07 1.94c.85.83 1.66 1.69 2.43 2.57a1.8 1.8 0 0 1 .19.21c.76.85 1.49 1.73 2.18 2.67.58.75 1.13 1.53 1.65 2.32a39 39 0 0 1 2.77 5c.29.63.56 1.25.8 1.88s.39 1 .56 1.5l.21.61zm-11.82 13.59a12 12 0 0 0 .91-1.09c-.29.34-.59.72-.91 1.09z"/></g><path d="m46.25 28.51c-.28-.1-.55-.22-.81-.33a9.81 9.81 0 0 1 -4.79-3.87c-2.32.71-4.29 3.58-4.73 7.2 0 .3-.05.58-.07.86-.18 4 1.7 7.42 4.43 7.75a3.65 3.65 0 0 0 1.32-.12c2.41-.59 4.48-3.52 4.94-7.26 0-.29.05-.57.07-.86a11 11 0 0 0 -.36-3.37zm-6.33 10.08c-1.35 0-2.45-1.8-2.45-4s1.1-4 2.45-4 2.45 1.79 2.45 4-1.09 4-2.45 4z" fill="#fff"/><path d="m30.24 69.56.8.53.33.22zm-8.81-7.34a.1.1 0 0 0 0 .05v-.07zm23.94 60.36a40.38 40.38 0 0 1 7.58-7 33.73 33.73 0 0 0 -7.58 7zm-3.84-6.24a.15.15 0 0 0 0-.07c0-.42 0-.85-.05-1.28s0-.79 0-1.16a3.65 3.65 0 0 0 0-1c-.26 6.26 1 11.15 2.15 12.3-1.34-1.75-1.9-5.06-2.1-8.79zm-20.82-89.63a11.45 11.45 0 0 0 -1.83 2.29c.63-.42 1.18-.81 1.66-1.19l.08-.07.23-.17a14.08 14.08 0 0 0 3.23-3.63 34.86 34.86 0 0 0 -3.37 2.77z" fill="#e9596b"/><path d="m51.94 60.15a11.5 11.5 0 0 0 -6.18 0l-1.24.26a10.73 10.73 0 0 1 -1.51 0 12.19 12.19 0 0 1 -2.53-.57l-1-.35a16.9 16.9 0 0 0 -4.88-1.16 9.59 9.59 0 0 0 -2.88.39 5.89 5.89 0 0 0 -3.71 3.23c-1-.08-1.95-.17-2.8-.2a7.55 7.55 0 0 0 -3.57.47c.31-5.05.14-10.92 9.83-11.7 10.67-.89 17.53 3.76 20.47 9.63z" fill="#e9596b"/><path d="m19.14 33.73a9.63 9.63 0 0 1 -.08-1.06 9.36 9.36 0 0 0 .05 1.67c0-.14 0-.28.06-.43a1.13 1.13 0 0 1 -.03-.18zm43.35 28.67c.43-.45.83-.88 1.21-1.33-.33.46-.76.93-1.21 1.33z" fill="#e85a6b"/><path d="m42.37 34.57c0 2.22-1.09 4-2.45 4s-2.45-1.8-2.45-4 1.1-4 2.45-4 2.45 1.78 2.45 4z" fill="#fff"/><path d="m42.37 34.57c0 2.22-1.09 4-2.45 4s-2.45-1.8-2.45-4 1.1-4 2.45-4 2.45 1.78 2.45 4z" fill="#1d1e1c"/><path d="m40.68 18a.09.09 0 0 1 0 .05s0-.05 0-.05z" fill="#ef808b"/><path d="m99.59 84.45c-1 7.14-.34 9.35-13.73 10-11.31-.09-12.79-4.93-14.31-11.7-.31-1.39-.62-2.86-1-4.39 0 0 0 0 0-.07-1.35-4.67-3.97-10.22-3.55-14.43 0 0 0-.09 0-.14a13.85 13.85 0 0 1 -4.51-1.3c.43-.45.83-.88 1.21-1.33a12 12 0 0 0 .96-1.09.47.47 0 0 0 .09-.12 13.1 13.1 0 0 0 2.45-6.38 14.07 14.07 0 0 0 .28 1.95 16.1 16.1 0 0 0 2.2 5.55 44.89 44.89 0 0 0 6.63 4.59c.22.13.44.26.67.38 5.29 3 11.14 5 17.62 7.15 6.07.98 5.73 6.03 4.99 11.33z" fill="#ff848c"/><path d="m63.75 61.09c-.38.45-.78.88-1.21 1.33.4-.42.83-.89 1.21-1.33z" fill="#ff848c"/><path d="m75.57 47.52v.18l-.21-.61c-.17-.5-.36-1-.56-1.5s-.51-1.25-.8-1.88a39 39 0 0 0 -2.77-5c-.52-.79-1.07-1.57-1.65-2.32-.69-.94-1.42-1.82-2.18-2.67a1.8 1.8 0 0 0 -.19-.21c-.77-.88-1.58-1.74-2.43-2.57l-2.07-1.94a49.56 49.56 0 0 0 -5.29-4.07l-2.91-1.81a43.39 43.39 0 0 0 -5.27-2.57c-.89-.36-1.78-.69-2.67-1a34.35 34.35 0 0 0 -5.89-1.36s0 0 0-.06a.07.07 0 0 0 0 .05l-.61-.08s0 0 0 0a21.71 21.71 0 0 0 -13.41 3.77 3.15 3.15 0 0 1 .1.5 6.25 6.25 0 0 1 -1.2 4 5.9 5.9 0 0 1 1.31.9 9.6 9.6 0 0 1 2.85 5.13 10.21 10.21 0 0 1 .25 1.89v1.19.47a8.77 8.77 0 0 1 -.6 2.33 5.1 5.1 0 0 1 -2.17 2.57 3.74 3.74 0 0 1 -.93.36 3.35 3.35 0 0 1 -.44.07 4.67 4.67 0 0 1 -3.65-1.28 9.57 9.57 0 0 1 -2.85-5.13c-.07-.31-.12-.6-.16-.91 0 .15-.05.29-.06.43a9.36 9.36 0 0 1 -.05-1.67 0 0 0 0 1 0 0 8.68 8.68 0 0 1 .1-1.92 9.45 9.45 0 0 1 -1.05.31l-.09.39a15.57 15.57 0 0 0 0 5.49 23.71 23.71 0 0 1 -.28 10.74c1.92-1.48 5.06-1.88 8.46-1.8 5 0 9.21-.13 13.66-1.47 6.11-1.49 10 .51 11.74 6.35a35.87 35.87 0 0 1 1.22 9.83 7.52 7.52 0 0 1 .69.46c3.64 3.07 2.22 9-4.68 8.16-9.17-1.13-11.65-1.42-17.17 0l-1.44.39 1.09.77.77.49a2.7 2.7 0 0 0 .31.2c17.25 13 17.34 31 9 41.75a3.65 3.65 0 0 1 0 1v1.16s0 .86.05 1.28a.15.15 0 0 1 0 .07c.2 3.73.76 7 2 8.73l.34-.53.52-.76.59-.78c.1-.14.21-.27.32-.4a33.73 33.73 0 0 1 7.58-7l.4-.28c.27-.19.52-.35.75-.49-2.46-6 2.66-12.26 7-17 4.07-4.89 7.46-9.22 10.43-15.13-.31-1.39-.62-2.86-1-4.39 0 0 0 0 0-.07-1.17-4.65-3.79-10.2-3.37-14.41 0 0 0-.09 0-.14a13.85 13.85 0 0 1 -4.51-1.3c.45-.44.88-.87 1.26-1.31s.62-.75.91-1.14a.47.47 0 0 0 .09-.12 13.1 13.1 0 0 0 2.45-6.38 14.07 14.07 0 0 0 .28 1.95 16.1 16.1 0 0 0 2.2 5.58 44.89 44.89 0 0 0 6.63 4.59c.22.13.44.26.67.38.1-.67.17-1.33.24-2a39.59 39.59 0 0 0 -1.65-16.45zm-24.8-18.09h-.3a9.77 9.77 0 0 1 -2.6-.36q-.85-.27-1.62-.57a11 11 0 0 1 .36 3.4c0 .29 0 .57-.07.86-.46 3.75-2.54 6.68-4.94 7.24a3.65 3.65 0 0 1 -1.32.09c-2.73-.33-4.61-3.71-4.43-7.75 0-.28 0-.56.07-.86.44-3.62 2.41-6.49 4.73-7.2a6.09 6.09 0 0 1 -.8-2.84c0-.7.19-1.13.51-1.23s.67.25 1 .68c2 3 3.23 4.63 8.13 7.11l.23.11.52.27.31.13.36.13h.07c.37.09.37.33.37.4s-.13.37-.58.39zm.64 18.42v-.05z" fill="#e9596b"/><path d="m30.74 72.65c-1.41 5.94-1.87 12.21-2.21 19.15.49 6-3.71 6.85-8.21 7.39-6.06.68-7.73 1.84-11.15-10.74-2.85-13 3-14 9.85-18.33h.06c.58-.39 1.17-.81 1.78-1.25a6.73 6.73 0 0 0 6.9 1.45c.88-.27 1.68-.51 2.43-.71l1.09.77c-.16.72-.36 1.5-.54 2.27z" fill="#ff848c"/><path d="m51.44 47.81v-.05z" fill="#f6bbc3"/><path d="m51.44 47.81v-.05z" fill="#f6bbc3"/><circle cx="39.14" cy="32.48" fill="#fff" r=".96"/><path d="m26.47 39.24c-1.28.26-2.68-1.28-3.13-3.46s.23-4.15 1.5-4.41 2.68 1.28 3.13 3.46-.22 4.17-1.5 4.41z" fill="#fff"/><path d="m30 34.31a10.21 10.21 0 0 0 -.25-1.89 9.6 9.6 0 0 0 -2.85-5.13 5.9 5.9 0 0 0 -1.31-.9 6.12 6.12 0 0 1 -.39.5 13 13 0 0 1 -4.65 3.28q-.54.25-1.11.48l-.22.08a8.68 8.68 0 0 0 -.1 1.92 0 0 0 0 0 0 0 9.63 9.63 0 0 0 .08 1.06 1.13 1.13 0 0 0 0 .18c0 .31.09.6.16.91a9.57 9.57 0 0 0 2.82 5.2 4.67 4.67 0 0 0 3.58 1.35 3.35 3.35 0 0 0 .44-.07 3.74 3.74 0 0 0 .93-.36 5.1 5.1 0 0 0 2.17-2.62 8.77 8.77 0 0 0 .6-2.3c0-.15 0-.31 0-.47.1-.42.1-.82.1-1.22zm-3.48 4.93c-1.28.26-2.68-1.28-3.13-3.46s.23-4.15 1.5-4.41 2.68 1.28 3.13 3.46-.27 4.17-1.55 4.41z" fill="#fff"/><path d="m26.47 39.24c-1.28.26-2.68-1.28-3.13-3.46s.23-4.15 1.5-4.41 2.68 1.28 3.13 3.46-.22 4.17-1.5 4.41z" fill="#1d1e1c"/><circle cx="25.93" cy="33.29" fill="#fff" r="1.06"/><path d="m25.53 26.38a6.12 6.12 0 0 1 -.39.5 13 13 0 0 1 -4.65 3.28q-.54.25-1.11.48l-.22.08a9.45 9.45 0 0 1 -1.05.31 9.3 9.3 0 0 1 -1.6.22c-.41 0-.5-.21-.52-.3s0-.3.34-.44h.06a1.94 1.94 0 0 0 .3-.13l.36-.18.49-.31.21-.13c.41-.26.81-.5 1.16-.74.63-.42 1.18-.81 1.66-1.19l.08-.07.23-.17a14.08 14.08 0 0 0 3.23-3.63c.39-.61.75-1.26 1.15-2 .24-.44.51-.84.89-.75.23.05.41.28.51.66a3.15 3.15 0 0 1 .1.5 6.25 6.25 0 0 1 -1.23 4.01z" fill="#1d1e1c"/><path d="m51.3 29.09c0 .09-.08.32-.53.34h-.3a9.77 9.77 0 0 1 -2.6-.36q-.85-.27-1.62-.57c-.28-.1-.55-.22-.81-.33a9.81 9.81 0 0 1 -4.79-3.87 6.09 6.09 0 0 1 -.8-2.84c0-.7.19-1.13.51-1.23s.67.25 1 .68c2 3 3.23 4.63 8.13 7.11l.23.11.52.27.31.13.36.13h.07c.32.12.32.34.32.43z" fill="#1d1e1c"/><path d="m44.44 60.4a56.76 56.76 0 0 1 -8.38 1.6c-.12 0-.25 0-.37 0l-1 .09a42.28 42.28 0 0 1 -6.79-.13h-.07a5.89 5.89 0 0 1 3.71-3.23 9.59 9.59 0 0 1 2.88-.39 16.9 16.9 0 0 1 4.88 1.16l1 .35a12.19 12.19 0 0 0 2.53.57 10.73 10.73 0 0 0 1.61-.02z" fill="#ff848c"/><path d="m21.47 62.2v.07a.1.1 0 0 1 0-.05z" fill="#f9bcc4"/><path d="m21.47 62.2v.07a.1.1 0 0 1 0-.05z" fill="#f9bcc4"/><path d="m53.53 61a7.52 7.52 0 0 0 -.69-.46 35.87 35.87 0 0 0 -1.22-9.83c-1.75-5.84-5.63-7.84-11.74-6.35-4.45 1.34-8.63 1.51-13.66 1.47-3.4-.08-6.54.32-8.46 1.8-1.67 1.31-2.42 3.44-1.59 6.81 1.23 3.83 4 6.06 4.95 7.93-2.46 1.63-2.12 4.55-.26 6.47a6.73 6.73 0 0 0 6.9 1.45c.88-.27 1.68-.51 2.43-.71l1.44-.39c5.52-1.41 8-1.12 17.17 0 6.95.81 8.37-5.1 4.73-8.19zm-7.77-.91-1.24.26a56.76 56.76 0 0 1 -8.46 1.65c-.12 0-.25 0-.37 0l-1 .09a42.28 42.28 0 0 1 -6.79-.13h-.07c-1-.08-1.95-.17-2.8-.2a7.55 7.55 0 0 0 -3.57.47v.07a.1.1 0 0 1 0-.05c.31-5.05.14-10.92 9.83-11.7 10.84-.87 17.65 3.78 20.64 9.65a11.5 11.5 0 0 0 -6.17-.09z" fill="#f9bcc4"/><circle cx="41.02" cy="33.29" fill="#fff" r=".45"/><circle cx="24.08" cy="34.35" fill="#fff" r=".45"/></svg>