<svg enable-background="new 0 0 254.1 126.6" viewBox="0 0 254.1 126.6" xmlns="http://www.w3.org/2000/svg"><path d="m68.6 69.6c.6.7 1.2 1.3 1.8 1.9 4.8 4.8 10.5 8.8 16.8 13.2 6 3 4.3 7.5 2.2 12-2.9 6.1-2.7 8.4-16.6 4.3-13.9-4.9-11.5-11-11.6-20 0 0 0 0 0-.1-.1-2.6-.5-5.6-.6-8.3 4-1.1 1.5-.2 8-3z" fill="#ff848c"/><path d="m4.1 74c8.7-7.1 7.9-18.2 9.9-26 7.6-29.7 61.5-26.7 97.8-1.6 24.2 16.5 48.4 37.2 70.1 42.1-12.9 5.1-29.9 3.4-50-3.9-16.6-5.6-27.5-3-47.9 10-7.9 4.6-30 12.2-47.5 8.3-6.1-1.6-10.1-6.4-17.4-4.7z" fill="#e9596b"/><path d="m47.3 92.5c-10.4-.3-20.2-1.3-28.2 5.7-7.5 7.4-21.4.5-13.9-9 6.9-7.8 29.7-5.7 42.1 3.3z" fill="#f9bcc4"/><path d="m47.3 92.5c-13.1-14.1-29-22.1-42.7-18.7-6.1 1.8-6.4 14.4.6 15.3 13.7-5.6 28.7-1 42.1 3.4z" fill="#f9bcc4"/><path d="m65.4 72.6c3 0 6-.4 8.9-1.2 2 6.1 9.3 12 14.2 17.6 0 0 0 .1.1.1 9.1 10.7 12.8 20.6 31.4 11.9 17.8-9.6 15.4-12.2 12.2-22.6-2.5-7.7-5.3-14.8-14.2-12.2-10.6 1.4-20.3 2.4-29.8 1.7-4-.3-8.1-.9-12-1.9-2.4-1.2-3.6-4.4-5.4-7.5-1 5-2.8 9.7-5.4 14.1z" fill="#ff848c"/><path d="m46.1 26.8c14.7-17.6 24.7-16.2 37.1-25.2 8.9 3.4 18.8 8.8 24.2 19.2 4.3 8.7 9.3 15.3 15 19-4.1 1.3-7.8 3.5-10.8 6.5-19.5-13-41.1-20.3-65.5-19.5z" fill="#ff848c"/><ellipse cx="27.4" cy="54.5" fill="#fff" rx="10.9" ry="7.6" transform="matrix(.2496 -.9684 .9684 .2496 -32.1819 67.4113)"/><path d="m3.1 95.3c-.1-2.1.6-4.3 1.9-6 1.4-1.6 3.3-2.8 5.4-3.5 4.1-1.2 8.5-1.6 12.7-1.2 4.3.4 8.5 1.3 12.5 2.6 4.1 1.3 8 3 11.7 5.2-1.9-1-3.8-1.9-5.8-2.7s-4-1.5-6-2.1c-4.1-1.2-8.2-2.1-12.5-2.4-4.2-.5-8.5-.2-12.6 1-2 .6-3.9 1.7-5.3 3.3-1.3 1.6-2 3.7-2 5.8z" fill="#ef808b"/><ellipse cx="24.4" cy="58.7" fill="#1d1e1c" rx="3" ry="5"/><circle cx="24.4" cy="56.4" fill="#fff" r="1.6"/><circle cx="25.7" cy="59.2" fill="#fff" r=".8"/><path d="m254.1 76.4c-14-.4-25.4-.9-35.3 5.7-8.5 5.7-12.1 9.8-26.3 7.1 4.5.7 6.4 1.7 11.4 3.6 6.4 2.6 11.8 7.2 15.5 12.9 5.5 8.3 15.6 14 28.6 21-27.5-.1-81.7-9.1-89.6-40 12.1 2.9 17.9 1.8 23.4 1.9-5.2-.7-15.6-5.3-20.8-8.4 5.4.8 15.7-2.4 20.8-4.5 12.9-5.3 23.6-16.7 72.3.7z" fill="#ff848c"/><path d="m45.4 53.3c0 .2-.2.7-1 .7h-.6c-1.8 0-3.5-.3-5.2-.8-10.4-3.3-15.8-8.5-16-15.6 0-1.4.4-2.3 1-2.5s1.4.5 1.9 1.4c3.9 6.1 6.5 9.5 16.3 14.6l.5.2c.4.2.7.4 1 .5l.6.3c.2.1.5.2.7.3h.1c.7.2.7.7.7.9z" fill="#1d1e1c"/><g fill="#ff848c"><path d="m46.1 26.8c10.5-15.9 28.8-21.9 30.9-25.4l-6.1-1.4c-5 3.4-21.9 14.7-27.3 27z"/><path d="m64.9 1.1c-10.6 7-20.1 18.2-21.7 25.9l-1 .4s0 0 0-.1c1.5-8.9 12-19.8 21.7-26.4z"/></g></svg>