<svg enable-background="new 0 0 173.3 261.1" viewBox="0 0 173.3 261.1" xmlns="http://www.w3.org/2000/svg"><path d="m78.1 27.4s0 .1 0 0c32 4.6 43.7 23.7 52.7 44.3.4-6.6.2-13.2-.2-19.8l-.6-5.8c-.8-5.6-2.4-11-5-16l-3.1-4.9c-2.9-3.8-6.3-7.1-10.2-9.8l-4.4-2.9c-5-3-10.1-5.5-15.5-7.5-1.6-.7-3.3-1.3-5.1-1.9-3-1-5.9-1.9-9-2.5 5.2 7.6 7 14.3 6.3 21.4-1.7-6.9-5.6-13.6-13.6-20-1.9.6-3.8 1.5-5.6 2.5 10.4 7.5 14.5 15.1 13.3 22.9z" fill="#ff848c"/><path d="m60.4 11.7c9.2 1.2 13.9 7.4 16.7 15.6l.9.1s0 0 0-.1c-2.2-9.2-7.8-15.1-17.1-17z" fill="#ff848c"/><path d="m98.3 174c0 .1.1.2.2.3-.1-.2-.2-.3-.2-.3z" fill="#ef808b"/><path d="m.1 202.5c12.1-5.1 22.5-7.4 37.4-4.9 17.3 3.1 27.3 3.3 35.3-4.9-3 4.4-4.8 5.6-5.8 10-1.1 5.1.3 14.1 3 24.9 2.9 11.5.6 21.3-3.9 33.4 22.5-8.5 48.9-47.1 32.6-86.5-7.3 1.7-14.1 4.9-20 9.6-1-3-.2-8 1.3-13.5.2-1 1.1-3.5 1.6-5.2-5 3-10.8 3.4-17.1 3.4-16.7.1-37.9-2.2-64.4 33.7z" fill="#ff848c"/><path d="m53.7 92.7c4.3 2.8 11.1 2.5 17.8.3.5-.2 1-.3 1.4-.5l.9-.3c.3-.1.6-.2.9-.4l.8-.4c1.3-.6 2.5-1.3 3.8-2-10.2 2.2-18.6-5.1-25.6 3.3z" fill="#e85a6b"/><path d="m91.1 77.6.9.5c1-1.6 2.1-3.4 3.2-5.4l-.8-.6-.8-.6c-.3.4-.7.8-1.1 1.2l-.1.1-1 2.1c.7-.5 1.3-1 1.9-1.5.4-.4.8-.8 1.2-1.3-.5.9-1 1.8-1.5 2.6 0 .1-.1.2-.1.2l-.5.9-.2.4c-.1.2-.3.4-.4.7l-.1.2c-.1.1-.1.2-.2.3z" fill="#e85a6b"/><path d="m122.2 91.7c3.5 2 7.3 3.7 11.1 5 .9-8.4.1-16.8-2.5-24.9-8.7-24.8-25.9-41.6-53.7-44.5-.3 0-.5 0-.8 0-7.1 0-13 1.4-18.3 5.3-2.7 2-4.3 3.6-5.4 4.9-1.7.5-3.3 1.5-4.6 2.8-2.7 2.6-4.5 6-5.2 9.7-.6 2.7-.6 5.5 0 8.3-1.2 5.2-1.7 10.5-1.5 15.8 2 .5 4.1.7 6.1.6 1 0 1.9-.2 2.8-.5 1.3-.4 2.6-.9 3.7-1.7 7.8-4.8 18.5-5.8 28.4-3.8 8.9 1.7 12.6 1.4 16.4-4.9l-.2.7c-.1.2-.2.4-.2.6-1.5 4.1-2.6 5.4-4.8 15.7-2.2 14.3-13.9 25.1-28.3 26.1.2.1.3.2.5.3 26 19.7 29 41.4 16.4 57.6-.2.2-.4.5-.6.7-.9 2.5-1.4 4.4-1.6 5.2-1.5 5.4-2.3 10.4-1.3 13.5 5.9-4.6 12.7-7.9 20-9.6 0 0-.3-.5-.3-.7-3.7-9.1 4.1-19.1 10.7-26.2 7.8-9.4 14-17.4 19.3-30.7-3.3-6.7-8.8-14.2-9.2-20.7-3 0-6.1-.3-9-1.1 3.6-3.5 6.6-7.7 8.8-12.3.9 3.6 1.2 7 3.3 8.8zm-60.6-37.8c-.3 1.6-.9 3.1-1.6 4.5-.7 1.3-1.6 2.5-2.6 3.6-1.6 1.7-3.9 2.5-6.2 2.2-2-.4-3.7-2-4.8-4.4-1.2-2.9-1.4-6.1-.7-9.2.6-3.1 2.1-5.9 4.3-8.1 1.3-1.4 3.1-2.2 5-2.3.4 0 .8 0 1.1.1 2 .4 3.7 2 4.8 4.4 1.1 2.9 1.4 6.1.7 9.2zm19.9 6.5c-4.3 1-9-3.6-10.5-10.1s1-12.6 5.3-13.6c4.3-1 9 3.6 10.5 10.1s-1 12.6-5.3 13.6z" fill="#e9596b"/><path d="m49.1 84.6c.1 1.1.4 2.2.8 3.3.7 2 2.1 3.7 3.8 4.8 7-8.5 15.4-1.1 25.6-3.4 3-1.8 5.8-4 8.2-6.6.1-.2.3-.3.4-.5l.4-.5.1-.1c.4-.6.9-1.2 1.3-1.8 0 0 0-.1.1-.1.4-.7.9-1.3 1.4-2.1h.1c.1-.1.2-.2.2-.3l.2-.4c.1-.2.3-.4.4-.7l.2-.4.5-.9c0-.1.1-.1.1-.2.5-.8 1-1.7 1.5-2.6-.4.5-.8.9-1.2 1.3-.6.6-1.2 1.1-1.9 1.5-7.1 4.9-16.5 1.2-26.8 3.3-5.4 1.5-10.6 3.6-15.4 6.4z" fill="#e9596b"/><path d="m46.4 59.7c1 2.4 2.8 4 4.8 4.4 2.3.4 4.6-.4 6.2-2.1 1.1-1 2-2.2 2.6-3.6.7-1.4 1.3-3 1.6-4.5.7-3 .5-6.2-.7-9.1-1-2.4-2.8-4-4.8-4.4-.4-.1-.7-.1-1.1-.1-1.9.1-3.7.9-5 2.3-2.2 2.2-3.7 5-4.3 8.1-.7 2.9-.4 6.1.7 9z" fill="#fff"/><path d="m71 50.2c1.4 6.5 6.1 11.1 10.5 10.1s6.7-7 5.3-13.6-6.1-11.1-10.4-10.1-6.8 7.1-5.4 13.6z" fill="#fff"/><ellipse cx="55.9" cy="54.9" fill="#1d1e1c" rx="6.1" ry="3.6" transform="matrix(.06505481 -.9979 .9979 .06505481 -2.549 107.0577)"/><ellipse cx="77.3" cy="53" fill="#1d1e1c" rx="3.7" ry="6.1" transform="matrix(.977 -.2134 .2134 .977 -9.5251 17.7146)"/><path d="m57.7 106.6-25 23.4c-11.5-2.7-20.6-17-19.4-26.8 5 1.2 7.1-.4 5.7-5.5-1-6.1-1.7-12 2.6-14.7 1.8.9 4.3 2.4 5.1 5-.4 22.4 14.2 28.4 24.5 16.8z" fill="#ff848c"/><path d="m110.1 95.3c2.9.8 6 1.2 9 1.1.4 6.4 5.9 14 9.2 20.7v.1c6 12.6 7 23.2 27.2 19.6 19.7-4.7 18.1-7.8 17.6-18.7-.4-8.1-1.3-15.7-10.6-15.4-10.6-1.4-20.2-2.9-29.2-6.1-3.8-1.3-7.6-3-11.1-5-2-1.8-2.4-5.2-3.2-8.7-2.3 4.7-5.3 8.8-8.9 12.4z" fill="#ff848c"/><g fill="#f9bcc4"><path d="m14.4 125.5c-3 2.5-2.7 7.2-.9 10.1 1 .7 2.3.6 3.7 0 3.7-1.1 7.6-1.7 11.5-1.7 2.2.4 3.5-.6 3.9-3.1.3-1.7-2.1-3.4-2.9-4.2z"/><path d="m32.7 121.5c1.1 1.4.4 6.4-.9 7.1-3.6 0-13.8-.1-13.8-.1-11.2.5-9.6-13.3-7.8-14.9l22 8.2z"/><path d="m13.4 103.2s6.4 5.6 14 6.8c5.3.9 6.9 6.3 6.9 6.3 0 1.4 0 7.4-5.6 5.6l-17.2-7.1c-3.9-2.3-4.8-6-1.9-11.6 1.1-1.1 2.3-1.3 3.8 0z"/></g><path d="m94.3 72.2c.1-.2.3-.4.4-.6 0-.1.1-.2.2-.2.5-.6.9-1.3 1.2-1.9.1-.2.2-.4.4-.7.3-.6.7-1.3 1-2 .3-.6.5-1.1.7-1.8.1-.2.2-.4.2-.6l.2-.7c-1.4 3-2.9 5.9-4.3 8.5z" fill="#f6bbc3"/><path d="m39.3 87.9c1 0 2-.1 3-.4-1.4 8.4 2.1 14.2 8.9 17.2.5.2.9.4 1.4.6 1.7.5 3.4 1 5.1 1.3 2.5.4 4.9.5 7.4.3 14.4-1 26.2-11.9 28.3-26.1 2.3-10.4 3.3-11.6 4.8-15.7-.2.6-.5 1.2-.7 1.8-.3.7-.7 1.4-1 2-.1.2-.2.4-.4.7-.4.7-.8 1.3-1.2 1.9-.1.1-.1.2-.2.2-.1.2-.3.3-.4.5v.1c-.5.9-1 1.8-1.5 2.6 0 .1-.1.2-.1.2l-.5.9-.2.3c-.1.2-.3.4-.4.7l-.1.2c-.1.1-.1.2-.2.3-.5.7-.9 1.4-1.4 2.1 0 0 0 .1-.1.1-.4.6-.9 1.2-1.3 1.8l-.1.1-.4.5c-.1.2-.3.3-.4.5-2.4 2.6-5.1 4.8-8.2 6.6-1.2.7-2.5 1.4-3.8 2l-.8.4c-.3.1-.6.3-.9.4l-.9.3c-.5.2-1 .4-1.4.5-6.8 2.5-13.6 2.8-17.9 0-1.8-1.1-3.1-2.8-3.8-4.8-.4-1.1-.7-2.2-.8-3.3 4.8-2.9 10-5 15.4-6.2 10.2-2.2 19.6 1.6 26.8-3.3.7-.5 1.3-1 1.9-1.5.4-.4.8-.8 1.2-1.3 0 0 0 0 0-.1 1.5-2.6 2.9-5.5 4.4-8.4-3.8 6.3-7.5 6.7-16.4 4.9-9.8-2.1-20.5-1.1-28.3 3.8-1.1.8-2.4 1.4-3.7 1.8-.9.3-1.9.4-2.8.5-2.1 0-4.1-.2-6.2-.6-7.6 3-7.2 13.6-2.1 13.6z" fill="#f9bcc4"/><path d="m94.3 72.2c.1-.2.3-.4.4-.6 0-.1.1-.2.2-.2.5-.6.9-1.3 1.2-1.9.1-.2.2-.4.4-.7.3-.6.7-1.3 1-2 .3-.6.5-1.1.7-1.8.1-.2.2-.4.2-.6l.2-.7c-1.4 3-2.9 5.9-4.3 8.5z" fill="#f6bbc3"/><path d="m70.6 33.5c.2.2.8.1 1.6-.4 1.1-.6 2.2-1.1 3.5-1.4.3-.1.6-.1 1-.2s.8-.1 1.1-.1c.9 0 1.8.1 2.7.4 1 .3 1.9.8 2.8 1.3.5.3.9.6 1.4 1 .4.4.9.7 1.3 1.1.8.7 1.4 1.6 2 2.5.3.4.5.9.7 1.3s.4.8.5 1.2c.1.3.2.7.3 1 .1.5.3 0 .3-.6 0-.5-.1-.9-.2-1.4-.1-.6-.3-1.1-.5-1.7-.2-.5-.4-1.1-.6-1.6-.4-1-1-2-1.7-2.8-.3-.4-.7-.8-1-1.2s-.7-.7-1-1.1c-.4-.4-.7-.7-1.2-1-.4-.3-.8-.6-1.2-.8-.8-.5-1.8-.9-2.7-1.1-.5-.1-.9-.2-1.4-.2-.2 0-.5 0-.7 0s-.5 0-.7 0c-.9.1-1.8.4-2.7.7-.8.4-1.6.9-2.2 1.6-.4.5-.8 1-1.1 1.6-.5 1-.5 1.6-.3 1.9z" fill="#1d1e1c"/><path d="m43.3 44.2c.1-.3.2-.7.3-1 .1-.4.3-.8.5-1.2s.4-.8.7-1.3c.5-.9 1.1-1.7 1.8-2.4.4-.4.8-.7 1.2-1.1s.8-.7 1.2-1c.8-.5 1.6-1 2.5-1.2.8-.2 1.6-.4 2.3-.3.3 0 .7 0 1 .1l.5.1.4.1c1.1.3 2.1.7 3.1 1.3.7.4 1.2.6 1.4.4s.2-.8-.3-1.7c-.3-.6-.6-1.1-1-1.5-.2-.3-.5-.5-.8-.8-.4-.3-.8-.5-1.2-.8-.7-.4-1.5-.6-2.4-.7-.2 0-.4-.1-.6-.1h-.6c-.4 0-.8.1-1.2.2-.9.2-1.7.6-2.4 1-.4.2-.8.5-1.1.8-.4.3-.7.6-1 1-.3.3-.6.7-.9 1.1s-.6.8-.9 1.2c-.6.9-1.1 1.8-1.5 2.8-.2.5-.4 1-.5 1.5-.2.5-.3 1.1-.4 1.6-.1.4-.2.9-.3 1.3-.1.6.1 1 .2.6z" fill="#1d1e1c"/><circle cx="75.6" cy="49.8" fill="#fff" r="1.2"/><circle cx="54.9" cy="51.7" fill="#fff" r="1.3"/><path d="m54.9 93.4c7.6 3.7 20-1.1 24.3-4.1-5.5 1.7-9.8-1.5-15.4-1.6-3.2.1-7.2 2.6-8.9 5.7z" fill="#ff848c"/></svg>