<svg viewBox="0 0 170.71 137.44" xmlns="http://www.w3.org/2000/svg"><path d="m158.55 16.81c-10.4-.58-14.82.37-38.27 11.79a20.66 20.66 0 0 1 -7 2c-.82-3 .66-9.74 3.75-19.09 1.1-5.45-3.23-7.67-9.66-10.8-5.86-3-16.09 4.39-26 15.49-3 3.56-7.64 5.28-12.83 5.73a69.27 69.27 0 0 0 -21.78 5.86l-22.2 10c-7.65 3.33-14.6 6.48-15.67 16a127.46 127.46 0 0 1 -8.89 33.21c7.46 3.56 13.77 9.42 18.65 18.08 5.77 10 8.24 15 18.65 18.07 8.33 2.32 13 7.13 14.25 14.3a91.29 91.29 0 0 1 19.5-2.58c19.2-1.63 27.6-7.55 32.07-18.2 3.88-9.39 10.49-14.17 20.28-19.82 8.41-6.07 13.69-8.52 17-25.51 2.36-14.41 3.52-21.37 15.55-23 10.38-1.63 10.36-5 13-13.51 4.05-15.13 1.57-16.91-10.4-18.02zm4.81 11.81c.86 14.39-6.75 13.79-32.2 17.52 7.26-19 6-20.07 27-23.24 5.63-.74 4.84.58 5.2 5.72zm-60.72-18.62c4.78-2.25 5.36 0 5.11 3.75l-1.21 17.09c-8.47.05-8.5-2-12.59-14.18a31.17 31.17 0 0 1 8.69-6.66z" fill="#d8dfff"/><path d="m145.83 21.83c-18.09 6.78-24.91 39.31-37.57 35.58-5.21-2.71-8-10.84-16.83-1-2.65 3.19-22.81 21.67-38.87 22.37-6.65.77 1.58-16.75-19.11-7.55-8.88 3.24-8.79-28.18-12.18-26.7-6.81 3-8.7 6.85-9.64 15.31-.66 6.77.13 13.67-7.69 26.06 9.16 3.67 15.91 12 20.26 19.74 5.13 8.86 9.13 10.14 18.38 12.9 7.41 2.06 9.77 9.5 10.86 15.88a81 81 0 0 1 17.33-2.3c17.07-1.45 24.53-6.7 28.51-16.18 3.12-8.43 7.84-16.31 21-22.12 7.24-3.47 9.18-3.06 12.09-18.16 2.1-12.83 12-27.44 22.69-28.92 9.23-1.45 9.22-4.45 11.54-12 3.63-13.41 4.81-18.52-20.77-12.91zm17.53 6.79c.86 14.39-6.75 13.79-32.2 17.52 7.26-19 6-20.07 27-23.24 5.63-.74 4.84.58 5.2 5.72z" fill="#bac6fe"/></svg>